<?xml version="1.0" encoding="utf-8"?>
<!-- Generator: Adobe Illustrator 16.0.4, SVG Export Plug-In . SVG Version: 6.00 Build 0)  -->
<!DOCTYPE svg PUBLIC "-//W3C//DTD SVG 1.1//EN" "http://www.w3.org/Graphics/SVG/1.1/DTD/svg11.dtd">
<svg version="1.1" id="Calque_1" xmlns="http://www.w3.org/2000/svg" xmlns:xlink="http://www.w3.org/1999/xlink" x="0px" y="0px"
	 width="912.092px" height="360.036px" viewBox="355.274 260.301 912.092 360.036"
	 enable-background="new 355.274 260.301 912.092 360.036" xml:space="preserve">
<g>
	<g>
		<path fill="#0066CC" d="M541.362,277.931c-89.683,0-162.347,72.695-162.347,162.347s72.695,162.347,162.347,162.347
			c89.651,0,162.346-72.695,162.346-162.347C703.708,350.625,631.044,277.931,541.362,277.931z"/>
		<circle fill="#002352" cx="541.362" cy="440.277" r="149.358"/>
		<g>
			<g opacity="0.3">
				<g>
					<path fill="#FFFFFF" d="M567.911,535.922c-0.413,0-0.824-0.047-1.188-0.197c-14.582-4.285-24.089-10.1-33.963-20.689
						c-12.752-13.696-19.791-31.974-19.791-51.434c0-16.012,12.616-29.019,28.156-29.019c15.542,0,28.157,13.007,28.157,29.019
						c0,10.543,8.548,19.162,19.015,19.162c10.467,0,19.015-8.57,19.015-19.162c0-37.146-29.71-67.346-66.231-67.346
						c-26.009,0-49.73,15.568-60.427,39.709c-3.565,7.981-5.348,17.293-5.348,27.637c0,7.686,0.64,19.805,6.08,35.52
						c0.869,2.561-0.319,5.37-2.697,6.356c-2.377,0.936-4.982-0.345-5.896-2.907c-4.48-12.957-6.673-25.667-6.673-38.969
						c0-11.822,2.103-22.564,6.262-31.875c12.204-27.489,39.172-45.273,68.655-45.273c41.548,0,75.372,34.634,75.372,77.197
						c0,16.012-12.661,29.018-28.156,29.018c-15.495,0-28.157-13.006-28.157-29.018c0-10.542-8.547-19.165-19.013-19.165
						c-10.468,0-19.016,8.573-19.016,19.165c0,16.8,6.08,32.613,17.096,44.438c8.639,9.26,17.05,14.383,29.938,18.177
						c2.423,0.74,3.886,3.448,3.201,6.06C571.75,534.493,569.922,535.922,567.911,535.922L567.911,535.922L567.911,535.922z
						 M586.33,515.576c-10.878,0-20.431-2.957-28.339-8.72c-13.575-9.951-21.711-26.11-21.711-43.255
						c0-2.71,2.057-4.927,4.572-4.927c2.514,0,4.57,2.217,4.57,4.927c0,13.844,6.627,26.948,17.735,35.077
						c6.445,4.729,14.032,7.045,23.174,7.045c2.194,0,5.896-0.246,9.553-0.938c2.469-0.49,4.847,1.333,5.303,3.993
						c0.458,2.66-1.234,5.22-3.704,5.715C592.136,515.525,587.61,515.576,586.33,515.576L586.33,515.576L586.33,515.576z
						 M520.831,533.804c-1.188,0-2.332-0.493-3.245-1.479c-7.908-8.62-12.205-14.088-18.375-25.961
						c-6.309-12.119-9.645-26.948-9.645-42.812c0-29.262,23.219-53.107,51.787-53.107c28.568,0,51.787,23.794,51.787,53.107
						c0,2.709-2.056,4.927-4.57,4.927c-2.515,0-4.571-2.218-4.571-4.927c0-23.845-19.105-43.256-42.646-43.256
						c-23.495,0-42.646,19.411-42.646,43.256c0,14.188,2.925,27.291,8.456,37.982c5.896,11.331,9.828,16.209,16.866,23.846
						c1.783,1.92,1.783,5.073-0.045,6.945C523.161,533.362,521.973,533.804,520.831,533.804L520.831,533.804L520.831,533.804z
						 M463.65,414.928c-0.914,0-1.829-0.295-2.652-0.887c-2.057-1.578-2.559-4.631-1.097-6.848
						c9.051-13.795,20.614-24.631,34.327-32.268c28.751-16.014,65.501-16.061,94.297-0.1c13.666,7.589,25.186,18.327,34.282,32.022
						c1.462,2.217,1.005,5.271-1.052,6.848c-2.057,1.577-4.937,1.084-6.399-1.133c-8.228-12.415-18.649-22.169-30.99-28.967
						c-26.237-14.534-59.741-14.483-85.931,0.098c-12.388,6.896-22.855,16.702-31.037,29.214
						C466.482,414.238,465.065,414.928,463.65,414.928L463.65,414.928L463.65,414.928z M594.467,363.201
						c-0.732,0-1.417-0.197-2.102-0.542c-17.507-9.755-32.729-13.942-50.92-13.942c-18.146,0-35.241,4.68-50.919,13.893
						c-2.239,1.281-4.981,0.443-6.216-1.971c-1.188-2.414-0.412-5.37,1.828-6.7c17.049-10.001,35.653-15.075,55.308-15.075
						c19.472,0,36.477,4.631,55.124,15.026c2.241,1.231,3.109,4.236,1.967,6.649C597.712,362.216,596.112,363.201,594.467,363.201
						L594.467,363.201L594.467,363.201z"/>
				</g>
			</g>
			<g>
				<path fill="#FFFFFF" d="M486.138,353.915c-2.239,1.33-3.016,4.286-1.828,6.7c1.234,2.414,3.977,3.252,6.216,1.971
					c15.653-9.197,32.719-13.876,50.835-13.891v-9.854C521.738,338.856,503.163,343.931,486.138,353.915z"/>
				<path fill="#FFFFFF" d="M494.228,374.902c-13.712,7.637-25.277,18.476-34.327,32.27c-1.463,2.217-0.96,5.271,1.096,6.846
					c0.823,0.592,1.737,0.89,2.651,0.89c1.417,0,2.834-0.69,3.748-2.021c8.183-12.514,18.649-22.317,31.037-29.215
					c13.089-7.289,28.004-10.945,42.928-10.968v-9.841C524.98,362.882,508.604,366.896,494.228,374.902z"/>
				<path fill="#FFFFFF" d="M541.354,410.424c-28.568,0-51.787,23.845-51.787,53.106c0,15.864,3.337,30.693,9.645,42.812
					c6.169,11.873,10.467,17.34,18.375,25.961c0.914,0.985,2.057,1.479,3.245,1.479c1.142,0,2.331-0.441,3.153-1.479
					c1.829-1.872,1.829-5.025,0.045-6.945c-7.039-7.636-10.97-12.515-16.866-23.846c-5.53-10.691-8.456-23.796-8.456-37.982
					c0-23.844,19.152-43.255,42.646-43.255c0.003,0,0.006,0.001,0.008,0.001v-9.853
					C541.359,410.424,541.356,410.424,541.354,410.424z"/>
				<path fill="#FFFFFF" d="M541.034,386.431c-29.483,0-56.45,17.785-68.655,45.274c-4.16,9.311-6.262,20.051-6.262,31.875
					c0,13.302,2.193,26.012,6.673,38.969c0.914,2.561,3.52,3.843,5.896,2.905c2.378-0.984,3.566-3.794,2.697-6.354
					c-5.439-15.716-6.08-27.837-6.08-35.521c0-10.347,1.783-19.657,5.348-27.639c10.697-24.139,34.418-39.706,60.427-39.706
					c0.095,0,0.188,0.002,0.282,0.004v-9.804C541.251,386.436,541.143,386.431,541.034,386.431z"/>
				<path fill="#FFFFFF" d="M536.28,463.58c0,8.032,1.786,15.849,5.082,22.913v-27.807c-0.168-0.021-0.338-0.033-0.512-0.033
					C538.337,458.653,536.28,460.869,536.28,463.58z"/>
				<path fill="#FFFFFF" d="M539.16,508.064c-11.016-11.822-17.096-27.637-17.096-44.438c0-10.59,8.547-19.162,19.016-19.162
					c0.095,0,0.188,0.006,0.282,0.006v-9.904c-0.08,0-0.157-0.006-0.237-0.006c-15.541,0-28.157,13.006-28.157,29.017
					c0,19.461,7.039,37.738,19.792,51.435c2.854,3.061,5.678,5.71,8.601,8.053v-12.735
					C540.627,509.601,539.894,508.854,539.16,508.064z"/>
			</g>
			<line fill="none" stroke="#FFFFFF" stroke-miterlimit="10" x1="541.362" y1="320.231" x2="541.362" y2="554.729"/>
		</g>
	</g>
	<g>
		<path fill="#002352" d="M780.324,503.21V386.256h37.913c14.834,0,26.896,4.633,36.188,13.896
			c9.29,9.266,13.936,21.18,13.936,35.745v17.752c0,14.619-4.646,26.535-13.936,35.744c-9.291,9.212-21.354,13.816-36.188,13.816
			H780.324z M799.843,401.92v85.627h17.832c9.692,0,17.31-3.157,22.853-9.47c5.543-6.313,8.313-14.472,8.313-24.477v-17.896
			c0-9.897-2.771-18.003-8.313-24.315c-5.543-6.313-13.16-9.47-22.853-9.47H799.843z"/>
		<path fill="#002352" d="M906.756,395.012h-19.52v-17.109h19.52V395.012z M906.756,503.21h-19.52v-86.912h19.52V503.21z"/>
		<path fill="#002352" d="M925.07,460.959c0-13.816,3.023-24.981,9.076-33.496c6.051-8.515,14.459-12.771,25.223-12.771
			c5.193,0,9.759,1.112,13.695,3.334c3.936,2.223,7.27,5.422,10,9.599l1.928-11.326h16.226v86.912
			c0,11.191-3.454,19.841-10.362,25.945c-6.907,6.104-16.707,9.157-29.398,9.157c-4.23,0-8.796-0.603-13.695-1.808
			c-4.9-1.205-9.332-2.799-13.294-4.779l4.177-15.342c3.213,1.659,6.76,2.958,10.643,3.896c3.883,0.937,7.885,1.405,12.01,1.405
			c7.068,0,12.235-1.514,15.502-4.538c3.266-3.026,4.9-7.671,4.9-13.937v-8.916c-2.731,3.481-5.958,6.118-9.68,7.912
			c-3.723,1.793-7.992,2.69-12.812,2.69c-10.657,0-19.011-3.882-25.062-11.646c-6.053-7.765-9.076-17.966-9.076-30.604V460.959z
			 M944.589,462.646c0,7.979,1.593,14.366,4.779,19.158c3.185,4.793,8.126,7.188,14.819,7.188c4.178,0,7.697-0.869,10.563-2.61
			c2.864-1.739,5.181-4.243,6.948-7.511v-38.074c-1.821-3.159-4.164-5.635-7.029-7.43c-2.865-1.794-6.305-2.691-10.321-2.691
			c-6.694,0-11.661,2.812-14.9,8.435c-3.241,5.623-4.859,12.906-4.859,21.849V462.646z"/>
		<path fill="#002352" d="M1042.586,395.012h-19.52v-17.109h19.52V395.012z M1042.586,503.21h-19.52v-86.912h19.52V503.21z"/>
		<path fill="#002352" d="M1102.026,461.28h-42.171v-15.664h42.171V461.28z"/>
		<path fill="#002352" d="M1141.546,503.21h-19.519V386.256h19.519V503.21z"/>
		<path fill="#002352" d="M1168.214,503.21V386.256h37.914c14.832,0,26.895,4.633,36.187,13.896
			c9.29,9.266,13.937,21.18,13.937,35.745v17.752c0,14.619-4.646,26.535-13.937,35.744c-9.292,9.212-21.354,13.816-36.187,13.816
			H1168.214z M1187.733,401.92v85.627h17.832c9.691,0,17.311-3.157,22.853-9.47c5.542-6.313,8.313-14.472,8.313-24.477v-17.896
			c0-9.897-2.771-18.003-8.313-24.315c-5.542-6.313-13.161-9.47-22.853-9.47H1187.733z"/>
	</g>
</g>
</svg>
