<?xml version="1.0" encoding="utf-8"?>
<!-- Generator: Adobe Illustrator 16.0.4, SVG Export Plug-In . SVG Version: 6.00 Build 0)  -->
<!DOCTYPE svg PUBLIC "-//W3C//DTD SVG 1.1//EN" "http://www.w3.org/Graphics/SVG/1.1/DTD/svg11.dtd">
<svg version="1.1" id="Calque_1" xmlns="http://www.w3.org/2000/svg" xmlns:xlink="http://www.w3.org/1999/xlink" x="0px" y="0px"
	 width="400px" height="400px" viewBox="0 0 400 400" enable-background="new 0 0 400 400" xml:space="preserve">
<path id="XMLID_1_" fill="none" stroke="#2897D4" stroke-miterlimit="10" d="M45.111,244"/>
<path id="XMLID_26_" fill="none" stroke="#2897D4" stroke-miterlimit="10" d="M246.223,193.333c0,0,24.889,48.222-34.889,66.889"/>
<g>
	<path fill="#2897D4" d="M199.836,164.2c-0.257,5.268-0.897,9.906-1.92,13.913c-1.332,5.182-3.306,9.188-5.923,12.021
		c-1.352,1.506-2.907,2.712-4.663,3.624c-1.756,0.909-3.665,1.488-5.728,1.735c-1.891,0.226-3.767,0.158-5.629-0.199
		c-0.865-0.166-1.708-0.399-2.532-0.697c-0.824-0.298-1.631-0.649-2.421-1.053c-2.506-1.378-4.355-3.188-5.546-5.432
		c-0.661-1.219-1.064-2.508-1.209-3.864c-0.145-1.358-0.039-2.743,0.317-4.158c0.114-0.454,0.362-0.791,0.741-1.012
		c0.378-0.222,0.794-0.274,1.248-0.159c0.454,0.115,0.797,0.363,1.032,0.744c0.235,0.381,0.294,0.798,0.18,1.252
		c-0.52,1.971-0.348,3.809,0.514,5.514c0.861,1.705,2.293,3.1,4.296,4.184c1.217,0.655,2.561,1.123,4.033,1.406
		c1.471,0.283,2.964,0.34,4.48,0.169c1.516-0.17,3.012-0.597,4.485-1.278c1.475-0.682,2.8-1.68,3.977-2.993
		c2.026-2.241,3.628-5.369,4.806-9.382c1.177-4.013,1.896-8.808,2.158-14.383c0.044-1.11,0.076-2.182,0.093-3.214
		c0.016-1.033,0.021-2.039,0.014-3.021c-0.175,0.471-0.349,0.941-0.523,1.411c-0.174,0.471-0.363,0.938-0.564,1.403
		c-1.514,3.656-3.179,6.498-4.997,8.527c-1.107,1.243-2.307,2.173-3.602,2.792c-1.509,0.717-3.022,0.944-4.538,0.68
		c-1.123-0.132-2.154-0.515-3.097-1.149c-0.86-0.618-1.583-1.366-2.17-2.245c-2.075-3.178-2.69-8.421-1.845-15.732
		c0.169-1.311,0.351-2.549,0.547-3.714c0.196-1.166,0.392-2.185,0.588-3.056c0.195-0.873,0.358-1.569,0.486-2.09
		c0.128-0.521,0.197-0.808,0.208-0.862c0.142-0.448,0.404-0.79,0.784-1.025c0.381-0.234,0.795-0.281,1.245-0.138
		c0.453,0.115,0.796,0.37,1.028,0.764c0.232,0.395,0.276,0.815,0.134,1.265c-0.251,1.015-0.472,1.944-0.662,2.79
		c-0.19,0.845-0.379,1.824-0.564,2.935c-0.187,1.113-0.358,2.297-0.515,3.553c-0.357,2.871-0.44,5.415-0.25,7.635
		c0.175,2.58,0.709,4.53,1.604,5.85c0.714,1.089,1.694,1.739,2.941,1.95c1.77,0.257,3.507-0.557,5.212-2.439
		c1.6-1.764,3.063-4.282,4.391-7.552c0.61-1.421,1.134-2.839,1.574-4.252c0.439-1.413,0.808-2.679,1.107-3.797
		c0.298-1.118,0.597-2.375,0.894-3.773c0.078-0.405,0.274-0.738,0.59-0.999c0.316-0.261,0.681-0.379,1.097-0.356
		c0.388,0.018,0.731,0.161,1.03,0.428c0.298,0.268,0.479,0.603,0.542,1.006c0.01,0.086,0.064,0.573,0.16,1.458
		c0.095,0.887,0.189,2.073,0.28,3.559c0.092,1.488,0.152,3.215,0.181,5.178C199.959,159.886,199.927,161.979,199.836,164.2z"/>
	<path fill="#2897D4" d="M210.003,177.909c-0.217-0.042-0.444-0.091-0.685-0.153c-0.24-0.059-0.466-0.124-0.677-0.192
		c-2.021-0.696-3.585-1.879-4.69-3.547c-0.492-0.793-0.857-1.661-1.095-2.603l-0.083-0.226c-0.264-1.254-0.297-2.604-0.104-4.05
		c0.16-0.977,0.444-1.909,0.854-2.796c0.408-0.887,0.937-1.702,1.582-2.445c1.218-1.389,2.675-2.41,4.368-3.064
		c0.698-0.286,1.415-0.484,2.15-0.594c0.734-0.111,1.46-0.14,2.178-0.085c1.543,0.128,2.883,0.653,4.021,1.571
		c1.139,0.919,1.935,2.163,2.389,3.734c0.47,1.629,0.521,3.472,0.154,5.528c-0.041,0.357-0.188,0.657-0.445,0.901
		c-0.258,0.245-0.561,0.403-0.911,0.476l-12.243,1.886c0.437,0.644,0.938,1.132,1.503,1.464c0.565,0.333,1.046,0.564,1.44,0.696
		c1.103,0.38,2.188,0.478,3.26,0.292c0.878-0.195,1.444-0.52,1.699-0.975c0.218-0.406,0.54-0.666,0.969-0.78
		c0.428-0.113,0.844-0.061,1.25,0.156c0.405,0.219,0.673,0.543,0.8,0.973c0.127,0.43,0.081,0.849-0.137,1.254
		c-0.766,1.364-2.08,2.231-3.941,2.601c-0.582,0.112-1.174,0.167-1.774,0.162C211.233,178.091,210.623,178.028,210.003,177.909z
		 M214.036,161.516c-1.079-0.208-2.207-0.089-3.384,0.356c-0.489,0.215-0.988,0.481-1.499,0.804
		c-0.509,0.322-0.985,0.727-1.43,1.215c-0.443,0.489-0.823,1.044-1.14,1.669c-0.316,0.625-0.534,1.318-0.651,2.079
		c-0.021,0.248-0.045,0.488-0.075,0.72c-0.032,0.233-0.04,0.463-0.028,0.688l11.42-1.75c0.203-2.368-0.303-4.032-1.517-4.994
		C215.25,161.902,214.686,161.641,214.036,161.516z"/>
	<path fill="#2897D4" d="M228.262,181.631c-2.051-0.395-3.744-1.196-5.079-2.405c-0.809-0.743-1.376-1.573-1.704-2.489
		s-0.395-1.874-0.202-2.873c0.087-0.459,0.316-0.814,0.687-1.064c0.369-0.25,0.784-0.332,1.243-0.245
		c0.459,0.089,0.813,0.319,1.064,0.688c0.25,0.371,0.332,0.785,0.244,1.244c-0.094,0.486-0.027,0.938,0.199,1.361
		c0.228,0.421,0.545,0.804,0.955,1.148c0.408,0.346,0.898,0.635,1.47,0.871c0.57,0.235,1.153,0.411,1.746,0.525
		c1.241,0.238,2.297,0.204,3.169-0.105c0.482-0.187,0.797-0.399,0.941-0.638c0.144-0.238,0.234-0.451,0.27-0.641
		c0.052-0.269-0.035-0.581-0.261-0.931c-0.228-0.352-0.536-0.705-0.93-1.061c-0.394-0.355-0.829-0.711-1.307-1.069
		c-0.477-0.358-0.948-0.708-1.414-1.049c-0.759-0.565-1.509-1.136-2.252-1.713c-0.744-0.576-1.373-1.193-1.89-1.853
		c-0.452-0.563-0.779-1.116-0.982-1.659s-0.31-1.047-0.318-1.51c-0.01-0.463,0.047-0.899,0.169-1.311
		c0.119-0.411,0.266-0.768,0.436-1.07c0.749-1.423,2.02-2.285,3.812-2.584c1.48-0.274,2.988-0.111,4.524,0.492
		c1.491,0.539,2.675,1.369,3.551,2.488c1.023,1.373,1.348,2.891,0.972,4.553c-0.115,0.454-0.357,0.799-0.724,1.036
		c-0.368,0.238-0.78,0.312-1.239,0.224c-0.455-0.114-0.805-0.365-1.053-0.748c-0.249-0.384-0.315-0.802-0.199-1.256
		c0.125-0.507,0.092-0.948-0.104-1.321c-0.194-0.373-0.447-0.694-0.759-0.964c-0.312-0.27-0.622-0.476-0.93-0.619
		c-0.309-0.144-0.527-0.242-0.657-0.294c-0.913-0.343-1.794-0.463-2.639-0.36c-0.845,0.104-1.4,0.409-1.667,0.918
		c-0.351,0.66-0.207,1.332,0.432,2.014c0.638,0.683,1.791,1.633,3.461,2.849c0.64,0.459,1.275,0.931,1.911,1.417
		c0.634,0.486,1.206,1.002,1.716,1.548c1.344,1.461,1.869,2.948,1.578,4.459c-0.348,1.808-1.454,3.051-3.319,3.727
		c-0.694,0.259-1.465,0.411-2.312,0.457C230.021,181.864,229.153,181.802,228.262,181.631z"/>
	<path fill="#2897D4" d="M238.86,188.077c-0.055-0.011-0.101-0.027-0.139-0.047c-0.037-0.022-0.084-0.038-0.138-0.047
		c-0.454-0.115-0.791-0.362-1.012-0.741s-0.274-0.794-0.159-1.248c0.143-0.449,0.404-0.79,0.785-1.024
		c0.381-0.235,0.798-0.294,1.251-0.179c0.092-0.179,0.126-0.508,0.106-0.988c-0.035-0.398-0.119-0.799-0.251-1.203
		c-0.133-0.403-0.318-0.781-0.559-1.136c-0.234-0.38-0.303-0.793-0.203-1.236c0.099-0.442,0.341-0.794,0.728-1.056
		c0.382-0.235,0.793-0.302,1.235-0.204c0.443,0.1,0.782,0.34,1.018,0.72c0.386,0.607,0.691,1.239,0.915,1.898
		c0.223,0.658,0.356,1.307,0.401,1.946c0.046,0.638,0,1.238-0.136,1.8c-0.136,0.561-0.357,1.063-0.667,1.508
		c-0.374,0.488-0.843,0.845-1.403,1.074C240.071,188.142,239.48,188.196,238.86,188.077z"/>
	<path fill="#2897D4" d="M257.093,187.133l-0.082-0.015c-0.426-0.11-0.754-0.334-0.983-0.672c-0.228-0.338-0.314-0.726-0.259-1.163
		l2.549-18.274c0.062-0.463,0.271-0.83,0.631-1.096c0.359-0.267,0.771-0.369,1.235-0.308c0.463,0.061,0.828,0.271,1.096,0.63
		c0.267,0.36,0.369,0.771,0.309,1.235l-1.061,7.479c1.06-1.728,2.09-3.083,3.091-4.066c1.889-1.959,3.789-2.755,5.706-2.387
		l0.041,0.008c0.323,0.063,0.659,0.168,1.009,0.32c0.349,0.151,0.684,0.377,1.003,0.676c0.321,0.3,0.625,0.681,0.914,1.142
		c0.289,0.461,0.533,1.046,0.732,1.757c0.221,0.742,0.362,1.574,0.423,2.494c0.061,0.922,0.049,1.962-0.033,3.122
		c-0.035,0.47-0.214,0.855-0.537,1.156c-0.324,0.302-0.72,0.436-1.188,0.401c-0.471-0.033-0.854-0.219-1.153-0.557
		c-0.299-0.336-0.432-0.741-0.397-1.21c0.12-1.935,0.034-3.449-0.259-4.541c-0.205-0.684-0.426-1.103-0.66-1.261
		c-0.236-0.156-0.395-0.244-0.476-0.259l-0.041-0.008c-0.459-0.089-0.937,0.03-1.433,0.354c-0.496,0.325-0.937,0.688-1.321,1.089
		c-1.075,1.081-2.221,2.737-3.432,4.966c-0.521,0.964-1.006,1.913-1.45,2.849c-0.446,0.936-0.825,1.779-1.137,2.531
		c-0.313,0.752-0.645,1.598-0.992,2.538c-0.133,0.394-0.379,0.69-0.737,0.887C257.839,187.144,257.47,187.206,257.093,187.133z"/>
	<path fill="#2897D4" d="M281.414,191.642c-0.218-0.042-0.445-0.091-0.686-0.153c-0.24-0.059-0.466-0.124-0.677-0.192
		c-2.021-0.696-3.584-1.878-4.69-3.547c-0.491-0.794-0.856-1.662-1.095-2.603l-0.083-0.227c-0.264-1.254-0.296-2.604-0.103-4.05
		c0.159-0.977,0.444-1.909,0.853-2.796s0.937-1.702,1.582-2.445c1.219-1.389,2.675-2.41,4.368-3.064
		c0.698-0.286,1.415-0.484,2.151-0.594c0.734-0.111,1.46-0.14,2.178-0.085c1.542,0.129,2.883,0.653,4.021,1.571
		c1.139,0.919,1.935,2.163,2.388,3.734c0.471,1.629,0.521,3.472,0.154,5.529c-0.041,0.356-0.188,0.656-0.445,0.9
		c-0.257,0.245-0.561,0.403-0.91,0.476l-12.243,1.886c0.437,0.644,0.937,1.133,1.503,1.464c0.565,0.333,1.046,0.564,1.44,0.696
		c1.103,0.38,2.188,0.478,3.26,0.292c0.877-0.195,1.443-0.52,1.698-0.974c0.219-0.406,0.541-0.666,0.97-0.78
		c0.427-0.113,0.843-0.061,1.249,0.157c0.406,0.218,0.674,0.543,0.8,0.972c0.127,0.431,0.081,0.849-0.136,1.254
		c-0.766,1.364-2.081,2.231-3.942,2.601c-0.582,0.112-1.173,0.167-1.773,0.163C282.645,191.823,282.034,191.761,281.414,191.642z
		 M285.447,175.249c-1.079-0.208-2.208-0.089-3.385,0.356c-0.489,0.215-0.988,0.481-1.499,0.804
		c-0.509,0.322-0.985,0.727-1.43,1.216c-0.443,0.488-0.823,1.044-1.139,1.669c-0.317,0.625-0.534,1.317-0.652,2.078
		c-0.021,0.249-0.045,0.488-0.075,0.72c-0.031,0.232-0.04,0.462-0.027,0.688l11.42-1.75c0.203-2.368-0.303-4.032-1.518-4.994
		C286.66,175.635,286.096,175.373,285.447,175.249z"/>
	<path fill="#2897D4" d="M308.629,190.479c-0.187,0.973-0.364,1.892-0.53,2.757c-0.166,0.866-0.328,1.634-0.484,2.304
		c-0.158,0.672-0.283,1.215-0.377,1.631c-0.095,0.416-0.144,0.639-0.148,0.666c-0.11,0.427-0.349,0.759-0.717,0.998
		c-0.368,0.237-0.768,0.314-1.199,0.231l-0.081-0.015c-0.453-0.115-0.798-0.363-1.032-0.744c-0.235-0.381-0.295-0.799-0.18-1.252
		l0.055-0.284c0.021-0.108,0.043-0.223,0.065-0.344c0.023-0.121,0.067-0.274,0.132-0.457c-0.643-0.012-1.251-0.052-1.825-0.12
		c-0.574-0.069-1.132-0.155-1.671-0.259c-1.242-0.239-2.365-0.581-3.371-1.025c-1.081-0.487-1.997-1.077-2.746-1.767
		c-0.749-0.69-1.293-1.459-1.634-2.308c-0.401-0.973-0.494-1.941-0.28-2.909c0.214-0.966,0.711-1.808,1.492-2.525
		c0.477-0.439,1.151-0.856,2.024-1.248c0.873-0.392,2.062-0.569,3.566-0.531c1.95,0.039,4.095,0.536,6.43,1.488
		c0.114-1.321,0.152-2.28,0.112-2.875c-0.039-0.596-0.096-0.998-0.166-1.208c-0.343-1.129-1.032-1.835-2.069-2.119
		c-0.772-0.204-1.591-0.174-2.454,0.095c-0.862,0.269-1.666,0.736-2.41,1.404c-0.337,0.3-0.729,0.441-1.174,0.426
		c-0.444-0.016-0.83-0.195-1.155-0.537c-0.295-0.365-0.434-0.769-0.418-1.215c0.015-0.444,0.192-0.816,0.529-1.115
		c0.573-0.51,1.184-0.951,1.829-1.322c0.645-0.372,1.307-0.648,1.985-0.83c1.432-0.459,2.81-0.492,4.133-0.099
		c1.092,0.294,2.008,0.807,2.748,1.538c0.741,0.732,1.282,1.662,1.625,2.793c0.176,0.54,0.273,1.196,0.293,1.971
		c0.019,0.775-0.013,1.729-0.089,2.863c-0.074,0.827-0.181,1.739-0.316,2.736C308.983,188.269,308.82,189.338,308.629,190.479z
		 M295.931,189.27c0.171,0.426,0.491,0.836,0.96,1.235c0.47,0.398,1.078,0.759,1.828,1.085c0.748,0.328,1.629,0.587,2.641,0.782
		c1.012,0.194,2.172,0.306,3.483,0.333l0.537-2.793c0.029-0.301,0.072-0.594,0.127-0.877c0.055-0.284,0.107-0.56,0.159-0.831
		c-1.157-0.529-2.235-0.927-3.234-1.189c-1-0.261-1.895-0.412-2.684-0.453c-0.79-0.039-1.474,0.024-2.052,0.193
		c-0.579,0.169-1.037,0.403-1.373,0.701C295.776,187.968,295.646,188.572,295.931,189.27z"/>
	<path fill="#2897D4" d="M311.751,197.602c-0.433-0.083-0.775-0.303-1.027-0.66c-0.254-0.356-0.354-0.753-0.296-1.19
		c0.277-1.737,0.594-3.6,0.949-5.59c0.354-1.988,0.716-3.982,1.088-5.982c0.369-2,0.742-3.971,1.116-5.915
		c0.373-1.943,0.724-3.764,1.05-5.465l0.818-4.25c0.089-0.459,0.316-0.813,0.687-1.065c0.37-0.25,0.784-0.332,1.244-0.243
		c0.459,0.088,0.812,0.318,1.063,0.687c0.251,0.371,0.333,0.785,0.244,1.244l-0.825,4.291c-0.321,1.675-0.668,3.476-1.039,5.405
		s-0.743,3.894-1.113,5.894c-0.371,2-0.73,3.981-1.079,5.942c-0.352,1.963-0.664,3.812-0.942,5.549
		c-0.061,0.464-0.27,0.823-0.625,1.077c-0.358,0.253-0.768,0.349-1.232,0.287L311.751,197.602z"/>
	<path fill="#2897D4" d="M317.619,198.731c-0.432-0.083-0.773-0.302-1.026-0.66c-0.254-0.356-0.353-0.753-0.296-1.19
		c0.277-1.737,0.595-3.601,0.949-5.59s0.717-3.983,1.087-5.983c0.371-1.999,0.744-3.971,1.117-5.913
		c0.373-1.943,0.725-3.766,1.051-5.465l0.817-4.251c0.089-0.458,0.317-0.813,0.687-1.063c0.37-0.25,0.784-0.333,1.244-0.245
		c0.458,0.089,0.813,0.318,1.064,0.688c0.25,0.371,0.331,0.785,0.243,1.243l-0.825,4.292c-0.322,1.674-0.668,3.476-1.039,5.405
		c-0.372,1.93-0.743,3.894-1.112,5.895c-0.371,2-0.732,3.98-1.08,5.942c-0.351,1.962-0.665,3.811-0.942,5.548
		c-0.061,0.465-0.27,0.823-0.625,1.076c-0.357,0.253-0.769,0.35-1.231,0.288L317.619,198.731z"/>
	<path fill="#2897D4" d="M317.303,222.431c-2.482-0.478-4.677-1.516-6.581-3.112c-1.084-0.909-2.019-1.949-2.8-3.121
		c-0.782-1.173-1.401-2.46-1.859-3.862c-0.139-0.447-0.099-0.873,0.119-1.278c0.218-0.406,0.537-0.682,0.956-0.824
		c0.446-0.139,0.866-0.1,1.258,0.116c0.393,0.216,0.661,0.532,0.804,0.952c0.729,2.183,1.895,3.975,3.5,5.375
		c1.605,1.399,3.51,2.271,5.712,2.609c2.313,0.333,4.534-0.003,6.658-1.008c2.124-1.004,3.927-2.597,5.409-4.774
		c0.849-1.208,1.596-2.505,2.239-3.894c0.645-1.387,1.217-2.795,1.715-4.225c0.5-1.43,0.922-2.859,1.267-4.29
		c0.344-1.431,0.629-2.797,0.851-4.097l-0.84,1.098c-0.791,0.912-1.672,1.624-2.637,2.137c-1.091,0.574-2.234,0.845-3.431,0.81
		c-2-0.077-3.523-0.888-4.569-2.432c-0.855-1.227-1.327-2.998-1.413-5.31c-0.039-0.818-0.009-1.708,0.093-2.668
		c0.101-0.96,0.243-1.997,0.43-3.108c0.171-0.891,0.354-1.737,0.551-2.539s0.38-1.507,0.554-2.119
		c0.175-0.61,0.324-1.099,0.451-1.466c0.126-0.368,0.192-0.564,0.197-0.592c0.142-0.448,0.413-0.767,0.813-0.956
		c0.4-0.188,0.824-0.211,1.273-0.07c0.448,0.143,0.765,0.42,0.952,0.833c0.186,0.415,0.211,0.832,0.073,1.253
		c-0.222,0.714-0.414,1.355-0.579,1.925c-0.167,0.57-0.343,1.236-0.531,1.997s-0.363,1.56-0.524,2.396
		c-0.368,2.057-0.518,3.819-0.45,5.288c0.068,1.468,0.352,2.572,0.854,3.312c0.392,0.579,1.045,0.9,1.956,0.964
		c0.749,0.032,1.429-0.16,2.041-0.574c0.61-0.413,1.169-0.95,1.674-1.608c0.505-0.659,0.952-1.384,1.342-2.177
		c0.391-0.792,0.73-1.581,1.021-2.364c0.35-0.941,0.646-1.863,0.89-2.768c0.242-0.904,0.441-1.713,0.592-2.426
		c0.151-0.711,0.3-1.517,0.442-2.412c0.057-0.437,0.252-0.792,0.583-1.063c0.332-0.272,0.719-0.393,1.161-0.364
		c0.416,0.024,0.775,0.19,1.079,0.501c0.305,0.311,0.459,0.676,0.462,1.096c-0.011,0.054-0.018,0.382-0.021,0.983
		c-0.005,0.601-0.027,1.416-0.07,2.441c-0.044,1.028-0.127,2.222-0.248,3.584c-0.124,1.362-0.295,2.834-0.515,4.414
		c-0.276,1.878-0.601,3.67-0.971,5.376c-0.369,1.707-0.806,3.351-1.305,4.933c-1.27,3.982-2.838,7.333-4.704,10.053
		c-1.903,2.769-4.264,4.777-7.078,6.027c-1.311,0.56-2.666,0.942-4.062,1.149c-1.397,0.207-2.788,0.205-4.176-0.005L317.303,222.431
		z"/>
	<path fill="#2897D4" d="M341.532,201.65c0.088-0.459,0.331-0.812,0.728-1.057c0.396-0.246,0.825-0.324,1.284-0.236
		c0.485,0.094,0.86,0.327,1.124,0.699c0.266,0.373,0.353,0.789,0.264,1.248c-0.088,0.459-0.323,0.812-0.708,1.06
		c-0.382,0.249-0.817,0.325-1.304,0.231c-0.458-0.088-0.826-0.319-1.104-0.695C341.538,202.525,341.444,202.109,341.532,201.65z"/>
</g>
</svg>
