<?xml version="1.0" encoding="utf-8"?>
<!-- Generator: Adobe Illustrator 16.0.4, SVG Export Plug-In . SVG Version: 6.00 Build 0)  -->
<!DOCTYPE svg PUBLIC "-//W3C//DTD SVG 1.1//EN" "http://www.w3.org/Graphics/SVG/1.1/DTD/svg11.dtd">
<svg version="1.1" id="Calque_1" xmlns="http://www.w3.org/2000/svg" xmlns:xlink="http://www.w3.org/1999/xlink" x="0px" y="0px"
	 width="750px" height="518px" viewBox="360 151.5 750 518" style="enable-background:new 360 151.5 750 518;" xml:space="preserve"
	>
<style type="text/css">
<![CDATA[
	.st0{fill:#AEAFAD;}
	.st1{fill:#E5E7E4;}
	.st2{fill:none;stroke:#FFFFFF;stroke-miterlimit:10;}
	.st3{opacity:0.8;fill:#FFFFFF;}
	.st4{opacity:0.3;}
	.st5{fill:#FFFFFF;}
	.st6{fill:#CDD0D0;}
	.st7{fill:#002352;}
]]>
</style>
<path class="st3" d="M1037.3,212.9l7.7-20.1c0.8-2.1-0.7-4.2-2.9-4.2h-28.7l-9.1,23.6h-12.7l7.4-19.4c0.8-2.1-0.7-4.2-2.9-4.2h-28.7
	l-9.1,23.6h-89.8c-4.1,0-7.9,2.2-9.9,5.8l-22.4,39.5h31.3h136.5c5.6,0,11.1,1,16.2,3.1c9.9,4.1,21.6,13.3,18.7,34.1
	c-4.9,34.8-40.3,96.4-117.3,97.4l39.8-103.6c1.6-4.3-1.5-8.8-6.1-8.8h-53.3l-64.4,158.3c0,0,13,1.6,33.3,1.6l-6.4,16.6H894
	c2.3,0,4.4-1.4,5.3-3.6l5.5-14.3c4.3-0.4,8.7-0.8,13.2-1.3l-7.4,19.3H940c2.3,0,4.4-1.4,5.3-3.6l8.3-21.8
	c48.2-11,100-34.9,130.7-85.3C1146.4,243.7,1081.9,217.4,1037.3,212.9z"/>
<g>
	<g>
		<g class="st4">
			<g>
				<path class="st5" d="M633.4,547.1c-0.4,0.4-0.9,0.8-1.4,1c-19.6,10.7-35.6,14.6-56.9,13.8c-27.5-1-53.9-12.7-74.1-32.9
					c-16.7-16.7-17.1-43.3-0.9-59.5c16.2-16.2,42.8-15.8,59.5,0.9c11,11,28.8,11,39.7,0.2c10.9-10.9,10.9-28.7-0.2-39.7
					c-38.6-38.6-101-39.2-139-1.2c-27.1,27.1-35.5,67.9-21.6,104.2c4.6,12,12.4,23.6,23.2,34.3c8,8,21.3,19.9,43.3,30.6
					c3.6,1.8,5.3,5.9,3.8,9.4c-1.5,3.5-5.5,4.8-9.2,3.1c-18.1-8.8-33.7-19.8-47.5-33.6c-12.3-12.3-21.3-25.7-26.6-39.7
					c-15.9-41.3-6.4-87.9,24.3-118.5c43.2-43.2,114.5-42.4,158.8,1.9c16.7,16.7,17,43.4,0.9,59.5c-16.1,16.1-42.8,15.8-59.5-0.9
					c-11-11-28.8-11-39.7-0.2c-10.9,10.9-10.9,28.7,0.2,39.7c17.5,17.5,40.3,27.6,64,28.5c18.6,0.6,32.7-2.8,50.1-12.2
					c3.3-1.8,7.6-0.5,9.6,3C635.9,541.6,635.5,545,633.4,547.1L633.4,547.1L633.4,547.1z M631.4,506.8
					c-11.3,11.3-24.3,18.2-38.6,20.4c-24.5,3.8-49.8-4.6-67.6-22.4c-2.8-2.8-3-7.3-0.4-9.9c2.6-2.6,7.1-2.4,9.9,0.4
					c14.4,14.4,34.9,21.1,55,18c11.6-1.8,21.9-7.3,31.4-16.8c2.3-2.3,5.9-6.4,9-10.9c2.1-3.1,6.4-3.7,9.7-1.4
					c3.2,2.3,4.1,6.7,2.1,9.8C637.4,500.7,632.7,505.4,631.4,506.8L631.4,506.8L631.4,506.8z M582.2,593.9c-1.2,1.2-2.9,1.9-4.9,1.8
					c-17.2-0.7-27.4-2-46.1-7.9c-19.2-6-38.1-18-54.6-34.5c-30.4-30.5-31.1-79.4-1.4-109.1c29.7-29.7,78.6-29.1,109.2,1.4
					c2.8,2.8,3,7.3,0.4,9.9c-2.6,2.6-7.1,2.4-9.9-0.4c-24.8-24.8-64.9-25.1-89.4-0.6c-24.4,24.4-24.2,64.6,0.6,89.4
					c14.8,14.8,31.4,25.4,48.3,30.7c17.9,5.7,27.1,6.6,42.4,7.3c3.9,0.1,7.1,3.4,7.2,7.3C584.2,591,583.4,592.7,582.2,593.9
					L582.2,593.9L582.2,593.9z M399,529.7c-1,1-2.2,1.6-3.7,1.8c-3.8,0.5-7.5-2.2-8.3-6c-4.9-23.8-4.2-47.1,2.1-69.3
					c13.3-46.6,51.4-84.9,98-98.2c22.1-6.3,45.3-7.1,69-2.4c3.8,0.8,6.5,4.4,6,8.2c-0.5,3.8-4,6.3-7.8,5.5
					c-21.5-4.4-42.5-3.7-62.4,2.1c-42.4,12.2-77.2,47.1-89.3,89.5c-5.7,20.1-6.4,41.2-1.9,62.7C401.2,526,400.5,528.2,399,529.7
					L399,529.7L399,529.7z M481.3,339.8c-0.8,0.8-1.7,1.3-2.8,1.6c-28.4,8.1-48.6,19.5-67.5,38.5c-18.9,18.9-31.8,41.5-38.5,67.4
					c-1,3.7-4.7,5.6-8.5,4.4c-3.8-1.3-6-5.2-5.1-8.9c7.3-28.1,21.4-52.8,41.9-73.2c20.3-20.3,42.8-33.1,73-41.7
					c3.6-1.1,7.6,1.2,9,4.9C483.7,335.4,483,338,481.3,339.8L481.3,339.8L481.3,339.8z"/>
			</g>
		</g>
		<g>
			<path class="st5" d="M358.9,442.8c-0.9,3.7,1.3,7.6,5.1,8.9c3.8,1.2,7.5-0.8,8.5-4.4c6.7-25.9,19.6-48.5,38.4-67.4l-10.3-10.3
				C380.3,390.1,366.2,414.7,358.9,442.8z"/>
			<path class="st5" d="M389.2,456.2c-6.3,22.2-7.1,45.5-2.1,69.3c0.8,3.8,4.5,6.5,8.3,6c1.5-0.2,2.7-0.9,3.7-1.8
				c1.5-1.5,2.2-3.7,1.8-6c-4.5-21.5-3.8-42.6,1.9-62.7c6-21.2,17.8-40.5,33.3-56.1l-10.2-10.2C408.7,411.7,395.8,432.9,389.2,456.2
				z"/>
			<path class="st5" d="M475.2,444.2c-29.7,29.7-29.1,78.7,1.4,109.1c16.5,16.5,35.4,28.5,54.6,34.5c18.8,5.9,28.9,7.2,46.1,7.9
				c2,0.1,3.7-0.6,4.9-1.8c1.2-1.2,2-2.9,1.7-4.8c0-3.9-3.3-7.1-7.2-7.3c-15.3-0.6-24.4-1.6-42.4-7.3c-16.9-5.4-33.6-16-48.3-30.7
				c-24.8-24.8-25.1-64.9-0.6-89.4c0,0,0,0,0,0L475.2,444.2C475.2,444.2,475.2,444.2,475.2,444.2z"/>
			<path class="st5" d="M449.9,419.5c-30.7,30.7-40.2,77.2-24.3,118.5c5.4,14,14.3,27.4,26.6,39.7c13.8,13.8,29.4,24.8,47.5,33.6
				c3.6,1.7,7.7,0.3,9.2-3.1c1.4-3.5-0.2-7.7-3.8-9.4c-22-10.7-35.3-22.6-43.3-30.6c-10.8-10.8-18.6-22.3-23.2-34.3
				c-14-36.2-5.5-77.1,21.6-104.2c0.1-0.1,0.2-0.2,0.3-0.3l-10.2-10.2C450.1,419.3,450,419.4,449.9,419.5z"/>
			<path class="st5" d="M525.2,504.7c8.4,8.4,18.4,14.6,29.1,18.6l-28.9-28.9c-0.2,0.2-0.4,0.3-0.6,0.5
				C522.2,497.5,522.4,501.9,525.2,504.7z"/>
			<path class="st5" d="M574.5,548c-23.8-0.8-46.5-11-64-28.5c-11-11-11-28.8-0.2-39.7c0.1-0.1,0.2-0.2,0.3-0.3l-10.3-10.3
				c-0.1,0.1-0.2,0.2-0.3,0.2c-16.2,16.2-15.8,42.8,0.9,59.5c20.2,20.2,46.6,31.9,74.1,32.9c6.2,0.2,11.9,0,17.3-0.6l-13.3-13.3
				C577.6,548.1,576.1,548.1,574.5,548z"/>
		</g>
		<line class="st2" x1="381.3" y1="350.3" x2="625.3" y2="594.3"/>
	</g>
</g>
<g>
	<path class="st1" d="M633.2,216.9c-11.4,0-20.8,9.3-20.8,20.8v290.7c0,11.4,9.3,20.8,20.8,20.8h207.6c11.4,0,20.8-9.3,20.8-20.8
		V299.9l-83-83H633.2L633.2,216.9z"/>
	<path class="st0" d="M799.3,299.9h62.3l-83-83v62.3C778.6,290.6,787.9,299.9,799.3,299.9L799.3,299.9z"/>
	<polygon class="st6" points="861.6,362.2 799.3,299.9 861.6,299.9 861.6,362.2 	"/>
	<path class="st7" d="M820.1,486.8c0,5.7-4.7,10.4-10.4,10.4H581.3c-5.7,0-10.4-4.7-10.4-10.4V383c0-5.7,4.7-10.4,10.4-10.4h228.4
		c5.7,0,10.4,4.7,10.4,10.4V486.8L820.1,486.8z"/>
	<path class="st5" d="M627.2,418.3V439H641c5.6,0,10-4.9,10-10.1c0-5.8-4.4-10.6-10-10.6H627.2L627.2,418.3z M616.2,413.6
		c0-2.7,2.2-5.7,5.6-5.7H641c10.8,0,20.5,7.2,20.5,21.1c0,13.1-9.7,20.4-20.5,20.4h-13.9v11c0,3.7-2.3,5.7-5.3,5.7
		c-2.7,0-5.6-2.1-5.6-5.7V413.6L616.2,413.6z"/>
	<path class="st5" d="M683,418.7v37.2h13.8c22.4,0,23.4-37.2,0-37.2H683L683,418.7z M677.8,466c-2.7,0-5.7-1.5-5.7-5.1v-47.1
		c0-3,3-5.1,5.7-5.1h19c37.9,0,37.1,57.4,0.7,57.4H677.8L677.8,466z"/>
	<path class="st5" d="M747.4,419.4v13.2h21.2c3,0,6,3,6,5.9c0,2.7-3,5-6,5h-21.2v17.4c0,2.9-2.1,5.1-5,5.1c-3.7,0-5.9-2.2-5.9-5.1
		v-47.1c0-3,2.2-5.1,5.9-5.1h29.1c3.7,0,5.8,2.2,5.8,5.1c0,2.7-2.2,5.6-5.8,5.6L747.4,419.4L747.4,419.4L747.4,419.4z"/>
	<path class="st6" d="M809.7,497.1H612.5v10.4h197.2c5.7,0,10.4-4.7,10.4-10.4v-10.4C820.1,492.5,815.4,497.1,809.7,497.1
		L809.7,497.1z"/>
</g>
</svg>
