<?xml version="1.0" encoding="utf-8"?>
<!-- Generator: Adobe Illustrator 16.0.4, SVG Export Plug-In . SVG Version: 6.00 Build 0)  -->
<!DOCTYPE svg PUBLIC "-//W3C//DTD SVG 1.1//EN" "http://www.w3.org/Graphics/SVG/1.1/DTD/svg11.dtd">
<svg version="1.1" id="Layer_1" xmlns="http://www.w3.org/2000/svg" xmlns:xlink="http://www.w3.org/1999/xlink" x="0px" y="0px"
	 width="1600px" height="1064px" viewBox="0 0 1600 1064" enable-background="new 0 0 1600 1064" xml:space="preserve">
<rect fill="#F2F4F3" width="1600" height="1064"/>
<g id="DESIGNED_BY_FREEPIK">
</g>
<g>
	<g>
		<rect x="781.758" y="840.585" fill="#353535" width="10.321" height="117.621"/>
		<path fill="#353535" d="M863.372,840.585c0,3.84-3.121,6.96-6.962,6.96H715.987c-3.841,0-6.961-3.12-6.961-6.96l0,0
			c0-3.841,3.12-6.961,6.961-6.961H856.65C860.251,833.624,863.372,836.744,863.372,840.585L863.372,840.585z"/>
	</g>
	<path fill="#002352" d="M734.711,788.976c0,0-10.083,6.002-13.924,19.203c-3.84,12.962,5.521,41.529,24.484,42.969
		c32.406,2.158,35.767-14.884,58.09-3.602c22.326,11.282,43.447,3.602,46.809-5.76c3.121-9.363,17.523-48.97-22.324-51.61
		C783.677,788.256,734.711,788.976,734.711,788.976z"/>
	<path fill="#0066CC" d="M739.51,645.431c0,0,4.801-29.767,21.364-32.646c16.562-3.121,39.847,3.359,39.847,3.359
		s17.522,15.123,23.044,26.885C829.285,654.793,751.752,666.795,739.51,645.431z"/>
	<g>
		<path fill="#FABB86" d="M759.914,559.976c0,0,16.804,3.36,21.845-4.321c5.041-7.682,9.841-3.841,16.322,4.561
			c6.48,8.402,17.283,25.926,18.483,40.088c1.681,8.158-1.44,13.441-1.44,13.441s-2.4,3.119-7.2,3.119
			c-4.802,0.242-10.081,7.443-10.081,18.965c0,14.401-7.202,16.083-7.202,16.083s-27.366,9.362-28.325-14.883
			c-0.48-14.402,1.201-17.043-0.48-21.364c-1.44-4.32-11.282-4.32-16.562-12.243C740.23,595.501,724.627,563.336,759.914,559.976z"
			/>
		<path fill="#06110E" d="M796.64,542.932c0,0,2.88,9.603,0,15.363c-1.44,2.641-11.042,10.802-19.443,10.562
			c-8.403-0.24-14.883,2.4-14.883,2.4h9.362c0,0,2.64,6.721,3.841,11.281c1.2,4.561-3.841,5.041-3.122,8.882
			c0.722,3.841,6.003,11.042,6.003,11.042l-5.042,2.642c0,0-5.52-12.002-9.601-12.963c-6.241-1.44-10.802,5.28-6.001,10.321
			c5.521,5.762,7.201,6.723,4.8,22.085c-1.2-5.762-16.562-10.562-25.204-26.646c-8.643-16.082-3.362-28.564,3.599-34.565
			c-0.72-9.362,10.323-16.804,17.764-15.844c7.681,0.72,14.403-7.921,14.403-7.921s-0.721,4.801-3.841,6.722
			c3.361,0.479,6.001-3.601,6.001-4.562c0.721,2.16-0.961,4.562-0.961,4.562s6.242,0,7.923-3.36c0.24,0.961-0.72,3.36-1.68,3.84
			c2.64,0.24,5.281,0,7.442-3.121c0.239,1.921-0.722,3.841-3.121,5.041c5.04,0.721,7.44-4.801,7.681-6.002
			c0.479,1.922-0.241,6.002-1.441,7.922C793.761,550.854,796.16,546.293,796.64,542.932z"/>
	</g>
	<path fill="#FFFFFF" d="M857.852,720.324c-6.242-22.325-19.203-69.854-23.524-72.256c-4.562-2.398-13.204-2.88-22.325-5.759
		c-9.361-2.88-13.682-10.322-13.682-10.322c-2.399,16.323-10.081,19.684-17.763,20.163c-9.122-0.72-15.603-4.56-18.003-21.123
		c0,0-4.082,8.403-13.441,11.283c-9.363,2.88-18.002,3.36-22.324,5.759c-4.562,2.401-17.523,49.931-23.524,72.255
		c-6.243,22.323-8.643,27.365,0,31.205c5.521,2.4,20.402,4.32,29.765,5.281c-0.241,12.962-0.241,24.485,0.24,30.485
		c30.005,12.722,67.452,17.282,95.057,0c0.479-6,0.479-17.523,0.241-30.485c9.36-0.961,24.003-2.881,29.766-5.281
		C866.491,747.929,864.092,742.646,857.852,720.324z M733.269,736.887c-4.8-0.48-9.361-0.96-10.081-1.44
		c-1.92-0.961,11.282-36.487,11.282-36.487S733.75,716.963,733.269,736.887z M837.927,735.446c-0.96,0.479-5.279,0.96-10.081,1.44
		c-0.48-20.164-1.199-37.928-1.199-37.928S839.847,734.486,837.927,735.446z"/>
	<path fill="#0066CC" d="M857.852,720.324c-6.242-22.325-19.203-69.854-23.524-72.256c-4.562-2.398-11.762-6.48-21.124-9.119
		c-1.201-0.241-4.318-2.642-5.28-3.121c-11.283,53.529-6.723,157.708,2.159,171.15c10.803-6.242,18.003-14.403,32.406-13.442
		c3.121,0.24-13.922-19.923-14.162-36.487c9.362-0.96,24.006-2.88,29.766-5.281C866.491,747.929,864.092,742.646,857.852,720.324z
		 M837.927,735.446c-0.96,0.479-5.279,0.96-10.081,1.44c-0.48-20.164-1.199-37.928-1.199-37.928S839.847,734.486,837.927,735.446z"
		/>
	<path fill="#002352" d="M813.924,635.829c-1.199-0.241-5.039,0.479-6.24,0c-3.361,16.082-5.762,32.886-7.202,49.928
		c5.28-16.082,13.683-30.005,23.044-42.728C820.645,641.589,818.004,637.028,813.924,635.829z"/>
	<path fill="#0066CC" d="M756.074,634.628c-1.921,1.439-6.002,5.04-8.881,6.001c-9.362,2.88-16.083,5.521-20.404,7.682
		c-4.561,2.399-17.522,49.93-23.523,72.253c-6.243,22.323-8.643,27.365,0,31.205c5.521,2.401,20.402,4.321,29.764,5.281
		c-0.24,16.563-16.082,37.687-11.283,48.729c0,0,2.881-15.845,40.568,0C773.837,776.014,773.356,688.639,756.074,634.628z
		 M733.269,736.887c-4.8-0.48-9.361-0.96-10.081-1.44c-1.92-0.961,11.282-36.487,11.282-36.487S733.75,716.963,733.269,736.887z"/>
	<path fill="#002352" d="M756.074,634.628c-1.921,1.439-6.722,0.479-9.363,1.439c-2.4,0.722-4.08,6.002-6,6.723
		c10.8,11.042,19.442,23.044,25.924,36.246C763.995,663.913,760.634,649.031,756.074,634.628z"/>
	<g>
		<path fill="#002352" d="M783.677,958.926c0,0,30.246-54.49,44.889-77.773c14.643-23.285,27.125-46.567,26.645-62.652
			c-0.48-16.081-4.081-19.443-10.803-21.363c-6.721-1.92-21.842,3.841-28.564,13.203c-6.722,9.603-19.923,51.369-33.605,91.217
			l-17.043,49.449C764.955,951.003,771.196,958.926,783.677,958.926z"/>
		<path fill="#F9AE7A" d="M768.076,940.442c0,0-12.002,21.364-22.324,28.564c-10.562,7.202-21.124,10.802-25.924,19.203
			c-1.442,5.521,41.286,4.081,55.929-3.602c6.722-3.359,10.082-19.201,13.441-32.645
			C792.079,938.521,768.076,940.442,768.076,940.442z"/>
		<path fill="#002352" d="M798.081,937.802c0,0-21.363,2.4-24.964-13.202c-5.282,5.041-12.723,14.643-12.723,14.643
			s9.843,15.842,32.887,15.123C795.92,949.084,798.081,937.802,798.081,937.802z"/>
	</g>
	<g>
		<path fill="#002352" d="M791.119,958.926c0,0-30.243-54.49-44.887-77.773c-14.643-23.285-27.125-46.567-26.645-62.652
			c0.479-16.081,4.081-19.443,10.802-21.363c6.721-1.92,21.843,3.841,28.564,13.203c6.721,9.603,19.922,51.369,33.605,91.217
			l17.044,49.449C809.843,951.003,803.842,958.926,791.119,958.926z"/>
		<path fill="#F9AE7A" d="M806.723,940.442c0,0,12.002,21.364,22.325,28.564c10.561,7.202,21.122,10.802,25.923,19.203
			c1.44,5.521-41.287,4.081-55.929-3.602c-6.722-3.359-10.082-19.201-13.442-32.645
			C782.718,938.521,806.723,940.442,806.723,940.442z"/>
		<path fill="#002352" d="M777.918,935.402c0,0,19.923,7.2,23.523-8.645c5.761,0,13.202,12.484,13.202,12.484
			s-9.843,15.842-32.885,15.123C775.997,945.962,777.918,935.402,777.918,935.402z"/>
	</g>
	<path fill="#77ABB2" d="M522.752,940.921c0,0-3.841,11.764,2.16,29.286c4.082,6.723,31.686,16.563,31.686,16.563
		s4.561,7.922-23.763,6.241c-14.643-0.721-35.527-27.365-39.607-35.286c-4.082-7.921,1.679-11.042,6.722-13.441
		c5.041-2.401,8.401-7.202,8.401-7.202S520.592,936.361,522.752,940.921z"/>
	<path fill="#1E2933" d="M460.341,818.74c0,0,6.722-8.642-5.521,12.242c-12.242,20.884,119.061-14.884,121.941-7.921
		c-3.36,10.562-18.483-0.479-33.846,41.768c-14.641,40.087-36.966,72.973-36.966,72.973l17.763,14.404
		c0,0,30.726-41.05,59.771-74.654c29.045-33.605,45.127-63.131,30.246-74.652c0,0,1.919-13.204-130.104,7.922
		C462.262,813.94,460.341,818.74,460.341,818.74z"/>
	<g>
		<rect x="579.163" y="763.291" fill="#303030" width="98.897" height="2.159"/>
		<path fill="#8C8C8C" d="M709.266,668.475c0.24-0.961,1.439-1.68,2.399-1.201l0,0c0.96,0.24,1.68,1.441,1.2,2.4l-29.526,96.017
			c-0.239,0.961-1.439,1.68-2.399,1.2l0,0c-0.961-0.239-1.68-1.441-1.2-2.399L709.266,668.475z"/>
		<path fill="#515151" d="M575.802,764.73c0,0.24,0,0.481,0,0.96c0,2.882,1.92,5.042,4.08,5.042h96.257
			c2.162,0,4.083-2.401,4.083-5.042c0-0.241,0-0.479,0-0.96H575.802z"/>
	</g>
	<path fill="#002352" d="M993.234,941.643c0,0-3.36,17.523-24.965,28.805c-21.604,11.283-1.68,16.563,18.483,13.443
		s22.805-14.643,29.287-18.484c6.24-3.84-1.201-14.403-3.362-21.363C1010.518,936.602,993.234,941.643,993.234,941.643z"/>
	<path fill="#002352" d="M912.58,944.522c0,0-8.401,15.603-32.404,19.685c-24.004,4.08-6.722,15.361,13.441,18.481
		c19.924,3.122,26.165-6.96,33.366-8.64c7.202-1.681,3.361-14.164,3.361-21.364C930.585,945.004,912.58,944.522,912.58,944.522z"/>
	<path fill="#04A077" d="M896.978,684.077c0,0-2.639,80.893,0.72,123.383c3.602,42.486,8.644,105.138,4.803,143.543
		c19.684,3.362,30.963,0,30.963,0s8.402-73.451,8.645-108.738c0.479-35.286,10.32-87.135,12.481-93.137
		c7.201,24.484,30.485,172.35,34.086,197.555c19.443,1.439,25.925-2.88,25.925-2.88s-0.478-75.615-7.921-115.223
		c-7.442-39.605-0.241-125.541-9.362-157.947C960.589,653.832,896.978,684.077,896.978,684.077z"/>
	<path fill="#002352" d="M911.141,512.207c0,0-13.683,5.041-21.603,9.602c-7.923,4.561-34.087,71.534-43.448,84.975
		c-9.123,13.203-58.332,72.013-58.332,72.013v19.444c0,0,48.009-35.047,76.094-67.694c13.682-15.841,32.165-45.847,32.165-45.847
		s12.002,53.528-6.241,113.06c59.051,17.281,112.821-2.401,112.821-2.401s-9.363-43.688-8.163-126.262l12.723,60.011l11.281,75.613
		l19.444-15.122c0,0-1.679-64.571-7.923-89.295c-19.442-61.452-36.244-86.896-49.446-94.817
		c-13.204-7.923-31.207-10.563-42.009-9.362C927.224,497.324,911.141,512.207,911.141,512.207z"/>
	<g>
		<g>
			<path fill="#FABB86" d="M885.456,440.435c0,0-9.122,14.403-18.243,12.962c-9.122-1.439-9.601,4.561-7.923,14.883
				c1.681,10.32,6.962,30.484,16.322,41.046c4.804,6.722,10.803,8.402,10.803,8.402s3.84,0.479,7.201-2.881
				c3.36-3.36,12.243-2.16,20.644,5.763c10.321,9.841,20.163-6.002,20.163-6.002s9.123-14.883,5.041-18.723
				c-10.32-10.322-13.201-11.042-15.123-14.883c-2.16-4.081,4.562-11.281,2.641-20.645
				C924.821,450.755,912.34,417.39,885.456,440.435z"/>
		</g>
		<path fill="#06110E" d="M860.731,461.558c0,0,7.921,3.601,20.884-0.24c14.402-4.321,16.562-6.961,18.004,0
			c1.44,6.962,3.599,7.921,7.44,9.122c3.84,1.439,6.001,9.362,6.001,9.362l3.603-3.601c0,0-2.642-4.321-2.162-10.321
			c0.479-6.001,6.479-6.481,9.121-1.202c2.881,5.281-3.36,12.962,3.601,19.205c2.401-11.042,5.279-33.367-10.322-47.769
			c-15.603-14.402-51.129,0.48-54.969,10.081C858.093,456.036,861.451,459.877,860.731,461.558z"/>
		<path fill="#002352" d="M859.532,469.959c0,0,13.201-7.442,36.005-8.882c20.885-1.199,33.368,5.042,33.368,5.042
			s3.119-23.284-9.845-33.606c-12.961-10.321-40.805-8.642-52.569,0C854.489,441.153,855.211,455.077,859.532,469.959z"/>
		<path fill="#113A60" d="M899.62,460.838c0,0-23.766-5.761-41.049-4.561c-17.283,1.201-35.047,13.444-24.244,21.843
			c10.803,8.402,28.565,6.242,28.565,6.242s-2.642-10.562-2.4-12.482C868.894,464.919,893.857,460.838,899.62,460.838z"/>
	</g>
	<g>
		<path fill="#DBDBDB" d="M849.929,760.171c0,2.159-1.679,3.84-3.839,3.84H717.426c-2.16,0-3.841-1.681-3.841-3.84v-83.055
			c0-2.161,1.682-3.842,3.841-3.842H846.09c2.16,0,3.839,1.681,3.839,3.842V760.171z"/>
		<path fill="#515151" d="M849.929,770.012c0,0.48-0.72,0.722-1.679,0.722H715.506c-0.961,0-1.68-0.241-1.68-0.722v-5.041
			c0-0.479,0.72-0.72,1.68-0.72H848.25c0.96,0,1.679,0.241,1.679,0.72V770.012L849.929,770.012z"/>
	</g>
	<g>
		<path fill="#6D6D6D" d="M1060.207,920.759c0,0,5.521,10.562,2.881,28.325c-2.881,7.201-31.206,23.043-31.206,23.043
			s0,6.002,27.365,2.883c18.003-1.921,29.526-34.807,32.164-42.969c2.642-8.161-3.359-10.321-8.642-11.763
			c-5.281-1.44-9.36-5.52-9.36-5.52S1061.407,915.958,1060.207,920.759z"/>
		<path fill="#323534" d="M1103.896,788.494c0,0-7.922-7.2,7.44,10.802c15.362,18.004-116.421,5.521-118.101,12.723
			c5.039,9.362,17.524-3.601,39.366,34.325c20.644,36.007,47.769,71.054,47.769,71.054l-18.724,13.682
			c0,0-32.646-38.406-66.011-65.771c-33.366-27.366-53.771-52.809-41.288-66.492c0,0-3.839-12.482,126.022-14.162
			C1101.254,784.175,1103.896,788.494,1103.896,788.494z"/>
	</g>
	<g>
		<g>
			<path fill="#353535" d="M1086.371,977.407c0,0-72.973,8.883-74.893,9.123c-1.921,0.24-2.4-6.24,6.239-9.123
				c8.643-2.88,61.451-12.239,61.451-12.239L1086.371,977.407z"/>
			<path fill="#353535" d="M1086.371,977.407c0,0,72.974,8.883,74.894,9.123c1.921,0.24,2.4-6.24-6.239-9.123
				c-8.643-2.88-61.452-12.239-61.452-12.239L1086.371,977.407z"/>
			<rect x="1076.771" y="865.069" fill="#545454" width="18.964" height="113.54"/>
		</g>
		<rect x="1071.97" y="848.986" fill="#353535" width="28.562" height="19.442"/>
		<g>
			<polygon fill="#353535" points="1006.196,854.987 1163.423,854.747 1210.473,664.634 1202.071,662.473 1155.264,844.187 
				1006.437,844.425 			"/>
			<path fill="#545454" d="M1201.591,664.634c0,0-23.044-5.762-27.364,31.205c-4.318,36.968-15.604,107.779-24.725,119.062
				c-9.121,11.281,2.642,26.164,5.762,29.286C1161.984,817.781,1201.591,664.634,1201.591,664.634z"/>
			<path fill="#545454" d="M1010.518,844.425h144.746c0,0-1.68-16.323-17.283-16.323s-50.89,11.282-65.772,8.882
				C1057.567,834.344,1008.836,819.942,1010.518,844.425z"/>
		</g>
	</g>
	<g>
		<path fill="#6D6D6D" d="M920.981,958.206c0,0-18.482,13.921-53.529,18.962c-18.002,1.922-20.644,3.121-20.644,3.121
			s-3.36,8.161,10.562,9.122c13.683,0.959,55.689,2.159,64.091,1.68c8.643-0.479,8.401-6.723,7.922-12.241
			c-0.479-5.521,1.921-10.563,1.921-10.563S925.784,957.726,920.981,958.206z"/>
		<path fill="#424947" d="M1144.701,786.814c0,0,13.684,19.924-0.24,38.887c-13.922,18.965-129.862,22.805-137.065,23.045
			c-7.92,6.962,7.684,29.285-24.243,59.292c-30.244,28.564-51.129,61.21-51.129,61.21l-19.684-10.321
			c0,0,24.724-56.41,43.688-95.297c18.964-38.887,29.764-60.729,48.248-60.972l84.735-18.001
			C1109.416,778.894,1144.701,786.814,1144.701,786.814z"/>
		<path fill="#999999" d="M1148.781,786.814l0.24,10.803c0,0-27.604-18.964-63.131-17.044c1.921-4.319,3.121-8.401,3.121-8.401
			L1148.781,786.814z"/>
		<g>
			<path fill="#FABB86" d="M1067.169,571.018c0,0-5.281,19.202-1.681,24.724c-3.36,7.921-6.48,12.243-6.48,12.243l7.2,3.838
				c0,0,2.882,6.003,2.161,8.402c-0.96,2.401-1.681,5.521,2.399,8.644c4.083,2.88,21.123,0.719,21.123,0.719
				s2.643,11.042,3.843,18.004c1.199,6.961,23.283,0.478,23.283,0.478l-2.882-23.282c0,0,13.683-26.405,14.163-42.248
				c0.722-15.842-12.723-30.243-28.325-30.725C1086.61,551.334,1069.328,560.215,1067.169,571.018z"/>
			<path fill="#068963" d="M1078.929,619.746c0,0-2.639-7.682-4.8-9.122c-2.401-1.44-6.721,1.198-8.88,0.239
				c-2.399-0.959,0,3.602,1.438,4.322c2.161-0.961,4.562-1.681,7.203-0.48c2.64,1.199,3.599,6.001,2.881,7.2
				c-0.722,1.201-2.642,3.361-5.043,2.161c-2.639-1.44-3.359-2.399-3.118-3.841c-1.681,0.48-2.642,3.361-1.681,7.442
				s6.721,4.321,6.721,4.321l13.685-2.161C1087.091,630.067,1078.929,626.467,1078.929,619.746z"/>
			<path fill="#068963" d="M1066.447,592.861c0,0-0.72-4.081,0.961-5.521c1.68-1.439,11.521,5.282,15.123,4.562
				C1076.529,593.82,1067.169,590.22,1066.447,592.861z"/>
		</g>
		<path fill="#0066CC" d="M1117.576,636.309c0,0-12.241,18.485-20.882,11.283c-3.122,5.039-17.285,30.243-19.924,42.247
			c-2.642,12.002-4.801,29.045-1.202,44.888c3.36,15.843-3.84,37.207-7.919,49.688c19.922,0,80.175,12.003,87.856,21.125
			c-0.48-18.725-0.48-36.968,1.439-50.41C1160.064,731.846,1162.706,657.432,1117.576,636.309z"/>
	</g>
	<path fill="#FABB86" d="M1143.74,749.129c0,0-11.04-54.971-17.761-68.653c-6.723-13.441-4.562-21.844,7.921-20.162
		c12.242,1.681,17.042,15.363,17.042,15.363s15.604,66.251,12.003,85.935c-3.842,19.684-38.646,8.4-56.648,8.4
		c-18.004-0.24-50.17,0-50.17,0l-9.601-11.762C1055.165,752.488,1143.74,749.129,1143.74,749.129z"/>
	<path fill="#002352" d="M1130.779,651.19c-12.241-1.678-16.323,15.123-9.601,28.564c2.88,5.762,6.24,18.005,9.362,30.247
		c8.4-5.041,18.003-7.923,27.845-9.362c-3.36-16.324-6.722-29.286-6.722-29.286S1143.022,652.872,1130.779,651.19z"/>
	<path fill="#101C18" d="M1068.368,567.177c0,0,18.003,1.68,26.645,4.56c8.643,2.881,2.882,9.842,1.682,10.802
		c-1.201,0.961-2.882,6.962,0.48,10.563c3.357,3.6,2.639,8.4,2.639,8.4h3.599c0,0,0.482-11.282,7.203-9.361
		c6.723,1.922,3.119,8.883,3.119,13.682c0,4.802,0.242,17.283,2.161,19.443c4.083-6.241,15.604-30.485,15.364-45.848
		c-0.24-15.363-14.165-27.365-29.046-28.564C1087.332,549.652,1070.768,559.256,1068.368,567.177z"/>
	<g>
		<path fill="#FABB86" d="M1010.279,692.958c0,0-7.922-6.96-12.243-14.161c-4.32-7.201-6.241-10.562-6.241-10.562
			s-13.683-6.721-17.043-7.921c-3.36-1.441-20.884,2.399-26.165,1.919c-1.441,2.882,6.721,3.121,10.802,2.882
			c4.081-0.241,9.601,0,9.601,0l-8.882,3.12c0,0-4.079,7.201-5.039,7.924c0.72,1.439,3.119,1.677,6.721-4.083
			c3.361-1.921,11.283-0.96,11.283-0.96s-6.724,1.679-8.401,2.399c-1.442,0.722-5.521,5.521-5.521,5.521s-0.239,3.359,6.723-2.4
			c4.081-3.361,6.48-0.479,12.003,5.279c5.52,5.762,8.399,5.041,8.399,5.041l15.844,18.004l8.644-11.521"/>
		<g>
			<path fill="#DBDBDB" d="M1099.813,762.091c0,1.679-1.441,3.121-3.119,3.121h-104.66c-1.68,0-3.119-1.442-3.119-3.121v-67.452
				c0-1.681,1.439-3.12,3.119-3.12h104.66c1.678,0,3.119,1.439,3.119,3.12V762.091z"/>
			<path fill="#515151" d="M1099.813,770.012c0,0.48-0.72,0.722-1.441,0.722H990.114c-0.719,0-1.441-0.241-1.441-0.722v-4.081
				c0-0.48,0.723-0.719,1.441-0.719h108.258c0.722,0,1.441,0.238,1.441,0.719V770.012z"/>
		</g>
	</g>
	<g>
		<rect x="617.569" y="781.773" fill="#CE8757" width="13.682" height="210.038"/>
		<path fill="#D67838" d="M640.854,991.57c0,0.961-0.721,1.441-1.441,1.441h-30.005c-0.96,0-1.44-0.721-1.44-1.441l0,0
			c0-0.959,0.72-1.44,1.44-1.44h30.005C640.133,990.13,640.854,990.852,640.854,991.57L640.854,991.57z"/>
	</g>
	<g>
		<g>
			<path fill="#353535" d="M488.666,992.051c0,0,72.973,8.883,74.893,9.123c1.92,0.239,2.4-6.241-6.24-9.123
				c-8.643-2.881-61.451-12.242-61.451-12.242L488.666,992.051z"/>
			<path fill="#353535" d="M488.666,992.051c0,0-72.974,8.883-74.894,9.123c-1.92,0.239-2.399-6.241,6.241-9.123
				c8.641-2.881,61.449-12.242,61.449-12.242L488.666,992.051z"/>
			<rect x="479.304" y="879.951" fill="#545454" width="18.963" height="113.541"/>
		</g>
		<rect x="474.503" y="885.713" fill="#353535" width="28.565" height="19.442"/>
		<polygon fill="#353535" points="568.841,891.713 411.613,891.474 364.563,701.6 372.966,699.439 419.774,880.912 568.601,881.392 
					"/>
		<path fill="#545454" d="M373.446,701.6c0,0,23.045-5.761,27.364,31.207c4.322,36.965,15.603,107.778,24.725,119.06
			c9.121,11.283-2.641,26.165-5.761,29.286C413.053,854.747,373.446,701.6,373.446,701.6z"/>
		<path fill="#545454" d="M564.519,881.392H419.774c0,0,1.679-16.323,17.283-16.323c15.602,0,50.889,11.282,65.771,8.881
			C517.472,871.07,566.2,856.907,564.519,881.392z"/>
	</g>
	<path fill="#E5A576" d="M599.805,742.167c0,0,10.082-3.12,17.044-7.681c6.961-4.802,10.082-6.961,10.082-6.961
		s15.362-0.24,18.963-0.24c3.6,0,18.002,10.801,23.044,12.723c0,3.359-7.441,0-11.042-1.922c-3.6-1.921-8.882-4.079-8.882-4.079
		l6.723,6.479c0,0,0.721,8.16,1.44,9.362c-1.44,0.96-3.599,0.239-4.321-6.481c-2.4-3.12-9.842-5.521-9.842-5.521
		s5.522,4.321,6.481,5.521c0.961,1.201,2.641,7.441,2.641,7.441s-1.201,3.121-5.281-5.04c-2.16-4.561-5.52-3.121-13.202-0.241
		c-7.443,2.882-9.603,1.201-9.603,1.201l-21.844,9.602l-2.88-14.163"/>
	<path fill="#77ABB2" d="M692.942,956.285c0,0,19.923,15.842,58.092,22.564c19.683,2.641,22.322,4.081,22.322,4.081
		s3.362,9.12-11.761,9.601s-60.731,0.72-70.092,0c-9.362-0.721-9.122-7.682-8.402-13.682c0.72-6.003-1.68-11.763-1.68-11.763
		S687.662,955.324,692.942,956.285z"/>
	<path fill="#1E2933" d="M418.574,823.062c0,0-11.521,24.004,6.721,42.007c18.243,18.243,144.266,2.64,151.946,1.681
		c9.842,6.24-5.521,18.723,34.088,45.848c37.445,25.684,65.529,57.37,65.529,57.37l19.445-14.644c0,0-34.086-42.486-61.211-81.374
		c-27.125-38.886-42.487-60.49-62.651-57.61l-94.576-5.04C455.54,808.419,418.574,823.062,418.574,823.062z"/>
	<path fill="#0066CC" d="M416.653,818.98l-0.241,12.241c0,0,31.207-21.604,71.773-19.442c-2.161-4.8-3.601-9.601-3.601-9.601
		L416.653,818.98z"/>
	<path fill="#002352" d="M605.087,739.047c-31.446,1.681-91.696,7.922-91.696,7.922s-35.047-50.408-40.807-66.732
		c-5.762-16.322-22.565-26.164-30.966-14.882c-8.4,11.521,0,33.127,0,33.127s40.568,60.489,59.531,72.732
		c18.963,12.482,34.566,2.159,60.971-3.843c17.282-3.839,34.806-7.92,45.847-10.561C607.727,754.41,604.848,740.487,605.087,739.047
		z"/>
	<g>
		<path fill="#FABB86" d="M527.073,583.5c0,0,0.96,22.564-4.561,27.845c1.679,9.603,4.081,15.362,4.081,15.362l-9.121,2.399
			c0,0-4.801,6.002-4.322,8.643c0.242,2.881,0.48,6.723-4.8,8.881c-5.282,2.162-23.524-4.8-23.524-4.8s-5.761,11.521-8.882,18.963
			c-3.12,7.201-25.925-5.281-25.925-5.281l9.122-24.966c0,0-8.16-32.884-4.8-50.649c3.36-17.762,21.843-30.244,39.366-26.883
			C510.75,556.613,527.313,570.777,527.073,583.5z"/>
		<path fill="#23210C" d="M487.226,581.338c0,0,2.882,6.962,16.324,7.202c13.441,0,18.002,4.562,16.082,8.16
			c3.841-2.159,2.64-6.481,2.64-6.481s6.241,2.402,4.801,9.363c1.92-1.682,3.362-7.922,1.202-13.205c1.919,0,3.36,3.361,4.319,6.725
			c0.241-3.123-3.36-23.045-16.803-31.688c4.082-0.241,5.521-3.361,5.042-6.723c-0.48,1.922-3.361,10.322-13.441,0.48
			c-10.083-9.841-28.807-8.401-35.288-2.159c1.201-4.321,5.762-7.442,9.122-8.162c-2.399-0.48-13.202,3.601-14.883,10.802
			c0-6.24,2.641-9.841,2.641-9.841s-6.001,3.601-6.721,11.28c-4.802-0.48-14.163,3.361-16.083,15.844
			c-1.92,12.482-7.441,19.443-8.401,18.004c2.881,1.201,6.961-1.922,7.922-3.121c-1.44,6.002-4.32,11.283-1.44,17.523
			c2.64,6.24,7.442,15.843,2.881,21.123c2.641-0.961,4.801-5.281,4.562-8.881c1.439,3.6-0.721,10.801,1.199,14.882
			c2.161,4.081-0.961,10.322-2.881,12.004c3.361-0.721,6.962-3.602,7.442-7.443c0.96,0,2.4,5.521,0.479,7.681
			c2.4-1.681,5.283-4.081,5.521-10.082c1.201,0.48,2.641,2.643,1.44,7.203c1.44-0.723,12.482-7.442,10.322-17.283
			c-2.159-9.842-0.719-20.403,0.48-22.804c1.92,1.2,1.679,7.681,0,12.243c2.161-0.961,4.802-6.24,4.561-11.043
			c2.4,0.96,3.6,6.241,2.16,7.682c1.92-2.641,2.641-8.162,1.441-10.803C482.665,596.941,493.467,596.941,487.226,581.338z"/>
		<path fill="#068963" d="M501.629,634.389c0,0,4.8-7.922,7.68-8.642c2.882-0.961,7.203,3.121,9.842,2.64
			c2.881-0.48-0.96,4.081-2.639,4.562c-2.162-1.44-4.562-2.881-7.683-2.401c-3.12,0.48-5.521,5.761-5.04,7.202
			c0.479,1.441,1.92,4.562,5.281,3.601c3.12-0.721,4.321-1.919,4.321-3.361c1.679,0.961,2.16,4.322,0,8.642
			c-2.162,4.321-8.643,3.122-8.643,3.122l-14.642-5.763C489.866,643.509,499.708,641.83,501.629,634.389z"/>
		<path fill="#068963" d="M522.272,607.984c0,0,1.92-4.321,0.241-6.482c-1.439-1.92-14.162,2.879-18.003,1.201
			C510.75,606.303,522.032,604.623,522.272,607.984z"/>
	</g>
	<path fill="#002352" d="M451.939,647.831c0,0,13.924,21.123,23.765,12.962c3.36,5.761,19.684,34.565,22.562,48.248
		c2.882,13.683-8.16,29.526-12.001,47.529c-3.841,18.002-2.16,40.326,2.641,54.488c-22.805,0-65.291,2.641-73.933,12.723
		c0.72-21.362,4.801-31.926,2.64-47.049C414.013,750.328,400.811,671.835,451.939,647.831z"/>
	<path fill="#0066CC" d="M415.693,762.33c0.241,2.4,0.48,4.562,0.961,6.724c21.364-8.402,46.568-8.402,68.172,0.239
		c0.24-2.4,0.479-5.041,0.721-7.44C463.461,753.93,438.018,756.33,415.693,762.33z"/>
	<path fill="#0066CC" d="M417.374,775.533c0,0.48,0,0.721,0.239,1.199c0.721,4.802,0.721,9.122,0.48,13.442
		c21.124-7.681,43.688-9.361,66.251-7.681c0-3.121,0-6.002,0-9.123C462.022,768.092,439.697,770.012,417.374,775.533z"/>
	<path fill="#FABB86" d="M602.686,747.929c0,0,10.561-1.681,18.003-5.282c7.441-3.6,11.042-5.521,11.042-5.521
		s15.123,1.922,18.723,2.401c3.599,0.72,16.323,13.202,20.883,15.842c-0.48,3.361-7.442-0.959-10.801-3.36
		c-3.361-2.398-8.161-5.28-8.161-5.28l5.761,7.442c0,0-0.479,8.159,0,9.361c-1.44,0.72-3.6-0.48-3.361-7.201
		c-1.919-3.361-9.122-6.961-9.122-6.961s4.801,5.041,5.762,6.48c0.96,1.441,1.68,7.682,1.68,7.682s-1.68,2.88-4.321-5.762
		c-1.68-5.041-5.041-3.84-12.962-1.92c-7.921,1.92-9.841-0.239-9.841-0.239l-23.044,6.48l-0.961-14.402"/>
	<path fill="#0066CC" d="M511.23,753.689c0,0-35.046-50.408-40.807-66.733c-5.76-16.321-22.563-26.163-30.964-14.882
		c-8.402,11.523,0,33.127,0,33.127s40.566,60.49,59.53,72.731c18.963,12.483,34.565,2.162,60.97-3.839
		c20.164-4.562,42.247-9.603,51.85-11.764l-2.162-17.282C579.881,746.488,511.23,753.689,511.23,753.689z"/>
	<g>
		<path fill="#ADADAD" d="M482.905,592.381c-0.48,2.16-2.641,3.36-4.801,2.88l0,0c-2.161-0.48-3.361-2.64-2.881-4.801l11.042-44.648
			c0.48-2.161,2.641-3.36,4.801-2.88l0,0c2.161,0.48,3.36,2.64,2.881,4.801L482.905,592.381z"/>
		<circle fill="#6D6D6D" cx="476.665" cy="600.783" r="12.722"/>
	</g>
	<g>
		<path fill="#DBDBDB" d="M884.257,740.487v16.802c0,5.281,2.64,10.082,6.721,12.963h18.724c4.08-2.882,6.721-7.683,6.721-12.963
			v-16.802H884.257z"/>
		<path fill="#A3A3A3" d="M925.543,770.971c0,0.723-0.722,1.44-1.439,1.44h-46.328c-0.722,0-1.441-0.718-1.441-1.44l0,0
			c0-0.719,0.72-1.439,1.441-1.439h46.328C924.821,769.532,925.543,770.253,925.543,770.971L925.543,770.971z"/>
		<g>
			<path fill="#DBDBDB" d="M914.502,765.212c-0.961,0-1.441,0-1.441,0l0.48-2.162c0,0,2.643,0.48,6.721-0.96
				c2.401-0.96,3.842-8.161,3.12-12.242c-0.239-1.44-0.719-1.681-0.719-1.681h-9.122v-2.159h9.122c0.719,0,2.399,0.479,2.88,3.601
				c0.722,4.319-0.479,13.201-4.562,14.641C918.103,764.971,915.94,765.212,914.502,765.212z"/>
		</g>
	</g>
	<g>
		<path fill="#DBDBDB" d="M661.257,740.728v16.802c0,5.281,2.64,10.082,6.721,12.963h18.723c4.081-2.881,6.723-7.682,6.723-12.963
			v-16.802H661.257z"/>
		<path fill="#A3A3A3" d="M702.543,771.452c0,0.721-0.72,1.439-1.44,1.439h-46.329c-0.721,0-1.44-0.719-1.44-1.439l0,0
			c0-0.719,0.72-1.44,1.44-1.44h46.329C702.064,769.771,702.543,770.492,702.543,771.452L702.543,771.452z"/>
		<g>
			<path fill="#DBDBDB" d="M691.741,765.45c-0.96,0-1.439,0-1.439,0l0.479-2.159c0,0,2.642,0.479,6.722-0.961
				c2.4-0.959,3.841-8.16,3.12-12.242c-0.239-1.44-0.72-1.679-0.72-1.679h-9.122v-2.161h9.122c0.72,0,2.401,0.48,2.88,3.601
				c0.722,4.321-0.479,13.202-4.56,14.643C695.343,765.212,692.942,765.45,691.741,765.45z"/>
		</g>
	</g>
	<g>
		<path fill="#D67838" d="M1167.267,991.57c0,0.961-0.723,1.441-1.442,1.441h-30.006c-0.958,0-1.439-0.721-1.439-1.441l0,0
			c0-0.959,0.72-1.44,1.439-1.44h30.006C1166.545,990.13,1167.267,990.852,1167.267,991.57L1167.267,991.57z"/>
		<rect x="1143.981" y="781.773" fill="#CE8757" width="13.682" height="210.038"/>
	</g>
	<rect x="541.235" y="772.411" fill="#F9AE7A" width="694.201" height="16.804"/>
	<path fill="#FFFFFF" d="M790.931,707.146l0.431-2.062c0.041-0.21-0.137-0.396-0.345-0.36l-2.765,0.45l-0.505,2.416l-1.225,0.2
		l0.41-1.984c0.042-0.21-0.134-0.396-0.342-0.361l-2.767,0.453l-0.504,2.415l-8.647,1.408c-0.394,0.065-0.726,0.337-0.862,0.711
		l-1.536,4.154l3.013-0.492l13.146-2.142c0.536-0.087,1.083-0.073,1.614,0.05c1.017,0.236,2.287,0.941,2.331,2.988
		c0.075,3.428-2.375,9.922-9.771,11.224l2.208-10.604c0.091-0.438-0.283-0.826-0.725-0.755l-5.137,0.839l-3.721,16.262
		c0,0,1.274-0.052,3.236-0.37l-0.355,1.704l2.825-0.462c0.223-0.036,0.405-0.207,0.456-0.431l0.306-1.467
		c0.411-0.102,0.826-0.213,1.256-0.337l-0.413,1.975l2.825-0.46c0.224-0.036,0.403-0.207,0.455-0.432l0.462-2.23
		c4.468-1.813,9.083-4.931,11.255-10.273C801.924,708.398,795.296,706.878,790.931,707.146z"/>
	<path fill="#FFFFFF" d="M1052.437,720.998l0.574-1.54c0.058-0.158-0.059-0.32-0.223-0.32l-2.187,0.023l-0.674,1.805l-0.968,0.009
		l0.55-1.481c0.057-0.158-0.059-0.321-0.222-0.321l-2.188,0.024l-0.675,1.806l-6.835,0.067c-0.312,0.005-0.598,0.175-0.75,0.448
		l-1.672,3.023l2.382-0.023l10.394-0.106c0.425-0.006,0.845,0.07,1.238,0.227c0.759,0.302,1.655,0.996,1.448,2.578
		c-0.344,2.657-2.999,7.379-8.858,7.513l2.95-7.921c0.122-0.326-0.12-0.67-0.47-0.665l-4.062,0.04l-4.784,12.11
		c0,0,0.991,0.111,2.54,0.095l-0.472,1.272l2.232-0.022c0.177-0.001,0.337-0.114,0.403-0.279l0.409-1.097
		c0.327-0.028,0.662-0.067,1.007-0.111l-0.549,1.476l2.232-0.024c0.176-0.001,0.337-0.111,0.401-0.278l0.62-1.669
		c3.66-0.872,7.585-2.733,9.892-6.603C1060.772,723.258,1055.837,721.306,1052.437,720.998z"/>
</g>
<g>
	<g>
		<path d="M610.935,146.133l-26.207,60.543h-13.839l-26.119-60.543h15.135l18.423,43.245l18.681-43.245H610.935z"/>
		<path d="M620.491,204.297c-3.892-2.046-6.935-4.887-9.125-8.519c-2.191-3.633-3.287-7.754-3.287-12.368
			c0-4.612,1.094-8.736,3.287-12.368c2.191-3.633,5.234-6.472,9.125-8.52c3.892-2.045,8.288-3.07,13.19-3.07
			c4.899,0,9.282,1.024,13.146,3.07c3.862,2.047,6.888,4.887,9.081,8.52c2.19,3.632,3.287,7.756,3.287,12.368
			c0,4.614-1.096,8.735-3.287,12.368c-2.192,3.632-5.218,6.473-9.081,8.519c-3.864,2.047-8.247,3.07-13.146,3.07
			C628.779,207.367,624.383,206.344,620.491,204.297z M642.2,192.794c2.22-2.335,3.331-5.462,3.331-9.384
			c0-3.921-1.112-7.05-3.331-9.384c-2.221-2.336-5.06-3.503-8.518-3.503c-3.46,0-6.313,1.167-8.562,3.503
			c-2.249,2.334-3.374,5.463-3.374,9.384c0,3.922,1.125,7.049,3.374,9.384s5.103,3.502,8.562,3.502
			C637.14,196.297,639.979,195.13,642.2,192.794z"/>
		<path d="M668.189,142.501h13.493v64.175h-13.493V142.501L668.189,142.501z"/>
		<path d="M741.101,160.144v46.532h-12.8v-5.535c-1.789,2.019-3.922,3.561-6.401,4.626c-2.479,1.066-5.16,1.6-8.044,1.6
			c-6.112,0-10.955-1.758-14.53-5.275c-3.574-3.517-5.362-8.735-5.362-15.655v-26.293h13.492v24.304
			c0,7.497,3.143,11.244,9.428,11.244c3.229,0,5.824-1.051,7.785-3.157c1.96-2.103,2.94-5.231,2.94-9.383v-23.007L741.101,160.144
			L741.101,160.144z"/>
		<path d="M795.892,164.642c3.546,3.459,5.319,8.591,5.319,15.395v26.639h-13.492v-24.563c0-3.689-0.808-6.443-2.423-8.259
			c-1.615-1.817-3.95-2.724-7.005-2.724c-3.404,0-6.112,1.052-8.13,3.156c-2.018,2.106-3.027,5.233-3.027,9.384v23.007h-13.492
			v-46.532h12.886v5.449c1.787-1.959,4.006-3.473,6.66-4.54c2.65-1.066,5.562-1.6,8.734-1.6
			C787.689,159.453,792.346,161.183,795.892,164.642z"/>
		<path d="M843.417,204.427c-1.328,0.981-2.955,1.716-4.887,2.206c-1.933,0.49-3.964,0.734-6.097,0.734
			c-5.535,0-9.818-1.412-12.845-4.237c-3.026-2.825-4.542-6.977-4.542-12.455V171.56h-7.178v-10.378h7.178v-11.33h13.494v11.331
			h11.589v10.378h-11.589v18.942c0,1.96,0.504,3.474,1.514,4.541c1.008,1.068,2.434,1.601,4.281,1.601
			c2.133,0,3.947-0.576,5.449-1.73L843.417,204.427z"/>
		<path d="M894.88,187.216h-35.202c0.633,2.884,2.131,5.161,4.496,6.832c2.363,1.674,5.305,2.509,8.821,2.509
			c2.423,0,4.569-0.36,6.444-1.082c1.872-0.72,3.618-1.86,5.232-3.417l7.181,7.784c-4.384,5.017-10.784,7.525-19.202,7.525
			c-5.247,0-9.891-1.023-13.926-3.07c-4.035-2.046-7.15-4.887-9.34-8.519c-2.192-3.633-3.288-7.755-3.288-12.368
			c0-4.554,1.082-8.663,3.244-12.324c2.162-3.661,5.132-6.516,8.909-8.563c3.775-2.045,8-3.07,12.67-3.07
			c4.555,0,8.678,0.98,12.37,2.94c3.688,1.961,6.587,4.772,8.69,8.433c2.104,3.663,3.156,7.914,3.156,12.758
			C895.138,183.756,895.053,184.967,894.88,187.216z M863.311,172.254c-2.076,1.729-3.346,4.095-3.806,7.092h22.919
			c-0.462-2.94-1.729-5.289-3.806-7.05c-2.075-1.758-4.612-2.637-7.611-2.637C867.951,169.659,865.386,170.523,863.311,172.254z"/>
		<path d="M949.454,187.216h-35.201c0.633,2.884,2.132,5.161,4.497,6.832c2.364,1.674,5.304,2.509,8.822,2.509
			c2.422,0,4.568-0.36,6.443-1.082c1.873-0.72,3.617-1.86,5.232-3.417l7.179,7.784c-4.383,5.017-10.783,7.525-19.199,7.525
			c-5.248,0-9.891-1.023-13.926-3.07c-4.037-2.046-7.15-4.887-9.341-8.519c-2.192-3.633-3.287-7.755-3.287-12.368
			c0-4.554,1.081-8.663,3.243-12.324c2.163-3.661,5.132-6.516,8.908-8.563c3.776-2.045,8-3.07,12.67-3.07
			c4.555,0,8.678,0.98,12.368,2.94c3.69,1.961,6.587,4.772,8.692,8.433c2.104,3.663,3.156,7.914,3.156,12.758
			C949.714,183.756,949.627,184.967,949.454,187.216z M917.885,172.254c-2.076,1.729-3.344,4.095-3.806,7.092h22.92
			c-0.461-2.94-1.729-5.289-3.805-7.05c-2.076-1.758-4.614-2.637-7.611-2.637C922.525,169.659,919.96,170.523,917.885,172.254z"/>
		<path d="M978.125,161.183c2.736-1.153,5.894-1.729,9.469-1.729v12.455c-1.499-0.115-2.507-0.173-3.025-0.173
			c-3.865,0-6.892,1.081-9.082,3.243s-3.287,5.405-3.287,9.729v21.969h-13.492v-46.532h12.887v6.141
			C973.208,164.037,975.384,162.336,978.125,161.183z"/>
		<path d="M1000.137,205.941c-3.692-0.951-6.632-2.147-8.823-3.589l4.498-9.687c2.076,1.327,4.583,2.408,7.522,3.244
			c2.942,0.836,5.824,1.254,8.65,1.254c5.709,0,8.563-1.413,8.563-4.238c0-1.326-0.778-2.277-2.336-2.854
			c-1.556-0.576-3.95-1.066-7.179-1.471c-3.807-0.576-6.948-1.239-9.428-1.989c-2.479-0.749-4.628-2.076-6.444-3.979
			c-1.815-1.902-2.723-4.612-2.723-8.129c0-2.941,0.849-5.548,2.551-7.828c1.699-2.277,4.179-4.05,7.438-5.319
			c3.257-1.268,7.107-1.903,11.546-1.903c3.288,0,6.559,0.361,9.818,1.081c3.256,0.722,5.952,1.716,8.086,2.985l-4.496,9.6
			c-4.097-2.306-8.564-3.459-13.408-3.459c-2.884,0-5.046,0.404-6.486,1.21c-1.44,0.808-2.16,1.846-2.16,3.113
			c0,1.441,0.777,2.452,2.334,3.027c1.558,0.577,4.034,1.124,7.438,1.643c3.805,0.636,6.918,1.312,9.341,2.033
			c2.422,0.722,4.526,2.033,6.313,3.936c1.788,1.902,2.681,4.555,2.681,7.957c0,2.884-0.865,5.448-2.594,7.697
			c-1.729,2.249-4.253,3.994-7.568,5.232c-3.315,1.239-7.252,1.86-11.805,1.86C1007.602,207.367,1003.825,206.892,1000.137,205.941z
			"/>
		<path d="M1040.872,204.947c-1.615-1.614-2.422-3.633-2.422-6.055c0-2.478,0.807-4.483,2.422-6.01
			c1.614-1.528,3.604-2.293,5.969-2.293c2.362,0,4.352,0.764,5.967,2.293c1.613,1.528,2.423,3.532,2.423,6.01
			c0,2.421-0.81,4.441-2.423,6.055c-1.616,1.616-3.605,2.421-5.967,2.421C1044.476,207.367,1042.486,206.562,1040.872,204.947z"/>
	</g>
	<g>
		<path d="M623.896,242.737h-6.102v-1.114h13.441v1.114h-6.102v15.839h-1.236L623.896,242.737L623.896,242.737z"/>
		<path d="M643.827,247.218c0.921,0.92,1.381,2.244,1.381,3.971v7.387h-1.211v-7.29c0-1.42-0.361-2.502-1.079-3.245
			c-0.718-0.742-1.723-1.114-3.015-1.114c-1.485,0-2.655,0.444-3.511,1.333c-0.856,0.888-1.284,2.083-1.284,3.584v6.732h-1.211
			v-17.969h1.211v7.967c0.437-0.872,1.082-1.546,1.938-2.022c0.855-0.476,1.864-0.715,3.027-0.715
			C641.655,245.837,642.907,246.297,643.827,247.218z"/>
		<path d="M650.1,242.58c-0.193-0.186-0.291-0.415-0.291-0.69s0.097-0.509,0.291-0.702c0.194-0.195,0.428-0.291,0.702-0.291
			s0.508,0.093,0.702,0.278c0.194,0.186,0.291,0.417,0.291,0.691c0,0.275-0.097,0.509-0.291,0.702
			c-0.195,0.194-0.428,0.291-0.702,0.291S650.293,242.765,650.1,242.58z M650.196,245.934h1.211v12.642h-1.211V245.934z"/>
		<path d="M656.807,258.212c-0.92-0.306-1.638-0.694-2.155-1.163l0.557-0.968c0.516,0.436,1.182,0.799,1.998,1.09
			c0.814,0.291,1.667,0.436,2.556,0.436c1.274,0,2.215-0.21,2.82-0.629c0.606-0.42,0.909-1.001,0.909-1.744
			c0-0.533-0.166-0.952-0.497-1.259c-0.331-0.306-0.738-0.533-1.223-0.678c-0.484-0.145-1.154-0.298-2.009-0.46
			c-1.001-0.177-1.809-0.372-2.422-0.581c-0.613-0.21-1.138-0.548-1.574-1.017c-0.437-0.469-0.654-1.114-0.654-1.937
			c0-1.001,0.415-1.829,1.247-2.482c0.833-0.654,2.014-0.98,3.548-0.98c0.806,0,1.606,0.113,2.397,0.338
			c0.792,0.227,1.438,0.525,1.938,0.896l-0.556,0.969c-0.517-0.372-1.106-0.654-1.768-0.848c-0.662-0.194-1.34-0.29-2.035-0.29
			c-1.179,0-2.066,0.217-2.664,0.654c-0.597,0.436-0.896,1.01-0.896,1.719c0,0.566,0.169,1.005,0.509,1.32
			c0.338,0.314,0.755,0.549,1.247,0.702c0.492,0.153,1.183,0.319,2.071,0.497c0.984,0.177,1.781,0.368,2.386,0.569
			c0.606,0.203,1.118,0.529,1.538,0.981s0.63,1.074,0.63,1.864c0,1.05-0.435,1.89-1.308,2.519c-0.871,0.63-2.098,0.944-3.68,0.944
			C658.696,258.672,657.728,258.519,656.807,258.212z"/>
		<path d="M674.219,242.58c-0.195-0.186-0.291-0.415-0.291-0.69s0.096-0.509,0.291-0.702c0.194-0.195,0.428-0.291,0.702-0.291
			c0.273,0,0.509,0.093,0.702,0.278c0.194,0.186,0.291,0.417,0.291,0.691c0,0.275-0.097,0.509-0.291,0.702
			c-0.193,0.194-0.428,0.291-0.702,0.291C674.646,242.859,674.413,242.765,674.219,242.58z M674.315,245.934h1.211v12.642h-1.211
			V245.934z"/>
		<path d="M680.927,258.212c-0.92-0.306-1.639-0.694-2.155-1.163l0.556-0.968c0.516,0.436,1.183,0.799,1.999,1.09
			c0.814,0.291,1.667,0.436,2.555,0.436c1.275,0,2.216-0.21,2.821-0.629c0.605-0.42,0.909-1.001,0.909-1.744
			c0-0.533-0.167-0.952-0.497-1.259c-0.332-0.306-0.74-0.533-1.224-0.678s-1.154-0.298-2.01-0.46
			c-1.001-0.177-1.808-0.372-2.422-0.581c-0.614-0.21-1.138-0.548-1.574-1.017c-0.436-0.469-0.654-1.114-0.654-1.937
			c0-1.001,0.414-1.829,1.247-2.482c0.832-0.653,2.014-0.98,3.547-0.98c0.806,0,1.606,0.113,2.398,0.338
			c0.791,0.227,1.438,0.525,1.938,0.896l-0.556,0.969c-0.516-0.372-1.106-0.654-1.768-0.848c-0.662-0.194-1.34-0.29-2.034-0.29
			c-1.18,0-2.067,0.217-2.664,0.654c-0.598,0.436-0.896,1.01-0.896,1.719c0,0.566,0.169,1.005,0.508,1.32
			c0.339,0.314,0.754,0.549,1.248,0.702c0.492,0.153,1.182,0.319,2.071,0.497c0.984,0.177,1.78,0.368,2.386,0.569
			c0.605,0.203,1.118,0.529,1.538,0.981c0.419,0.452,0.629,1.074,0.629,1.864c0,1.05-0.436,1.89-1.308,2.519
			c-0.872,0.63-2.099,0.944-3.681,0.944C682.816,258.672,681.847,258.519,680.927,258.212z"/>
		<path d="M706.307,247.036c0.838,0.799,1.258,1.974,1.258,3.524v8.016h-1.162v-2.253c-0.405,0.743-0.993,1.319-1.767,1.731
			c-0.775,0.411-1.704,0.618-2.786,0.618c-1.404,0-2.515-0.331-3.33-0.993c-0.814-0.662-1.224-1.533-1.224-2.615
			c0-1.048,0.375-1.9,1.126-2.555c0.75-0.654,1.949-0.98,3.597-0.98h4.335v-1.017c0-1.178-0.32-2.075-0.958-2.688
			c-0.638-0.614-1.57-0.92-2.797-0.92c-0.838,0-1.644,0.145-2.408,0.436c-0.767,0.291-1.417,0.678-1.95,1.163l-0.606-0.871
			c0.629-0.565,1.389-1.005,2.277-1.319c0.888-0.316,1.816-0.473,2.785-0.473C704.263,245.837,705.466,246.236,706.307,247.036z
			 M704.695,256.953c0.735-0.484,1.289-1.187,1.66-2.107v-2.373h-4.312c-1.243,0-2.144,0.226-2.701,0.678
			c-0.556,0.452-0.835,1.074-0.835,1.864c0,0.824,0.307,1.474,0.919,1.95c0.614,0.477,1.478,0.714,2.592,0.714
			C703.068,257.679,703.961,257.438,704.695,256.953z"/>
		<path d="M722.482,247.218c0.921,0.92,1.38,2.244,1.38,3.971v7.387h-1.21v-7.29c0-1.42-0.36-2.502-1.079-3.245
			c-0.719-0.742-1.723-1.114-3.014-1.114c-1.485,0-2.656,0.444-3.511,1.333c-0.855,0.888-1.284,2.083-1.284,3.584v6.732h-1.211
			v-12.642h1.162v2.736c0.436-0.888,1.085-1.583,1.949-2.083c0.864-0.5,1.886-0.75,3.063-0.75
			C720.311,245.837,721.562,246.297,722.482,247.218z"/>
		<path d="M736.783,257.85c-0.961-0.549-1.716-1.312-2.264-2.289c-0.549-0.977-0.825-2.079-0.825-3.305s0.275-2.329,0.825-3.306
			c0.549-0.977,1.303-1.739,2.264-2.289c0.959-0.549,2.038-0.824,3.232-0.824c1.195,0,2.271,0.274,3.233,0.824
			c0.961,0.549,1.715,1.312,2.264,2.289c0.55,0.978,0.824,2.08,0.824,3.306s-0.274,2.329-0.824,3.305
			c-0.549,0.978-1.303,1.74-2.264,2.289c-0.961,0.548-2.038,0.823-3.233,0.823C738.821,258.672,737.743,258.398,736.783,257.85z
			 M742.619,256.905c0.767-0.453,1.373-1.082,1.817-1.89c0.444-0.807,0.665-1.727,0.665-2.76c0-1.033-0.222-1.954-0.665-2.761
			c-0.444-0.807-1.049-1.438-1.817-1.889c-0.766-0.452-1.634-0.678-2.603-0.678s-1.836,0.226-2.603,0.678
			c-0.767,0.452-1.373,1.082-1.816,1.889c-0.445,0.807-0.666,1.728-0.666,2.761c0,1.033,0.221,1.953,0.666,2.76
			c0.444,0.808,1.048,1.437,1.816,1.89c0.767,0.452,1.634,0.678,2.603,0.678S741.852,257.356,742.619,256.905z"/>
		<path d="M759.631,246.66c0.953,0.549,1.699,1.308,2.24,2.276c0.541,0.969,0.812,2.075,0.812,3.318c0,1.243-0.271,2.354-0.812,3.33
			s-1.287,1.736-2.24,2.275c-0.953,0.542-2.018,0.812-3.197,0.812c-1.113,0-2.122-0.262-3.027-0.786
			c-0.905-0.525-1.607-1.256-2.107-2.192v7.58h-1.21v-17.34h1.162v2.979c0.5-0.969,1.207-1.724,2.119-2.265
			c0.911-0.541,1.933-0.811,3.063-0.811C757.614,245.837,758.678,246.112,759.631,246.66z M758.978,256.905
			c0.774-0.453,1.385-1.082,1.828-1.89c0.445-0.807,0.667-1.727,0.667-2.76c0-1.033-0.223-1.954-0.667-2.761
			c-0.443-0.807-1.053-1.438-1.828-1.889c-0.776-0.452-1.648-0.678-2.616-0.678s-1.837,0.226-2.603,0.678
			c-0.767,0.452-1.373,1.082-1.817,1.889c-0.445,0.807-0.666,1.728-0.666,2.761c0,1.033,0.222,1.953,0.666,2.76
			c0.444,0.808,1.049,1.437,1.817,1.89c0.766,0.452,1.634,0.678,2.603,0.678S758.202,257.356,758.978,256.905z"/>
		<path d="M777.116,252.546h-10.873c0.031,0.984,0.282,1.86,0.75,2.627c0.468,0.767,1.102,1.361,1.901,1.78
			c0.8,0.42,1.699,0.629,2.701,0.629c0.823,0,1.585-0.149,2.289-0.448c0.701-0.298,1.287-0.739,1.756-1.32l0.701,0.799
			c-0.549,0.662-1.239,1.171-2.07,1.526c-0.832,0.355-1.732,0.532-2.701,0.532c-1.259,0-2.381-0.273-3.365-0.823
			c-0.985-0.549-1.756-1.309-2.314-2.276c-0.556-0.969-0.834-2.075-0.834-3.318c0-1.227,0.262-2.329,0.787-3.306
			c0.524-0.977,1.247-1.739,2.167-2.289s1.953-0.824,3.1-0.824c1.147,0,2.175,0.271,3.088,0.811
			c0.911,0.541,1.631,1.296,2.155,2.265c0.524,0.968,0.787,2.067,0.787,3.293L777.116,252.546z M768.712,247.496
			c-0.71,0.396-1.28,0.954-1.708,1.671c-0.428,0.719-0.674,1.53-0.738,2.434h9.687c-0.049-0.904-0.292-1.71-0.727-2.421
			c-0.436-0.71-1.01-1.267-1.719-1.671c-0.711-0.404-1.511-0.605-2.399-0.605C770.222,246.903,769.422,247.101,768.712,247.496z"/>
		<path d="M790.822,247.218c0.92,0.92,1.38,2.244,1.38,3.971v7.387h-1.21v-7.29c0-1.42-0.36-2.502-1.079-3.245
			c-0.719-0.742-1.723-1.114-3.015-1.114c-1.484,0-2.655,0.444-3.511,1.333c-0.857,0.888-1.284,2.083-1.284,3.584v6.732h-1.211
			v-12.642h1.163v2.736c0.435-0.888,1.085-1.583,1.949-2.083c0.864-0.5,1.884-0.75,3.064-0.75
			C788.651,245.837,789.902,246.297,790.822,247.218z"/>
		<path d="M803.705,258.212c-0.92-0.306-1.639-0.694-2.153-1.163l0.556-0.968c0.517,0.436,1.184,0.799,1.998,1.09
			s1.667,0.436,2.555,0.436c1.275,0,2.217-0.21,2.822-0.629c0.605-0.42,0.906-1.001,0.906-1.744c0-0.533-0.164-0.952-0.496-1.259
			c-0.331-0.306-0.738-0.533-1.223-0.678c-0.483-0.145-1.156-0.298-2.01-0.46c-1.002-0.177-1.809-0.372-2.422-0.581
			c-0.613-0.21-1.139-0.548-1.574-1.017c-0.436-0.469-0.654-1.114-0.654-1.937c0-1.001,0.415-1.829,1.247-2.482
			c0.831-0.654,2.013-0.98,3.548-0.98c0.807,0,1.606,0.113,2.398,0.338c0.791,0.227,1.437,0.525,1.936,0.896l-0.555,0.969
			c-0.519-0.372-1.106-0.654-1.768-0.848c-0.664-0.194-1.342-0.29-2.036-0.29c-1.179,0-2.066,0.217-2.663,0.654
			c-0.598,0.436-0.898,1.01-0.898,1.719c0,0.566,0.17,1.005,0.512,1.32c0.337,0.314,0.754,0.549,1.246,0.702
			c0.492,0.153,1.183,0.319,2.071,0.497c0.984,0.177,1.78,0.368,2.386,0.569c0.605,0.203,1.119,0.529,1.538,0.981
			s0.628,1.074,0.628,1.864c0,1.05-0.436,1.89-1.307,2.519c-0.871,0.63-2.1,0.944-3.681,0.944
			C805.594,258.672,804.625,258.519,803.705,258.212z"/>
		<path d="M816.698,257.85c-0.96-0.549-1.716-1.312-2.265-2.289c-0.549-0.978-0.822-2.079-0.822-3.305s0.273-2.329,0.822-3.306
			c0.549-0.977,1.305-1.739,2.265-2.289s2.038-0.824,3.233-0.824c1.193,0,2.271,0.274,3.231,0.824
			c0.962,0.549,1.716,1.312,2.266,2.289c0.548,0.978,0.823,2.08,0.823,3.306s-0.275,2.329-0.823,3.305
			c-0.55,0.978-1.304,1.74-2.266,2.289c-0.96,0.549-2.038,0.823-3.231,0.823C818.736,258.672,817.658,258.398,816.698,257.85z
			 M822.533,256.905c0.768-0.453,1.373-1.082,1.816-1.89c0.445-0.807,0.667-1.727,0.667-2.76c0-1.033-0.222-1.954-0.667-2.761
			c-0.443-0.807-1.049-1.438-1.816-1.889c-0.766-0.452-1.635-0.678-2.602-0.678c-0.971,0-1.838,0.226-2.605,0.678
			c-0.766,0.452-1.371,1.082-1.817,1.889c-0.442,0.807-0.663,1.728-0.663,2.761c0,1.033,0.222,1.953,0.663,2.76
			c0.444,0.808,1.052,1.437,1.817,1.89c0.767,0.452,1.635,0.678,2.605,0.678C820.898,257.583,821.768,257.356,822.533,256.905z"/>
		<path d="M841.073,245.934v12.642h-1.162v-2.713c-0.421,0.888-1.042,1.579-1.866,2.071c-0.823,0.493-1.793,0.738-2.907,0.738
			c-1.646,0-2.938-0.459-3.874-1.379c-0.938-0.921-1.404-2.245-1.404-3.972v-7.387h1.212v7.29c0,1.421,0.364,2.502,1.088,3.245
			c0.728,0.743,1.751,1.114,3.075,1.114c1.421,0,2.548-0.444,3.381-1.333c0.831-0.888,1.246-2.083,1.246-3.584v-6.732
			L841.073,245.934L841.073,245.934z"/>
		<path d="M849.185,246.576c0.823-0.492,1.825-0.738,3.003-0.738v1.188l-0.29-0.025c-1.404,0-2.503,0.441-3.293,1.32
			c-0.792,0.88-1.188,2.103-1.188,3.668v6.587h-1.211v-12.642h1.163v2.761C847.757,247.775,848.362,247.068,849.185,246.576z"/>
		<path d="M857.128,257.85c-0.969-0.549-1.727-1.312-2.276-2.289c-0.549-0.977-0.823-2.079-0.823-3.305
			c0-1.244,0.274-2.353,0.823-3.33c0.55-0.977,1.308-1.736,2.276-2.276c0.971-0.541,2.067-0.811,3.294-0.811
			c1.016,0,1.94,0.198,2.772,0.593c0.832,0.396,1.507,0.974,2.021,1.732l-0.896,0.653c-0.452-0.63-1.014-1.103-1.683-1.417
			c-0.67-0.315-1.409-0.473-2.217-0.473c-0.985,0-1.868,0.222-2.651,0.667c-0.784,0.444-1.396,1.069-1.84,1.876
			c-0.445,0.808-0.666,1.737-0.666,2.786c0,1.049,0.222,1.977,0.666,2.785c0.443,0.807,1.056,1.433,1.84,1.877
			c0.783,0.444,1.666,0.667,2.651,0.667c0.807,0,1.546-0.158,2.217-0.473c0.669-0.314,1.229-0.787,1.683-1.416l0.896,0.654
			c-0.515,0.759-1.189,1.336-2.021,1.731c-0.831,0.396-1.757,0.593-2.772,0.593C859.194,258.672,858.098,258.398,857.128,257.85z"/>
		<path d="M879.312,252.546h-10.873c0.031,0.984,0.281,1.86,0.75,2.627c0.468,0.767,1.103,1.361,1.901,1.78
			c0.799,0.42,1.697,0.629,2.699,0.629c0.823,0,1.587-0.149,2.289-0.448s1.288-0.739,1.755-1.32l0.703,0.799
			c-0.55,0.662-1.239,1.171-2.07,1.526c-0.833,0.355-1.731,0.532-2.7,0.532c-1.26,0-2.381-0.273-3.366-0.823
			s-1.757-1.309-2.312-2.276c-0.557-0.969-0.837-2.075-0.837-3.318c0-1.227,0.264-2.329,0.788-3.306
			c0.525-0.977,1.249-1.739,2.168-2.289c0.92-0.549,1.952-0.824,3.1-0.824s2.176,0.271,3.087,0.811
			c0.912,0.541,1.631,1.296,2.155,2.265c0.524,0.968,0.788,2.067,0.788,3.293L879.312,252.546z M870.907,247.496
			c-0.709,0.396-1.279,0.954-1.706,1.671c-0.429,0.719-0.675,1.53-0.74,2.434h9.688c-0.048-0.904-0.29-1.71-0.727-2.421
			c-0.437-0.71-1.01-1.267-1.72-1.671s-1.51-0.605-2.397-0.605C872.417,246.903,871.618,247.101,870.907,247.496z"/>
		<path d="M898.853,246.66c0.953,0.549,1.699,1.308,2.242,2.276c0.54,0.969,0.811,2.075,0.811,3.318c0,1.243-0.271,2.354-0.811,3.33
			c-0.543,0.977-1.289,1.736-2.242,2.275c-0.951,0.542-2.017,0.812-3.194,0.812c-1.116,0-2.124-0.262-3.028-0.786
			c-0.903-0.525-1.606-1.256-2.106-2.192v7.58h-1.211v-17.34h1.162v2.979c0.499-0.969,1.206-1.724,2.118-2.265
			c0.912-0.541,1.933-0.811,3.064-0.811C896.836,245.837,897.9,246.112,898.853,246.66z M898.199,256.905
			c0.776-0.453,1.385-1.082,1.828-1.89c0.445-0.807,0.666-1.727,0.666-2.76c0-1.033-0.221-1.954-0.666-2.761
			c-0.443-0.807-1.051-1.438-1.828-1.889c-0.774-0.452-1.646-0.678-2.615-0.678s-1.835,0.226-2.604,0.678
			c-0.767,0.452-1.371,1.082-1.815,1.889c-0.444,0.807-0.667,1.728-0.667,2.761c0,1.033,0.223,1.953,0.667,2.76
			c0.444,0.808,1.049,1.437,1.815,1.89c0.769,0.452,1.635,0.678,2.604,0.678S897.425,257.356,898.199,256.905z"/>
		<path d="M908.637,246.576c0.824-0.492,1.825-0.738,3.003-0.738v1.188L911.349,247c-1.403,0-2.502,0.441-3.292,1.32
			c-0.792,0.88-1.187,2.103-1.187,3.668v6.587h-1.212v-12.642h1.163v2.761C907.209,247.775,907.814,247.068,908.637,246.576z"/>
		<path d="M916.568,257.85c-0.961-0.549-1.717-1.312-2.265-2.289c-0.547-0.977-0.822-2.079-0.822-3.305s0.274-2.329,0.822-3.306
			c0.549-0.977,1.304-1.739,2.265-2.289c0.96-0.549,2.038-0.824,3.232-0.824c1.195,0,2.271,0.274,3.233,0.824
			c0.96,0.549,1.716,1.312,2.265,2.289c0.549,0.978,0.823,2.08,0.823,3.306s-0.274,2.329-0.823,3.305
			c-0.55,0.977-1.305,1.74-2.265,2.289c-0.962,0.549-2.038,0.823-3.233,0.823C918.606,258.672,917.528,258.398,916.568,257.85z
			 M922.404,256.905c0.768-0.453,1.373-1.082,1.815-1.89c0.445-0.807,0.667-1.727,0.667-2.76c0-1.033-0.222-1.954-0.667-2.761
			c-0.442-0.807-1.048-1.438-1.815-1.889c-0.766-0.452-1.635-0.678-2.604-0.678s-1.836,0.226-2.602,0.678
			c-0.769,0.452-1.374,1.082-1.816,1.889c-0.445,0.807-0.667,1.728-0.667,2.761c0,1.033,0.222,1.953,0.667,2.76
			c0.442,0.808,1.048,1.437,1.816,1.89c0.765,0.452,1.633,0.678,2.602,0.678S921.638,257.356,922.404,256.905z"/>
		<path d="M926.304,263.152c-0.461-0.145-0.836-0.356-1.127-0.629l0.485-0.897c0.516,0.469,1.203,0.703,2.058,0.703
			c0.742,0,1.309-0.218,1.694-0.654c0.389-0.436,0.582-1.066,0.582-1.889v-13.852h1.211v13.901c0,1.081-0.298,1.941-0.896,2.579
			c-0.597,0.638-1.437,0.958-2.517,0.958C927.26,263.371,926.764,263.298,926.304,263.152z M929.9,242.58
			c-0.194-0.186-0.291-0.415-0.291-0.69s0.097-0.509,0.291-0.702c0.193-0.195,0.427-0.291,0.701-0.291
			c0.273,0,0.51,0.093,0.703,0.278c0.193,0.186,0.29,0.417,0.29,0.691c0,0.275-0.097,0.509-0.29,0.702
			c-0.194,0.194-0.43,0.291-0.703,0.291C930.327,242.859,930.094,242.765,929.9,242.58z"/>
		<path d="M946.997,252.546h-10.874c0.032,0.984,0.283,1.86,0.751,2.627c0.469,0.767,1.102,1.361,1.901,1.78
			c0.8,0.42,1.698,0.629,2.699,0.629c0.825,0,1.586-0.149,2.29-0.448c0.701-0.298,1.286-0.739,1.756-1.32l0.702,0.799
			c-0.551,0.662-1.239,1.171-2.071,1.526c-0.831,0.355-1.731,0.532-2.7,0.532c-1.26,0-2.381-0.273-3.366-0.823
			c-0.983-0.549-1.756-1.309-2.313-2.276c-0.556-0.969-0.834-2.075-0.834-3.318c0-1.227,0.262-2.329,0.786-3.306
			c0.524-0.977,1.247-1.739,2.167-2.289c0.921-0.549,1.953-0.824,3.102-0.824c1.145,0,2.175,0.271,3.088,0.811
			c0.91,0.541,1.629,1.296,2.154,2.265c0.524,0.968,0.786,2.067,0.786,3.293L946.997,252.546z M938.594,247.496
			c-0.711,0.396-1.28,0.954-1.708,1.671c-0.427,0.719-0.674,1.53-0.738,2.434h9.687c-0.049-0.904-0.291-1.71-0.728-2.421
			c-0.436-0.71-1.01-1.267-1.72-1.671c-0.709-0.404-1.51-0.605-2.396-0.605C940.104,246.903,939.304,247.101,938.594,247.496z"/>
		<path d="M952.494,257.85c-0.969-0.549-1.729-1.312-2.276-2.289c-0.55-0.978-0.824-2.079-0.824-3.305
			c0-1.244,0.274-2.353,0.824-3.33c0.548-0.977,1.308-1.736,2.276-2.276c0.968-0.541,2.066-0.811,3.294-0.811
			c1.015,0,1.938,0.198,2.773,0.593c0.83,0.396,1.504,0.974,2.02,1.732l-0.895,0.653c-0.453-0.63-1.015-1.103-1.685-1.417
			c-0.669-0.315-1.408-0.473-2.215-0.473c-0.984,0-1.868,0.222-2.653,0.667c-0.782,0.444-1.396,1.069-1.839,1.876
			c-0.444,0.808-0.667,1.737-0.667,2.786c0,1.049,0.223,1.977,0.667,2.785c0.444,0.807,1.057,1.433,1.839,1.877
			c0.785,0.444,1.669,0.667,2.653,0.667c0.806,0,1.545-0.158,2.215-0.473c0.67-0.314,1.231-0.787,1.685-1.416l0.895,0.654
			c-0.516,0.759-1.189,1.336-2.02,1.731c-0.835,0.396-1.759,0.593-2.773,0.593C954.561,258.672,953.462,258.398,952.494,257.85z"/>
		<path d="M970.633,257.777c-0.309,0.29-0.69,0.513-1.151,0.665c-0.46,0.153-0.941,0.23-1.44,0.23c-1.098,0-1.946-0.302-2.541-0.907
			c-0.599-0.605-0.897-1.449-0.897-2.531v-8.257h-2.325v-1.042h2.325v-2.76h1.211v2.76h4.021v1.042h-4.021v8.137
			c0,0.823,0.198,1.449,0.594,1.877c0.395,0.427,0.979,0.641,1.757,0.641c0.79,0,1.442-0.233,1.96-0.702L970.633,257.777z"/>
		<path d="M973.382,258.37c-0.202-0.202-0.304-0.448-0.304-0.738c0-0.291,0.102-0.533,0.304-0.727
			c0.2-0.194,0.438-0.292,0.715-0.292c0.272,0,0.512,0.098,0.713,0.292c0.201,0.193,0.302,0.436,0.302,0.727
			c0,0.291-0.101,0.537-0.302,0.738c-0.201,0.203-0.44,0.302-0.713,0.302C973.82,258.672,973.582,258.572,973.382,258.37z"/>
		<path d="M594.389,270.684l-5.74,16.952h-1.306l-5.256-15.209l-5.279,15.209H575.5l-5.764-16.952h1.308l5.159,15.257l5.303-15.257
			h1.188l5.278,15.281l5.208-15.281H594.389z"/>
		<path d="M607.273,281.606h-10.874c0.031,0.985,0.281,1.861,0.75,2.628c0.467,0.767,1.102,1.36,1.901,1.78
			c0.799,0.42,1.699,0.629,2.701,0.629c0.823,0,1.585-0.149,2.288-0.448c0.702-0.299,1.288-0.739,1.756-1.32l0.702,0.8
			c-0.549,0.662-1.239,1.171-2.071,1.526c-0.831,0.355-1.731,0.533-2.7,0.533c-1.26,0-2.382-0.275-3.365-0.824
			c-0.985-0.549-1.756-1.307-2.314-2.276c-0.556-0.969-0.835-2.074-0.835-3.318c0-1.227,0.262-2.329,0.787-3.306
			c0.524-0.977,1.248-1.739,2.167-2.288c0.921-0.549,1.954-0.824,3.1-0.824s2.176,0.272,3.088,0.812s1.63,1.295,2.155,2.264
			c0.524,0.969,0.788,2.067,0.788,3.293L607.273,281.606z M598.869,276.557c-0.711,0.396-1.28,0.954-1.708,1.671
			c-0.428,0.718-0.674,1.529-0.739,2.434h9.686c-0.048-0.904-0.29-1.71-0.727-2.422c-0.435-0.71-1.008-1.267-1.718-1.671
			c-0.711-0.403-1.511-0.605-2.399-0.605C600.376,275.963,599.579,276.161,598.869,276.557z"/>
		<path d="M625.144,276.097c0.839,0.799,1.259,1.974,1.259,3.523v8.016h-1.162v-2.253c-0.404,0.743-0.993,1.32-1.767,1.732
			c-0.776,0.411-1.704,0.617-2.786,0.617c-1.404,0-2.515-0.331-3.33-0.993c-0.815-0.662-1.222-1.534-1.222-2.616
			c0-1.049,0.374-1.9,1.125-2.554c0.75-0.654,1.948-0.981,3.596-0.981h4.335v-1.017c0-1.179-0.319-2.075-0.957-2.688
			s-1.571-0.92-2.796-0.92c-0.84,0-1.644,0.145-2.411,0.436c-0.767,0.291-1.416,0.679-1.948,1.163l-0.606-0.872
			c0.63-0.566,1.388-1.006,2.277-1.32c0.887-0.315,1.816-0.473,2.785-0.473C623.102,274.897,624.304,275.298,625.144,276.097z
			 M623.534,286.013c0.733-0.483,1.287-1.187,1.658-2.107v-2.373h-4.312c-1.243,0-2.142,0.226-2.7,0.678
			c-0.556,0.452-0.834,1.073-0.834,1.864c0,0.823,0.306,1.474,0.921,1.95c0.613,0.476,1.476,0.714,2.59,0.714
			C621.906,286.74,622.798,286.498,623.534,286.013z"/>
		<path d="M641.321,276.278c0.92,0.92,1.38,2.244,1.38,3.972v7.386h-1.211v-7.289c0-1.42-0.359-2.502-1.078-3.245
			c-0.719-0.743-1.724-1.114-3.014-1.114c-1.485,0-2.657,0.444-3.512,1.332c-0.855,0.888-1.283,2.083-1.283,3.584v6.732h-1.211
			v-12.641h1.164v2.736c0.436-0.888,1.085-1.582,1.948-2.083c0.865-0.5,1.885-0.75,3.064-0.75
			C639.149,274.897,640.4,275.358,641.321,276.278z"/>
		<path d="M647.98,287.273c-0.921-0.307-1.639-0.694-2.156-1.163l0.558-0.969c0.515,0.436,1.182,0.799,1.997,1.09
			c0.815,0.29,1.667,0.436,2.556,0.436c1.275,0,2.215-0.209,2.821-0.629c0.605-0.419,0.908-1,0.908-1.744
			c0-0.533-0.167-0.953-0.496-1.259c-0.333-0.307-0.739-0.533-1.224-0.678c-0.484-0.145-1.155-0.298-2.009-0.46
			c-1.002-0.177-1.808-0.372-2.423-0.582c-0.613-0.209-1.139-0.549-1.574-1.018c-0.437-0.467-0.654-1.114-0.654-1.937
			c0-1.001,0.415-1.829,1.247-2.483c0.831-0.654,2.014-0.981,3.548-0.981c0.806,0,1.606,0.114,2.397,0.339
			c0.79,0.227,1.437,0.525,1.937,0.897l-0.556,0.968c-0.517-0.372-1.106-0.653-1.769-0.848c-0.661-0.194-1.338-0.291-2.034-0.291
			c-1.178,0-2.066,0.217-2.664,0.654c-0.598,0.436-0.896,1.009-0.896,1.719c0,0.565,0.17,1.005,0.509,1.319
			c0.339,0.315,0.754,0.549,1.247,0.703c0.493,0.153,1.183,0.318,2.071,0.496c0.985,0.177,1.781,0.368,2.387,0.569
			c0.605,0.202,1.118,0.529,1.538,0.98c0.42,0.453,0.629,1.074,0.629,1.865c0,1.05-0.437,1.889-1.307,2.518
			c-0.871,0.63-2.099,0.944-3.681,0.944C649.869,287.733,648.902,287.58,647.98,287.273z"/>
		<path d="M677.089,274.995l-4.794,12.641h-1.139l-4.262-10.97l-4.287,10.97h-1.114l-4.795-12.641h1.163l4.213,11.284l4.311-11.284
			h1.042l4.286,11.26l4.262-11.26H677.089L677.089,274.995z"/>
		<path d="M690.215,281.606h-10.874c0.032,0.985,0.281,1.861,0.75,2.628c0.467,0.767,1.102,1.36,1.901,1.78
			c0.799,0.42,1.698,0.629,2.7,0.629c0.824,0,1.586-0.149,2.288-0.448c0.702-0.299,1.288-0.739,1.756-1.32l0.703,0.8
			c-0.55,0.662-1.239,1.171-2.071,1.526c-0.833,0.355-1.731,0.533-2.7,0.533c-1.26,0-2.381-0.275-3.366-0.824
			c-0.985-0.549-1.756-1.307-2.313-2.276c-0.557-0.969-0.834-2.074-0.834-3.318c0-1.227,0.262-2.329,0.787-3.306
			c0.524-0.977,1.248-1.739,2.167-2.288c0.92-0.549,1.954-0.824,3.101-0.824c1.146,0,2.175,0.272,3.087,0.812
			c0.913,0.541,1.631,1.295,2.155,2.264c0.525,0.969,0.788,2.067,0.788,3.293L690.215,281.606z M681.812,276.557
			c-0.711,0.396-1.28,0.954-1.708,1.671c-0.428,0.718-0.674,1.529-0.738,2.434h9.686c-0.048-0.904-0.29-1.71-0.726-2.422
			c-0.437-0.71-1.01-1.267-1.72-1.671c-0.711-0.403-1.509-0.605-2.397-0.605C683.321,275.963,682.522,276.161,681.812,276.557z"/>
		<path d="M696.972,275.637c0.822-0.493,1.823-0.74,3.003-0.74v1.188l-0.292-0.024c-1.404,0-2.502,0.44-3.293,1.319
			c-0.792,0.88-1.187,2.103-1.187,3.668v6.587h-1.212v-12.641h1.163v2.761C695.543,276.834,696.148,276.129,696.972,275.637z"/>
		<path d="M720.438,281.606h-10.874c0.032,0.985,0.283,1.861,0.75,2.628c0.469,0.767,1.103,1.36,1.902,1.78
			c0.8,0.42,1.699,0.629,2.701,0.629c0.823,0,1.586-0.149,2.289-0.448c0.702-0.299,1.288-0.739,1.757-1.32l0.702,0.8
			c-0.55,0.662-1.24,1.171-2.071,1.526c-0.833,0.355-1.731,0.533-2.701,0.533c-1.259,0-2.381-0.275-3.365-0.824
			c-0.985-0.549-1.757-1.307-2.313-2.276c-0.557-0.969-0.835-2.074-0.835-3.318c0-1.227,0.262-2.329,0.787-3.306
			c0.524-0.977,1.247-1.739,2.167-2.288c0.92-0.549,1.953-0.824,3.099-0.824c1.148,0,2.177,0.272,3.089,0.812
			c0.911,0.541,1.631,1.295,2.155,2.264c0.524,0.969,0.787,2.067,0.787,3.293L720.438,281.606z M712.034,276.557
			c-0.709,0.396-1.279,0.954-1.707,1.671c-0.429,0.718-0.675,1.529-0.739,2.434h9.688c-0.05-0.904-0.292-1.71-0.728-2.422
			c-0.436-0.71-1.009-1.267-1.719-1.671c-0.711-0.403-1.511-0.605-2.399-0.605C713.544,275.963,712.744,276.161,712.034,276.557z"/>
		<path d="M743.649,276.278c0.897,0.92,1.345,2.244,1.345,3.972v7.386h-1.21v-7.289c0-1.42-0.348-2.502-1.042-3.245
			c-0.695-0.743-1.664-1.114-2.906-1.114c-1.421,0-2.547,0.444-3.378,1.332c-0.832,0.888-1.247,2.083-1.247,3.584v6.732h-1.21
			v-7.289c0-1.42-0.347-2.502-1.041-3.245c-0.695-0.743-1.664-1.114-2.906-1.114c-1.421,0-2.547,0.444-3.379,1.333
			s-1.246,2.083-1.246,3.584v6.732h-1.211v-12.641h1.162v2.711c0.42-0.888,1.045-1.577,1.877-2.07c0.832-0.493,1.82-0.74,2.967-0.74
			c1.146,0,2.118,0.259,2.919,0.776c0.8,0.516,1.368,1.276,1.707,2.276c0.42-0.937,1.077-1.679,1.973-2.229
			c0.898-0.549,1.941-0.824,3.138-0.824C741.522,274.897,742.754,275.358,743.649,276.278z"/>
		<path d="M757.853,276.097c0.838,0.799,1.258,1.974,1.258,3.523v8.016h-1.162v-2.253c-0.405,0.743-0.993,1.32-1.768,1.732
			c-0.775,0.411-1.703,0.617-2.784,0.617c-1.405,0-2.516-0.331-3.331-0.993c-0.815-0.662-1.222-1.534-1.222-2.616
			c0-1.049,0.374-1.9,1.125-2.554c0.75-0.654,1.948-0.981,3.596-0.981h4.335v-1.017c0-1.179-0.319-2.075-0.957-2.688
			c-0.638-0.613-1.57-0.92-2.797-0.92c-0.839,0-1.643,0.145-2.409,0.436c-0.768,0.291-1.417,0.679-1.949,1.163l-0.606-0.872
			c0.629-0.566,1.388-1.006,2.277-1.32c0.887-0.315,1.816-0.473,2.785-0.473C755.81,274.897,757.012,275.298,757.853,276.097z
			 M756.243,286.013c0.733-0.483,1.287-1.187,1.658-2.107v-2.373h-4.311c-1.244,0-2.144,0.226-2.701,0.678
			c-0.556,0.452-0.834,1.073-0.834,1.864c0,0.823,0.306,1.474,0.919,1.95c0.614,0.476,1.478,0.714,2.591,0.714
			C754.615,286.74,755.507,286.498,756.243,286.013z"/>
		<path d="M764.003,271.64c-0.193-0.185-0.291-0.415-0.291-0.69c0-0.274,0.097-0.508,0.291-0.702
			c0.195-0.194,0.428-0.291,0.702-0.291c0.275,0,0.508,0.093,0.703,0.279c0.193,0.186,0.29,0.415,0.29,0.69
			c0,0.275-0.097,0.509-0.29,0.703c-0.196,0.194-0.428,0.29-0.703,0.29C764.432,271.919,764.197,271.826,764.003,271.64z
			 M764.1,274.995h1.211v12.641H764.1V274.995z"/>
		<path d="M770.42,269.667h1.211v17.969h-1.211V269.667z"/>
		<path d="M777.032,287.273c-0.921-0.307-1.639-0.694-2.156-1.163l0.557-0.969c0.517,0.436,1.183,0.799,1.999,1.09
			c0.814,0.29,1.667,0.436,2.554,0.436c1.276,0,2.218-0.209,2.822-0.629c0.604-0.419,0.908-1,0.908-1.744
			c0-0.533-0.166-0.953-0.496-1.259c-0.332-0.307-0.739-0.533-1.223-0.678s-1.155-0.298-2.011-0.46
			c-1-0.177-1.807-0.372-2.421-0.582c-0.613-0.209-1.139-0.549-1.573-1.018c-0.438-0.467-0.655-1.114-0.655-1.937
			c0-1.001,0.415-1.829,1.247-2.483c0.832-0.654,2.014-0.981,3.547-0.981c0.807,0,1.607,0.114,2.399,0.339
			c0.79,0.227,1.436,0.525,1.937,0.897l-0.557,0.968c-0.516-0.372-1.105-0.653-1.767-0.848c-0.662-0.194-1.34-0.291-2.035-0.291
			c-1.178,0-2.067,0.217-2.664,0.654c-0.597,0.436-0.896,1.009-0.896,1.719c0,0.565,0.17,1.005,0.508,1.319
			c0.34,0.315,0.756,0.549,1.249,0.703c0.492,0.153,1.182,0.318,2.071,0.496c0.984,0.177,1.781,0.368,2.386,0.569
			c0.605,0.202,1.118,0.529,1.538,0.98c0.419,0.453,0.63,1.074,0.63,1.865c0,1.05-0.436,1.889-1.308,2.518
			c-0.871,0.63-2.099,0.944-3.681,0.944C778.921,287.733,777.952,287.58,777.032,287.273z"/>
		<path d="M812.605,274.995l-4.794,12.641h-1.138l-4.264-10.97l-4.286,10.97h-1.113l-4.795-12.641h1.163l4.213,11.284l4.309-11.284
			h1.043l4.286,11.26l4.261-11.26H812.605L812.605,274.995z"/>
		<path d="M825.346,276.278c0.92,0.92,1.379,2.244,1.379,3.972v7.386h-1.211v-7.289c0-1.42-0.359-2.502-1.078-3.245
			c-0.719-0.743-1.725-1.114-3.014-1.114c-1.486,0-2.656,0.444-3.514,1.332c-0.854,0.888-1.283,2.083-1.283,3.584v6.732h-1.21
			v-17.969h1.21v7.968c0.438-0.872,1.083-1.545,1.938-2.022c0.855-0.476,1.865-0.715,3.027-0.715
			C823.173,274.897,824.424,275.358,825.346,276.278z"/>
		<path d="M842.416,281.606h-10.873c0.033,0.985,0.283,1.861,0.75,2.628c0.471,0.767,1.104,1.36,1.9,1.78
			c0.801,0.42,1.699,0.629,2.7,0.629c0.823,0,1.588-0.149,2.291-0.448c0.701-0.299,1.285-0.739,1.756-1.32l0.701,0.8
			c-0.549,0.662-1.239,1.171-2.07,1.526c-0.833,0.355-1.731,0.533-2.7,0.533c-1.262,0-2.381-0.275-3.367-0.824
			c-0.984-0.549-1.756-1.307-2.312-2.276c-0.556-0.969-0.835-2.074-0.835-3.318c0-1.227,0.263-2.329,0.786-3.306
			c0.525-0.977,1.248-1.739,2.168-2.288c0.921-0.549,1.953-0.824,3.102-0.824c1.146,0,2.175,0.272,3.087,0.812
			s1.631,1.295,2.154,2.264c0.525,0.969,0.788,2.067,0.788,3.293L842.416,281.606z M834.014,276.557
			c-0.711,0.396-1.279,0.954-1.708,1.671c-0.427,0.718-0.675,1.529-0.737,2.434h9.687c-0.05-0.904-0.291-1.71-0.729-2.422
			c-0.436-0.71-1.009-1.267-1.719-1.671c-0.71-0.403-1.51-0.605-2.397-0.605S834.724,276.161,834.014,276.557z"/>
		<path d="M856.123,276.278c0.92,0.92,1.382,2.244,1.382,3.972v7.386h-1.212v-7.289c0-1.42-0.359-2.502-1.078-3.245
			c-0.718-0.743-1.724-1.114-3.015-1.114c-1.486,0-2.655,0.444-3.512,1.332c-0.854,0.888-1.283,2.083-1.283,3.584v6.732h-1.211
			v-12.641h1.161v2.736c0.438-0.888,1.087-1.582,1.95-2.083c0.864-0.5,1.886-0.75,3.064-0.75
			C853.951,274.897,855.203,275.358,856.123,276.278z"/>
		<path d="M886.782,274.995l-4.794,12.641h-1.14l-4.263-10.97l-4.285,10.97h-1.115l-4.795-12.641h1.163l4.212,11.284l4.312-11.284
			h1.042l4.285,11.26l4.262-11.26H886.782L886.782,274.995z"/>
		<path d="M899.906,281.606h-10.872c0.031,0.985,0.282,1.861,0.751,2.628c0.469,0.767,1.102,1.36,1.901,1.78
			c0.799,0.42,1.699,0.629,2.7,0.629c0.823,0,1.584-0.149,2.288-0.448c0.702-0.299,1.288-0.739,1.755-1.32l0.703,0.8
			c-0.549,0.662-1.239,1.171-2.07,1.526c-0.833,0.355-1.731,0.533-2.7,0.533c-1.26,0-2.383-0.275-3.366-0.824
			c-0.985-0.549-1.756-1.307-2.312-2.276c-0.558-0.969-0.837-2.074-0.837-3.318c0-1.227,0.263-2.329,0.788-3.306
			c0.524-0.977,1.248-1.739,2.168-2.288c0.92-0.549,1.953-0.824,3.099-0.824s2.176,0.272,3.088,0.812s1.632,1.295,2.156,2.264
			c0.522,0.969,0.786,2.067,0.786,3.293L899.906,281.606z M891.505,276.557c-0.712,0.396-1.28,0.954-1.708,1.671
			c-0.428,0.718-0.674,1.529-0.738,2.434h9.686c-0.049-0.904-0.29-1.71-0.726-2.422c-0.437-0.71-1.01-1.267-1.721-1.671
			c-0.709-0.403-1.51-0.605-2.397-0.605S892.215,276.161,891.505,276.557z"/>
		<path d="M919.838,276.278c0.92,0.92,1.38,2.244,1.38,3.972v7.386h-1.212v-7.289c0-1.42-0.358-2.502-1.077-3.245
			c-0.72-0.743-1.723-1.114-3.015-1.114c-1.484,0-2.655,0.444-3.511,1.332c-0.856,0.888-1.283,2.083-1.283,3.584v6.732h-1.212
			v-17.969h1.212v7.968c0.435-0.872,1.081-1.545,1.936-2.022c0.856-0.476,1.867-0.715,3.028-0.715
			C917.665,274.897,918.917,275.358,919.838,276.278z"/>
		<path d="M934.077,276.097c0.839,0.799,1.26,1.974,1.26,3.523v8.016h-1.164v-2.253c-0.402,0.743-0.991,1.32-1.767,1.732
			c-0.773,0.411-1.701,0.617-2.786,0.617c-1.403,0-2.513-0.331-3.329-0.993c-0.814-0.662-1.222-1.534-1.222-2.616
			c0-1.049,0.374-1.9,1.126-2.554c0.749-0.654,1.948-0.981,3.596-0.981h4.336v-1.017c0-1.179-0.319-2.075-0.957-2.688
			c-0.639-0.613-1.57-0.92-2.798-0.92c-0.839,0-1.644,0.145-2.41,0.436s-1.415,0.679-1.948,1.163l-0.605-0.872
			c0.629-0.566,1.389-1.006,2.277-1.32c0.887-0.315,1.815-0.473,2.784-0.473C932.034,274.897,933.237,275.298,934.077,276.097z
			 M932.467,286.013c0.734-0.483,1.287-1.187,1.66-2.107v-2.373h-4.312c-1.244,0-2.145,0.226-2.7,0.678
			c-0.557,0.452-0.835,1.073-0.835,1.864c0,0.823,0.305,1.474,0.919,1.95c0.612,0.476,1.479,0.714,2.592,0.714
			C930.841,286.74,931.731,286.498,932.467,286.013z"/>
		<path d="M950.229,274.995l-5.715,12.641h-1.234l-5.691-12.641h1.285l5.035,11.309l5.085-11.309H950.229L950.229,274.995z"/>
		<path d="M963.186,281.606h-10.874c0.033,0.985,0.282,1.861,0.752,2.628c0.468,0.767,1.102,1.36,1.9,1.78
			c0.8,0.42,1.698,0.629,2.7,0.629c0.823,0,1.585-0.149,2.288-0.448c0.703-0.299,1.288-0.739,1.757-1.32l0.702,0.8
			c-0.55,0.662-1.239,1.171-2.07,1.526c-0.834,0.355-1.731,0.533-2.7,0.533c-1.261,0-2.383-0.275-3.366-0.824
			c-0.984-0.549-1.755-1.307-2.312-2.276c-0.558-0.969-0.837-2.074-0.837-3.318c0-1.227,0.263-2.329,0.788-3.306
			c0.524-0.977,1.248-1.739,2.168-2.288c0.92-0.549,1.952-0.824,3.1-0.824c1.146,0,2.176,0.272,3.087,0.812
			c0.912,0.541,1.632,1.295,2.155,2.264c0.525,0.969,0.787,2.067,0.787,3.293L963.186,281.606z M954.782,276.557
			c-0.711,0.396-1.279,0.954-1.707,1.671c-0.429,0.718-0.674,1.529-0.738,2.434h9.687c-0.049-0.904-0.291-1.71-0.727-2.422
			c-0.437-0.71-1.01-1.267-1.72-1.671c-0.71-0.403-1.511-0.605-2.398-0.605C956.293,275.963,955.493,276.161,954.782,276.557z"/>
		<path d="M979.459,286.837c-0.307,0.292-0.691,0.513-1.151,0.666c-0.46,0.153-0.94,0.23-1.439,0.23
			c-1.099,0-1.945-0.303-2.543-0.909c-0.597-0.605-0.896-1.449-0.896-2.53v-8.259h-2.325v-1.04h2.325v-2.762h1.212v2.762h4.02v1.04
			h-4.02v8.138c0,0.823,0.197,1.449,0.592,1.876c0.396,0.428,0.981,0.642,1.756,0.642c0.791,0,1.444-0.233,1.963-0.702
			L979.459,286.837z"/>
		<path d="M982.729,271.64c-0.195-0.185-0.291-0.415-0.291-0.69c0-0.274,0.096-0.508,0.291-0.702c0.193-0.194,0.426-0.291,0.7-0.291
			c0.275,0,0.511,0.093,0.703,0.279c0.192,0.186,0.291,0.415,0.291,0.69c0,0.275-0.098,0.509-0.291,0.703s-0.428,0.29-0.703,0.29
			C983.156,271.919,982.923,271.826,982.729,271.64z M982.826,274.995h1.21v12.641h-1.21V274.995z"/>
		<path d="M1008.58,276.278c0.896,0.92,1.344,2.244,1.344,3.972v7.386h-1.211v-7.289c0-1.42-0.348-2.502-1.041-3.245
			c-0.694-0.743-1.663-1.114-2.907-1.114c-1.42,0-2.547,0.444-3.379,1.332c-0.831,0.888-1.247,2.083-1.247,3.584v6.732h-1.211
			v-7.289c0-1.42-0.348-2.502-1.04-3.245c-0.695-0.743-1.664-1.114-2.907-1.114c-1.42,0-2.546,0.444-3.378,1.333
			s-1.247,2.083-1.247,3.584v6.732h-1.21v-12.641h1.162v2.711c0.418-0.888,1.044-1.577,1.876-2.07s1.821-0.74,2.967-0.74
			c1.146,0,2.119,0.259,2.918,0.776c0.801,0.516,1.368,1.276,1.708,2.276c0.419-0.937,1.076-1.679,1.974-2.229
			c0.896-0.549,1.94-0.824,3.137-0.824C1006.452,274.897,1007.685,275.358,1008.58,276.278z"/>
		<path d="M1025.616,281.606h-10.873c0.032,0.985,0.282,1.861,0.752,2.628c0.468,0.767,1.101,1.36,1.9,1.78
			c0.798,0.42,1.698,0.629,2.699,0.629c0.824,0,1.587-0.149,2.289-0.448c0.702-0.299,1.288-0.739,1.756-1.32l0.702,0.8
			c-0.549,0.662-1.238,1.171-2.07,1.526c-0.832,0.355-1.73,0.533-2.7,0.533c-1.26,0-2.382-0.275-3.364-0.824
			c-0.986-0.549-1.758-1.307-2.313-2.276c-0.558-0.969-0.836-2.074-0.836-3.318c0-1.227,0.262-2.329,0.788-3.306
			c0.523-0.977,1.246-1.739,2.167-2.288c0.92-0.549,1.952-0.824,3.099-0.824s2.178,0.272,3.089,0.812
			c0.912,0.541,1.631,1.295,2.154,2.264c0.525,0.969,0.786,2.067,0.786,3.293L1025.616,281.606z M1017.213,276.557
			c-0.711,0.396-1.28,0.954-1.706,1.671c-0.429,0.718-0.675,1.529-0.74,2.434h9.688c-0.05-0.904-0.291-1.71-0.727-2.422
			c-0.438-0.71-1.01-1.267-1.721-1.671c-0.709-0.403-1.51-0.605-2.397-0.605S1017.925,276.161,1017.213,276.557z"/>
		<path d="M1028.534,287.43c-0.2-0.202-0.303-0.448-0.303-0.739s0.103-0.532,0.303-0.727c0.201-0.194,0.439-0.291,0.715-0.291
			c0.274,0,0.513,0.097,0.714,0.291c0.202,0.194,0.302,0.436,0.302,0.727s-0.1,0.537-0.302,0.739
			c-0.201,0.202-0.439,0.303-0.714,0.303C1028.973,287.733,1028.735,287.633,1028.534,287.43z"/>
	</g>
</g>
<rect x="784.833" y="4.167" fill="#F2F4F3" width="14" height="16"/>
<rect x="789.318" y="1042.372" fill="#F2F4F3" width="14" height="16"/>
</svg>
