<?xml version="1.0" encoding="utf-8"?>
<!-- Generator: Adobe Illustrator 16.0.4, SVG Export Plug-In . SVG Version: 6.00 Build 0)  -->
<!DOCTYPE svg PUBLIC "-//W3C//DTD SVG 1.1//EN" "http://www.w3.org/Graphics/SVG/1.1/DTD/svg11.dtd">
<svg version="1.1" id="Calque_1" xmlns="http://www.w3.org/2000/svg" xmlns:xlink="http://www.w3.org/1999/xlink" x="0px" y="0px"
	 width="912.092px" height="360.036px" viewBox="355.274 260.301 912.092 360.036"
	 enable-background="new 355.274 260.301 912.092 360.036" xml:space="preserve">
<g>
	<g>
		<path fill="#0066CC" d="M821.211,277.931c-244.275,0-442.196,198.005-442.196,442.194S577.02,1162.32,821.211,1162.32
			c244.188,0,442.191-198.006,442.191-442.195C1263.405,475.934,1065.485,277.931,821.211,277.931z"/>
		<path fill="#002352" d="M821.211,313.308c224.679,0,406.815,182.136,406.815,406.817c0,224.68-182.137,406.815-406.815,406.815
			c-224.679,0-406.819-182.136-406.819-406.815C414.392,495.443,596.532,313.308,821.211,313.308z"/>
		<g>
			<g opacity="0.3">
				<g>
					<path fill="#FFFFFF" d="M893.524,980.639c-1.124,0-2.243-0.128-3.237-0.537c-39.717-11.672-65.613-27.509-92.507-56.354
						c-34.733-37.306-53.906-87.089-53.906-140.093c0-43.612,34.364-79.04,76.69-79.04c42.332,0,76.693,35.428,76.693,79.04
						c0,28.716,23.282,52.192,51.791,52.192c28.511,0,51.792-23.343,51.792-52.192c0-101.176-80.925-183.435-180.399-183.435
						c-70.841,0-135.454,42.405-164.589,108.158c-9.71,21.74-14.567,47.103-14.567,75.276c0,20.934,1.743,53.943,16.559,96.747
						c2.366,6.974-0.87,14.627-7.347,17.313c-6.474,2.548-13.571-0.939-16.059-7.919c-12.203-35.292-18.177-69.911-18.177-106.142
						c0-32.201,5.727-61.461,17.057-86.82c33.241-74.874,106.695-123.314,187-123.314c113.166,0,205.296,94.335,205.296,210.268
						c0,43.612-34.485,79.037-76.691,79.037c-42.205,0-76.693-35.425-76.693-79.037c0-28.714-23.28-52.201-51.788-52.201
						c-28.513,0-51.794,23.352-51.794,52.201c0,45.759,16.56,88.831,46.565,121.04c23.529,25.222,46.439,39.176,81.545,49.509
						c6.601,2.017,10.584,9.393,8.718,16.505C903.98,976.747,899.002,980.639,893.524,980.639L893.524,980.639L893.524,980.639z
						 M943.693,925.222c-29.629,0-55.648-8.054-77.188-23.751c-36.974-27.104-59.137-71.118-59.137-117.815
						c0-7.382,5.604-13.42,12.452-13.42c6.847,0,12.449,6.038,12.449,13.42c0,37.707,18.051,73.4,48.307,95.542
						c17.555,12.879,38.221,19.188,63.12,19.188c5.977,0,16.06-0.67,26.02-2.556c6.726-1.336,13.201,3.63,14.443,10.876
						c1.246,7.245-3.36,14.218-10.088,15.565C959.507,925.083,947.18,925.222,943.693,925.222L943.693,925.222L943.693,925.222z
						 M765.288,974.869c-3.236,0-6.352-1.343-8.837-4.027c-21.54-23.479-33.243-38.372-50.049-70.711
						c-17.183-33.01-26.27-73.401-26.27-116.611c0-79.702,63.244-144.652,141.056-144.652c77.814,0,141.055,64.809,141.055,144.652
						c0,7.379-5.599,13.419-12.446,13.419c-6.85,0-12.451-6.04-12.451-13.419c0-64.947-52.039-117.819-116.157-117.819
						c-63.995,0-116.157,52.872-116.157,117.819c0,38.646,7.968,74.334,23.031,103.455c16.061,30.863,26.768,44.149,45.94,64.95
						c4.855,5.229,4.855,13.818-0.124,18.917C771.636,973.667,768.399,974.869,765.288,974.869L765.288,974.869L765.288,974.869z
						 M609.542,651.079c-2.489,0-4.982-0.804-7.223-2.415c-5.602-4.299-6.97-12.614-2.987-18.652
						c24.652-37.574,56.148-67.088,93.5-87.889c78.311-43.618,178.41-43.745,256.842-0.271c37.224,20.67,68.6,49.919,93.377,87.222
						c3.983,6.038,2.737,14.358-2.864,18.651c-5.603,4.296-13.447,2.952-17.43-3.086c-22.41-33.815-50.795-60.383-84.408-78.898
						c-71.465-39.588-162.72-39.449-234.057,0.266c-33.741,18.785-62.251,45.493-84.537,79.572
						C617.256,649.201,613.397,651.079,609.542,651.079L609.542,651.079L609.542,651.079z M965.856,510.188
						c-1.994,0-3.86-0.537-5.725-1.477c-47.686-26.569-89.146-37.976-138.695-37.976c-49.427,0-95.987,12.747-138.691,37.841
						c-6.099,3.489-13.568,1.207-16.93-5.368c-3.237-6.575-1.122-14.627,4.978-18.25c46.438-27.24,97.111-41.061,150.645-41.061
						c53.037,0,99.354,12.614,150.145,40.928c6.103,3.354,8.468,11.539,5.356,18.111
						C974.695,507.504,970.338,510.188,965.856,510.188L965.856,510.188L965.856,510.188z"/>
				</g>
			</g>
			<g>
				<path fill="#FFFFFF" d="M670.793,484.895c-6.1,3.623-8.215,11.674-4.978,18.25c3.362,6.575,10.831,8.857,16.932,5.367
					c42.636-25.051,89.12-37.795,138.462-37.835v-26.838C767.759,443.878,717.166,457.699,670.793,484.895z"/>
				<path fill="#FFFFFF" d="M692.829,542.059c-37.35,20.801-68.848,50.323-93.498,87.895c-3.986,6.039-2.616,14.359,2.986,18.646
					c2.241,1.612,4.731,2.424,7.22,2.424c3.858,0,7.719-1.881,10.209-5.504c22.289-34.084,50.795-60.787,84.538-79.574
					c35.651-19.854,76.277-29.812,116.925-29.874v-26.804C776.592,509.318,731.984,520.253,692.829,542.059z"/>
				<path fill="#FFFFFF" d="M821.188,638.812c-77.812,0-141.056,64.947-141.056,144.649c0,43.211,9.089,83.602,26.27,116.611
					c16.804,32.339,28.509,47.229,50.049,70.711c2.488,2.685,5.602,4.027,8.837,4.027c3.111,0,6.348-1.202,8.589-4.027
					c4.982-5.099,4.982-13.688,0.124-18.917c-19.172-20.798-29.879-34.087-45.94-64.95c-15.063-29.121-23.031-64.814-23.031-103.455
					c0-64.945,52.165-117.816,116.157-117.816c0.009,0,0.017,0.003,0.021,0.003v-26.836
					C821.204,638.812,821.196,638.812,821.188,638.812z"/>
				<path fill="#FFFFFF" d="M820.318,573.459c-80.305,0-153.757,48.443-187,123.317c-11.33,25.359-17.057,54.613-17.057,86.82
					c0,36.23,5.974,70.85,18.177,106.142c2.488,6.975,9.587,10.467,16.059,7.913c6.477-2.681,9.713-10.334,7.347-17.306
					c-14.816-42.806-16.559-75.821-16.559-96.749c0-28.183,4.857-53.542,14.567-75.281c29.135-65.748,93.748-108.15,164.589-108.15
					c0.259,0,0.513,0.005,0.768,0.011v-26.703C820.91,573.473,820.613,573.459,820.318,573.459z"/>
				<path fill="#FFFFFF" d="M807.368,783.597c0,21.878,4.865,43.168,13.841,62.409v-75.738c-0.457-0.056-0.92-0.091-1.394-0.091
					C812.973,770.177,807.368,776.213,807.368,783.597z"/>
				<path fill="#FFFFFF" d="M815.213,904.762c-30.004-32.201-46.565-75.276-46.565-121.037c0-28.845,23.281-52.193,51.794-52.193
					c0.259,0,0.513,0.016,0.768,0.016V704.57c-0.218,0-0.428-0.017-0.645-0.017c-42.329,0-76.693,35.425-76.693,79.035
					c0,53.007,19.173,102.79,53.909,140.096c7.772,8.336,15.465,15.553,23.427,21.934V910.93
					C819.209,908.945,817.213,906.911,815.213,904.762z"/>
			</g>
			
				<line fill="none" stroke="#FFFFFF" stroke-width="4" stroke-miterlimit="10" x1="821.211" y1="393.148" x2="821.211" y2="1031.863"/>
		</g>
	</g>
	<g>
		<path fill="#002352" d="M1472.087,891.539V572.983h103.266c40.404,0,73.26,12.618,98.566,37.851
			c25.304,25.237,37.957,57.688,37.957,97.361v48.353c0,39.819-12.653,72.275-37.957,97.358
			c-25.307,25.092-58.162,37.633-98.566,37.633H1472.087z M1525.252,615.648v233.229h48.57c26.4,0,47.147-8.6,62.246-25.794
			c15.098-17.196,22.644-39.417,22.644-66.668v-48.743c0-26.959-7.546-49.036-22.644-66.23
			c-15.099-17.196-35.846-25.793-62.246-25.793H1525.252z"/>
		<path fill="#002352" d="M1816.459,596.832h-53.167V550.23h53.167V596.832z M1816.459,891.539h-53.167V654.811h53.167V891.539z"/>
		<path fill="#002352" d="M1866.344,776.457c0-37.633,8.234-68.043,24.721-91.235c16.48-23.192,39.383-34.786,68.701-34.786
			c14.145,0,26.58,3.029,37.303,9.08c10.719,6.055,19.801,14.769,27.237,26.145l5.251-30.85h44.194v236.729
			c0,30.482-9.408,54.042-28.225,70.669c-18.813,16.627-45.506,24.942-80.074,24.942c-11.522,0-23.958-1.642-37.303-4.924
			c-13.348-3.282-25.419-7.623-36.21-13.018l11.377-41.787c8.751,4.519,18.412,8.057,28.988,10.61
			c10.575,2.551,21.476,3.827,32.711,3.827c19.253,0,33.326-4.123,42.224-12.36c8.896-8.243,13.348-20.894,13.348-37.96v-24.285
			c-7.439,9.482-16.228,16.664-26.365,21.551c-10.14,4.884-21.769,7.328-34.896,7.328c-29.027,0-51.781-10.573-68.262-31.723
			c-16.486-21.148-24.721-48.935-24.721-83.359V776.457z M1919.507,781.051c0,21.734,4.339,39.131,13.019,52.183
			c8.674,13.055,22.133,19.58,40.364,19.58c11.379,0,20.965-2.368,28.772-7.11c7.801-4.737,14.11-11.558,18.925-20.457V721.54
			c-4.96-8.604-11.342-15.348-19.146-20.236c-7.805-4.887-17.173-7.331-28.113-7.331c-18.233,0-31.762,7.658-40.585,22.974
			c-8.828,15.316-13.236,35.154-13.236,59.511V781.051z"/>
		<path fill="#002352" d="M2186.429,596.832h-53.167V550.23h53.167V596.832z M2186.429,891.539h-53.167V654.811h53.167V891.539z"/>
		<path fill="#002352" d="M2348.33,777.332h-114.863v-42.665h114.863V777.332z"/>
		<path fill="#002352" d="M2455.973,891.539h-53.164V572.983h53.164V891.539z"/>
		<path fill="#002352" d="M2528.609,891.539V572.983h103.27c40.398,0,73.254,12.618,98.563,37.851
			c25.304,25.237,37.96,57.688,37.96,97.361v48.353c0,39.819-12.656,72.275-37.96,97.358c-25.31,25.092-58.165,37.633-98.563,37.633
			H2528.609z M2581.776,615.648v233.229h48.57c26.397,0,47.149-8.6,62.245-25.794c15.095-17.196,22.644-39.417,22.644-66.668
			v-48.743c0-26.959-7.549-49.036-22.644-66.23c-15.096-17.196-35.848-25.793-62.245-25.793H2581.776z"/>
	</g>
</g>
</svg>
