<?xml version="1.0" encoding="utf-8"?>
<!-- Generator: Adobe Illustrator 16.0.4, SVG Export Plug-In . SVG Version: 6.00 Build 0)  -->
<!DOCTYPE svg PUBLIC "-//W3C//DTD SVG 1.1//EN" "http://www.w3.org/Graphics/SVG/1.1/DTD/svg11.dtd">
<svg version="1.1" id="Calque_1" xmlns="http://www.w3.org/2000/svg" xmlns:xlink="http://www.w3.org/1999/xlink" x="0px" y="0px"
	 width="750px" height="452px" viewBox="1540 541.5 750 452" enable-background="new 1540 541.5 750 452" xml:space="preserve">
<line id="XMLID_2582_" fill="none" stroke="#3C4349" stroke-width="2" stroke-miterlimit="10" x1="1568.176" y1="911.295" x2="2157.5" y2="911.295"/>
<path id="XMLID_4447_" fill="#344258" stroke="#5D5C74" stroke-miterlimit="10" d="M1651.775,834.695c0-39.4,42.4-71.2,94.8-71.2
	c52.4,0,94.801,32,94.801,71.2"/>
<path id="XMLID_4443_" fill="#E4E6E9" d="M1851.176,814.495v112.2c0,5.8-4.8,10.6-10.601,10.6h-190.199
	c-5.801,0-10.601-4.8-10.601-10.6v-112.4c0-5.8,4.8-10.6,10.601-10.6h190.199C1846.575,803.896,1851.176,808.695,1851.176,814.495"
	/>
<path id="XMLID_4441_" fill="#3C4349" d="M1639.976,872.896c-1.2,0-2.2-1-2.2-2.2v-22.2c0-1.2,1.2-2.2,2.2-2.2c1.2,0,2.2,1,2.2,2.2
	v22C1642.176,871.896,1641.176,872.896,1639.976,872.896"/>
<path id="XMLID_3245_" fill="#3C4349" d="M1840.575,939.695h-190.199c-7,0-12.801-5.8-12.801-12.8v-42.601c0-1.2,1.2-2.2,2.2-2.2
	c1.2,0,2.2,1,2.2,2.2v42.601c0,4.6,3.8,8.399,8.4,8.399h190.399c4.601,0,8.4-3.8,8.4-8.399v-112.4c0-4.6-3.8-8.4-8.4-8.4h-190.399
	c-4.601,0-8.4,3.801-8.4,8.4v22c0,1.2-1,2.2-2.2,2.2s-2.2-1-2.2-2.2v-22c0-7,5.801-12.8,12.801-12.8h190.199
	c7,0,12.801,5.8,12.801,12.8v112.2C1853.376,933.695,1847.775,939.695,1840.575,939.695"/>
<path id="XMLID_3078_" fill="#FFFFFF" d="M1836.775,850.295c-1,0-1.8-0.8-1.8-1.8v-20.2c0-4.8-4-8.8-8.8-8.8h-22.8
	c-1,0-1.801-0.8-1.801-1.8s0.801-1.8,1.801-1.8h22.8c6.8,0,12.2,5.6,12.2,12.199v20.4
	C1838.575,849.295,1837.775,850.295,1836.775,850.295 M1790.976,819.495h-15.8c-1,0-1.8-0.8-1.8-1.8s0.8-1.8,1.8-1.8h15.8
	c1,0,1.8,0.8,1.8,1.8C1792.775,818.495,1791.976,819.495,1790.976,819.495"/>
<path id="XMLID_2358_" fill="#FBD7CE" stroke="#5E5C74" stroke-miterlimit="10" d="M1745.775,790.295c14.4,0,21-12.8,21-21.8v-15.8
	c0-0.4,0.2-0.601,0.4-0.8c1.2-0.601,2.399-1.4,3.399-2.2c-7.6,1.8-15.6,2.8-24,2.8c-8,0-15.8-1-23-2.6c0.4,0.199,0.801,0.6,1.2,0.8
	c0.2,0.2,0.4,0.399,0.4,0.8v17C1724.976,777.295,1730.575,790.295,1745.775,790.295z"/>
<g id="XMLID_4579_">
	<g id="XMLID_4584_">
		<path id="XMLID_4544_" fill="#FACAB8" d="M1696.775,685.095c0,7.2-4.6,12.801-10.399,12.801c-5.801,0-10.4-5.801-10.4-12.801
			c0-7.199,4.6-10.6,10.4-10.6C1692.176,674.495,1696.775,677.896,1696.775,685.095z"/>
	</g>
	<g id="XMLID_4580_">
		<path id="XMLID_4581_" fill="#5C5C74" d="M1686.376,699.495c-6.601,0-12-6.6-12-14.6c0-7.4,4.8-12.2,12-12.2
			c7.199,0,12,4.8,12,12.2C1698.376,693.095,1692.976,699.495,1686.376,699.495z M1686.376,676.095c-5.4,0-8.801,3.4-8.801,9
			c0,6.2,4,11.2,8.801,11.2c4.8,0,8.8-5,8.8-11.2C1694.976,679.495,1691.775,676.095,1686.376,676.095z"/>
	</g>
</g>
<g id="XMLID_4577_">
	<path id="XMLID_4536_" fill="#FBD7CE" d="M1724.575,757.295c-18.199-6.399-25.8-24.8-32.6-50.6c-4-15-5.6-25.2-5.6-43.8
		c0-45,23.199-61.4,60.199-61.4s61.801,9.4,61.801,54.4c0,67.399-22,106.8-61.801,106.8"/>
</g>
<g id="XMLID_4575_">
	<path id="XMLID_4534_" fill="#5C5C74" d="M1746.575,764.295c-1,0-1.6-0.8-1.6-1.6c0-1,0.8-1.601,1.6-1.601
		c38.2,0,60.2-38.399,60.2-105.199c0-43.801-24-52.801-60.2-52.801c-19.199,0-33.199,4.4-42.8,13.4c-10.399,9.8-15.8,25.4-15.8,46.4
		c0,19,1.8,29,5.6,43.399c9.2,35.2,19,45,31.601,49.4c0.8,0.4,1.399,1.2,1,2c-0.4,0.8-1.2,1.4-2,1
		c-18.4-6.4-26.601-24.6-33.601-51.6c-3.8-14.601-5.6-25-5.6-44.2c0-42.4,20.2-63.2,61.8-63.2c33,0,63.601,6.8,63.601,56
		C1809.976,724.695,1786.775,764.295,1746.575,764.295z"/>
</g>
<g id="XMLID_4573_">
	<path id="XMLID_4533_" fill="#5C5C74" d="M1747.176,704.896c-0.601,0-1.4,0-2-0.2c-4.4-0.601-6.4-4.2-6.4-4.4
		c-0.399-0.8-0.2-1.8,0.601-2.2c0.8-0.399,1.8-0.199,2.199,0.601c0,0,1.2,2.2,4,2.6c2.801,0.4,5-0.2,6-1.6
		c0.601-1,0.601-2.4-0.199-3.8c-2.4-4-6.601-17.4-5.4-22c0.2-0.801,1.2-1.4,2-1.2s1.4,1.2,1.2,2c-0.8,3.2,2.6,15.6,5,19.6
		c1.399,2.4,1.6,5.2,0.2,7.2C1752.976,703.695,1750.376,704.896,1747.176,704.896z"/>
</g>
<g id="XMLID_4570_">
	<path id="XMLID_4530_" fill="#5C5C74" d="M1713.976,674.695c-0.4,0-0.8-0.2-1.2-0.4c-0.6-0.6-0.6-1.6,0-2.399
		c2.2-2.2,5.2-3.601,8-3.2c2.4,0.2,4.4,1.399,5.601,3.399c0.399,0.801,0.199,1.801-0.601,2.2c-0.8,0.4-1.8,0.2-2.2-0.6
		c-0.6-1-1.8-1.8-3.199-1.8c-1.801-0.2-4,0.6-5.4,2.199C1714.775,674.495,1714.376,674.695,1713.976,674.695z"/>
</g>
<g id="XMLID_4564_">
	<path id="XMLID_4528_" fill="#5C5C74" d="M1778.976,674.695c-0.4,0-0.8-0.2-1.2-0.601c-1.399-1.6-3.6-2.399-5.8-2.199
		c-1.8,0-3.2,0.8-4.2,2c-0.6,0.8-1.6,0.8-2.399,0.399c-0.801-0.6-0.801-1.6-0.4-2.399c1.4-2,3.8-3.2,6.6-3.4c3-0.2,6.2,1,8.2,3.2
		c0.601,0.6,0.601,1.6,0,2.399C1779.976,674.495,1779.575,674.695,1778.976,674.695z"/>
</g>
<g id="XMLID_4559_">
	<path id="XMLID_4526_" fill="#5C5C74" d="M1745.775,725.695c-4.2,0-7.8-1.601-9.6-4.2c-0.601-0.8-0.4-1.8,0.399-2.2
		c0.801-0.6,1.801-0.399,2.2,0.4c1.2,1.8,4,2.8,7.4,2.6c3.6-0.2,7-1.6,8.2-3.6c0.399-0.8,1.399-1,2.199-0.601
		c0.801,0.4,1,1.4,0.601,2.2c-1.8,3-6,5-11,5.2C1746.176,725.695,1745.976,725.695,1745.775,725.695z"/>
</g>
<g id="XMLID_4550_">
	<g id="XMLID_4556_">
		<path id="XMLID_4524_" fill="#FACAB8" d="M1802.775,701.495c8.8,0.6,14.8-7.8,15.2-15.4c0.4-7.399-7-10.399-13-9.8"/>
	</g>
	<g id="XMLID_4551_">
		<path id="XMLID_4520_" fill="#5C5C74" d="M1803.775,703.095c-0.399,0-0.8,0-1,0c-1,0-1.6-0.8-1.6-1.8s0.8-1.6,1.8-1.6
			c3.8,0.2,6.6-1.4,8.2-2.8c3-2.601,5-6.801,5.399-11c0.2-2.2-0.6-4.2-2-5.601c-2-2-5.6-3-9-2.399c-1,0.199-1.8-0.601-1.8-1.4
			c-0.2-1,0.601-1.8,1.4-1.8c4.399-0.601,9,0.8,11.8,3.399c2.2,2,3.2,4.801,3.2,8c-0.2,5-2.8,10-6.4,13.2
			C1810.575,701.896,1807.176,703.095,1803.775,703.095z"/>
	</g>
</g>
<path id="XMLID_4519_" fill="#002352" d="M1806.575,676.495c8.801-26.2,8.801-48.4,4.2-69.8c-2.399-11.2-7.399-20-7.399-20
	c-11.4,2.6-14.601-4.2-45.4-8.4c-22.2-3-32.4,4-36.2,8.2c0,0-7.2-3.6-21.8,2.8c-13.2,5.8-24.6,21-16.6,68.601
	c2.399,19.199,8.8,36.6,8.8,36.6s-3-37.8,3-52.8c0.2-0.8,0.6-1.4,1-2l3-4.4c8.2-9.399,23.399-10.8,29.2-5.2
	c6.8,6.601,18.399,5.801,18.399,5.801s11.601,0.8,18.4-5.801c6.8-6.6,27.2-3.399,33,11.601s3,52.8,3,52.8
	S1803.976,687.095,1806.575,676.495z"/>
<path fill="#FFFFFF" d="M1752.667,865.646l0.901-2.351c0.088-0.242-0.088-0.506-0.33-0.506h-3.361l-1.054,2.769h-1.494l0.879-2.263
	c0.088-0.242-0.088-0.506-0.329-0.506h-3.361l-1.055,2.769h-10.543c-0.484,0-0.923,0.264-1.165,0.659l-2.636,4.635h3.69h16.014
	c0.659,0,1.296,0.132,1.911,0.373c1.164,0.483,2.525,1.56,2.196,3.998c-0.571,4.086-4.745,11.312-13.772,11.423l4.656-12.147
	c0.176-0.506-0.176-1.033-0.703-1.033h-6.26l-7.557,18.584c0,0,1.516,0.176,3.932,0.176l-0.746,1.955h3.448
	c0.286,0,0.527-0.176,0.637-0.417l0.659-1.691c0.506-0.044,1.033-0.088,1.56-0.154l-0.878,2.263h3.404
	c0.285,0,0.527-0.176,0.637-0.417l0.988-2.57c5.646-1.274,11.753-4.086,15.355-10.017
	C1765.496,869.271,1757.917,866.174,1752.667,865.646z"/>
<path fill="#0066CC" d="M2016.979,712.583c-1.513,0.435-2.396,2.031-1.962,3.545c0.085,0.266,7.747,27.526,5.632,88.043
	c-0.056,1.583,1.19,2.913,2.773,2.97c0.028,0,0.07,0,0.099,0c1.541,0,2.815-1.219,2.857-2.774
	c2.144-61.427-5.52-88.701-5.842-89.836C2020.104,713.018,2018.521,712.149,2016.979,712.583L2016.979,712.583z M2016.979,712.583"
	/>
<g>
	<path fill="#0066CC" d="M2089.123,685.155c-12.146-28.718-40.148-47.278-71.346-47.278c-10.282,0-20.326,2.017-29.823,5.981
		c-5.254,2.186-10.227,4.805-14.779,7.746c-1.316,0.869-1.695,2.648-0.841,3.979c0.869,1.331,2.648,1.709,3.979,0.841
		c4.245-2.76,8.909-5.211,13.854-7.271c8.798-3.685,18.085-5.533,27.61-5.533c28.886,0,54.815,17.174,66.064,43.776
		c4.664,11.053,7.2,31.407,8.293,42.558c0.14,1.484,1.387,2.592,2.844,2.592c0.098,0,0.195,0,0.294-0.015
		c1.568-0.153,2.718-1.555,2.563-3.138C2096.478,715.386,2093.844,696.319,2089.123,685.155L2089.123,685.155z M2089.123,685.155"/>
	<path fill="#0066CC" d="M1964.672,665.739c1.135-1.106,1.148-2.928,0.028-4.062c-1.107-1.12-2.914-1.135-4.049-0.027
		c-15.438,15.198-30.805,43.468-16.404,91.797c0.364,1.246,1.514,2.059,2.746,2.059c0.28,0,0.546-0.042,0.826-0.126
		c1.514-0.448,2.382-2.045,1.92-3.571C1938.994,715.722,1944.163,685.953,1964.672,665.739L1964.672,665.739z M1964.672,665.739"/>
</g>
<path fill="#0066CC" d="M2019.991,655.135c-8.783-0.35-17.328,1.233-25.397,4.609c-28.143,11.725-43.09,42.669-34.797,71.961
	c0.826,2.928,1.681,6.038,2.129,9.147c1.037,7.019,1.093,19.948,1.093,40.471c0,1.582,1.275,2.857,2.858,2.857
	c1.597,0,2.871-1.275,2.871-2.857c0-21.405-0.056-33.873-1.135-41.312c-0.504-3.446-1.415-6.766-2.297-9.876
	c-7.509-26.504,6.023-54.492,31.477-65.111c7.312-3.039,15.087-4.426,22.988-4.16c20.41,0.729,43.523,18.716,50.5,39.266
	c6.038,17.791,6.094,48.091,5.337,75.365c-0.042,1.598,1.205,2.914,2.802,2.956c1.556-0.028,2.9-1.205,2.942-2.788
	c0.756-27.807,0.687-58.737-5.646-77.382C2067.928,675.308,2042.923,655.947,2019.991,655.135L2019.991,655.135z M2019.991,655.135"
	/>
<path fill="#0066CC" d="M2017.777,672.31c-3.109,0-6.22,0.336-9.231,0.994c-1.541,0.336-2.521,1.877-2.171,3.418
	c0.336,1.555,1.849,2.508,3.418,2.186c2.592-0.574,5.295-0.868,7.984-0.868c15.018,0,28.508,8.937,34.349,22.764
	c6.977,16.474,7.425,42.907,5.813,89.023c-0.056,1.583,1.191,2.913,2.774,2.97c0.027,0,0.069,0,0.098,0
	c1.541,0,2.815-1.219,2.872-2.773c1.667-47.979,1.162-73.895-6.276-91.447C2050.67,682.619,2035.106,672.31,2017.777,672.31
	L2017.777,672.31z M2017.777,672.31"/>
<path fill="#0066CC" d="M1996.471,684.749c1.303-0.911,1.625-2.704,0.7-3.992c-0.896-1.303-2.689-1.625-3.992-0.701
	c-14.778,10.366-21.194,30.301-15.97,49.618c0.07,0.21,5.884,21.405,5.884,54.521c0,1.583,1.289,2.858,2.872,2.858
	c1.597,0,2.871-1.275,2.871-2.858c0-33.9-5.841-55.179-6.094-56.048C1978.147,711.183,1983.667,693.742,1996.471,684.749
	L1996.471,684.749z M1996.471,684.749"/>
<path fill="#0066CC" d="M2046.215,775.607c0.014-1.597-1.261-2.886-2.844-2.899h-0.028c-1.568,0-2.857,1.274-2.871,2.857
	c-0.015,2.157,0.069,5.31,0.14,8.713c0.112,4.945,0.238,10.549,0.112,14.163c-0.056,1.583,1.19,2.913,2.773,2.956
	c0.028,0,0.07,0,0.099,0c1.54,0,2.815-1.219,2.857-2.76c0.14-3.769,0.014-9.47-0.112-14.499
	C2046.271,780.805,2046.201,777.723,2046.215,775.607L2046.215,775.607z M2046.215,775.607"/>
<path fill="#0066CC" d="M2017.777,692.384c-3.039,0-6.009,0.602-8.825,1.778c-11.179,4.651-16.6,17.259-12.636,29.306
	c2.172,6.557,3.993,40.933,3.993,75.071c0,1.583,1.288,2.858,2.871,2.858s2.872-1.275,2.872-2.858
	c0-30.721-1.639-68.852-4.272-76.864c-3.026-9.176,1.009-18.729,9.371-22.217c2.115-0.883,4.343-1.331,6.626-1.331
	c6.935,0,13.154,4.118,15.872,10.521c5.351,12.678,6.948,35.637,7.34,52.657c0.028,1.569,1.317,2.802,2.872,2.802h0.056
	c1.583-0.028,2.844-1.345,2.802-2.928c-0.406-17.524-2.073-41.24-7.803-54.787C2035.316,697.889,2027.023,692.384,2017.777,692.384
	L2017.777,692.384z M2017.777,692.384"/>
</svg>
