<?xml version="1.0" encoding="utf-8"?>
<!-- Generator: Adobe Illustrator 16.0.4, SVG Export Plug-In . SVG Version: 6.00 Build 0)  -->
<!DOCTYPE svg PUBLIC "-//W3C//DTD SVG 1.1//EN" "http://www.w3.org/Graphics/SVG/1.1/DTD/svg11.dtd">
<svg version="1.1" id="Calque_1" xmlns="http://www.w3.org/2000/svg" xmlns:xlink="http://www.w3.org/1999/xlink" x="0px" y="0px"
	 width="750px" height="452px" viewBox="2310 541.5 750 452" enable-background="new 2310 541.5 750 452" xml:space="preserve">
<line id="XMLID_2254_" fill="none" stroke="#5D5C74" stroke-width="4" stroke-miterlimit="10" x1="2478.511" y1="925.147" x2="2994.34" y2="925.147"/>
<path id="XMLID_2253_" fill="#0066CC" stroke="#5D5C74" stroke-width="4" stroke-miterlimit="10" d="M2897.482,720.348
	c17.418,54.235-8.314,95.407-75.084,95.407c-70.6,0-91.053-41.04-74.295-95.407c10.557-34.31,6.465-71.654,17.286-88.676
	c15.176-24.149,29.163-33.517,57.009-33.517c26.259,0,43.281,8.312,54.101,31.802
	C2885.342,649.09,2886.266,685.115,2897.482,720.348z"/>
<path id="XMLID_2249_" fill="#5C5C74" d="M2822,815.755c-33.252,0-56.742-8.842-69.807-26.524
	c-12.535-16.891-14.383-41.171-5.408-70.202c4.882-15.967,6.598-32.727,8.18-47.636c1.848-17.156,3.301-32.067,9.238-41.437
	c15.967-25.336,30.482-33.914,57.797-33.914c28.107,0,44.472,9.633,54.896,32.329c4.486,9.766,6.992,23.885,9.764,40.116
	c2.64,15.572,5.808,33.122,11.35,50.407c8.842,27.58,6.73,51.333-5.939,68.753C2878.611,805.989,2854.464,815.755,2822,815.755z
	 M2822,598.021c-26.523,0-40.774,8.314-56.214,32.99c-5.542,8.974-7.126,23.621-8.974,40.512
	c-1.583,14.91-3.297,31.803-8.312,47.899c-8.709,28.503-6.861,52.125,5.146,68.488c12.669,17.022,35.63,25.731,68.224,25.731
	c31.803,0,55.555-9.368,68.487-27.184c12.405-16.891,14.25-40.116,5.675-67.036c-5.543-17.416-8.58-35.1-11.35-50.671
	c-2.771-16.1-5.279-30.086-9.633-39.72C2865.021,607.391,2849.185,598.021,2822,598.021z"/>
<path id="XMLID_2248_" fill="#344258" stroke="#5D5C74" stroke-width="4" stroke-miterlimit="10" d="M2726.99,847.293
	c0-39.983,43.019-72.313,96.198-72.313c53.181,0,96.198,32.33,96.198,72.313"/>
<path id="XMLID_2243_" fill="#FBD7CE" d="M2844.699,664.794c-20.586,0-38.535-8.446-46.979-20.586
	c-3.433,13.723-13.062,24.017-24.678,25.469c0,12.93,0,33.385,0,44.602c0,17.154,10.689,38.532,27.581,49.352v17.155
	c0,9.633,6.069,23.093,21.905,23.093c15.438,0,22.301-13.46,22.301-23.093v-15.967c17.945-10.293,27.58-32.727,27.58-50.54
	c0-17.155,0-56.215,0-56.215c0-0.133,0-0.263,0-0.396C2869.506,663.342,2862.249,664.794,2844.699,664.794z"/>
<path id="XMLID_2240_" fill="#5C5C74" d="M2822.398,804.143c-16.762,0-22.83-14.384-22.83-24.018v-16.759
	c-15.967-10.556-27.58-31.405-27.58-49.879v-44.604c0-0.525,0.395-0.923,0.792-0.923c11.085-1.32,20.454-11.084,23.884-24.809
	c0.133-0.396,0.397-0.66,0.792-0.66c0.396,0,0.66,0.132,0.923,0.396c8.711,12.536,26.393,20.19,46.188,20.19
	c17.945,0,24.148-1.585,26.787-6.598c0.131-0.398,0.658-0.528,1.057-0.528c0.396,0.13,0.658,0.528,0.658,0.924v0.395v56.216
	c0,16.757-8.709,39.851-27.579,51.066v15.439C2845.621,790.154,2838.363,804.143,2822.398,804.143z M2773.836,669.939v43.678
	c0,18.079,11.479,38.401,27.184,48.562c0.265,0.132,0.396,0.528,0.396,0.792v17.154c0,8.843,5.542,22.169,20.982,22.169
	c14.646,0,21.376-12.932,21.376-22.169v-15.967c0-0.396,0.131-0.66,0.528-0.792c17.812-10.293,27.182-32.726,27.182-49.749v-53.707
	c-4.223,4.355-12.535,5.146-26.785,5.146c-19.531,0-37.213-7.39-46.583-19.398C2794.158,658.855,2784.788,668.225,2773.836,669.939z
	"/>
<g id="XMLID_2238_">
	<path id="XMLID_2239_" fill="#5C5C74" d="M2832.953,731.961c0,0-4.354,4.881-9.633,4.881s-9.631-4.881-9.631-4.881
		s4.352,0.659,9.631,0.659C2828.6,732.488,2832.953,731.961,2832.953,731.961z"/>
</g>
<g id="XMLID_2236_">
	<path id="XMLID_2237_" fill="#5C5C74" d="M2823.717,718.501h-0.133c-1.451,0-2.903-0.659-3.562-1.716
		c-0.528-0.792-0.658-1.848-0.396-2.771l0.926,0.265c-0.265,0.659-0.133,1.45,0.262,1.978c0.529,0.794,1.586,1.321,2.904,1.321
		c1.451,0,2.771-0.527,3.43-1.451c0.396-0.66,0.396-1.32,0.133-2.112l0.924-0.396c0.527,1.32,0.264,2.376-0.265,3.037
		C2827.017,717.842,2825.433,718.501,2823.717,718.501z"/>
</g>
<path id="XMLID_2235_" fill="#E4E6E9" d="M2929.547,826.839v113.882c0,5.938-4.75,10.688-10.688,10.688h-193.188
	c-5.938,0-10.69-4.75-10.69-10.688V826.708c0-5.939,4.752-10.689,10.69-10.689h193.056
	C2924.666,816.019,2929.547,820.9,2929.547,826.839"/>
<path id="XMLID_2234_" fill="#CDCFD2" d="M2929.547,928.184v12.537c0,5.938-4.75,10.688-10.688,10.688h-193.188
	c-5.938,0-10.69-4.75-10.69-10.688v-12.669L2929.547,928.184z"/>
<path id="XMLID_2233_" fill="#5D5C74" d="M2714.98,885.958c-1.317,0-2.242-1.057-2.242-2.245v-22.564c0-1.32,1.188-2.11,2.242-2.11
	c1.189,0,2.113,1.056,2.113,2.11v22.564C2717.226,885.033,2716.303,885.958,2714.98,885.958"/>
<path id="XMLID_2232_" fill="#5D5C74" d="M2918.727,953.783h-193.056c-7.126,0-12.933-5.806-12.933-12.93v-43.284
	c0-1.32,1.188-2.111,2.242-2.111c1.189,0,2.113,1.056,2.113,2.111v43.284c0,4.617,3.826,8.575,8.445,8.575h193.188
	c4.619,0,8.446-3.826,8.446-8.575V826.839c0-4.618-3.827-8.577-8.446-8.577h-193.056c-4.619,0-8.445,3.827-8.445,8.577v22.433
	c0,1.319-1.056,2.243-2.245,2.243c-1.186,0-2.242-1.055-2.242-2.243v-22.433c0-7.125,5.807-12.933,12.933-12.933h193.056
	c7.127,0,12.934,5.808,12.934,12.933v113.882C2931.791,947.846,2925.984,953.783,2918.727,953.783"/>
<path id="XMLID_2228_" fill="#FFFFFF" d="M2914.9,863.128c-1.057,0-1.715-0.793-1.715-1.716v-20.585
	c0-4.884-4.092-8.975-8.975-8.975h-23.092c-1.057,0-1.717-0.79-1.717-1.714c0-1.056,0.792-1.715,1.717-1.715h23.092
	c6.994,0,12.538,5.673,12.538,12.535v20.585C2916.749,862.205,2915.955,863.128,2914.9,863.128 M2868.318,831.853h-16.099
	c-1.057,0-1.716-0.79-1.716-1.714c0-1.056,0.793-1.715,1.716-1.715h16.099c1.057,0,1.717,0.79,1.717,1.715
	C2870.166,830.93,2869.375,831.853,2868.318,831.853 M2828.467,892.819c8.446,10.027,1.979,14.646-6.068,14.646
	c-8.051,0-14.648-6.599-14.648-14.646c0-8.051,6.598-14.648,14.648-14.648C2830.445,878.171,2834.273,885.561,2828.467,892.819"/>
<path id="XMLID_2224_" fill="#5D5C74" d="M2822.265,880.282c-6.861,0-12.403,5.543-12.403,12.404
	c0,6.862,5.542,12.404,12.403,12.404c3.827,0,6.861-1.187,7.522-2.902c0.924-1.716-0.265-4.619-3.168-8.051
	c-0.659-0.791-0.792-1.979,0-2.901c2.244-2.772,2.903-5.676,1.715-7.787C2827.543,881.603,2825.168,880.282,2822.265,880.282
	 M2822.265,909.709c-9.369,0-16.892-7.521-16.892-16.89c0-9.37,7.522-16.893,16.892-16.893c4.618,0,8.446,2.113,10.161,5.676
	c1.582,3.299,1.188,7.257-1.32,11.084c3.299,4.354,4.223,8.313,2.771,11.48C2832.294,907.73,2827.938,909.709,2822.265,909.709"/>
<path id="XMLID_2222_" fill="#5D5C74" d="M2820.021,871.705c-1.319,0-2.242-1.055-2.242-2.243c0-0.265,0-0.396,0.131-0.66
	c0.131-0.264,1.979-6.994,7.655-8.708c1.187-0.396,2.373,0.396,2.769,1.583c0.266,1.187-0.396,2.375-1.451,2.639
	c-3.166,1.057-4.618,5.542-4.618,5.675C2821.869,871.046,2820.945,871.705,2820.021,871.705"/>
<path id="XMLID_2217_" fill="#DFE1E2" d="M2605.588,937.42h31.143v-46.582h-31.274L2605.588,937.42L2605.588,937.42z"/>
<path id="XMLID_2213_" fill="#5D5C74" d="M2607.833,935.046h26.786V892.95h-26.786V935.046z M2636.864,939.663h-31.276
	c-1.318,0-2.243-1.055-2.243-2.243v-46.582c0-1.319,1.056-2.241,2.243-2.241h31.276c1.317,0,2.24,1.056,2.24,2.241v46.582
	C2639.104,938.608,2638.182,939.663,2636.864,939.663z"/>
<path id="XMLID_2208_" fill="#5D5C74" d="M2636.864,931.22c-1.322,0-2.245-1.057-2.245-2.243c0-1.32,1.056-2.245,2.245-2.245
	c6.991,0,12.666-5.673,12.666-12.667c0-6.993-5.675-12.67-12.666-12.67c-1.322,0-2.245-1.055-2.245-2.241
	c0-1.32,1.056-2.243,2.245-2.243c9.5,0,17.02,7.653,17.02,17.154C2653.884,923.564,2646.232,931.22,2636.864,931.22
	 M2621.291,884.901c-0.396,0-0.791-0.133-1.056-0.528c-0.396-0.528-4.092-5.542-3.3-8.973c0.397-1.452,1.321-2.64,2.245-3.827
	c1.188-1.451,2.243-2.64,2.374-4.75c0.132-0.793,0.793-1.321,1.452-1.321c0.791,0.133,1.319,0.794,1.319,1.453
	c-0.263,3.035-1.715,4.75-3.035,6.333c-0.791,0.924-1.451,1.716-1.583,2.639c-0.396,1.716,1.716,5.279,2.771,6.731
	c0.527,0.66,0.396,1.451-0.265,1.847C2621.819,884.769,2621.555,884.901,2621.291,884.901 M2613.638,883.977
	c-0.132,0-0.265,0-0.396-0.132c-0.264-0.264-2.77-1.847-3.035-3.693c-0.132-0.792,0.133-1.452,0.527-2.111
	c0.396-0.925,0.661-1.585,0.396-2.64c-0.13-0.396,0.133-0.793,0.528-0.793c0.396-0.132,0.792,0.133,0.792,0.528
	c0.395,1.451-0.134,2.507-0.396,3.433c-0.264,0.525-0.396,1.054-0.396,1.449c0.133,0.792,1.453,1.98,2.376,2.773
	c0.263,0.262,0.395,0.658,0.132,0.922C2614.034,883.845,2613.902,883.977,2613.638,883.977 M2628.945,884.241
	c-0.265,0-0.527-0.132-0.66-0.528c-0.133-0.395-1.188-3.299-0.264-4.75c0.396-0.66,1.056-1.188,1.583-1.451
	c0.792-0.528,1.452-0.925,1.848-1.848c0.133-0.396,0.527-0.528,0.924-0.264c0.264,0.132,0.528,0.526,0.396,0.924
	c-0.659,1.45-1.584,1.979-2.375,2.507c-0.528,0.396-1.057,0.659-1.188,1.055c-0.396,0.793,0,2.508,0.396,3.695
	c0.132,0.396,0,0.792-0.396,0.924h-0.264"/>
<path id="XMLID_2205_" fill="#FFFFFF" d="M2616.012,916.571c-1.055,0-1.978-0.792-1.978-1.98v-14.515
	c0-1.055,0.791-1.979,1.978-1.979c1.188,0,1.979,0.791,1.979,1.979v14.515C2617.991,915.647,2617.2,916.571,2616.012,916.571
	C2616.012,916.703,2616.012,916.703,2616.012,916.571 M2616.012,933.065c-1.055,0-1.978-0.791-1.978-1.979v-7.389
	c0-1.057,0.791-1.979,1.978-1.979c1.188,0,1.979,0.791,1.979,1.979v7.389C2617.991,932.143,2617.2,933.065,2616.012,933.065"/>
<g id="XMLID_2109_">
	<path id="XMLID_2113_" fill="#5C5C74" d="M2787.955,689.339c-0.528,0-0.924-0.134-1.318-0.528c-0.793-0.659-0.793-1.981-0.132-2.64
		c2.374-2.508,5.805-3.826,8.972-3.564c2.64,0.265,5.016,1.584,6.336,3.695c0.526,0.925,0.262,2.111-0.528,2.641
		c-0.925,0.528-2.111,0.263-2.639-0.529c-0.661-1.187-1.981-1.847-3.433-1.979c-2.111-0.132-4.223,0.661-5.805,2.377
		C2789.011,689.205,2788.483,689.339,2787.955,689.339z"/>
</g>
<g id="XMLID_1696_">
	<path id="XMLID_2072_" fill="#5C5C74" d="M2859.741,689.339c-0.527,0-1.055-0.134-1.319-0.528c-1.584-1.716-3.958-2.64-6.202-2.509
		c-1.849,0.132-3.562,0.925-4.487,2.245c-0.66,0.792-1.847,1.055-2.639,0.396c-0.791-0.66-1.057-1.848-0.395-2.641
		c1.714-2.111,4.354-3.562,7.256-3.695c3.432-0.131,6.863,1.188,9.237,3.695c0.792,0.793,0.661,1.98,0,2.641
		C2860.666,689.205,2860.136,689.339,2859.741,689.339z"/>
</g>
<path id="XMLID_2363_" fill="none" stroke="#0066CC" stroke-width="2" stroke-miterlimit="10" d="M2794.402,566.444
	c-0.791,0.66-1.715,1.056-2.902,1.056c-2.375,0-4.355-1.98-4.355-4.354c0-2.376,1.98-4.355,4.355-4.355s4.355,1.979,4.355,4.355
	c0,0.792-0.133,1.452-0.529,1.979"/>
<path id="XMLID_2366_" fill="none" stroke="#0066CC" stroke-width="2" stroke-miterlimit="10" d="M2989.174,573.438
	c-0.66,0.661-1.584,0.924-2.639,0.924c-2.243,0-4.09-1.847-4.09-4.091s1.847-4.091,4.09-4.091c2.244,0,4.091,1.847,4.091,4.091
	c0,0.66-0.132,1.32-0.528,1.847"/>
<path id="XMLID_958_" fill="none" stroke="#0066CC" stroke-width="2" stroke-miterlimit="10" d="M2620.332,642.626
	c-1.583,1.452-3.828,2.243-6.202,2.243c-5.146,0-9.369-4.223-9.369-9.369c0-5.146,4.223-9.369,9.369-9.369s9.37,4.223,9.37,9.369
	c0,1.583-0.397,3.035-1.057,4.355"/>
<path id="XMLID_956_" fill="none" stroke="#0066CC" stroke-width="2" stroke-miterlimit="10" d="M2627.589,588.918
	c-1.055,0.924-2.507,1.583-4.089,1.583c-3.431,0-6.204-2.771-6.204-6.202s2.773-6.202,6.204-6.202s6.2,2.771,6.2,6.202
	c0,1.056-0.262,2.111-0.791,2.903"/>
<path id="XMLID_955_" fill="none" stroke="#7E50FF" stroke-width="2" stroke-miterlimit="10" d="M2925.304,645.016
	c-0.528,0.527-1.318,0.791-2.111,0.791c-1.715,0-3.167-1.45-3.167-3.167c0-1.716,1.452-3.167,3.167-3.167
	c1.716,0,3.166,1.452,3.166,3.167c0,0.527-0.131,1.056-0.396,1.451"/>
<path id="XMLID_954_" fill="none" stroke="#0066CC" stroke-width="2" stroke-miterlimit="10" d="M2561.609,608.844
	c-1.054,0.924-2.507,1.583-4.09,1.583c-3.431,0-6.202-2.771-6.202-6.202c0-3.432,2.771-6.203,6.202-6.203s6.202,2.771,6.202,6.203
	c0,1.055-0.264,2.111-0.791,2.902"/>
<path id="XMLID_953_" fill="none" stroke="#0066CC" stroke-width="2" stroke-miterlimit="10" d="M2901.158,594.683
	c-1.057,0.924-2.506,1.584-4.092,1.584c-3.43,0-6.201-2.771-6.201-6.202s2.771-6.202,6.201-6.202c3.431,0,6.203,2.771,6.203,6.202
	c0,1.055-0.264,2.112-0.792,2.903"/>
<path id="XMLID_952_" fill="none" stroke="#0066CC" stroke-width="2" stroke-miterlimit="10" d="M2715.191,593.762
	c-0.528,0.527-1.319,0.791-2.111,0.791c-1.716,0-3.167-1.451-3.167-3.167s1.451-3.167,3.167-3.167s3.168,1.451,3.168,3.167
	c0,0.527-0.132,1.056-0.396,1.452"/>
<path id="XMLID_951_" fill="none" stroke="#0066CC" stroke-width="2" stroke-miterlimit="10" d="M2444.828,628.374
	c-0.53,0.528-1.321,0.792-2.112,0.792c-1.717,0-3.167-1.452-3.167-3.167c0-1.715,1.45-3.167,3.167-3.167
	c1.715,0,3.166,1.451,3.166,3.167c0,0.528-0.132,1.056-0.395,1.452"/>
<path id="XMLID_950_" fill="none" stroke="#0066CC" stroke-width="2" stroke-miterlimit="10" d="M2489.033,595.912
	c-0.528,0.527-1.319,0.792-2.111,0.792c-1.717,0-3.167-1.452-3.167-3.167s1.45-3.167,3.167-3.167c1.714,0,3.166,1.452,3.166,3.167
	c0,0.527-0.132,1.056-0.396,1.452"/>
<path id="XMLID_949_" fill="none" stroke="#7E50FF" stroke-width="2" stroke-miterlimit="10" d="M2973.489,645
	c-0.528,0.527-1.319,0.792-2.111,0.792c-1.716,0-3.167-1.452-3.167-3.168c0-1.715,1.451-3.167,3.167-3.167s3.168,1.452,3.168,3.167
	c0,0.527-0.132,1.056-0.396,1.452"/>
<g>
	<path fill="#0066CC" d="M2525.801,673.9c-40.14,0-72.801,32.661-72.801,72.801s32.661,72.801,72.801,72.801
		s72.801-32.661,72.801-72.801S2565.94,673.9,2525.801,673.9L2525.801,673.9z M2525.801,813.896
		c-37.05,0-67.195-30.146-67.195-67.195s30.146-67.195,67.195-67.195s67.195,30.146,67.195,67.195
		S2562.851,813.896,2525.801,813.896L2525.801,813.896z M2525.801,813.896"/>
	<path fill="#0066CC" d="M2560.104,716.843l-43.038,48.411l-25.922-20.74c-1.203-0.974-2.966-0.766-3.938,0.438
		c-0.957,1.203-0.765,2.963,0.438,3.938l28,22.391c0.519,0.409,1.135,0.618,1.749,0.618c0.779,0,1.545-0.317,2.105-0.946
		l44.788-50.391c1.038-1.161,0.93-2.925-0.231-3.954C2562.906,715.568,2561.129,715.681,2560.104,716.843L2560.104,716.843z
		 M2560.104,716.843"/>
</g>
</svg>
