<?xml version="1.0" encoding="utf-8"?>
<!-- Generator: Adobe Illustrator 16.0.4, SVG Export Plug-In . SVG Version: 6.00 Build 0)  -->
<!DOCTYPE svg PUBLIC "-//W3C//DTD SVG 1.1//EN" "http://www.w3.org/Graphics/SVG/1.1/DTD/svg11.dtd">
<svg version="1.1" id="_x30_02" xmlns="http://www.w3.org/2000/svg" xmlns:xlink="http://www.w3.org/1999/xlink" x="0px" y="0px"
	 width="128px" height="128px" viewBox="0 0 128 128" style="enable-background:new 0 0 128 128;" xml:space="preserve">
<style type="text/css">
<![CDATA[
	.st0{fill:#FFFFFF;stroke:#6D6DAA;stroke-width:2;stroke-linecap:round;stroke-linejoin:round;stroke-miterlimit:10;}
	.st1{opacity:0.3;fill:#C1A29F;}
	.st2{opacity:0.3;fill:#93765F;}
	.st3{fill:#48BC33;}
	.st4{fill:#8593BA;stroke:#6D6DAA;stroke-width:2;stroke-linecap:round;stroke-linejoin:round;stroke-miterlimit:10;}
	.st5{fill:#E0F3FF;}
	.st6{fill:#FF99B1;stroke:#6D6DAA;stroke-width:2;stroke-linecap:round;stroke-linejoin:round;stroke-miterlimit:10;}
	
		.st7{fill-rule:evenodd;clip-rule:evenodd;fill:#939FC6;stroke:#6D6DAA;stroke-width:2;stroke-linecap:round;stroke-linejoin:round;stroke-miterlimit:10;}
	.st8{fill:none;stroke:#6D6DAA;stroke-width:2;stroke-linecap:round;stroke-linejoin:round;stroke-dasharray:0,4;}
	.st9{fill:none;stroke:#6D6DAA;stroke-width:2;stroke-linecap:round;stroke-linejoin:round;stroke-dasharray:0.1849,2.7739;}
	.st10{opacity:0.3;fill:#FF9797;}
	.st11{opacity:0.3;fill:#FFF9E0;}
	.st12{opacity:0.3;fill:#FFFFFF;}
	.st13{opacity:0.3;fill-rule:evenodd;clip-rule:evenodd;fill:#FFF9E0;}
	.st14{fill:#4C5A7F;}
	.st15{fill:#D4EDFF;stroke:#6D6DAA;stroke-width:2;stroke-linecap:round;stroke-linejoin:round;stroke-miterlimit:10;}
	.st16{fill:#FF9797;stroke:#6D6DAA;stroke-width:2;stroke-linecap:round;stroke-linejoin:round;stroke-miterlimit:10;}
	.st17{fill-rule:evenodd;clip-rule:evenodd;fill:#DDD9FF;}
	.st18{fill:#4FBDFF;}
	.st19{fill:#80D880;}
	.st20{fill:#B1F1A8;}
	.st21{opacity:0.3;fill:#CC7E54;}
	.st22{opacity:0.5;fill:#FFFFFF;stroke:#6D6DAA;stroke-width:2;stroke-linecap:round;stroke-linejoin:round;stroke-miterlimit:10;}
	.st23{opacity:0.3;fill:#9EB2CC;}
	.st24{fill:none;stroke:#6D6DAA;stroke-width:2;stroke-linecap:round;stroke-linejoin:round;stroke-dasharray:0,11.9632;}
	.st25{fill:#EAE2B0;}
	.st26{fill:none;stroke:#FFFFFF;stroke-width:2;stroke-linecap:round;stroke-linejoin:round;stroke-miterlimit:10;}
	
		.st27{fill-rule:evenodd;clip-rule:evenodd;fill:#CED8EE;stroke:#6D6DAA;stroke-width:2;stroke-linecap:round;stroke-linejoin:round;stroke-miterlimit:10;}
	.st28{fill:#FFD599;stroke:#6D6DAA;stroke-width:2;stroke-linecap:round;stroke-linejoin:round;stroke-miterlimit:10;}
	.st29{fill:#89DBBA;}
	.st30{opacity:0.5;fill:#F7A706;}
	.st31{fill:#EEF6FF;}
	.st32{fill:#EFDCD2;}
	.st33{opacity:0.3;fill:#6E7EB0;}
	.st34{opacity:0.3;fill:#0070B8;}
	.st35{opacity:0.8;fill:#FFFFFF;}
	.st36{fill:#B1F1A8;stroke:#6D6DAA;stroke-width:2;stroke-linecap:round;stroke-linejoin:round;stroke-miterlimit:10;}
	.st37{fill:none;stroke:#FF9797;stroke-width:2;stroke-linecap:round;stroke-linejoin:round;stroke-miterlimit:10;}
	.st38{opacity:0.25;fill:#FFFFFF;}
	.st39{fill:#59D19A;}
	.st40{fill:#97C1FF;stroke:#6D6DAA;stroke-width:2;stroke-linecap:round;stroke-linejoin:round;stroke-miterlimit:10;}
	.st41{fill:none;stroke:#6D6DAA;stroke-width:2;stroke-linecap:round;stroke-linejoin:round;}
	.st42{fill:#EEF6FF;stroke:#6D6DAA;stroke-width:2;stroke-linecap:round;stroke-linejoin:round;stroke-miterlimit:10;}
	.st43{opacity:0.3;fill:#D63C74;}
	.st44{fill:#231F20;}
	.st45{fill:#FFF27D;stroke:#6D6DAA;stroke-width:2;stroke-linecap:round;stroke-linejoin:round;stroke-miterlimit:10;}
	.st46{opacity:0.5;fill:#FFF9E0;}
	.st47{opacity:0.5;fill:#FFFFFF;}
	.st48{fill:none;stroke:#505070;stroke-width:2;stroke-linecap:round;stroke-linejoin:round;stroke-miterlimit:10;}
	.st49{fill:none;stroke:#5CBEFF;stroke-width:2;stroke-linecap:round;stroke-linejoin:round;stroke-miterlimit:10;}
	.st50{opacity:0.3;fill:#7369D6;}
	.st51{fill:#5CBEFF;}
	.st52{fill:none;stroke:#B6B6D4;stroke-width:2;stroke-linecap:round;stroke-linejoin:round;stroke-miterlimit:10;}
	.st53{opacity:0.3;fill:#7595B5;}
	.st54{fill:#F9E2DC;}
	.st55{clip-path:url(#SVGID_2_);}
	.st56{clip-path:url(#SVGID_4_);}
	.st57{clip-path:url(#SVGID_6_);}
	.st58{clip-path:url(#SVGID_8_);}
	.st59{opacity:0.3;fill:#7690A8;}
	.st60{opacity:0.3;fill:#DB4962;}
	.st61{fill:#C1A29F;}
	.st62{fill:#939FC6;}
	.st63{fill:none;stroke:#6D6DAA;stroke-width:2;stroke-linecap:round;stroke-linejoin:round;stroke-dasharray:0,12.6778;}
	.st64{fill:none;stroke:#6D6DAA;stroke-width:2;stroke-linecap:round;stroke-linejoin:round;stroke-dasharray:0,12.6781;}
	.st65{opacity:0.5;fill-rule:evenodd;clip-rule:evenodd;fill:#FFFFFF;}
	.st66{fill:none;stroke:#FFF27D;stroke-width:2;stroke-linecap:round;stroke-linejoin:round;stroke-miterlimit:10;}
	.st67{fill:none;stroke:#B1F1A8;stroke-width:2;stroke-linecap:round;stroke-linejoin:round;stroke-miterlimit:10;}
	.st68{fill:none;stroke:#5B6875;stroke-width:2;stroke-linecap:round;stroke-linejoin:round;stroke-miterlimit:10;}
	.st69{fill:#96D7FF;}
	.st70{fill:#97C1FF;}
	.st71{opacity:0.3;fill:none;stroke:#6D6DAA;stroke-width:2;stroke-linecap:round;stroke-linejoin:round;stroke-miterlimit:10;}
	.st72{fill:#C7E9FF;}
	.st73{fill:#C9C1F5;}
	.st74{opacity:0.3;}
	.st75{opacity:0.5;}
	.st76{opacity:0.7;}
	.st77{opacity:0.75;fill:#FFFFFF;}
	.st78{fill:#FFFAD1;stroke:#6D6DAA;stroke-width:2;stroke-linecap:round;stroke-linejoin:round;stroke-miterlimit:10;}
	.st79{fill:#FEDBC1;}
	.st80{fill:#FF91A9;}
	.st81{fill:#FF968C;}
	.st82{fill:#FF9797;}
	.st83{fill:#FF99B1;}
	.st84{fill:#6D6DAA;stroke:#6D6DAA;stroke-width:2;stroke-linecap:round;stroke-linejoin:round;stroke-miterlimit:10;}
	.st85{fill:#FFC661;}
	.st86{fill:#FFD288;}
	.st87{fill:#FFD599;}
	.st88{fill:#FFF27D;}
	.st89{fill:#FFF2CC;}
	.st90{fill:#FFF9E0;}
	.st91{fill:#FFFAD1;}
	.st92{fill:#FFFFFF;}
	.st93{opacity:0.3;fill:#48BC33;}
	.st94{opacity:0.5;fill:none;stroke:#6D6DAA;stroke-width:2;stroke-linecap:round;stroke-linejoin:round;stroke-miterlimit:10;}
	.st95{opacity:0.2;fill:#FFFFFF;stroke:#6D6DAA;stroke-width:2;stroke-linecap:round;stroke-linejoin:round;stroke-miterlimit:10;}
	.st96{opacity:0.4;fill:#F7A706;}
	.st97{fill:#CC7E54;}
	.st98{fill:none;stroke:#6D6DAA;stroke-width:2;stroke-linecap:round;stroke-linejoin:round;stroke-dasharray:0.1789,2.6841;}
	.st99{fill:#9EB2CC;}
	.st100{fill:#CED8EE;}
	.st101{fill:#9FADD3;}
	.st102{fill:#D6B5B0;stroke:#6D6DAA;stroke-width:2;stroke-linecap:round;stroke-linejoin:round;stroke-miterlimit:10;}
	.st103{fill:#939FC6;stroke:#6D6DAA;stroke-width:2;stroke-linecap:round;stroke-linejoin:round;stroke-miterlimit:10;}
	.st104{opacity:0.3;fill:#4C5A7F;}
	.st105{fill:#F2EED5;stroke:#6D6DAA;stroke-width:2;stroke-linecap:round;stroke-linejoin:round;stroke-miterlimit:10;}
	.st106{opacity:0.3;fill:#4F649E;}
	.st107{fill:none;stroke:#6D6DAA;stroke-width:2;stroke-linecap:round;stroke-linejoin:round;stroke-dasharray:0.1905,2.8574;}
	.st108{fill:#6D6DAA;}
	.st109{opacity:0.3;fill:#8484CF;}
	.st110{fill:#C9C1F5;stroke:#6D6DAA;stroke-width:2;stroke-linecap:round;stroke-linejoin:round;stroke-miterlimit:10;}
	.st111{fill:none;stroke:#6D6DAA;stroke-width:2;stroke-linecap:round;stroke-linejoin:round;stroke-dasharray:0.1967,2.9499;}
	.st112{fill-rule:evenodd;clip-rule:evenodd;fill:#C9C1F5;}
	.st113{fill-rule:evenodd;clip-rule:evenodd;fill:#FF99B1;}
	.st114{opacity:0.3;fill:#1C64BA;}
	.st115{fill-rule:evenodd;clip-rule:evenodd;fill:#FFFFFF;}
	.st116{fill:#89DBBA;stroke:#6D6DAA;stroke-width:2;stroke-linecap:round;stroke-linejoin:round;stroke-miterlimit:10;}
	.st117{fill:#FF9797;stroke:#6D6DAA;stroke-width:2;stroke-miterlimit:10;}
	.st118{fill:#FFC661;stroke:#6D6DAA;stroke-width:2;stroke-linecap:round;stroke-linejoin:round;stroke-miterlimit:10;}
	.st119{fill:#D4EDFF;}
	.st120{fill:none;stroke:#FF99B1;stroke-width:2;stroke-linecap:round;stroke-linejoin:round;stroke-miterlimit:10;}
	.st121{fill:#E0F3FF;stroke:#6D6DAA;stroke-width:2;stroke-linecap:round;stroke-linejoin:round;stroke-miterlimit:10;}
	.st122{fill:#FF968C;stroke:#6D6DAA;stroke-width:2;stroke-linecap:round;stroke-linejoin:round;stroke-miterlimit:10;}
	.st123{fill:#CED8EE;stroke:#6D6DAA;stroke-width:2;stroke-linecap:round;stroke-linejoin:round;stroke-miterlimit:10;}
	.st124{fill:#96D7FF;stroke:#6D6DAA;stroke-width:2;stroke-linecap:round;stroke-linejoin:round;stroke-miterlimit:10;}
	.st125{fill:#D6B5B0;}
	.st126{opacity:0.3;fill:#554DAD;}
	.st127{opacity:0.3;fill-rule:evenodd;clip-rule:evenodd;fill:#554DAD;}
	.st128{opacity:0.5;fill:#939FC6;stroke:#6D6DAA;stroke-width:2;stroke-linecap:round;stroke-linejoin:round;stroke-miterlimit:10;}
	.st129{fill:none;stroke:#6D6DAA;stroke-width:2;stroke-linecap:round;stroke-linejoin:round;stroke-dasharray:0.1923,2.8843;}
	.st130{clip-path:url(#SVGID_10_);}
	.st131{clip-path:url(#SVGID_12_);}
	.st132{clip-path:url(#SVGID_14_);}
	.st133{clip-path:url(#SVGID_16_);}
	.st134{fill:none;stroke:#5ECCA0;stroke-width:2;stroke-linecap:round;stroke-linejoin:round;stroke-miterlimit:10;}
	.st135{opacity:0.3;fill:#BF914C;}
	.st136{fill:#7690A8;}
	.st137{fill:#DB4962;}
	.st138{opacity:0.7;fill:#FFFFFF;stroke:#6D6DAA;stroke-width:2;stroke-linecap:round;stroke-linejoin:round;stroke-miterlimit:10;}
	
		.st139{fill-rule:evenodd;clip-rule:evenodd;fill:none;stroke:#6D6DAA;stroke-width:2;stroke-linecap:round;stroke-linejoin:round;stroke-miterlimit:10;}
	.st140{fill:#A8D5FF;}
	.st141{fill:#FFF2CC;stroke:#6D6DAA;stroke-width:2;stroke-linecap:round;stroke-linejoin:round;stroke-miterlimit:10;}
	.st142{opacity:0.3;fill:#5B58BC;}
	.st143{opacity:0.3;fill:#289963;}
	.st144{opacity:0.3;fill:#5CBEFF;}
	.st145{fill:none;stroke:#939FC6;stroke-width:2;stroke-linecap:round;stroke-linejoin:round;stroke-miterlimit:10;}
	.st146{fill:none;stroke:#6D6DAA;stroke-width:2;stroke-linecap:round;stroke-linejoin:round;stroke-miterlimit:10;}
]]>
</style>
<g class="st74">
	<path class="st70" d="M2.6,52.4c-4.5,12.1-0.8,25.3,8.5,33.3c3.3,2.8,5.6,6.7,6.4,11c0.8,3.8,2.1,7.6,4.2,11.2
		c9,15.7,28.5,22.6,45.4,16.1c5.6-2.2,10.4-5.5,14.1-9.7c4.1-4.5,10-6.9,16.1-6.7c16,0.4,31.4-12.9,28.7-34.8
		c-0.3-2.6-1.6-5.1-3.2-7.4c-3-4.2-4.1-9.3-3.5-14.4c1-8.3-1.7-17-8.1-23.4c-6.3-6.4-14.9-9.1-23.2-8.3c-5.9,0.6-11.8-1.4-16-5.4
		c-6.2-6-14.9-9.1-24-7.9c-11.6,1.5-20.6,9.7-23.9,20.1c-1.5,4.7-4.8,8.6-9,11.2C9.7,40.6,5.1,45.8,2.6,52.4z"/>
	<g>
		<path class="st92" d="M10,114V94c0-1.1,0.9-2,2-2h68c1.1,0,2,0.9,2,2v20c0,1.1-0.9,2-2,2H12C10.9,116,10,115.1,10,114z"/>
		<path class="st59" d="M80,92H12c-1.1,0-2,0.9-2,2v3c0-1.1,0.9-2,2-2h68c1.1,0,2,0.9,2,2v-3C82,92.9,81.1,92,80,92z"/>
		<path class="st146" d="M10,114V94c0-1.1,0.9-2,2-2h68c1.1,0,2,0.9,2,2v20c0,1.1-0.9,2-2,2H12C10.9,116,10,115.1,10,114z"/>
		<g class="st75">
			<line class="st146" x1="22" y1="100" x2="22" y2="108"/>
			<line class="st146" x1="18.5" y1="101.5" x2="25.5" y2="106.5"/>
			<line class="st146" x1="25.5" y1="101.5" x2="18.5" y2="106.5"/>
		</g>
		<g class="st75">
			<line class="st146" x1="34" y1="100" x2="34" y2="108"/>
			<line class="st146" x1="30.5" y1="101.5" x2="37.5" y2="106.5"/>
			<line class="st146" x1="37.5" y1="101.5" x2="30.5" y2="106.5"/>
		</g>
		<g class="st75">
			<line class="st146" x1="46" y1="100" x2="46" y2="108"/>
			<line class="st146" x1="42.5" y1="101.5" x2="49.5" y2="106.5"/>
			<line class="st146" x1="49.5" y1="101.5" x2="42.5" y2="106.5"/>
		</g>
		<g class="st75">
			<line class="st146" x1="58" y1="100" x2="58" y2="108"/>
			<line class="st146" x1="54.5" y1="101.5" x2="61.5" y2="106.5"/>
			<line class="st146" x1="61.5" y1="101.5" x2="54.5" y2="106.5"/>
		</g>
		<g class="st75">
			<line class="st146" x1="70" y1="100" x2="70" y2="108"/>
			<line class="st146" x1="66.5" y1="101.5" x2="73.5" y2="106.5"/>
			<line class="st146" x1="73.5" y1="101.5" x2="66.5" y2="106.5"/>
		</g>
	</g>
	<g>
		<rect x="69" y="11" class="st31" width="46" height="52"/>
		<path class="st100" d="M115,7v4H69V7c0-1.1,0.9-2,2-2h42C114.1,5,115,5.9,115,7z"/>
		<rect x="73" y="15" class="st110" width="38" height="12"/>
		<polyline class="st110" points="73,63 73,59 111,59 111,63 		"/>
		<rect x="73" y="33" class="st36" width="10" height="6"/>
		<rect x="87" y="33" class="st36" width="10" height="6"/>
		<rect x="101" y="33" class="st36" width="10" height="6"/>
		<path class="st146" d="M115,11v52H69V11V7c0-1.1,0.9-2,2-2h42c1.1,0,2,0.9,2,2V11z"/>
		<line class="st146" x1="69" y1="11" x2="115" y2="11"/>
		<line class="st146" x1="101" y1="43" x2="111" y2="43"/>
		<line class="st146" x1="87" y1="43" x2="97" y2="43"/>
		<line class="st146" x1="73" y1="43" x2="83" y2="43"/>
		<line class="st146" x1="101" y1="47" x2="111" y2="47"/>
		<line class="st146" x1="87" y1="47" x2="97" y2="47"/>
		<line class="st146" x1="73" y1="47" x2="83" y2="47"/>
		<line class="st146" x1="101" y1="51" x2="111" y2="51"/>
		<line class="st146" x1="87" y1="51" x2="97" y2="51"/>
		<line class="st146" x1="73" y1="51" x2="83" y2="51"/>
		<line class="st146" x1="101" y1="55" x2="111" y2="55"/>
		<line class="st146" x1="87" y1="55" x2="97" y2="55"/>
		<line class="st146" x1="73" y1="55" x2="83" y2="55"/>
		<line class="st37" x1="72" y1="8" x2="72" y2="8"/>
		<line class="st66" x1="75" y1="8" x2="75" y2="8"/>
		<line class="st67" x1="78" y1="8" x2="78" y2="8"/>
		<line class="st146" x1="89" y1="30" x2="89" y2="30"/>
		<line class="st146" x1="92" y1="30" x2="92" y2="30"/>
		<line class="st146" x1="95" y1="30" x2="95" y2="30"/>
	</g>
	<g>
		<polygon class="st42" points="127,93 93,93 93,47 119,47 127,55 		"/>
		<polygon class="st42" points="119,47 119,55 127,55 		"/>
		<line class="st145" x1="104" y1="55" x2="107" y2="55"/>
		<line class="st49" x1="115" y1="55" x2="111" y2="55"/>
		<line class="st145" x1="104" y1="59" x2="109" y2="59"/>
		<line class="st145" x1="115" y1="59" x2="113" y2="59"/>
		<line class="st145" x1="121" y1="59" x2="119" y2="59"/>
		<line class="st145" x1="121" y1="71" x2="116" y2="71"/>
		<line class="st37" x1="110" y1="71" x2="112" y2="71"/>
		<line class="st68" x1="104" y1="71" x2="106" y2="71"/>
		<line class="st145" x1="121" y1="75" x2="114" y2="75"/>
		<line class="st145" x1="104" y1="75" x2="110" y2="75"/>
		<line class="st145" x1="104" y1="63" x2="111" y2="63"/>
		<line class="st37" x1="121" y1="63" x2="115" y2="63"/>
		<line class="st37" x1="104" y1="87" x2="111" y2="87"/>
		<line class="st145" x1="121" y1="87" x2="115" y2="87"/>
		<line class="st145" x1="104" y1="79" x2="105" y2="79"/>
		<line class="st49" x1="115" y1="79" x2="109" y2="79"/>
		<line class="st145" x1="121" y1="79" x2="119" y2="79"/>
		<line class="st145" x1="104" y1="83" x2="113" y2="83"/>
		<line class="st49" x1="121" y1="83" x2="117" y2="83"/>
		<line class="st49" x1="104" y1="67" x2="107" y2="67"/>
		<line class="st145" x1="121" y1="67" x2="111" y2="67"/>
		<line class="st146" x1="100" y1="55" x2="99" y2="55"/>
		<line class="st146" x1="100" y1="59" x2="99" y2="59"/>
		<line class="st146" x1="100" y1="63" x2="99" y2="63"/>
		<line class="st146" x1="100" y1="67" x2="99" y2="67"/>
		<line class="st146" x1="100" y1="71" x2="99" y2="71"/>
		<line class="st146" x1="100" y1="75" x2="99" y2="75"/>
		<line class="st146" x1="100" y1="79" x2="99" y2="79"/>
		<line class="st146" x1="100" y1="83" x2="99" y2="83"/>
		<line class="st146" x1="100" y1="87" x2="99" y2="87"/>
	</g>
	<g>
		<path class="st31" d="M55,38H14c-1.1,0-2-0.9-2-2V7c0-1.1,0.9-2,2-2h41c1.1,0,2,0.9,2,2v29C57,37.1,56.1,38,55,38z"/>
		<path class="st92" d="M12,7v1h45V7c0-1.1-0.9-2-2-2H14C12.9,5,12,5.9,12,7z"/>
		<path class="st146" d="M55,38H14c-1.1,0-2-0.9-2-2V7c0-1.1,0.9-2,2-2h41c1.1,0,2,0.9,2,2v29C57,37.1,56.1,38,55,38z"/>
		<g>
			<rect x="16" y="9" class="st69" width="18" height="21"/>
			<g>
				<path class="st54" d="M25.5,26.8h-1.1c-0.6,0-1.2-0.2-1.6-0.7l-1.4-1.4c-0.4-0.4-0.7-1-0.7-1.6v-4.2c0-1.4,1.1-2.5,2.5-2.5h3.4
					c1.4,0,2.5,1.1,2.5,2.5v4.2c0,0.6-0.2,1.2-0.7,1.6l-1.4,1.4C26.7,26.5,26.1,26.8,25.5,26.8z"/>
				<path class="st21" d="M27.2,25.3c-0.4,0.4-1,0.7-1.6,0.7h-1.1c-0.6,0-1.2-0.2-1.6-0.7l-1.4-1.4c-0.4-0.4-0.7-1-0.7-1.6v0.8
					c0,0.6,0.2,1.2,0.7,1.6l1.4,1.4c0.4,0.4,1,0.7,1.6,0.7h1.1c0.6,0,1.2-0.2,1.6-0.7l1.4-1.4c0.4-0.4,0.7-1,0.7-1.6v-0.8
					c0,0.6-0.2,1.2-0.7,1.6L27.2,25.3z"/>
				<path class="st21" d="M26.7,16.4h-3.4c-1.4,0-2.5,1.1-2.5,2.5v0.7c0-1.3,2.1-2.3,3.8-2.3c-0.7,0.6-0.9,1.7-0.6,2.1
					c2.1-1.5,2.9-0.1,4.6-0.5c0.7-0.2,0.7,1.3,0.7,1.3v-1.3C29.2,17.5,28.1,16.4,26.7,16.4z"/>
				<path class="st87" d="M27.2,14.4c1.5,0.7,3.3,2.4,2.5,5c-0.1,0.4-0.4,0-0.5,0.2c0,0,0-1.5-0.7-1.3c-1.7,0.4-2.5-1-4.6,0.5
					c-0.3-0.5-0.1-1.6,0.6-2.1c-1.7,0-3.8,1.1-3.8,2.3c0,0-0.6-0.4-0.6-0.8c-0.2-1.9,0.8-2.8,2.5-3.6c0.3-0.1,0.1-2,0.4-1.7
					C24,13.7,26.5,14,27.2,14.4z"/>
				<g class="st74">
					<path class="st97" d="M24.6,16c-1.7,0-3.8,1.1-3.8,2.3c0,0-0.6-0.4-0.6-0.8c0-0.1,0-0.1,0-0.2c0,0.2,0,0.5,0,0.8
						c0,0.4,0.6,0.8,0.6,0.8c0-1.1,1.7-2.1,3.3-2.3C24.2,16.4,24.3,16.1,24.6,16z"/>
					<path class="st97" d="M29.7,18.7c-0.1,0.4-0.4,0-0.5,0.2c0,0,0-1.5-0.7-1.3c-1.7,0.4-2.5-1-4.6,0.5c0-0.1-0.1-0.2-0.1-0.2
						c-0.1,0.3,0,0.7,0.1,0.9c2.1-1.5,2.9-0.1,4.6-0.5c0.7-0.2,0.7,1.3,0.7,1.3c0.1-0.2,0.4,0.2,0.5-0.2c0.2-0.5,0.2-1.1,0.2-1.5
						C29.9,18.1,29.8,18.4,29.7,18.7z"/>
				</g>
				<path class="st54" d="M29.2,21.7L29.2,21.7v-2.1l0,0c0.5,0,0.8,0.4,0.8,0.8v0.4C30.1,21.3,29.7,21.7,29.2,21.7z"/>
				<path class="st54" d="M20.8,21.7L20.8,21.7v-2.1l0,0c-0.5,0-0.8,0.4-0.8,0.8v0.4C19.9,21.3,20.3,21.7,20.8,21.7z"/>
				<path class="st146" d="M27.2,14.4c1.5,0.7,3.3,2.4,2.5,5c-0.1,0.4-0.4,0-0.5,0.2c0,0,0-1.5-0.7-1.3c-1.7,0.4-2.5-1-4.6,0.5
					c-0.3-0.5-0.1-1.6,0.6-2.1c-1.7,0-3.8,1.1-3.8,2.3c0,0-0.6-0.4-0.6-0.8c-0.2-1.9,0.8-2.8,2.5-3.6c0.3-0.1,0.1-2,0.4-1.7
					C24,13.7,26.5,14,27.2,14.4z"/>
				<path class="st146" d="M29.2,21.7L29.2,21.7v-2.1l0,0c0.5,0,0.8,0.4,0.8,0.8v0.4C30.1,21.3,29.7,21.7,29.2,21.7z"/>
				<path class="st146" d="M20.8,21.7L20.8,21.7v-2.1l0,0c-0.5,0-0.8,0.4-0.8,0.8v0.4C19.9,21.3,20.3,21.7,20.8,21.7z"/>
				<path class="st0" d="M22.7,14.5c0,0.4-0.2,0.8-0.4,1.3"/>
				<path class="st146" d="M29.2,19.6v3.5c0,0.6-0.2,1.2-0.7,1.6l-1.4,1.4c-0.4,0.4-1,0.7-1.6,0.7h-1.1c-0.6,0-1.2-0.2-1.6-0.7
					l-1.4-1.4c-0.4-0.4-0.7-1-0.7-1.6v-4.2"/>
				<line class="st146" x1="23.5" y1="21" x2="23.5" y2="21"/>
				<line class="st146" x1="26.5" y1="21" x2="26.5" y2="21"/>
			</g>
			<rect x="16" y="9" class="st114" width="18" height="3"/>
			<polygon class="st12" points="34,14.5 16,23 16,26 34,17.5 			"/>
			<polygon class="st12" points="34,9 16,9 16,20.5 34,12.2 			"/>
			<rect x="16" y="9" class="st146" width="18" height="21"/>
		</g>
		<g class="st75">
			<g>
				<line class="st146" x1="38" y1="11" x2="45" y2="11"/>
			</g>
			<g>
				<line class="st146" x1="38" y1="15" x2="53" y2="15"/>
			</g>
			<g>
				<line class="st146" x1="38" y1="22" x2="53" y2="22"/>
			</g>
			<g>
				<line class="st146" x1="16" y1="34" x2="18" y2="34"/>
			</g>
			<g>
				<line class="st146" x1="21" y1="34" x2="23" y2="34"/>
			</g>
			<g>
				<line class="st146" x1="26" y1="34" x2="28" y2="34"/>
			</g>
			<g>
				<line class="st146" x1="31" y1="34" x2="33" y2="34"/>
			</g>
			<g>
				<line class="st146" x1="36" y1="34" x2="38" y2="34"/>
			</g>
			<g>
				<line class="st146" x1="41" y1="34" x2="43" y2="34"/>
			</g>
			<g>
				<line class="st146" x1="46" y1="34" x2="48" y2="34"/>
			</g>
			<g>
				<line class="st146" x1="51" y1="34" x2="53" y2="34"/>
			</g>
			<g>
				<line class="st146" x1="38" y1="26" x2="41" y2="26"/>
			</g>
			<g>
				<line class="st146" x1="44" y1="26" x2="53" y2="26"/>
			</g>
		</g>
	</g>
	<g>
		<path class="st70" d="M47,77H3c-1.1,0-2-0.9-2-2V46c0-1.1,0.9-2,2-2h44c1.1,0,2,0.9,2,2v29C49,76.1,48.1,77,47,77z"/>
		<path class="st146" d="M47,77H3c-1.1,0-2-0.9-2-2V46c0-1.1,0.9-2,2-2h44c1.1,0,2,0.9,2,2v29C49,76.1,48.1,77,47,77z"/>
		<g>
			<rect x="7" y="63" class="st0" width="36" height="6"/>
			<rect x="1" y="50" class="st103" width="48" height="7"/>
			<g class="st74">
				<line class="st103" x1="2" y1="54" x2="2" y2="54"/>
				<line class="st103" x1="4" y1="52" x2="4" y2="52"/>
				<line class="st103" x1="6" y1="54" x2="6" y2="54"/>
				<line class="st103" x1="8" y1="52" x2="8" y2="52"/>
				<line class="st103" x1="10" y1="54" x2="10" y2="54"/>
				<line class="st103" x1="12" y1="52" x2="12" y2="52"/>
				<line class="st103" x1="14" y1="54" x2="14" y2="54"/>
				<line class="st103" x1="16" y1="52" x2="16" y2="52"/>
				<line class="st103" x1="18" y1="54" x2="18" y2="54"/>
				<line class="st103" x1="20" y1="52" x2="20" y2="52"/>
				<line class="st103" x1="22" y1="54" x2="22" y2="54"/>
				<line class="st103" x1="24" y1="52" x2="24" y2="52"/>
				<line class="st103" x1="26" y1="54" x2="26" y2="54"/>
				<line class="st103" x1="28" y1="52" x2="28" y2="52"/>
				<line class="st103" x1="30" y1="54" x2="30" y2="54"/>
				<line class="st103" x1="32" y1="52" x2="32" y2="52"/>
				<line class="st103" x1="34" y1="54" x2="34" y2="54"/>
				<line class="st103" x1="36" y1="52" x2="36" y2="52"/>
				<line class="st103" x1="38" y1="54" x2="38" y2="54"/>
				<line class="st103" x1="40" y1="52" x2="40" y2="52"/>
				<line class="st103" x1="42" y1="54" x2="42" y2="54"/>
				<line class="st103" x1="44" y1="52" x2="44" y2="52"/>
				<line class="st103" x1="46" y1="54" x2="46" y2="54"/>
				<line class="st103" x1="48" y1="52" x2="48" y2="52"/>
				<line class="st103" x1="4" y1="56" x2="4" y2="56"/>
				<line class="st103" x1="8" y1="56" x2="8" y2="56"/>
				<line class="st103" x1="12" y1="56" x2="12" y2="56"/>
				<line class="st103" x1="16" y1="56" x2="16" y2="56"/>
				<line class="st103" x1="20" y1="56" x2="20" y2="56"/>
				<line class="st103" x1="24" y1="56" x2="24" y2="56"/>
				<line class="st103" x1="28" y1="56" x2="28" y2="56"/>
				<line class="st103" x1="32" y1="56" x2="32" y2="56"/>
				<line class="st103" x1="36" y1="56" x2="36" y2="56"/>
				<line class="st103" x1="40" y1="56" x2="40" y2="56"/>
				<line class="st103" x1="44" y1="56" x2="44" y2="56"/>
				<line class="st103" x1="48" y1="56" x2="48" y2="56"/>
			</g>
		</g>
	</g>
	<g>
		<path class="st100" d="M102.9,123H70.4c-0.8,0-1.4-0.6-1.4-1.4v-21.2c0-0.8,0.6-1.4,1.4-1.4h32.5c0.8,0,1.4,0.6,1.4,1.4v21.2
			C104.3,122.4,103.7,123,102.9,123z"/>
		<polyline class="st31" points="103.9,122.6 91.8,111 81.5,111 69.4,122.6 		"/>
		<line class="st146" x1="81.5" y1="111" x2="69.4" y2="122.6"/>
		<line class="st146" x1="103.9" y1="122.6" x2="91.8" y2="111"/>
		<path class="st42" d="M103.9,99.4l-14.3,13.7c-1.6,1.6-4.2,1.6-5.9,0L69.4,99.4"/>
		<path class="st146" d="M102.9,123H70.4c-0.8,0-1.4-0.6-1.4-1.4v-21.2c0-0.8,0.6-1.4,1.4-1.4h32.5c0.8,0,1.4,0.6,1.4,1.4v21.2
			C104.3,122.4,103.7,123,102.9,123z"/>
	</g>
</g>
<g>
	<circle class="st31" cx="64" cy="65" r="42"/>
	<path class="st144" d="M64,103c-22.5,0-40.9-17.7-41.9-40c0,0.7-0.1,1.3-0.1,2c0,23.2,18.8,42,42,42s42-18.8,42-42
		c0-0.7,0-1.3-0.1-2C104.9,85.3,86.5,103,64,103z"/>
	<path class="st92" d="M64,27c22.5,0,40.9,17.7,41.9,40c0-0.7,0.1-1.3,0.1-2c0-23.2-18.8-42-42-42S22,41.8,22,65c0,0.7,0,1.3,0.1,2
		C23.1,44.7,41.5,27,64,27z"/>
	<circle class="st146" cx="64" cy="65" r="42"/>
	<circle class="st20" cx="64" cy="65" r="35"/>
	<path class="st47" d="M64,30c-19.3,0-35,15.7-35,35c0,2.7,0.3,5.4,0.9,8l62.2-28.7C85.8,35.6,75.5,30,64,30z"/>
	<path class="st47" d="M31.6,78.2l63.5-29.3c-0.4-0.8-0.9-1.6-1.4-2.4L30.6,75.6C30.9,76.5,31.2,77.3,31.6,78.2z"/>
	<g>
		<path class="st47" d="M74,60c0-5.5-4.5-10-10-10c-5.5,0-10,4.5-10,10c0,3.6,2,7,5.2,8.7L56,84.8c-0.1,0.3,0,0.6,0.2,0.8
			c0.2,0.2,0.5,0.4,0.8,0.4h14c0.3,0,0.6-0.1,0.8-0.4c0.2-0.2,0.3-0.5,0.2-0.8l-3.2-16.1C72,67,74,63.6,74,60z"/>
		<path class="st62" d="M73,58c0-5-4-9-9-9s-9,4-9,9c0,3.6,2.2,6.8,5.3,8.2L57,83h14l-3.3-16.8C70.8,64.8,73,61.6,73,58z"/>
		<g class="st74">
			<path class="st14" d="M64,53c4.3,0,7.8,3,8.8,7c0.1-0.6,0.2-1.3,0.2-2c0-5-4-9-9-9s-9,4-9,9c0,0.7,0.1,1.3,0.2,2
				C56.2,56,59.7,53,64,53z"/>
		</g>
		<path class="st146" d="M73,58c0-5-4-9-9-9s-9,4-9,9c0,3.6,2.2,6.8,5.3,8.2L57,83h14l-3.3-16.8C70.8,64.8,73,61.6,73,58z"/>
	</g>
	<path class="st47" d="M64,96c-18.7,0-33.9-14.6-34.9-33c0,0.7-0.1,1.3-0.1,2c0,19.3,15.7,35,35,35s35-15.7,35-35c0-0.7,0-1.3-0.1-2
		C97.9,81.4,82.7,96,64,96z"/>
	<path class="st93" d="M64,34c18.7,0,33.9,14.6,34.9,33c0-0.7,0.1-1.3,0.1-2c0-19.3-15.7-35-35-35S29,45.7,29,65c0,0.7,0,1.3,0.1,2
		C30.1,48.6,45.3,34,64,34z"/>
	<circle class="st146" cx="64" cy="65" r="35"/>
</g>
</svg>
