<?xml version="1.0" encoding="utf-8"?>
<!-- Generator: Adobe Illustrator 16.0.4, SVG Export Plug-In . SVG Version: 6.00 Build 0)  -->
<!DOCTYPE svg PUBLIC "-//W3C//DTD SVG 1.1//EN" "http://www.w3.org/Graphics/SVG/1.1/DTD/svg11.dtd">
<svg version="1.1" id="Calque_1" xmlns="http://www.w3.org/2000/svg" xmlns:xlink="http://www.w3.org/1999/xlink" x="0px" y="0px"
	 width="750px" height="452px" viewBox="770 541.5 750 452" enable-background="new 770 541.5 750 452" xml:space="preserve">
<g>
	<g>
		<path fill="#5D5C74" d="M1095.389,675.473c-8.244,0-14.928,6.683-14.928,14.927v189.083c0,8.244,6.684,14.928,14.928,14.928
			h189.083c8.244,0,14.928-6.684,14.928-14.928V690.399c0-8.244-6.684-14.927-14.928-14.927H1095.389L1095.389,675.473z
			 M1284.472,904.361h-189.083c-13.734-0.017-24.863-11.145-24.88-24.879V690.399c0.017-13.733,11.146-24.861,24.88-24.879h189.083
			c13.733,0.018,24.863,11.146,24.879,24.879v189.083C1309.335,893.217,1298.205,904.345,1284.472,904.361L1284.472,904.361z"/>
		<path fill="#002352" d="M1115.292,745.134h29.855v-29.854h-29.855V745.134L1115.292,745.134z M1150.123,755.086h-39.807
			c-2.749,0-4.976-2.229-4.976-4.976v-39.807c0-2.748,2.227-4.977,4.976-4.977h39.807c2.749,0,4.976,2.229,4.976,4.977v39.807
			C1155.099,752.857,1152.872,755.086,1150.123,755.086L1150.123,755.086z"/>
		<path fill="#002352" d="M1115.292,854.604h29.855v-29.855h-29.855V854.604L1115.292,854.604z M1150.123,864.555h-39.807
			c-2.749,0-4.976-2.229-4.976-4.976v-39.807c0-2.747,2.227-4.977,4.976-4.977h39.807c2.749,0,4.976,2.229,4.976,4.977v39.807
			C1155.099,862.326,1152.872,864.555,1150.123,864.555L1150.123,864.555z"/>
		<path fill="#002352" d="M1234.713,745.134h29.854v-29.854h-29.854V745.134L1234.713,745.134z M1269.544,755.086h-39.807
			c-2.749,0-4.977-2.229-4.977-4.976v-39.807c0-2.748,2.228-4.977,4.977-4.977h39.807c2.748,0,4.976,2.229,4.976,4.977v39.807
			C1274.52,752.857,1272.292,755.086,1269.544,755.086L1269.544,755.086z"/>
		<polygon fill="#5D5C74" points="1125.243,725.23 1135.195,725.23 1135.195,735.183 1125.243,735.183 1125.243,725.23 		"/>
		<polygon fill="#5D5C74" points="1125.243,834.7 1135.195,834.7 1135.195,844.651 1125.243,844.651 1125.243,834.7 		"/>
		<polygon fill="#5D5C74" points="1244.664,725.23 1254.616,725.23 1254.616,735.183 1244.664,735.183 1244.664,725.23 		"/>
		<path fill="#5D5C74" d="M1274.52,864.555h-39.807v-9.951h34.831v-14.928h-54.734v-9.952h59.71c2.749,0,4.976,2.229,4.976,4.977
			v24.879C1279.495,862.326,1277.269,864.555,1274.52,864.555L1274.52,864.555z"/>
		<polygon fill="#5D5C74" points="1194.905,829.724 1204.857,829.724 1204.857,864.555 1194.905,864.555 1194.905,829.724 		"/>
		<polygon fill="#5D5C74" points="1214.81,854.604 1224.761,854.604 1224.761,864.555 1214.81,864.555 1214.81,854.604 		"/>
		<path fill="#5D5C74" d="M1214.81,740.158h-9.952v-24.879h-9.952v19.903c0,2.747-2.229,4.976-4.976,4.976h-19.903
			c-2.748,0-4.976-2.229-4.976-4.976v-29.855h9.952v24.88h9.951v-19.903c0-2.748,2.229-4.977,4.976-4.977h19.903
			c2.749,0,4.977,2.229,4.977,4.977V740.158L1214.81,740.158z"/>
		<path fill="#5D5C74" d="M1274.52,794.893h-64.687c-2.748,0-4.976-2.229-4.976-4.976v-34.831h9.952v29.855h59.71V794.893
			L1274.52,794.893z"/>
		<path fill="#5D5C74" d="M1170.026,774.989h-19.903v-9.951h14.928v-9.952h9.952v14.928
			C1175.003,772.761,1172.774,774.989,1170.026,774.989L1170.026,774.989z"/>
		<polygon fill="#5D5C74" points="1105.341,765.038 1120.268,765.038 1120.268,774.989 1105.341,774.989 1105.341,765.038 		"/>
		<polygon fill="#5D5C74" points="1130.22,765.038 1140.171,765.038 1140.171,774.989 1130.22,774.989 1130.22,765.038 		"/>
		<polygon fill="#5D5C74" points="1264.567,765.038 1274.52,765.038 1274.52,774.989 1264.567,774.989 1264.567,765.038 		"/>
		<polygon fill="#5D5C74" points="1224.761,765.038 1254.616,765.038 1254.616,774.989 1224.761,774.989 1224.761,765.038 		"/>
		<path fill="#5D5C74" d="M1179.979,864.555h-9.952v-49.759c0-2.747,2.229-4.976,4.977-4.976h104.492v9.952h-99.517V864.555
			L1179.979,864.555z"/>
		<polygon fill="#5D5C74" points="1184.954,755.086 1194.905,755.086 1194.905,779.965 1184.954,779.965 1184.954,755.086 		"/>
		<path fill="#5D5C74" d="M1165.051,804.845h-9.952v-9.952h-49.758v-9.951h54.734c2.746,0,4.976,2.229,4.976,4.976V804.845
			L1165.051,804.845z"/>
		<polygon fill="#5D5C74" points="1184.954,789.917 1194.905,789.917 1194.905,799.869 1184.954,799.869 1184.954,789.917 		"/>
	</g>
	<g>
		<path fill="#0066CC" stroke="#5D5C74" stroke-width="4" stroke-miterlimit="10" d="M1068.189,858.486l-4.329,9.446
			c-1.967,4.46-6.165,4.854-7.477,4.854c-1.313,0-5.378-0.394-7.479-4.854l-4.329-9.446c-3.937-8.525-12.462-14.038-21.776-14.038
			c-2.887,0-5.642,0.525-8.397,1.577l-9.708,3.671c-3.672,1.313-7.477,0-9.707-3.015c-0.918-1.313-2.23-3.938-0.918-7.479
			l3.674-9.709c4.329-11.674-1.051-24.925-12.464-30.172l-9.446-4.33c-4.461-1.967-4.854-6.166-4.854-7.478
			c0-1.312,0.393-5.377,4.854-7.478l9.446-4.33c11.413-5.248,16.925-18.498,12.464-30.173l-3.674-9.709
			c-1.312-3.541,0-6.165,0.918-7.478c2.101-3.147,6.034-4.458,9.707-3.015l9.708,3.671c2.756,1.05,5.511,1.575,8.397,1.575
			c9.314,0,17.84-5.51,21.776-14.038l4.329-9.446c1.97-4.46,6.165-4.854,7.479-4.854c1.312,0,5.379,0.394,7.477,4.854l4.329,9.446
			c1.036,2.242,2.394,4.268,3.994,6.047v-30.388c-4.235-3.631-9.684-5.701-15.536-5.701c-9.447,0-18.236,5.51-22.173,14.169
			l-4.329,9.446c-1.312,2.884-4.199,4.854-7.477,4.854c-0.918,0-1.971-0.131-2.887-0.525l-9.709-3.673
			c-2.754-1.05-5.641-1.574-8.527-1.574c-7.739,0-15.086,3.934-19.68,10.363c-4.457,6.561-5.508,14.562-2.752,21.908l3.674,9.707
			c1.441,4.068-0.396,8.529-4.331,10.365l-9.444,4.329c-8.659,3.937-14.038,12.333-14.038,21.779
			c0,9.445,5.772,17.708,14.431,21.645l9.446,4.33c3.937,1.836,5.771,6.297,4.329,10.362l-3.674,9.709
			c-2.754,7.478-1.836,15.479,2.756,21.91c4.461,6.558,11.807,10.363,19.679,10.363c2.884,0,5.772-0.524,8.524-1.576l9.711-3.672
			c0.918-0.393,1.837-0.524,2.885-0.524c3.15,0,6.165,1.836,7.479,4.854l4.327,9.444c3.936,8.658,12.332,14.037,21.779,14.037
			c5.853,0,11.301-2.068,15.536-5.703V852.44C1070.583,854.22,1069.226,856.244,1068.189,858.486z"/>
		<path fill="#0066CC" stroke="#5D5C74" stroke-width="4" stroke-miterlimit="10" d="M1056.253,805.881
			c-10.104,0-18.367-8.266-18.367-18.367s8.267-18.365,18.367-18.365c6.801,0,12.758,3.755,15.931,9.285v-21.047
			c-4.763-2.535-10.185-3.981-15.931-3.981c-18.761,0-34.108,15.349-34.108,34.108c0,18.759,15.217,34.11,34.108,34.11
			c5.746,0,11.168-1.446,15.931-3.982v-21.047C1069.011,802.126,1063.054,805.881,1056.253,805.881z"/>
	</g>
</g>
<path opacity="0.07" fill="#24616D" enable-background="new    " d="M869.948,628.154c-0.664-0.663-1.493-1.077-2.487-1.077
	c-0.829,0-1.824,0.414-2.321,1.077c-0.663,0.663-1.078,1.492-1.078,2.487c0,1.077,0.415,1.824,1.078,2.486
	c0.663,0.663,1.492,1.078,2.321,1.078c1.077,0,1.823-0.415,2.487-1.078c0.662-0.662,1.077-1.491,1.077-2.486
	S870.776,628.651,869.948,628.154z"/>
<path opacity="0.07" fill="#24616D" enable-background="new    " d="M880.973,632.962c0.663-0.662,1.077-1.491,1.077-2.486
	c0-0.829-0.414-1.824-1.077-2.487c-0.663-0.662-1.492-1.077-2.487-1.077c-0.828,0-1.824,0.415-2.486,1.077
	c-0.663,0.663-1.078,1.492-1.078,2.487c0,1.077,0.415,1.824,1.078,2.486c0.662,0.663,1.492,1.078,2.486,1.078
	C879.563,634.04,880.31,633.791,880.973,632.962z"/>
<path opacity="0.07" fill="#24616D" enable-background="new    " d="M880.973,643.987c0.663-0.663,1.077-1.492,1.077-2.487
	c0-0.828-0.414-1.823-1.077-2.486s-1.492-1.077-2.487-1.077c-0.828,0-1.824,0.414-2.486,1.077c-0.663,0.663-1.078,1.492-1.078,2.486
	c0,1.078,0.415,1.824,1.078,2.487c0.662,0.663,1.492,1.077,2.486,1.077C879.563,645.148,880.31,644.733,880.973,643.987z"/>
<path opacity="0.07" fill="#24616D" enable-background="new    " d="M880.973,655.096c0.663-0.663,1.077-1.492,1.077-2.487
	c0-0.829-0.414-1.823-1.077-2.486s-1.492-1.078-2.487-1.078c-0.828,0-1.824,0.415-2.486,1.078c-0.663,0.663-1.078,1.491-1.078,2.486
	c0,1.077,0.415,1.824,1.078,2.487c0.662,0.663,1.492,1.077,2.486,1.077C879.563,656.173,880.31,655.759,880.973,655.096z"/>
<path opacity="0.07" fill="#24616D" enable-background="new    " d="M891.915,628.154c-0.664-0.663-1.492-1.077-2.487-1.077
	c-0.829,0-1.823,0.414-2.321,1.077c-0.663,0.663-1.078,1.492-1.078,2.487c0,1.077,0.415,1.824,1.078,2.486
	c0.664,0.663,1.492,1.078,2.321,1.078c1.077,0,1.823-0.415,2.487-1.078c0.662-0.662,1.077-1.491,1.077-2.486
	S892.743,628.651,891.915,628.154z"/>
<path opacity="0.07" fill="#24616D" enable-background="new    " d="M891.915,639.014c-0.664-0.663-1.492-1.077-2.487-1.077
	c-0.829,0-1.823,0.414-2.321,1.077c-0.663,0.663-1.078,1.492-1.078,2.486c0,1.078,0.415,1.824,1.078,2.487
	c0.664,0.663,1.492,1.077,2.321,1.077c1.077,0,1.823-0.414,2.487-1.077c0.662-0.663,1.077-1.492,1.077-2.487
	C892.992,640.589,892.743,639.76,891.915,639.014z"/>
<path opacity="0.07" fill="#24616D" enable-background="new    " d="M891.915,650.122c-0.664-0.663-1.492-1.078-2.487-1.078
	c-0.829,0-1.823,0.415-2.321,1.078c-0.663,0.663-1.078,1.491-1.078,2.486c0,1.077,0.415,1.824,1.078,2.487
	c0.664,0.663,1.492,1.077,2.321,1.077c1.077,0,1.823-0.414,2.487-1.077c0.662-0.663,1.077-1.492,1.077-2.487
	S892.743,650.619,891.915,650.122z"/>
<path opacity="0.07" fill="#24616D" enable-background="new    " d="M869.948,639.014c-0.664-0.663-1.493-1.077-2.487-1.077
	c-0.829,0-1.824,0.414-2.321,1.077c-0.663,0.663-1.078,1.492-1.078,2.486c0,1.078,0.415,1.824,1.078,2.487s1.492,1.077,2.321,1.077
	c1.077,0,1.823-0.414,2.487-1.077c0.662-0.663,1.077-1.492,1.077-2.487C871.025,640.589,870.776,639.76,869.948,639.014z"/>
<path opacity="0.07" fill="#24616D" enable-background="new    " d="M902.939,628.154c-0.663-0.663-1.492-1.077-2.487-1.077
	c-0.828,0-1.823,0.414-2.486,1.077s-1.078,1.492-1.078,2.487c0,1.077,0.415,1.824,1.078,2.486c0.663,0.663,1.492,1.078,2.486,1.078
	c1.078,0,1.824-0.415,2.487-1.078c0.663-0.662,1.077-1.491,1.077-2.486S903.603,628.651,902.939,628.154z"/>
<path opacity="0.07" fill="#24616D" enable-background="new    " d="M869.948,682.947c-0.664-0.663-1.493-1.077-2.487-1.077
	c-0.829,0-1.824,0.414-2.321,1.077c-0.663,0.663-1.078,1.492-1.078,2.487c0,1.077,0.415,1.823,1.078,2.486s1.492,1.078,2.321,1.078
	c1.077,0,1.823-0.415,2.487-1.078c0.662-0.663,1.077-1.491,1.077-2.486C871.025,684.522,870.776,683.694,869.948,682.947z"/>
<path opacity="0.07" fill="#24616D" enable-background="new    " d="M880.973,671.923c-0.663-0.663-1.492-1.077-2.487-1.077
	c-0.828,0-1.824,0.414-2.486,1.077c-0.663,0.663-1.078,1.492-1.078,2.486c0,1.078,0.415,1.824,1.078,2.487
	c0.662,0.663,1.492,1.077,2.486,1.077c1.078,0,1.824-0.414,2.487-1.077s1.077-1.492,1.077-2.487
	C882.05,673.581,881.802,672.586,880.973,671.923z"/>
<path opacity="0.07" fill="#24616D" enable-background="new    " d="M880.973,682.947c-0.663-0.663-1.492-1.077-2.487-1.077
	c-0.828,0-1.824,0.414-2.486,1.077c-0.663,0.663-1.078,1.492-1.078,2.487c0,1.077,0.415,1.823,1.078,2.486
	c0.662,0.663,1.492,1.078,2.486,1.078c1.078,0,1.824-0.415,2.487-1.078s1.077-1.491,1.077-2.486
	C882.05,684.522,881.802,683.694,880.973,682.947z"/>
<path opacity="0.07" fill="#24616D" enable-background="new    " d="M902.939,650.122c-0.663-0.663-1.492-1.078-2.487-1.078
	c-0.828,0-1.823,0.415-2.486,1.078s-1.078,1.491-1.078,2.486c0,1.077,0.415,1.824,1.078,2.487s1.492,1.077,2.486,1.077
	c1.078,0,1.824-0.414,2.487-1.077s1.077-1.492,1.077-2.487S903.603,650.619,902.939,650.122z"/>
<path opacity="0.07" fill="#24616D" enable-background="new    " d="M880.973,660.98c-0.663-0.663-1.492-1.077-2.487-1.077
	c-0.828,0-1.824,0.414-2.486,1.077c-0.663,0.663-1.078,1.492-1.078,2.487c0,1.077,0.415,1.823,1.078,2.486
	c0.662,0.663,1.492,1.077,2.486,1.077c1.078,0,1.824-0.414,2.487-1.077s1.077-1.492,1.077-2.486
	C882.05,662.556,881.802,661.727,880.973,660.98z"/>
<path opacity="0.07" fill="#24616D" enable-background="new    " d="M891.915,671.923c-0.664-0.663-1.492-1.077-2.487-1.077
	c-0.829,0-1.823,0.414-2.321,1.077c-0.663,0.663-1.078,1.492-1.078,2.486c0,1.078,0.415,1.824,1.078,2.487
	c0.664,0.663,1.492,1.077,2.321,1.077c1.077,0,1.823-0.414,2.487-1.077c0.662-0.663,1.077-1.492,1.077-2.487
	C892.992,673.581,892.743,672.586,891.915,671.923z"/>
<path opacity="0.07" fill="#24616D" enable-background="new    " d="M891.915,682.947c-0.664-0.663-1.492-1.077-2.487-1.077
	c-0.829,0-1.823,0.414-2.321,1.077c-0.663,0.663-1.078,1.492-1.078,2.487c0,1.077,0.415,1.823,1.078,2.486
	c0.664,0.663,1.492,1.078,2.321,1.078c1.077,0,1.823-0.415,2.487-1.078c0.662-0.663,1.077-1.491,1.077-2.486
	C892.992,684.522,892.743,683.694,891.915,682.947z"/>
<path opacity="0.07" fill="#24616D" enable-background="new    " d="M902.939,682.947c-0.663-0.663-1.492-1.077-2.487-1.077
	c-0.828,0-1.823,0.414-2.486,1.077s-1.078,1.492-1.078,2.487c0,1.077,0.415,1.823,1.078,2.486s1.492,1.078,2.486,1.078
	c1.078,0,1.824-0.415,2.487-1.078s1.077-1.491,1.077-2.486C904.017,684.522,903.603,683.694,902.939,682.947z"/>
<path opacity="0.07" fill="#24616D" enable-background="new    " d="M869.948,671.923c-0.664-0.663-1.493-1.077-2.487-1.077
	c-0.829,0-1.824,0.414-2.321,1.077c-0.663,0.663-1.078,1.492-1.078,2.486c0,1.078,0.415,1.824,1.078,2.487s1.492,1.077,2.321,1.077
	c1.077,0,1.823-0.414,2.487-1.077c0.662-0.663,1.077-1.492,1.077-2.487C871.025,673.581,870.776,672.586,869.948,671.923z"/>
<path opacity="0.07" fill="#24616D" enable-background="new    " d="M869.948,660.98c-0.664-0.663-1.493-1.077-2.487-1.077
	c-0.829,0-1.824,0.414-2.321,1.077c-0.663,0.663-1.078,1.492-1.078,2.487c0,1.077,0.415,1.823,1.078,2.486s1.492,1.077,2.321,1.077
	c1.077,0,1.823-0.414,2.487-1.077c0.662-0.663,1.077-1.492,1.077-2.486C871.025,662.556,870.776,661.727,869.948,660.98z"/>
<path opacity="0.07" fill="#24616D" enable-background="new    " d="M902.939,660.98c-0.663-0.663-1.492-1.077-2.487-1.077
	c-0.828,0-1.823,0.414-2.486,1.077s-1.078,1.492-1.078,2.487c0,1.077,0.415,1.823,1.078,2.486s1.492,1.077,2.486,1.077
	c1.078,0,1.824-0.414,2.487-1.077s1.077-1.492,1.077-2.486C904.017,662.556,903.603,661.727,902.939,660.98z"/>
<path opacity="0.07" fill="#24616D" enable-background="new    " d="M913.882,639.014c-0.663-0.663-1.492-1.077-2.487-1.077
	c-0.829,0-1.823,0.414-2.32,1.077c-0.664,0.663-1.079,1.492-1.079,2.486c0,1.078,0.415,1.824,1.079,2.487
	c0.663,0.663,1.491,1.077,2.32,1.077c1.077,0,1.824-0.414,2.487-1.077s1.077-1.492,1.077-2.487
	C914.959,640.589,914.71,639.76,913.882,639.014z"/>
<path opacity="0.07" fill="#24616D" enable-background="new    " d="M913.882,650.122c-0.663-0.663-1.492-1.078-2.487-1.078
	c-0.829,0-1.823,0.415-2.32,1.078c-0.664,0.663-1.079,1.491-1.079,2.486c0,1.077,0.415,1.824,1.079,2.487
	c0.663,0.663,1.491,1.077,2.32,1.077c1.077,0,1.824-0.414,2.487-1.077s1.077-1.492,1.077-2.487S914.71,650.619,913.882,650.122z"/>
<path opacity="0.07" fill="#24616D" enable-background="new    " d="M913.882,660.98c-0.663-0.663-1.492-1.077-2.487-1.077
	c-0.829,0-1.823,0.414-2.32,1.077c-0.664,0.663-1.079,1.492-1.079,2.487c0,1.077,0.415,1.823,1.079,2.486
	c0.663,0.663,1.491,1.077,2.32,1.077c1.077,0,1.824-0.414,2.487-1.077s1.077-1.492,1.077-2.486
	C914.959,662.556,914.71,661.727,913.882,660.98z"/>
<path opacity="0.07" fill="#24616D" enable-background="new    " d="M913.882,628.154c-0.663-0.663-1.492-1.077-2.487-1.077
	c-0.829,0-1.823,0.414-2.32,1.077c-0.664,0.663-1.079,1.492-1.079,2.487c0,1.077,0.415,1.824,1.079,2.486
	c0.663,0.663,1.491,1.078,2.32,1.078c1.077,0,1.824-0.415,2.487-1.078c0.663-0.662,1.077-1.491,1.077-2.486
	S914.71,628.651,913.882,628.154z"/>
<path opacity="0.07" fill="#24616D" enable-background="new    " d="M913.882,682.947c-0.663-0.663-1.492-1.077-2.487-1.077
	c-0.829,0-1.823,0.414-2.32,1.077c-0.664,0.663-1.079,1.492-1.079,2.487c0,1.077,0.415,1.823,1.079,2.486
	c0.663,0.663,1.491,1.078,2.32,1.078c1.077,0,1.824-0.415,2.487-1.078s1.077-1.491,1.077-2.486
	C914.959,684.522,914.71,683.694,913.882,682.947z"/>
<path opacity="0.07" fill="#24616D" enable-background="new    " d="M913.882,671.923c-0.663-0.663-1.492-1.077-2.487-1.077
	c-0.829,0-1.823,0.414-2.32,1.077c-0.664,0.663-1.079,1.492-1.079,2.486c0,1.078,0.415,1.824,1.079,2.487
	c0.663,0.663,1.491,1.077,2.32,1.077c1.077,0,1.824-0.414,2.487-1.077s1.077-1.492,1.077-2.487
	C914.959,673.581,914.71,672.586,913.882,671.923z"/>
<path opacity="0.07" fill="#24616D" enable-background="new    " d="M924.74,650.122c-0.663-0.663-1.491-1.078-2.486-1.078
	c-0.829,0-1.824,0.415-2.321,1.078c-0.663,0.663-1.077,1.491-1.077,2.486c0,1.077,0.414,1.824,1.077,2.487s1.492,1.077,2.321,1.077
	c1.077,0,1.823-0.414,2.486-1.077s1.077-1.492,1.077-2.487C925.901,651.613,925.569,650.619,924.74,650.122z"/>
<path opacity="0.07" fill="#24616D" enable-background="new    " d="M924.74,660.98c-0.663-0.663-1.491-1.077-2.486-1.077
	c-0.829,0-1.824,0.414-2.321,1.077c-0.663,0.663-1.077,1.492-1.077,2.487c0,1.077,0.414,1.823,1.077,2.486s1.492,1.077,2.321,1.077
	c1.077,0,1.823-0.414,2.486-1.077s1.077-1.492,1.077-2.486C925.901,662.556,925.569,661.727,924.74,660.98z"/>
<path opacity="0.07" fill="#24616D" enable-background="new    " d="M924.74,671.923c-0.663-0.663-1.491-1.077-2.486-1.077
	c-0.829,0-1.824,0.414-2.321,1.077c-0.663,0.663-1.077,1.492-1.077,2.486c0,1.078,0.414,1.824,1.077,2.487s1.492,1.077,2.321,1.077
	c1.077,0,1.823-0.414,2.486-1.077s1.077-1.492,1.077-2.487C925.901,673.581,925.569,672.586,924.74,671.923z"/>
<path opacity="0.07" fill="#24616D" enable-background="new    " d="M924.74,628.154c-0.663-0.663-1.491-1.077-2.486-1.077
	c-0.829,0-1.824,0.414-2.321,1.077c-0.663,0.663-1.077,1.492-1.077,2.487c0,1.077,0.414,1.824,1.077,2.486
	c0.663,0.663,1.492,1.078,2.321,1.078c1.077,0,1.823-0.415,2.486-1.078c0.663-0.662,1.077-1.491,1.077-2.486
	C925.901,629.646,925.569,628.651,924.74,628.154z"/>
<path opacity="0.07" fill="#24616D" enable-background="new    " d="M924.74,639.014c-0.663-0.663-1.491-1.077-2.486-1.077
	c-0.829,0-1.824,0.414-2.321,1.077c-0.663,0.663-1.077,1.492-1.077,2.486c0,1.078,0.414,1.824,1.077,2.487s1.492,1.077,2.321,1.077
	c1.077,0,1.823-0.414,2.486-1.077s1.077-1.492,1.077-2.487C925.901,640.589,925.569,639.76,924.74,639.014z"/>
<path opacity="0.07" fill="#24616D" enable-background="new    " d="M935.849,628.154c-0.663-0.663-1.492-1.077-2.486-1.077
	c-0.83,0-1.824,0.414-2.321,1.077c-0.664,0.663-1.078,1.492-1.078,2.487c0,1.077,0.414,1.824,1.078,2.486
	c0.663,0.663,1.491,1.078,2.321,1.078c1.077,0,1.823-0.415,2.486-1.078c0.663-0.662,1.078-1.491,1.078-2.486
	S936.512,628.651,935.849,628.154z"/>
<path opacity="0.07" fill="#24616D" enable-background="new    " d="M935.849,639.014c-0.663-0.663-1.492-1.077-2.486-1.077
	c-0.83,0-1.824,0.414-2.321,1.077c-0.664,0.663-1.078,1.492-1.078,2.486c0,1.078,0.414,1.824,1.078,2.487
	c0.663,0.663,1.491,1.077,2.321,1.077c1.077,0,1.823-0.414,2.486-1.077s1.078-1.492,1.078-2.487
	C936.927,640.589,936.512,639.76,935.849,639.014z"/>
<path opacity="0.07" fill="#24616D" enable-background="new    " d="M935.849,650.122c-0.663-0.663-1.492-1.078-2.486-1.078
	c-0.83,0-1.824,0.415-2.321,1.078c-0.664,0.663-1.078,1.491-1.078,2.486c0,1.077,0.414,1.824,1.078,2.487
	c0.663,0.663,1.491,1.077,2.321,1.077c1.077,0,1.823-0.414,2.486-1.077s1.078-1.492,1.078-2.487S936.512,650.619,935.849,650.122z"
	/>
<path opacity="0.07" fill="#24616D" enable-background="new    " d="M935.849,660.98c-0.663-0.663-1.492-1.077-2.486-1.077
	c-0.83,0-1.824,0.414-2.321,1.077c-0.664,0.663-1.078,1.492-1.078,2.487c0,1.077,0.414,1.823,1.078,2.486
	c0.663,0.663,1.491,1.077,2.321,1.077c1.077,0,1.823-0.414,2.486-1.077s1.078-1.492,1.078-2.486
	C936.927,662.556,936.512,661.727,935.849,660.98z"/>
<path opacity="0.07" fill="#24616D" enable-background="new    " d="M935.849,671.923c-0.663-0.663-1.492-1.077-2.486-1.077
	c-0.83,0-1.824,0.414-2.321,1.077c-0.664,0.663-1.078,1.492-1.078,2.486c0,1.078,0.414,1.824,1.078,2.487
	c0.663,0.663,1.491,1.077,2.321,1.077c1.077,0,1.823-0.414,2.486-1.077s1.078-1.492,1.078-2.487
	C936.927,673.581,936.512,672.586,935.849,671.923z"/>
<path opacity="0.07" fill="#24616D" enable-background="new    " d="M930.875,682.947c-0.663,0.663-1.077,1.492-1.077,2.487
	c0,1.077,0.414,1.823,1.077,2.486s1.492,1.078,2.321,1.078c1.077,0,1.823-0.415,2.486-1.078s1.078-1.491,1.078-2.486
	c0-0.829-0.415-1.824-1.078-2.487s-1.492-1.077-2.486-1.077C932.532,681.87,931.538,682.284,930.875,682.947z"/>
<path opacity="0.07" fill="#24616D" enable-background="new    " d="M946.874,628.154c-0.664-0.663-1.492-1.077-2.487-1.077
	c-0.829,0-1.824,0.414-2.487,1.077c-0.662,0.663-1.077,1.492-1.077,2.487c0,1.077,0.415,1.824,1.077,2.486
	c0.663,0.663,1.492,1.078,2.487,1.078c1.077,0,1.823-0.415,2.487-1.078c0.662-0.662,1.077-1.491,1.077-2.486
	S947.536,628.651,946.874,628.154z"/>
<path opacity="0.07" fill="#24616D" enable-background="new    " d="M946.874,639.014c-0.664-0.663-1.492-1.077-2.487-1.077
	c-0.829,0-1.824,0.414-2.487,1.077c-0.662,0.663-1.077,1.492-1.077,2.486c0,1.078,0.415,1.824,1.077,2.487
	c0.663,0.663,1.492,1.077,2.487,1.077c1.077,0,1.823-0.414,2.487-1.077c0.662-0.663,1.077-1.492,1.077-2.487
	C947.951,640.589,947.536,639.76,946.874,639.014z"/>
<path opacity="0.07" fill="#24616D" enable-background="new    " d="M946.874,650.122c-0.664-0.663-1.492-1.078-2.487-1.078
	c-0.829,0-1.824,0.415-2.487,1.078c-0.662,0.663-1.077,1.491-1.077,2.486c0,1.077,0.415,1.824,1.077,2.487
	c0.663,0.663,1.492,1.077,2.487,1.077c1.077,0,1.823-0.414,2.487-1.077c0.662-0.663,1.077-1.492,1.077-2.487
	S947.536,650.619,946.874,650.122z"/>
<path opacity="0.07" fill="#24616D" enable-background="new    " d="M946.874,660.98c-0.664-0.663-1.492-1.077-2.487-1.077
	c-0.829,0-1.824,0.414-2.487,1.077c-0.662,0.663-1.077,1.492-1.077,2.487c0,1.077,0.415,1.823,1.077,2.486
	c0.663,0.663,1.492,1.077,2.487,1.077c1.077,0,1.823-0.414,2.487-1.077c0.662-0.663,1.077-1.492,1.077-2.486
	C947.951,662.556,947.536,661.727,946.874,660.98z"/>
<path opacity="0.07" fill="#24616D" enable-background="new    " d="M946.874,671.923c-0.664-0.663-1.492-1.077-2.487-1.077
	c-0.829,0-1.824,0.414-2.487,1.077c-0.662,0.663-1.077,1.492-1.077,2.486c0,1.078,0.415,1.824,1.077,2.487
	c0.663,0.663,1.492,1.077,2.487,1.077c1.077,0,1.823-0.414,2.487-1.077c0.662-0.663,1.077-1.492,1.077-2.487
	C947.951,673.581,947.536,672.586,946.874,671.923z"/>
<path opacity="0.07" fill="#24616D" enable-background="new    " d="M946.874,682.947c-0.664-0.663-1.492-1.077-2.487-1.077
	c-0.829,0-1.824,0.414-2.487,1.077c-0.662,0.663-1.077,1.492-1.077,2.487c0,1.077,0.415,1.823,1.077,2.486
	c0.663,0.663,1.492,1.078,2.487,1.078c1.077,0,1.823-0.415,2.487-1.078c0.662-0.663,1.077-1.491,1.077-2.486
	C947.951,684.522,947.536,683.694,946.874,682.947z"/>
<path opacity="0.07" fill="#24616D" enable-background="new    " d="M957.815,628.154c-0.662-0.663-1.492-1.077-2.486-1.077
	c-0.829,0-1.824,0.414-2.321,1.077c-0.663,0.663-1.078,1.492-1.078,2.487c0,1.077,0.415,1.824,1.078,2.486
	c0.663,0.663,1.492,1.078,2.321,1.078c1.077,0,1.824-0.415,2.486-1.078c0.663-0.662,1.078-1.491,1.078-2.486
	S958.645,628.651,957.815,628.154z"/>
<path opacity="0.07" fill="#24616D" enable-background="new    " d="M957.815,639.014c-0.662-0.663-1.492-1.077-2.486-1.077
	c-0.829,0-1.824,0.414-2.321,1.077c-0.663,0.663-1.078,1.492-1.078,2.486c0,1.078,0.415,1.824,1.078,2.487s1.492,1.077,2.321,1.077
	c1.077,0,1.824-0.414,2.486-1.077c0.663-0.663,1.078-1.492,1.078-2.487C958.894,640.589,958.645,639.76,957.815,639.014z"/>
<path opacity="0.07" fill="#24616D" enable-background="new    " d="M957.815,650.122c-0.662-0.663-1.492-1.078-2.486-1.078
	c-0.829,0-1.824,0.415-2.321,1.078c-0.663,0.663-1.078,1.491-1.078,2.486c0,1.077,0.415,1.824,1.078,2.487s1.492,1.077,2.321,1.077
	c1.077,0,1.824-0.414,2.486-1.077c0.663-0.663,1.078-1.492,1.078-2.487S958.645,650.619,957.815,650.122z"/>
<path opacity="0.07" fill="#24616D" enable-background="new    " d="M957.815,660.98c-0.662-0.663-1.492-1.077-2.486-1.077
	c-0.829,0-1.824,0.414-2.321,1.077c-0.663,0.663-1.078,1.492-1.078,2.487c0,1.077,0.415,1.823,1.078,2.486s1.492,1.077,2.321,1.077
	c1.077,0,1.824-0.414,2.486-1.077c0.663-0.663,1.078-1.492,1.078-2.486C958.894,662.556,958.645,661.727,957.815,660.98z"/>
<path opacity="0.07" fill="#24616D" enable-background="new    " d="M957.815,671.923c-0.662-0.663-1.492-1.077-2.486-1.077
	c-0.829,0-1.824,0.414-2.321,1.077c-0.663,0.663-1.078,1.492-1.078,2.486c0,1.078,0.415,1.824,1.078,2.487s1.492,1.077,2.321,1.077
	c1.077,0,1.824-0.414,2.486-1.077c0.663-0.663,1.078-1.492,1.078-2.487C958.894,673.581,958.645,672.586,957.815,671.923z"/>
<path opacity="0.07" fill="#24616D" enable-background="new    " d="M957.815,682.947c-0.662-0.663-1.492-1.077-2.486-1.077
	c-0.829,0-1.824,0.414-2.321,1.077c-0.663,0.663-1.078,1.492-1.078,2.487c0,1.077,0.415,1.823,1.078,2.486s1.492,1.078,2.321,1.078
	c1.077,0,1.824-0.415,2.486-1.078c0.663-0.663,1.078-1.491,1.078-2.486C958.894,684.522,958.645,683.694,957.815,682.947z"/>
<path opacity="0.07" fill="#24616D" enable-background="new    " d="M968.675,628.154c-0.663-0.663-1.492-1.077-2.487-1.077
	c-1.077,0-1.823,0.414-2.486,1.077s-1.078,1.492-1.078,2.487c0,1.077,0.415,1.824,1.078,2.486c0.663,0.663,1.491,1.078,2.486,1.078
	s1.824-0.415,2.487-1.078c0.663-0.662,1.077-1.491,1.077-2.486C969.835,629.646,969.503,628.651,968.675,628.154z"/>
<path opacity="0.07" fill="#24616D" enable-background="new    " d="M968.675,639.014c-0.663-0.663-1.492-1.077-2.487-1.077
	c-1.077,0-1.823,0.414-2.486,1.077s-1.078,1.492-1.078,2.486c0,1.078,0.415,1.824,1.078,2.487s1.491,1.077,2.486,1.077
	s1.824-0.414,2.487-1.077s1.077-1.492,1.077-2.487C969.835,640.589,969.503,639.76,968.675,639.014z"/>
<path opacity="0.07" fill="#24616D" enable-background="new    " d="M968.675,650.122c-0.663-0.663-1.492-1.078-2.487-1.078
	c-1.077,0-1.823,0.415-2.486,1.078s-1.078,1.491-1.078,2.486c0,1.077,0.415,1.824,1.078,2.487s1.491,1.077,2.486,1.077
	s1.824-0.414,2.487-1.077s1.077-1.492,1.077-2.487C969.835,651.613,969.503,650.619,968.675,650.122z"/>
<path opacity="0.07" fill="#24616D" enable-background="new    " d="M968.675,660.98c-0.663-0.663-1.492-1.077-2.487-1.077
	c-1.077,0-1.823,0.414-2.486,1.077s-1.078,1.492-1.078,2.487c0,1.077,0.415,1.823,1.078,2.486s1.491,1.077,2.486,1.077
	s1.824-0.414,2.487-1.077s1.077-1.492,1.077-2.486C969.835,662.556,969.503,661.727,968.675,660.98z"/>
<path opacity="0.07" fill="#24616D" enable-background="new    " d="M968.675,671.923c-0.663-0.663-1.492-1.077-2.487-1.077
	c-1.077,0-1.823,0.414-2.486,1.077s-1.078,1.492-1.078,2.486c0,1.078,0.415,1.824,1.078,2.487s1.491,1.077,2.486,1.077
	s1.824-0.414,2.487-1.077s1.077-1.492,1.077-2.487C969.835,673.581,969.503,672.586,968.675,671.923z"/>
<path opacity="0.07" fill="#24616D" enable-background="new    " d="M979.782,628.154c-0.662-0.663-1.491-1.077-2.486-1.077
	c-1.077,0-1.824,0.414-2.487,1.077s-1.077,1.492-1.077,2.487c0,1.077,0.414,1.824,1.077,2.486c0.663,0.663,1.492,1.078,2.487,1.078
	s1.824-0.415,2.486-1.078c0.663-0.662,1.078-1.491,1.078-2.486S980.445,628.651,979.782,628.154z"/>
<path opacity="0.07" fill="#24616D" enable-background="new    " d="M979.782,639.014c-0.662-0.663-1.491-1.077-2.486-1.077
	c-1.077,0-1.824,0.414-2.487,1.077s-1.077,1.492-1.077,2.486c0,1.078,0.414,1.824,1.077,2.487s1.492,1.077,2.487,1.077
	s1.824-0.414,2.486-1.077c0.663-0.663,1.078-1.492,1.078-2.487C980.86,640.589,980.445,639.76,979.782,639.014z"/>
<path opacity="0.07" fill="#24616D" enable-background="new    " d="M979.782,650.122c-0.662-0.663-1.491-1.078-2.486-1.078
	c-1.077,0-1.824,0.415-2.487,1.078s-1.077,1.491-1.077,2.486c0,1.077,0.414,1.824,1.077,2.487s1.492,1.077,2.487,1.077
	s1.824-0.414,2.486-1.077c0.663-0.663,1.078-1.492,1.078-2.487S980.445,650.619,979.782,650.122z"/>
<path opacity="0.07" fill="#24616D" enable-background="new    " d="M979.782,660.98c-0.662-0.663-1.491-1.077-2.486-1.077
	c-1.077,0-1.824,0.414-2.487,1.077s-1.077,1.492-1.077,2.487c0,1.077,0.414,1.823,1.077,2.486s1.492,1.077,2.487,1.077
	s1.824-0.414,2.486-1.077c0.663-0.663,1.078-1.492,1.078-2.486C980.86,662.556,980.445,661.727,979.782,660.98z"/>
<path opacity="0.07" fill="#24616D" enable-background="new    " d="M979.782,671.923c-0.662-0.663-1.491-1.077-2.486-1.077
	c-1.077,0-1.824,0.414-2.487,1.077s-1.077,1.492-1.077,2.486c0,1.078,0.414,1.824,1.077,2.487s1.492,1.077,2.487,1.077
	s1.824-0.414,2.486-1.077c0.663-0.663,1.078-1.492,1.078-2.487C980.86,673.581,980.445,672.586,979.782,671.923z"/>
<path opacity="0.07" fill="#24616D" enable-background="new    " d="M990.642,628.154c-0.663-0.663-1.492-1.077-2.487-1.077
	c-1.077,0-1.823,0.414-2.486,1.077s-1.077,1.492-1.077,2.487c0,1.077,0.414,1.824,1.077,2.486c0.663,0.663,1.492,1.078,2.486,1.078
	c0.995,0,1.824-0.415,2.487-1.078c0.663-0.662,1.077-1.491,1.077-2.486C991.803,629.646,991.471,628.651,990.642,628.154z"/>
<path opacity="0.07" fill="#24616D" enable-background="new    " d="M990.642,639.014c-0.663-0.663-1.492-1.077-2.487-1.077
	c-1.077,0-1.823,0.414-2.486,1.077s-1.077,1.492-1.077,2.486c0,1.078,0.414,1.824,1.077,2.487s1.492,1.077,2.486,1.077
	c0.995,0,1.824-0.414,2.487-1.077s1.077-1.492,1.077-2.487C991.803,640.589,991.471,639.76,990.642,639.014z"/>
<path opacity="0.07" fill="#24616D" enable-background="new    " d="M990.642,650.122c-0.663-0.663-1.492-1.078-2.487-1.078
	c-1.077,0-1.823,0.415-2.486,1.078s-1.077,1.491-1.077,2.486c0,1.077,0.414,1.824,1.077,2.487s1.492,1.077,2.486,1.077
	c0.995,0,1.824-0.414,2.487-1.077s1.077-1.492,1.077-2.487C991.803,651.613,991.471,650.619,990.642,650.122z"/>
<path opacity="0.07" fill="#24616D" enable-background="new    " d="M990.642,660.98c-0.663-0.663-1.492-1.077-2.487-1.077
	c-1.077,0-1.823,0.414-2.486,1.077s-1.077,1.492-1.077,2.487c0,1.077,0.414,1.823,1.077,2.486s1.492,1.077,2.486,1.077
	c0.995,0,1.824-0.414,2.487-1.077s1.077-1.492,1.077-2.486C991.803,662.556,991.471,661.727,990.642,660.98z"/>
<path opacity="0.07" fill="#24616D" enable-background="new    " d="M990.642,671.923c-0.663-0.663-1.492-1.077-2.487-1.077
	c-1.077,0-1.823,0.414-2.486,1.077s-1.077,1.492-1.077,2.486c0,1.078,0.414,1.824,1.077,2.487s1.492,1.077,2.486,1.077
	c0.995,0,1.824-0.414,2.487-1.077s1.077-1.492,1.077-2.487C991.803,673.581,991.471,672.586,990.642,671.923z"/>
<path opacity="0.07" fill="#24616D" enable-background="new    " d="M990.642,682.947c-0.663-0.663-1.492-1.077-2.487-1.077
	c-1.077,0-1.823,0.414-2.486,1.077s-1.077,1.492-1.077,2.487c0,1.077,0.414,1.823,1.077,2.486s1.492,1.078,2.486,1.078
	c0.995,0,1.824-0.415,2.487-1.078s1.077-1.491,1.077-2.486C991.803,684.522,991.471,683.694,990.642,682.947z"/>
<path opacity="0.07" fill="#24616D" enable-background="new    " d="M1001.75,628.154c-0.663-0.663-1.492-1.077-2.487-1.077
	c-1.077,0-1.824,0.414-2.486,1.077c-0.663,0.663-1.078,1.492-1.078,2.487c0,1.077,0.415,1.824,1.078,2.486
	c0.662,0.663,1.491,1.078,2.486,1.078s1.824-0.415,2.487-1.078c0.663-0.662,1.077-1.491,1.077-2.486
	S1002.413,628.651,1001.75,628.154z"/>
<path opacity="0.07" fill="#24616D" enable-background="new    " d="M1001.75,639.014c-0.663-0.663-1.492-1.077-2.487-1.077
	c-1.077,0-1.824,0.414-2.486,1.077c-0.663,0.663-1.078,1.492-1.078,2.486c0,1.078,0.415,1.824,1.078,2.487
	c0.662,0.663,1.491,1.077,2.486,1.077s1.824-0.414,2.487-1.077s1.077-1.492,1.077-2.487
	C1002.827,640.589,1002.413,639.76,1001.75,639.014z"/>
<path opacity="0.07" fill="#24616D" enable-background="new    " d="M1001.75,650.122c-0.663-0.663-1.492-1.078-2.487-1.078
	c-1.077,0-1.824,0.415-2.486,1.078c-0.663,0.663-1.078,1.491-1.078,2.486c0,1.077,0.415,1.824,1.078,2.487
	c0.662,0.663,1.491,1.077,2.486,1.077s1.824-0.414,2.487-1.077s1.077-1.492,1.077-2.487S1002.413,650.619,1001.75,650.122z"/>
<path opacity="0.07" fill="#24616D" enable-background="new    " d="M1001.75,660.98c-0.663-0.663-1.492-1.077-2.487-1.077
	c-1.077,0-1.824,0.414-2.486,1.077c-0.663,0.663-1.078,1.492-1.078,2.487c0,1.077,0.415,1.823,1.078,2.486
	c0.662,0.663,1.491,1.077,2.486,1.077s1.824-0.414,2.487-1.077s1.077-1.492,1.077-2.486
	C1002.827,662.556,1002.413,661.727,1001.75,660.98z"/>
<path opacity="0.07" fill="#24616D" enable-background="new    " d="M1001.75,671.923c-0.663-0.663-1.492-1.077-2.487-1.077
	c-1.077,0-1.824,0.414-2.486,1.077c-0.663,0.663-1.078,1.492-1.078,2.486c0,1.078,0.415,1.824,1.078,2.487
	c0.662,0.663,1.491,1.077,2.486,1.077s1.824-0.414,2.487-1.077s1.077-1.492,1.077-2.487
	C1002.827,673.581,1002.413,672.586,1001.75,671.923z"/>
<path opacity="0.07" fill="#24616D" enable-background="new    " d="M1012.608,628.154c-0.663-0.663-1.492-1.077-2.486-1.077
	c-1.078,0-1.824,0.414-2.487,1.077s-1.077,1.492-1.077,2.487c0,1.077,0.414,1.824,1.077,2.486c0.663,0.663,1.492,1.078,2.487,1.078
	c0.994,0,1.823-0.415,2.486-1.078c0.663-0.662,1.078-1.491,1.078-2.486C1013.77,629.646,1013.438,628.651,1012.608,628.154z"/>
<path opacity="0.07" fill="#24616D" enable-background="new    " d="M1012.608,639.014c-0.663-0.663-1.492-1.077-2.486-1.077
	c-1.078,0-1.824,0.414-2.487,1.077s-1.077,1.492-1.077,2.486c0,1.078,0.414,1.824,1.077,2.487s1.492,1.077,2.487,1.077
	c0.994,0,1.823-0.414,2.486-1.077s1.078-1.492,1.078-2.487C1013.77,640.589,1013.438,639.76,1012.608,639.014z"/>
<path opacity="0.07" fill="#24616D" enable-background="new    " d="M1012.608,650.122c-0.663-0.663-1.492-1.078-2.486-1.078
	c-1.078,0-1.824,0.415-2.487,1.078s-1.077,1.491-1.077,2.486c0,1.077,0.414,1.824,1.077,2.487s1.492,1.077,2.487,1.077
	c0.994,0,1.823-0.414,2.486-1.077s1.078-1.492,1.078-2.487C1013.77,651.613,1013.438,650.619,1012.608,650.122z"/>
<path opacity="0.07" fill="#24616D" enable-background="new    " d="M1012.608,660.98c-0.663-0.663-1.492-1.077-2.486-1.077
	c-1.078,0-1.824,0.414-2.487,1.077s-1.077,1.492-1.077,2.487c0,1.077,0.414,1.823,1.077,2.486s1.492,1.077,2.487,1.077
	c0.994,0,1.823-0.414,2.486-1.077s1.078-1.492,1.078-2.486C1013.77,662.556,1013.438,661.727,1012.608,660.98z"/>
<path opacity="0.07" fill="#24616D" enable-background="new    " d="M1012.608,682.947c-0.663-0.663-1.492-1.077-2.486-1.077
	c-1.078,0-1.824,0.414-2.487,1.077s-1.077,1.492-1.077,2.487c0,1.077,0.414,1.823,1.077,2.486s1.492,1.078,2.487,1.078
	c0.994,0,1.823-0.415,2.486-1.078s1.078-1.491,1.078-2.486C1013.77,684.522,1013.438,683.694,1012.608,682.947z"/>
<path opacity="0.07" fill="#24616D" enable-background="new    " d="M1023.551,632.962c0.663-0.662,1.077-1.491,1.077-2.486
	c0-0.829-0.414-1.824-1.077-2.487c-0.663-0.662-1.492-1.077-2.487-1.077c-1.077,0-1.823,0.415-2.486,1.077
	c-0.663,0.663-1.077,1.492-1.077,2.487c0,1.077,0.414,1.824,1.077,2.486c0.663,0.663,1.492,1.078,2.486,1.078
	C1022.142,634.04,1022.971,633.791,1023.551,632.962z"/>
<path opacity="0.07" fill="#24616D" enable-background="new    " d="M1034.575,628.154c-0.662-0.663-1.491-1.077-2.486-1.077
	c-1.078,0-1.824,0.414-2.487,1.077s-1.077,1.492-1.077,2.487c0,1.077,0.414,1.824,1.077,2.486c0.663,0.663,1.492,1.078,2.487,1.078
	s1.824-0.415,2.486-1.078c0.663-0.662,1.078-1.491,1.078-2.486C1035.736,629.646,1035.322,628.651,1034.575,628.154z"/>
<path opacity="0.07" fill="#24616D" enable-background="new    " d="M1045.518,639.014c-0.663-0.663-1.492-1.077-2.486-1.077
	c-1.078,0-1.824,0.414-2.487,1.077s-1.077,1.492-1.077,2.486c0,1.078,0.414,1.824,1.077,2.487s1.492,1.077,2.487,1.077
	c0.994,0,1.823-0.414,2.486-1.077s1.077-1.492,1.077-2.487C1046.595,640.589,1046.347,639.76,1045.518,639.014z"/>
<path opacity="0.07" fill="#24616D" enable-background="new    " d="M1034.575,660.98c-0.662-0.663-1.491-1.077-2.486-1.077
	c-1.078,0-1.824,0.414-2.487,1.077s-1.077,1.492-1.077,2.487c0,1.077,0.414,1.823,1.077,2.486s1.492,1.077,2.487,1.077
	s1.824-0.414,2.486-1.077c0.663-0.663,1.078-1.492,1.078-2.486C1035.736,662.556,1035.322,661.727,1034.575,660.98z"/>
<path opacity="0.07" fill="#24616D" enable-background="new    " d="M1001.75,682.947c-0.663-0.663-1.492-1.077-2.487-1.077
	c-1.077,0-1.824,0.414-2.486,1.077c-0.663,0.663-1.078,1.492-1.078,2.487c0,1.077,0.415,1.823,1.078,2.486
	c0.662,0.663,1.491,1.078,2.486,1.078s1.824-0.415,2.487-1.078s1.077-1.491,1.077-2.486
	C1002.827,684.522,1002.413,683.694,1001.75,682.947z"/>
<path opacity="0.07" fill="#24616D" enable-background="new    " d="M1012.608,671.923c-0.663-0.663-1.492-1.077-2.486-1.077
	c-1.078,0-1.824,0.414-2.487,1.077s-1.077,1.492-1.077,2.486c0,1.078,0.414,1.824,1.077,2.487s1.492,1.077,2.487,1.077
	c0.994,0,1.823-0.414,2.486-1.077s1.078-1.492,1.078-2.487C1013.77,673.581,1013.438,672.586,1012.608,671.923z"/>
<path opacity="0.07" fill="#24616D" enable-background="new    " d="M1056.543,660.98c-0.663-0.663-1.492-1.077-2.487-1.077
	c-1.077,0-1.824,0.414-2.486,1.077c-0.663,0.663-1.078,1.492-1.078,2.487c0,1.077,0.415,1.823,1.078,2.486
	c0.662,0.663,1.491,1.077,2.486,1.077s1.824-0.414,2.487-1.077s1.077-1.492,1.077-2.486
	C1057.703,662.556,1057.289,661.727,1056.543,660.98z"/>
<path opacity="0.07" fill="#24616D" enable-background="new    " d="M1023.551,643.987c0.663-0.663,1.077-1.492,1.077-2.487
	c0-0.828-0.414-1.823-1.077-2.486s-1.492-1.077-2.487-1.077c-1.077,0-1.823,0.414-2.486,1.077s-1.077,1.492-1.077,2.486
	c0,1.078,0.414,1.824,1.077,2.487s1.492,1.077,2.486,1.077C1022.142,645.148,1022.971,644.733,1023.551,643.987z"/>
<path opacity="0.07" fill="#24616D" enable-background="new    " d="M1023.551,655.096c0.663-0.663,1.077-1.492,1.077-2.487
	c0-0.829-0.414-1.823-1.077-2.486s-1.492-1.078-2.487-1.078c-1.077,0-1.823,0.415-2.486,1.078s-1.077,1.491-1.077,2.486
	c0,1.077,0.414,1.824,1.077,2.487s1.492,1.077,2.486,1.077C1022.142,656.173,1022.971,655.759,1023.551,655.096z"/>
<path opacity="0.07" fill="#24616D" enable-background="new    " d="M1034.575,639.014c-0.662-0.663-1.491-1.077-2.486-1.077
	c-1.078,0-1.824,0.414-2.487,1.077s-1.077,1.492-1.077,2.486c0,1.078,0.414,1.824,1.077,2.487s1.492,1.077,2.487,1.077
	s1.824-0.414,2.486-1.077c0.663-0.663,1.078-1.492,1.078-2.487C1035.736,640.589,1035.322,639.76,1034.575,639.014z"/>
<path opacity="0.07" fill="#24616D" enable-background="new    " d="M1034.575,650.122c-0.662-0.663-1.491-1.078-2.486-1.078
	c-1.078,0-1.824,0.415-2.487,1.078s-1.077,1.491-1.077,2.486c0,1.077,0.414,1.824,1.077,2.487s1.492,1.077,2.487,1.077
	s1.824-0.414,2.486-1.077c0.663-0.663,1.078-1.492,1.078-2.487C1035.736,651.613,1035.322,650.619,1034.575,650.122z"/>
<path opacity="0.07" fill="#24616D" enable-background="new    " d="M1045.518,628.154c-0.663-0.663-1.492-1.077-2.486-1.077
	c-1.078,0-1.824,0.414-2.487,1.077s-1.077,1.492-1.077,2.487c0,1.077,0.414,1.824,1.077,2.486c0.663,0.663,1.492,1.078,2.487,1.078
	c0.994,0,1.823-0.415,2.486-1.078c0.663-0.662,1.077-1.491,1.077-2.486S1046.347,628.651,1045.518,628.154z"/>
<path opacity="0.07" fill="#24616D" enable-background="new    " d="M1067.484,655.096c0.663-0.663,1.078-1.492,1.078-2.487
	c0-0.829-0.415-1.823-1.078-2.486s-1.491-1.078-2.486-1.078c-1.077,0-1.824,0.415-2.487,1.078c-0.662,0.663-1.077,1.491-1.077,2.486
	c0,1.077,0.415,1.824,1.077,2.487c0.663,0.663,1.492,1.077,2.487,1.077C1066.075,656.173,1066.821,655.759,1067.484,655.096z"/>
<path opacity="0.07" fill="#24616D" enable-background="new    " d="M1067.484,643.987c0.663-0.663,1.078-1.492,1.078-2.487
	c0-0.828-0.415-1.823-1.078-2.486s-1.491-1.077-2.486-1.077c-1.077,0-1.824,0.414-2.487,1.077c-0.662,0.663-1.077,1.492-1.077,2.486
	c0,1.078,0.415,1.824,1.077,2.487c0.663,0.663,1.492,1.077,2.487,1.077C1066.075,645.148,1066.821,644.733,1067.484,643.987z"/>
<path opacity="0.07" fill="#24616D" enable-background="new    " d="M1021.229,681.87c-1.077,0-1.823,0.414-2.486,1.077
	s-1.078,1.492-1.078,2.487c0,1.077,0.415,1.823,1.078,2.486s1.409,1.078,2.486,1.078c0.995,0,1.824-0.415,2.487-1.078
	s1.077-1.491,1.077-2.486c0-0.829-0.414-1.824-1.077-2.487C1022.971,682.284,1022.142,681.87,1021.229,681.87z"/>
<path opacity="0.07" fill="#24616D" enable-background="new    " d="M1023.551,676.896c0.663-0.663,1.077-1.492,1.077-2.487
	c0-0.828-0.414-1.823-1.077-2.486s-1.492-1.077-2.487-1.077c-1.077,0-1.823,0.414-2.486,1.077s-1.077,1.492-1.077,2.486
	c0,1.078,0.414,1.824,1.077,2.487s1.492,1.077,2.486,1.077C1022.142,677.974,1022.971,677.726,1023.551,676.896z"/>
<path opacity="0.07" fill="#24616D" enable-background="new    " d="M1337.567,933.518c-0.663,0.663-1.077,1.491-1.077,2.486
	c0,0.829,0.414,1.824,1.077,2.486c0.663,0.663,1.492,1.078,2.486,1.078c1.078,0,1.824-0.415,2.487-1.078
	c0.662-0.662,1.077-1.49,1.076-2.486c0-1.076-0.413-1.823-1.076-2.486s-1.492-1.077-2.488-1.077
	C1339.226,932.44,1338.23,932.688,1337.567,933.518z"/>
<path opacity="0.07" fill="#24616D" enable-background="new    " d="M1348.592,933.517c-0.663,0.663-1.077,1.493-1.077,2.487
	c0,0.83,0.414,1.824,1.077,2.487s1.492,1.077,2.488,1.077c1.076,0,1.822-0.414,2.485-1.078c0.663-0.662,1.078-1.49,1.078-2.486
	c-0.001-1.076-0.415-1.823-1.078-2.486s-1.491-1.077-2.486-1.076C1350.167,932.44,1349.339,932.688,1348.592,933.517z"/>
<path opacity="0.07" fill="#24616D" enable-background="new    " d="M1359.7,933.518c-0.663,0.663-1.077,1.491-1.077,2.485
	c0,0.83,0.414,1.825,1.077,2.487c0.663,0.663,1.492,1.078,2.487,1.078c1.077,0,1.823-0.415,2.486-1.078
	c0.662-0.662,1.077-1.491,1.077-2.487c0-1.075-0.415-1.822-1.077-2.485c-0.663-0.663-1.492-1.077-2.486-1.077
	C1361.191,932.44,1360.197,932.688,1359.7,933.518z"/>
<path opacity="0.07" fill="#24616D" enable-background="new    " d="M1370.56,933.518c-0.663,0.663-1.079,1.491-1.079,2.486
	c0,0.829,0.416,1.824,1.079,2.486c0.662,0.664,1.491,1.078,2.486,1.078c1.077,0,1.824-0.415,2.487-1.078
	c0.662-0.662,1.077-1.49,1.077-2.487c0-1.075-0.415-1.822-1.077-2.486c-0.663-0.663-1.492-1.076-2.487-1.076
	C1372.135,932.439,1371.306,932.688,1370.56,933.518z"/>
<path opacity="0.07" fill="#24616D" enable-background="new    " d="M1381.667,933.517c-0.664,0.664-1.077,1.493-1.077,2.487
	c0,0.829,0.414,1.823,1.078,2.486c0.662,0.663,1.491,1.078,2.486,1.078c1.077,0,1.822-0.414,2.486-1.078
	c0.663-0.662,1.078-1.49,1.078-2.486c0-1.077-0.415-1.823-1.078-2.486c-0.663-0.664-1.491-1.077-2.486-1.078
	C1383.159,932.44,1382.164,932.688,1381.667,933.517z"/>
<path opacity="0.07" fill="#24616D" enable-background="new    " d="M1337.567,922.492c-0.664,0.664-1.077,1.492-1.077,2.487
	c0,0.829,0.414,1.823,1.077,2.487c0.663,0.662,1.492,1.077,2.486,1.077c1.078,0,1.824-0.415,2.487-1.078
	c0.662-0.663,1.076-1.491,1.076-2.486c0-1.077-0.413-1.823-1.076-2.486c-0.663-0.664-1.492-1.078-2.488-1.078
	C1339.226,921.332,1338.23,921.746,1337.567,922.492z"/>
<path opacity="0.07" fill="#24616D" enable-background="new    " d="M1348.592,922.493c-0.663,0.663-1.077,1.491-1.077,2.485
	c0.001,0.83,0.414,1.823,1.077,2.488c0.663,0.662,1.492,1.077,2.487,1.076c1.077,0.001,1.823-0.414,2.485-1.077
	c0.664-0.663,1.079-1.491,1.079-2.487c0-1.077-0.414-1.822-1.078-2.486c-0.663-0.663-1.491-1.077-2.486-1.078
	C1350.167,921.332,1349.339,921.746,1348.592,922.493z"/>
<path opacity="0.07" fill="#24616D" enable-background="new    " d="M1370.56,922.492c-0.663,0.664-1.079,1.492-1.078,2.486
	c-0.001,0.83,0.415,1.824,1.078,2.488c0.661,0.662,1.491,1.077,2.486,1.076c1.077,0.001,1.824-0.414,2.487-1.076
	c0.662-0.665,1.077-1.493,1.078-2.488c-0.001-1.077-0.416-1.822-1.078-2.485c-0.663-0.664-1.492-1.079-2.487-1.079
	C1372.135,921.332,1371.306,921.746,1370.56,922.492z"/>
<path opacity="0.07" fill="#24616D" enable-background="new    " d="M1381.667,922.493c-0.663,0.663-1.077,1.491-1.077,2.485
	c0,0.83,0.414,1.823,1.077,2.488c0.663,0.662,1.491,1.077,2.487,1.076c1.077,0.001,1.823-0.414,2.486-1.076
	c0.663-0.664,1.078-1.492,1.078-2.488c0-1.077-0.415-1.823-1.078-2.486s-1.49-1.078-2.486-1.078
	C1383.159,921.332,1382.164,921.746,1381.667,922.493z"/>
<path opacity="0.07" fill="#24616D" enable-background="new    " d="M1392.526,933.517c-0.663,0.663-1.078,1.492-1.078,2.486
	c0,0.83,0.415,1.825,1.078,2.488s1.491,1.077,2.486,1.077c0.995-0.001,1.824-0.415,2.487-1.078c0.663-0.662,1.077-1.491,1.077-2.487
	c0-1.075-0.414-1.822-1.077-2.485s-1.492-1.078-2.487-1.077C1394.102,932.44,1393.271,932.688,1392.526,933.517z"/>
<path opacity="0.07" fill="#24616D" enable-background="new    " d="M1392.526,922.493c-0.663,0.663-1.078,1.491-1.078,2.486
	c0,0.829,0.415,1.822,1.078,2.487c0.663,0.662,1.491,1.077,2.486,1.076c0.995,0,1.824-0.414,2.487-1.077s1.077-1.492,1.076-2.487
	c0-1.077-0.412-1.822-1.076-2.486c-0.663-0.663-1.492-1.078-2.487-1.077C1394.102,921.332,1393.272,921.745,1392.526,922.493z"/>
<path opacity="0.07" fill="#24616D" enable-background="new    " d="M1337.567,911.385c-0.663,0.662-1.078,1.492-1.077,2.485
	c0,0.83,0.414,1.825,1.077,2.487c0.663,0.664,1.492,1.078,2.485,1.079c1.079,0,1.825-0.415,2.488-1.078s1.076-1.492,1.077-2.487
	c0-1.077-0.414-1.823-1.077-2.486s-1.493-1.078-2.487-1.078C1339.226,910.307,1338.23,910.722,1337.567,911.385z"/>
<path opacity="0.07" fill="#24616D" enable-background="new    " d="M1348.592,911.385c-0.663,0.663-1.077,1.492-1.077,2.486
	c0,0.83,0.414,1.824,1.077,2.487s1.492,1.078,2.487,1.079c1.076-0.001,1.823-0.416,2.486-1.08c0.663-0.663,1.078-1.492,1.078-2.486
	c0-1.077-0.415-1.824-1.078-2.486c-0.663-0.663-1.491-1.078-2.486-1.078C1350.167,910.306,1349.338,910.722,1348.592,911.385z"/>
<path opacity="0.07" fill="#24616D" enable-background="new    " d="M1370.56,911.385c-0.663,0.662-1.078,1.492-1.079,2.485
	c0.001,0.831,0.416,1.824,1.079,2.487c0.662,0.664,1.491,1.079,2.486,1.079c1.077,0,1.825-0.415,2.487-1.078
	c0.662-0.664,1.077-1.492,1.077-2.488c0-1.077-0.415-1.822-1.077-2.485c-0.663-0.663-1.492-1.079-2.487-1.078
	C1372.135,910.307,1371.306,910.722,1370.56,911.385z"/>
<path opacity="0.07" fill="#24616D" enable-background="new    " d="M1381.667,911.385c-0.663,0.663-1.077,1.492-1.077,2.486
	c0,0.83,0.414,1.824,1.077,2.487s1.492,1.078,2.487,1.077c1.077,0,1.823-0.414,2.486-1.078c0.663-0.663,1.078-1.492,1.078-2.486
	c0-1.077-0.415-1.824-1.078-2.486c-0.663-0.663-1.491-1.079-2.486-1.078C1383.159,910.306,1382.164,910.721,1381.667,911.385z"/>
<path opacity="0.07" fill="#24616D" enable-background="new    " d="M1348.592,900.525c-0.663,0.663-1.077,1.492-1.076,2.487
	c-0.001,0.829,0.413,1.823,1.076,2.487c0.663,0.662,1.492,1.077,2.487,1.076c1.077,0,1.823-0.414,2.486-1.076
	c0.663-0.665,1.078-1.492,1.078-2.488c0-1.077-0.415-1.822-1.078-2.486c-0.663-0.663-1.491-1.078-2.485-1.078
	C1350.167,899.365,1349.339,899.697,1348.592,900.525z"/>
<path opacity="0.07" fill="#24616D" enable-background="new    " d="M1359.7,900.525c-0.663,0.664-1.077,1.491-1.077,2.487
	c0,0.828,0.414,1.823,1.077,2.487c0.662,0.662,1.491,1.077,2.487,1.077c1.077,0,1.824-0.415,2.486-1.077
	c0.663-0.664,1.078-1.492,1.077-2.487c0-1.079-0.415-1.823-1.077-2.487c-0.663-0.663-1.492-1.078-2.486-1.078
	C1361.191,899.365,1360.197,899.696,1359.7,900.525z"/>
<path opacity="0.07" fill="#24616D" enable-background="new    " d="M1370.56,900.525c-0.663,0.664-1.078,1.492-1.079,2.487
	c0,0.828,0.416,1.822,1.079,2.487c0.662,0.662,1.491,1.077,2.486,1.077c1.077,0,1.824-0.416,2.487-1.077
	c0.662-0.664,1.077-1.492,1.077-2.487c0-1.079-0.415-1.824-1.077-2.487c-0.663-0.663-1.492-1.078-2.487-1.077
	C1372.135,899.364,1371.306,899.696,1370.56,900.525z"/>
<path opacity="0.07" fill="#24616D" enable-background="new    " d="M1381.668,900.525c-0.664,0.663-1.078,1.492-1.078,2.487
	c0,0.829,0.414,1.823,1.078,2.487c0.662,0.662,1.491,1.077,2.486,1.076c1.077,0,1.823-0.414,2.486-1.076
	c0.663-0.665,1.078-1.492,1.079-2.487c-0.001-1.078-0.416-1.823-1.079-2.487c-0.663-0.663-1.491-1.078-2.485-1.078
	C1383.159,899.365,1382.164,899.697,1381.668,900.525z"/>
<path opacity="0.07" fill="#24616D" enable-background="new    " d="M1359.699,889.584c-0.662,0.662-1.076,1.492-1.076,2.486
	c0,0.828,0.414,1.824,1.077,2.487s1.492,1.076,2.487,1.077c1.077,0,1.823-0.414,2.486-1.077c0.663-0.664,1.077-1.493,1.077-2.487
	c0-1.077-0.415-1.824-1.077-2.486c-0.662-0.663-1.492-1.078-2.486-1.078C1361.191,888.506,1360.197,888.754,1359.699,889.584z"/>
<path opacity="0.07" fill="#24616D" enable-background="new    " d="M1370.559,889.584c-0.662,0.662-1.078,1.492-1.077,2.486
	c-0.001,0.828,0.415,1.824,1.078,2.487c0.662,0.662,1.491,1.076,2.486,1.077c1.077,0,1.824-0.414,2.487-1.078
	c0.662-0.663,1.077-1.491,1.077-2.486c0-1.077-0.415-1.824-1.077-2.486c-0.663-0.664-1.492-1.078-2.487-1.078
	C1372.135,888.505,1371.306,888.754,1370.559,889.584z"/>
<path opacity="0.07" fill="#24616D" enable-background="new    " d="M1381.667,889.584c-0.664,0.662-1.077,1.492-1.077,2.485
	c0,0.829,0.414,1.824,1.077,2.487c0.663,0.664,1.492,1.078,2.487,1.077c1.077,0,1.823-0.413,2.486-1.076s1.078-1.492,1.078-2.488
	c0-1.077-0.415-1.823-1.079-2.485c-0.662-0.663-1.49-1.078-2.485-1.079C1383.159,888.506,1382.164,888.755,1381.667,889.584z"/>
<path opacity="0.07" fill="#24616D" enable-background="new    " d="M1348.592,878.559c-0.663,0.663-1.077,1.491-1.077,2.487
	c0,0.828,0.414,1.823,1.077,2.321c0.663,0.662,1.492,1.077,2.488,1.076c1.075,0.001,1.822-0.414,2.485-1.076
	c0.663-0.665,1.078-1.493,1.078-2.321c0-1.079-0.415-1.825-1.078-2.488s-1.491-1.077-2.486-1.078
	C1350.167,877.397,1349.338,877.812,1348.592,878.559z"/>
<path opacity="0.07" fill="#24616D" enable-background="new    " d="M1359.7,878.558c-0.663,0.664-1.077,1.493-1.077,2.487
	c0,0.83,0.414,1.824,1.077,2.322c0.662,0.662,1.491,1.077,2.487,1.076c1.077,0.001,1.824-0.414,2.486-1.077
	c0.663-0.663,1.078-1.492,1.077-2.321c0-1.077-0.414-1.823-1.077-2.487c-0.663-0.663-1.492-1.078-2.486-1.077
	C1361.192,877.398,1360.197,877.812,1359.7,878.558z"/>
<path opacity="0.07" fill="#24616D" enable-background="new    " d="M1370.56,878.558c-0.663,0.664-1.078,1.492-1.079,2.487
	c0.001,0.829,0.416,1.824,1.079,2.322c0.662,0.662,1.491,1.077,2.486,1.077c1.077,0,1.825-0.415,2.487-1.077
	c0.662-0.664,1.077-1.492,1.077-2.322c0.001-1.078-0.415-1.823-1.077-2.486c-0.663-0.664-1.492-1.078-2.487-1.079
	C1372.135,877.398,1371.306,877.812,1370.56,878.558z"/>
<path opacity="0.07" fill="#24616D" enable-background="new    " d="M1381.667,878.559c-0.663,0.663-1.077,1.491-1.077,2.487
	c0,0.828,0.414,1.823,1.078,2.321c0.662,0.662,1.491,1.077,2.487,1.076c1.076,0.001,1.822-0.414,2.485-1.076
	c0.663-0.665,1.078-1.493,1.078-2.321c0-1.079-0.415-1.825-1.078-2.488s-1.49-1.078-2.486-1.078
	C1383.159,877.397,1382.164,877.812,1381.667,878.559z"/>
<path opacity="0.07" fill="#24616D" enable-background="new    " d="M1392.527,911.385c-0.664,0.663-1.079,1.491-1.079,2.485
	c0,0.83,0.415,1.825,1.078,2.488s1.491,1.077,2.486,1.078c0.995-0.001,1.824-0.416,2.487-1.079s1.077-1.491,1.077-2.487
	c0-1.077-0.414-1.823-1.077-2.485c-0.663-0.663-1.492-1.078-2.487-1.079C1394.102,910.306,1393.272,910.722,1392.527,911.385z"/>
<path opacity="0.07" fill="#24616D" enable-background="new    " d="M1403.469,911.385c-0.663,0.663-1.078,1.491-1.078,2.485
	c0,0.83,0.416,1.824,1.078,2.487s1.491,1.078,2.486,1.079c0.995-0.001,1.824-0.416,2.487-1.079c0.662-0.662,1.077-1.491,1.077-2.487
	c0-1.077-0.415-1.823-1.077-2.485c-0.663-0.663-1.492-1.078-2.487-1.079C1405.126,910.306,1404.131,910.722,1403.469,911.385z"/>
<path opacity="0.07" fill="#24616D" enable-background="new    " d="M1414.493,911.385c-0.663,0.662-1.077,1.492-1.077,2.485
	c0,0.831,0.414,1.824,1.077,2.488c0.663,0.663,1.492,1.078,2.486,1.077c0.995,0.001,1.824-0.414,2.487-1.078
	c0.663-0.663,1.077-1.492,1.077-2.486c0-1.077-0.413-1.824-1.076-2.486c-0.664-0.664-1.493-1.079-2.488-1.078
	C1416.068,910.306,1415.239,910.721,1414.493,911.385z"/>
<path opacity="0.07" fill="#24616D" enable-background="new    " d="M1392.527,900.525c-0.664,0.663-1.079,1.491-1.079,2.487
	c0,0.828,0.415,1.823,1.079,2.487c0.662,0.662,1.49,1.077,2.485,1.077c0.995-0.001,1.824-0.415,2.487-1.077
	c0.663-0.665,1.076-1.492,1.077-2.487c0-1.079-0.414-1.823-1.077-2.487c-0.663-0.663-1.492-1.078-2.487-1.077
	C1394.102,899.365,1393.272,899.696,1392.527,900.525z"/>
<path opacity="0.07" fill="#24616D" enable-background="new    " d="M1403.469,900.525c-0.663,0.663-1.078,1.491-1.078,2.487
	c0,0.828,0.415,1.823,1.078,2.487c0.662,0.662,1.491,1.076,2.486,1.077c0.995-0.001,1.824-0.416,2.487-1.077
	c0.662-0.665,1.077-1.493,1.077-2.487c0-1.079-0.415-1.824-1.077-2.487c-0.663-0.663-1.491-1.078-2.487-1.077
	C1405.126,899.364,1404.131,899.696,1403.469,900.525z"/>
<path opacity="0.07" fill="#24616D" enable-background="new    " d="M1414.493,900.525c-0.663,0.663-1.077,1.492-1.077,2.486
	c0,0.829,0.414,1.824,1.077,2.488c0.663,0.662,1.492,1.077,2.486,1.076c0.995,0.001,1.824-0.414,2.487-1.077
	c0.664-0.664,1.077-1.491,1.078-2.486c-0.001-1.078-0.415-1.824-1.078-2.488c-0.663-0.663-1.492-1.077-2.486-1.077
	C1416.068,899.365,1415.239,899.697,1414.493,900.525z"/>
<path opacity="0.07" fill="#24616D" enable-background="new    " d="M1425.603,900.525c-0.664,0.663-1.079,1.491-1.079,2.487
	c0,0.828,0.415,1.823,1.079,2.487c0.662,0.662,1.49,1.076,2.485,1.077c0.995-0.001,1.824-0.416,2.487-1.077
	c0.663-0.665,1.077-1.493,1.077-2.487c0-1.079-0.414-1.823-1.077-2.487c-0.663-0.663-1.492-1.078-2.487-1.077
	C1426.928,899.364,1426.1,899.696,1425.603,900.525z"/>
<path opacity="0.07" fill="#24616D" enable-background="new    " d="M1436.46,900.525c-0.663,0.664-1.077,1.491-1.077,2.487
	c0,0.828,0.414,1.822,1.077,2.487c0.663,0.661,1.492,1.076,2.487,1.077c0.994,0,1.823-0.416,2.486-1.078
	c0.662-0.664,1.078-1.491,1.077-2.486c0-1.079-0.414-1.824-1.077-2.488c-0.662-0.663-1.492-1.077-2.486-1.077
	C1438.035,899.364,1437.207,899.697,1436.46,900.525z"/>
<path opacity="0.07" fill="#24616D" enable-background="new    " d="M1447.403,900.524c-0.664,0.665-1.078,1.492-1.078,2.488
	c0,0.828,0.414,1.823,1.078,2.486c0.663,0.663,1.491,1.077,2.486,1.078c0.994,0,1.823-0.416,2.486-1.078
	c0.663-0.664,1.077-1.491,1.077-2.487c0-1.077-0.414-1.823-1.077-2.487c-0.663-0.663-1.492-1.076-2.486-1.076
	C1449.061,899.364,1448.065,899.696,1447.403,900.524z"/>
<path opacity="0.07" fill="#24616D" enable-background="new    " d="M945.448,917.955c-0.663,0.664-1.077,1.492-1.077,2.488
	c0,0.828,0.415,1.822,1.077,2.486c0.663,0.662,1.492,1.078,2.487,1.077c0.996,0,1.823-0.415,2.486-1.076
	c0.663-0.665,1.078-1.492,1.079-2.487c0-1.079-0.415-1.824-1.079-2.487c-0.663-0.663-1.49-1.078-2.485-1.078
	C947.024,916.796,946.196,917.127,945.448,917.955z"/>
<path opacity="0.07" fill="#24616D" enable-background="new    " d="M1392.526,889.584c-0.663,0.661-1.078,1.492-1.078,2.486
	c0,0.828,0.415,1.823,1.078,2.486c0.663,0.664,1.491,1.077,2.486,1.078c0.995-0.001,1.824-0.414,2.487-1.077
	c0.664-0.664,1.077-1.493,1.077-2.487c0-1.077-0.414-1.824-1.078-2.486c-0.663-0.663-1.491-1.079-2.486-1.078
	C1394.102,888.506,1393.272,888.754,1392.526,889.584z"/>
<path opacity="0.07" fill="#24616D" enable-background="new    " d="M1403.469,889.584c-0.662,0.662-1.078,1.492-1.078,2.486
	c0,0.828,0.415,1.823,1.078,2.487c0.662,0.663,1.491,1.076,2.486,1.077c0.995-0.001,1.824-0.414,2.487-1.077
	c0.662-0.664,1.077-1.493,1.077-2.487c0-1.077-0.415-1.825-1.076-2.486c-0.664-0.664-1.493-1.079-2.488-1.078
	C1405.127,888.506,1404.131,888.754,1403.469,889.584z"/>
<path opacity="0.07" fill="#24616D" enable-background="new    " d="M1414.493,889.584c-0.663,0.662-1.077,1.492-1.077,2.485
	c0,0.829,0.414,1.824,1.077,2.487s1.492,1.077,2.486,1.077c0.995,0.001,1.824-0.414,2.487-1.077s1.077-1.491,1.077-2.487
	c0-1.077-0.413-1.823-1.077-2.485c-0.663-0.663-1.492-1.078-2.487-1.079C1416.068,888.506,1415.24,888.754,1414.493,889.584z"/>
<path opacity="0.07" fill="#24616D" enable-background="new    " d="M1425.602,889.584c-0.663,0.661-1.078,1.492-1.078,2.486
	c0,0.828,0.415,1.823,1.078,2.486c0.663,0.664,1.491,1.077,2.486,1.078c0.995-0.001,1.824-0.414,2.487-1.077
	c0.664-0.664,1.077-1.493,1.077-2.487c0-1.077-0.414-1.824-1.077-2.487s-1.492-1.078-2.487-1.077
	C1426.927,888.506,1426.1,888.754,1425.602,889.584z"/>
<path opacity="0.07" fill="#24616D" enable-background="new    " d="M1436.46,889.583c-0.663,0.663-1.077,1.493-1.077,2.487
	c0,0.828,0.414,1.824,1.077,2.487s1.492,1.076,2.487,1.077c0.994-0.001,1.823-0.414,2.486-1.078
	c0.663-0.663,1.077-1.492,1.078-2.487c0-1.077-0.415-1.824-1.078-2.485c-0.663-0.664-1.492-1.078-2.486-1.078
	C1438.035,888.505,1437.206,888.754,1436.46,889.583z"/>
<path opacity="0.07" fill="#24616D" enable-background="new    " d="M1447.403,889.584c-0.664,0.662-1.078,1.492-1.077,2.485
	c-0.001,0.829,0.414,1.824,1.077,2.487s1.491,1.077,2.487,1.077c0.993,0.001,1.822-0.414,2.485-1.077s1.077-1.491,1.077-2.487
	c0-1.077-0.414-1.824-1.077-2.485c-0.663-0.664-1.492-1.078-2.485-1.079C1449.061,888.506,1448.065,888.754,1447.403,889.584z"/>
<path opacity="0.07" fill="#24616D" enable-background="new    " d="M1392.526,878.559c-0.663,0.663-1.078,1.492-1.078,2.486
	c0,0.83,0.415,1.824,1.079,2.322c0.662,0.662,1.49,1.077,2.485,1.077c0.995-0.001,1.824-0.415,2.487-1.077
	c0.663-0.665,1.076-1.493,1.077-2.322c-0.001-1.078-0.414-1.824-1.077-2.487s-1.492-1.078-2.487-1.077
	C1394.102,877.397,1393.272,877.812,1392.526,878.559z"/>
<path opacity="0.07" fill="#24616D" enable-background="new    " d="M1403.469,878.558c-0.663,0.664-1.078,1.493-1.078,2.487
	c0.001,0.83,0.415,1.824,1.078,2.322c0.662,0.662,1.491,1.076,2.486,1.077c0.996-0.001,1.824-0.416,2.487-1.078
	c0.662-0.663,1.078-1.492,1.077-2.321c0-1.077-0.415-1.823-1.077-2.487c-0.663-0.663-1.492-1.078-2.487-1.077
	C1405.127,877.397,1404.131,877.812,1403.469,878.558z"/>
<path opacity="0.07" fill="#24616D" enable-background="new    " d="M1414.493,878.559c-0.663,0.663-1.077,1.491-1.077,2.486
	c0,0.829,0.414,1.824,1.077,2.322c0.663,0.662,1.492,1.077,2.487,1.076c0.994,0,1.823-0.414,2.487-1.076
	c0.663-0.665,1.076-1.493,1.076-2.321c0-1.079-0.413-1.825-1.076-2.488c-0.664-0.663-1.492-1.078-2.488-1.078
	C1416.068,877.397,1415.24,877.812,1414.493,878.559z"/>
<path opacity="0.07" fill="#24616D" enable-background="new    " d="M1425.603,878.558c-0.664,0.664-1.079,1.493-1.079,2.487
	c0.001,0.829,0.415,1.824,1.078,2.322c0.663,0.662,1.491,1.076,2.486,1.077c0.995-0.001,1.824-0.416,2.487-1.077
	c0.663-0.665,1.077-1.493,1.077-2.322c0-1.078-0.414-1.824-1.077-2.487s-1.492-1.077-2.488-1.078
	C1426.927,877.397,1426.099,877.812,1425.603,878.558z"/>
<path opacity="0.07" fill="#24616D" enable-background="new    " d="M1359.7,867.617c-0.663,0.662-1.077,1.491-1.077,2.485
	c0,0.83,0.414,1.825,1.077,2.486c0.663,0.664,1.491,1.078,2.487,1.079c1.077-0.001,1.823-0.415,2.486-1.078
	c0.662-0.662,1.077-1.491,1.077-2.487c0.001-1.077-0.414-1.823-1.077-2.485c-0.663-0.664-1.492-1.078-2.486-1.079
	C1361.192,866.539,1360.197,866.787,1359.7,867.617z"/>
<path opacity="0.07" fill="#24616D" enable-background="new    " d="M1370.56,867.617c-0.663,0.661-1.078,1.49-1.078,2.485
	c0,0.83,0.415,1.825,1.077,2.487c0.663,0.664,1.492,1.077,2.487,1.078c1.077-0.001,1.824-0.415,2.487-1.078
	c0.662-0.662,1.077-1.492,1.077-2.487c0-1.077-0.415-1.823-1.077-2.485c-0.663-0.664-1.492-1.078-2.487-1.078
	C1372.135,866.539,1371.306,866.787,1370.56,867.617z"/>
<path opacity="0.07" fill="#24616D" enable-background="new    " d="M1381.667,867.616c-0.663,0.663-1.077,1.491-1.077,2.486
	c0,0.83,0.413,1.825,1.077,2.487c0.663,0.664,1.492,1.077,2.487,1.078c1.077,0,1.823-0.415,2.486-1.078
	c0.663-0.662,1.078-1.492,1.078-2.486c0-1.078-0.415-1.825-1.078-2.486c-0.663-0.664-1.491-1.079-2.486-1.078
	C1383.159,866.538,1382.164,866.786,1381.667,867.616z"/>
<path opacity="0.07" fill="#24616D" enable-background="new    " d="M1369.481,859.16c0,0.83,0.415,1.825,1.078,2.322
	c0.661,0.663,1.491,1.078,2.486,1.078c1.077,0,1.824-0.415,2.487-1.078c0.662-0.664,1.077-1.493,1.077-2.321
	c0-1.078-0.415-1.823-1.077-2.487c-0.662-0.662-1.492-1.078-2.487-1.078c-0.829,0-1.824,0.415-2.486,1.078
	C1369.896,857.255,1369.48,858.084,1369.481,859.16z"/>
<path opacity="0.07" fill="#24616D" enable-background="new    " d="M1380.507,859.161c0,0.829,0.414,1.823,1.077,2.32
	c0.664,0.664,1.492,1.078,2.486,1.079c1.08,0,1.824-0.415,2.487-1.078c0.664-0.664,1.078-1.492,1.077-2.321
	c0.001-1.077-0.412-1.823-1.077-2.487c-0.663-0.662-1.493-1.078-2.487-1.078c-0.828,0-1.822,0.415-2.486,1.077
	C1380.921,857.254,1380.507,858.084,1380.507,859.161z"/>
<path opacity="0.07" fill="#24616D" enable-background="new    " d="M1392.527,867.617c-0.664,0.662-1.079,1.491-1.079,2.485
	c0,0.829,0.415,1.824,1.078,2.487s1.491,1.077,2.486,1.078c0.995,0,1.824-0.415,2.487-1.079c0.663-0.661,1.077-1.49,1.077-2.486
	c-0.001-1.077-0.414-1.824-1.077-2.485c-0.663-0.664-1.492-1.078-2.487-1.079C1394.102,866.538,1393.272,866.787,1392.527,867.617z"
	/>
<path opacity="0.07" fill="#24616D" enable-background="new    " d="M1403.469,867.617c-0.663,0.662-1.077,1.49-1.078,2.485
	c0.001,0.829,0.416,1.825,1.078,2.486c0.662,0.664,1.491,1.079,2.486,1.078c0.996,0.001,1.824-0.414,2.487-1.078
	c0.662-0.662,1.077-1.49,1.077-2.486c0-1.078-0.415-1.823-1.077-2.485c-0.663-0.664-1.492-1.078-2.487-1.079
	C1405.126,866.539,1404.131,866.787,1403.469,867.617z"/>
<path opacity="0.07" fill="#24616D" enable-background="new    " d="M1414.493,867.617c-0.663,0.661-1.077,1.49-1.077,2.485
	c0,0.83,0.414,1.825,1.077,2.487c0.663,0.664,1.493,1.078,2.487,1.078s1.823-0.414,2.486-1.078c0.664-0.662,1.077-1.492,1.078-2.487
	c-0.001-1.077-0.414-1.824-1.078-2.486c-0.663-0.664-1.492-1.078-2.486-1.078C1416.068,866.538,1415.239,866.786,1414.493,867.617z"
	/>
<path opacity="0.07" fill="#24616D" enable-background="new    " d="M1436.46,867.617c-0.663,0.661-1.076,1.49-1.077,2.485
	c0,0.829,0.414,1.825,1.077,2.486c0.663,0.664,1.492,1.078,2.487,1.079c0.994,0,1.823-0.415,2.486-1.078s1.078-1.492,1.077-2.487
	c0.001-1.077-0.414-1.823-1.077-2.486s-1.492-1.078-2.486-1.078C1438.036,866.538,1437.207,866.786,1436.46,867.617z"/>
<path opacity="0.07" fill="#24616D" enable-background="new    " d="M1452.376,856.673c-0.663-0.661-1.492-1.077-2.486-1.077
	c-0.829,0-1.823,0.415-2.487,1.078c-0.663,0.664-1.077,1.492-1.077,2.486c0,0.829,0.414,1.825,1.078,2.321
	c0.663,0.663,1.491,1.079,2.487,1.079c0.993-0.001,1.822-0.416,2.485-1.079s1.077-1.491,1.077-2.321
	C1453.453,858.083,1453.205,857.254,1452.376,856.673z"/>
<path opacity="0.07" fill="#24616D" enable-background="new    " d="M1391.448,859.16c0,0.829,0.415,1.824,1.079,2.322
	c0.662,0.663,1.49,1.078,2.485,1.077c0.995,0.001,1.824-0.414,2.487-1.077s1.076-1.492,1.077-2.321c0-1.078-0.414-1.823-1.077-2.487
	c-0.663-0.662-1.492-1.078-2.487-1.078c-0.828,0-1.823,0.415-2.485,1.078C1391.863,857.254,1391.448,858.084,1391.448,859.16z"/>
<path opacity="0.07" fill="#24616D" enable-background="new    " d="M956.391,917.956c-0.663,0.663-1.077,1.491-1.077,2.487
	c0,0.828,0.415,1.823,1.077,2.487c0.663,0.661,1.492,1.076,2.487,1.076c0.994,0,1.823-0.415,2.486-1.076
	c0.663-0.664,1.079-1.493,1.079-2.487c0-1.079-0.415-1.824-1.079-2.487c-0.663-0.663-1.492-1.078-2.485-1.077
	C958.049,916.795,957.054,917.127,956.391,917.956z"/>
<path opacity="0.07" fill="#24616D" enable-background="new    " d="M956.391,907.014c-0.663,0.662-1.077,1.493-1.077,2.487
	c0,0.828,0.414,1.823,1.077,2.486c0.663,0.664,1.492,1.077,2.487,1.077c0.994,0,1.823-0.413,2.487-1.077
	c0.662-0.663,1.078-1.492,1.078-2.486c0-1.077-0.415-1.825-1.079-2.487c-0.663-0.663-1.492-1.078-2.485-1.077
	C958.049,905.936,957.054,906.185,956.391,907.014z"/>
<path opacity="0.07" fill="#24616D" enable-background="new    " d="M945.448,907.015c-0.663,0.661-1.077,1.492-1.077,2.485
	c0,0.829,0.414,1.824,1.077,2.487c0.663,0.664,1.493,1.077,2.487,1.077c0.996,0,1.823-0.413,2.486-1.076
	c0.664-0.664,1.079-1.493,1.078-2.488c0-1.077-0.415-1.823-1.078-2.486c-0.662-0.663-1.49-1.078-2.486-1.078
	C947.024,905.937,946.196,906.185,945.448,907.015z"/>
<path opacity="0.07" fill="#24616D" enable-background="new    " d="M1436.46,878.558c-0.663,0.663-1.076,1.492-1.077,2.487
	c0.001,0.829,0.414,1.823,1.077,2.322c0.663,0.661,1.492,1.076,2.487,1.076c0.994,0,1.824-0.414,2.486-1.077
	c0.663-0.663,1.078-1.492,1.077-2.321c0.001-1.078-0.414-1.823-1.077-2.487c-0.663-0.663-1.492-1.078-2.485-1.078
	C1438.035,877.398,1437.206,877.812,1436.46,878.558z"/>
<path opacity="0.07" fill="#24616D" enable-background="new    " d="M1447.402,878.558c-0.663,0.663-1.076,1.492-1.077,2.487
	c0.001,0.829,0.414,1.823,1.077,2.322c0.664,0.662,1.492,1.076,2.487,1.077c0.994,0,1.823-0.415,2.486-1.078
	c0.664-0.664,1.077-1.492,1.077-2.321c0-1.078-0.414-1.823-1.077-2.486c-0.663-0.664-1.493-1.079-2.485-1.079
	C1449.061,877.397,1448.066,877.812,1447.402,878.558z"/>
<path opacity="0.07" fill="#24616D" enable-background="new    " d="M945.449,895.988c-0.664,0.664-1.078,1.492-1.077,2.487
	c-0.001,0.829,0.413,1.824,1.077,2.322c0.662,0.662,1.491,1.077,2.487,1.076c0.995,0,1.822-0.415,2.485-1.076
	c0.663-0.665,1.078-1.493,1.079-2.322c-0.001-1.078-0.416-1.824-1.079-2.487s-1.49-1.078-2.486-1.078
	C947.024,894.828,946.196,895.243,945.449,895.988z"/>
<path opacity="0.07" fill="#24616D" enable-background="new    " d="M1425.602,867.616c-0.663,0.663-1.077,1.491-1.078,2.486
	c0,0.829,0.415,1.824,1.078,2.487s1.49,1.077,2.486,1.078c0.995-0.001,1.824-0.415,2.487-1.079c0.663-0.661,1.077-1.491,1.077-2.486
	c0-1.078-0.414-1.824-1.077-2.485c-0.663-0.664-1.492-1.078-2.487-1.079C1426.927,866.538,1426.099,866.786,1425.602,867.616z"/>
<path opacity="0.07" fill="#24616D" enable-background="new    " d="M1402.391,859.16c0,0.829,0.415,1.824,1.078,2.322
	c0.662,0.663,1.491,1.078,2.487,1.078c0.994,0,1.823-0.415,2.486-1.078c0.662-0.664,1.077-1.493,1.077-2.322
	c0-1.076-0.415-1.823-1.077-2.486c-0.663-0.663-1.491-1.078-2.487-1.078c-0.828,0-1.824,0.415-2.486,1.078
	C1402.888,857.255,1402.391,858.084,1402.391,859.16z"/>
<path opacity="0.07" fill="#24616D" enable-background="new    " d="M1359.7,922.492c-0.663,0.664-1.077,1.492-1.077,2.487
	c0,0.829,0.414,1.823,1.076,2.487c0.664,0.662,1.493,1.077,2.487,1.076c1.077,0.001,1.824-0.414,2.487-1.076
	c0.662-0.664,1.077-1.493,1.077-2.487c0-1.077-0.414-1.823-1.077-2.486c-0.663-0.664-1.492-1.079-2.486-1.078
	C1361.192,921.332,1360.196,921.746,1359.7,922.492z"/>
<path opacity="0.07" fill="#24616D" enable-background="new    " d="M1359.7,911.385c-0.663,0.663-1.078,1.492-1.077,2.485
	c0,0.83,0.414,1.824,1.077,2.487s1.491,1.079,2.487,1.079c1.077,0,1.823-0.416,2.486-1.079c0.662-0.663,1.077-1.491,1.077-2.487
	c0-1.076-0.414-1.822-1.077-2.485s-1.492-1.078-2.486-1.079C1361.192,910.307,1360.197,910.722,1359.7,911.385z"/>
<path opacity="0.07" fill="#24616D" enable-background="new    " d="M1348.592,889.584c-0.664,0.662-1.077,1.492-1.076,2.486
	c-0.001,0.829,0.413,1.823,1.076,2.486c0.663,0.664,1.492,1.078,2.487,1.077c1.077,0,1.823-0.413,2.486-1.076
	s1.078-1.492,1.078-2.488c-0.001-1.076-0.415-1.823-1.079-2.485c-0.662-0.663-1.49-1.078-2.485-1.078
	C1350.167,888.506,1349.339,888.755,1348.592,889.584z"/>
<path opacity="0.07" fill="#24616D" enable-background="new    " d="M944.371,876.592c0,0.828,0.414,1.823,1.077,2.32
	c0.663,0.664,1.493,1.079,2.487,1.079c0.996,0,1.823-0.415,2.487-1.079c0.663-0.663,1.077-1.491,1.078-2.32
	c0-1.078-0.416-1.823-1.079-2.487c-0.663-0.662-1.49-1.078-2.485-1.078c-0.829,0-1.825,0.415-2.488,1.077
	C944.785,874.685,944.372,875.514,944.371,876.592z"/>
<path opacity="0.07" fill="#24616D" enable-background="new    " d="M1381.667,845.649c-0.663,0.663-1.077,1.492-1.077,2.487
	c0,0.827,0.414,1.824,1.077,2.485c0.663,0.664,1.492,1.078,2.487,1.079c1.077,0,1.824-0.415,2.486-1.078
	c0.663-0.663,1.078-1.492,1.078-2.486c0-1.079-0.415-1.824-1.078-2.487s-1.49-1.077-2.486-1.077S1382.164,844.82,1381.667,845.649z"
	/>
<path opacity="0.07" fill="#24616D" enable-background="new    " d="M1392.526,845.649c-0.663,0.662-1.078,1.492-1.078,2.486
	c0,0.828,0.415,1.825,1.078,2.486c0.663,0.664,1.491,1.079,2.486,1.078c0.995,0.001,1.824-0.414,2.487-1.077
	s1.077-1.493,1.077-2.486c0-1.078-0.414-1.824-1.078-2.487c-0.662-0.663-1.491-1.077-2.486-1.078
	C1394.102,844.572,1393.272,844.819,1392.526,845.649z"/>
<path opacity="0.07" fill="#24616D" enable-background="new    " d="M1337.567,889.584c-0.663,0.662-1.077,1.492-1.077,2.486
	c0,0.828,0.414,1.824,1.077,2.487s1.492,1.076,2.485,1.077c1.079,0,1.825-0.414,2.488-1.077c0.663-0.664,1.077-1.492,1.076-2.487
	c0.001-1.077-0.413-1.824-1.076-2.486c-0.663-0.663-1.492-1.078-2.488-1.078C1339.226,888.506,1338.23,888.754,1337.567,889.584z"/>
<path opacity="0.07" fill="#24616D" enable-background="new    " d="M1348.592,867.617c-0.663,0.662-1.077,1.49-1.077,2.486
	c0,0.829,0.413,1.824,1.077,2.486c0.663,0.664,1.492,1.077,2.487,1.078c1.077,0,1.823-0.414,2.485-1.078
	c0.664-0.662,1.079-1.492,1.079-2.486c0-1.078-0.415-1.825-1.078-2.486c-0.663-0.664-1.491-1.079-2.486-1.078
	C1350.167,866.538,1349.339,866.786,1348.592,867.617z"/>
<path opacity="0.07" fill="#24616D" enable-background="new    " d="M1359.699,845.649c-0.662,0.663-1.076,1.492-1.076,2.487
	c0,0.827,0.414,1.824,1.077,2.486c0.663,0.663,1.492,1.078,2.487,1.077c1.076,0.001,1.823-0.414,2.486-1.077
	c0.663-0.662,1.077-1.493,1.078-2.486c-0.001-1.078-0.415-1.825-1.078-2.487c-0.662-0.663-1.492-1.077-2.487-1.077
	C1361.192,844.572,1360.197,844.819,1359.699,845.649z"/>
<path opacity="0.07" fill="#24616D" enable-background="new    " d="M1359.7,834.706c-0.663,0.665-1.077,1.493-1.078,2.488
	c0.001,0.829,0.415,1.823,1.078,2.32c0.663,0.663,1.492,1.078,2.487,1.079c1.077,0,1.823-0.416,2.486-1.079s1.078-1.492,1.078-2.32
	c0-1.077-0.415-1.823-1.078-2.487c-0.663-0.662-1.492-1.077-2.486-1.077C1361.192,833.63,1360.197,833.879,1359.7,834.706z"/>
<path opacity="0.07" fill="#24616D" enable-background="new    " d="M1326.625,878.559c-0.664,0.663-1.077,1.492-1.077,2.486
	c0,0.83,0.413,1.824,1.077,2.322c0.663,0.662,1.491,1.077,2.487,1.076c1.077,0.001,1.823-0.414,2.486-1.076
	c0.663-0.664,1.077-1.492,1.077-2.322c0-1.077-0.414-1.823-1.076-2.486c-0.664-0.664-1.494-1.079-2.487-1.078
	C1328.2,877.398,1327.371,877.812,1326.625,878.559z"/>
<path opacity="0.07" fill="#24616D" enable-background="new    " d="M1370.559,834.707c-0.662,0.663-1.077,1.491-1.077,2.487
	c0,0.828,0.415,1.823,1.078,2.32c0.662,0.664,1.491,1.078,2.486,1.079c1.077,0,1.824-0.416,2.487-1.079
	c0.662-0.663,1.077-1.491,1.077-2.321c0-1.077-0.415-1.822-1.077-2.486c-0.663-0.662-1.492-1.077-2.486-1.077
	C1372.135,833.63,1371.306,833.879,1370.559,834.707z"/>
<path opacity="0.07" fill="#24616D" enable-background="new    " d="M1359.7,823.683c-0.663,0.663-1.077,1.491-1.077,2.487
	c0,0.828,0.414,1.823,1.077,2.486c0.663,0.662,1.491,1.078,2.487,1.078c1.077,0,1.823-0.416,2.486-1.079
	c0.663-0.662,1.077-1.491,1.077-2.485c0-1.079-0.414-1.824-1.077-2.487s-1.492-1.077-2.486-1.077
	C1361.191,822.605,1360.197,823.02,1359.7,823.683z"/>
<path opacity="0.07" fill="#24616D" enable-background="new    " d="M1337.567,867.617c-0.663,0.662-1.077,1.491-1.077,2.485
	c0,0.83,0.414,1.825,1.078,2.487c0.662,0.663,1.491,1.078,2.484,1.077c1.079,0,1.825-0.413,2.488-1.077
	c0.663-0.662,1.077-1.491,1.077-2.487c0-1.077-0.414-1.823-1.077-2.485c-0.663-0.664-1.492-1.079-2.487-1.078
	C1339.226,866.539,1338.23,866.787,1337.567,867.617z"/>
<path opacity="0.07" fill="#24616D" enable-background="new    " d="M1280.72,621.31c-0.664-0.663-1.491-1.077-2.487-1.077
	c-0.828,0-1.823,0.414-2.487,1.077c-0.661,0.663-1.077,1.491-1.077,2.487c0,1.077,0.416,1.823,1.077,2.486
	c0.664,0.663,1.492,1.078,2.487,1.077c1.077,0,1.824-0.414,2.487-1.077s1.077-1.492,1.077-2.486
	C1281.797,622.801,1281.382,621.807,1280.72,621.31z"/>
<path opacity="0.07" fill="#24616D" enable-background="new    " d="M1324.487,621.31c-0.663-0.663-1.491-1.077-2.487-1.077
	c-1.077,0-1.823,0.414-2.486,1.077c-0.662,0.663-1.077,1.492-1.077,2.487c0,1.077,0.415,1.823,1.077,2.486
	c0.663,0.663,1.493,1.078,2.487,1.078c0.995-0.001,1.823-0.415,2.486-1.078s1.078-1.492,1.077-2.486
	C1325.648,622.802,1325.316,621.807,1324.487,621.31z"/>
<path opacity="0.07" fill="#24616D" enable-background="new    " d="M1324.487,632.169c-0.663-0.663-1.491-1.078-2.486-1.077
	c-1.077-0.001-1.824,0.414-2.486,1.077c-0.664,0.662-1.078,1.492-1.078,2.486c0,1.077,0.414,1.824,1.077,2.487
	c0.664,0.662,1.492,1.078,2.486,1.077c0.996,0,1.824-0.414,2.488-1.077c0.663-0.662,1.076-1.492,1.076-2.487
	C1325.649,633.744,1325.317,632.915,1324.487,632.169z"/>
<path opacity="0.07" fill="#24616D" enable-background="new    " d="M1335.596,621.309c-0.663-0.662-1.492-1.076-2.486-1.076
	c-1.077,0-1.825,0.414-2.487,1.077c-0.663,0.663-1.078,1.492-1.077,2.487c0,1.077,0.414,1.823,1.077,2.486
	c0.662,0.663,1.491,1.077,2.487,1.077c0.994,0,1.823-0.414,2.486-1.077c0.664-0.663,1.077-1.492,1.078-2.486
	C1336.673,622.802,1336.259,621.807,1335.596,621.309z"/>
<path opacity="0.07" fill="#24616D" enable-background="new    " d="M1335.597,632.169c-0.664-0.663-1.493-1.078-2.488-1.077
	c-1.077-0.001-1.823,0.414-2.486,1.077c-0.662,0.662-1.078,1.491-1.078,2.487c0.001,1.076,0.415,1.823,1.079,2.486
	c0.661,0.662,1.49,1.077,2.485,1.078c0.995-0.001,1.824-0.416,2.487-1.078c0.664-0.663,1.077-1.492,1.077-2.486
	C1336.673,633.744,1336.26,632.915,1335.597,632.169z"/>
<path opacity="0.07" fill="#24616D" enable-background="new    " d="M1346.454,654.137c-0.663-0.664-1.492-1.08-2.485-1.079
	c-1.079,0-1.825,0.415-2.488,1.078s-1.077,1.491-1.076,2.486c-0.001,0.995,0.413,1.824,1.077,2.487
	c0.663,0.663,1.491,1.077,2.486,1.077c0.994,0,1.824-0.414,2.486-1.077c0.663-0.662,1.078-1.492,1.079-2.487
	C1347.616,655.711,1347.283,654.882,1346.454,654.137z"/>
<path opacity="0.07" fill="#24616D" enable-background="new    " d="M1335.596,654.136c-0.663-0.663-1.492-1.078-2.486-1.078
	c-1.077,0-1.825,0.415-2.486,1.078c-0.663,0.663-1.079,1.491-1.078,2.486c-0.001,0.995,0.414,1.825,1.077,2.487
	c0.663,0.663,1.491,1.077,2.487,1.077c0.994,0,1.824-0.414,2.487-1.077c0.663-0.662,1.076-1.492,1.077-2.487
	C1336.673,655.712,1336.26,654.882,1335.596,654.136z"/>
<path opacity="0.07" fill="#24616D" enable-background="new    " d="M1355.075,653.058c-1.077,0-1.822,0.415-2.486,1.079
	c-0.662,0.663-1.077,1.49-1.078,2.485c0,0.995,0.416,1.825,1.078,2.487c0.663,0.663,1.41,1.077,2.486,1.077
	c0.996,0,1.824-0.414,2.487-1.077s1.078-1.492,1.077-2.487c0.001-0.829-0.414-1.823-1.076-2.486
	C1356.817,653.473,1355.988,653.058,1355.075,653.058z"/>
<path opacity="0.07" fill="#24616D" enable-background="new    " d="M1346.454,665.078c-0.663-0.663-1.492-1.077-2.485-1.078
	c-1.079,0-1.824,0.416-2.487,1.078c-0.664,0.663-1.078,1.491-1.077,2.486c-0.001,0.995,0.413,1.824,1.077,2.487
	c0.662,0.662,1.491,1.077,2.487,1.077c0.994,0,1.823-0.415,2.485-1.077c0.663-0.663,1.078-1.492,1.079-2.487
	C1347.616,666.736,1347.284,665.741,1346.454,665.078z"/>
<path opacity="0.07" fill="#24616D" enable-background="new    " d="M1335.596,643.276c-0.663-0.663-1.491-1.077-2.487-1.077
	c-1.077,0-1.824,0.414-2.485,1.077c-0.663,0.663-1.078,1.492-1.079,2.487c0,1.077,0.416,1.823,1.079,2.486
	c0.662,0.663,1.491,1.078,2.485,1.078c0.996,0,1.824-0.414,2.488-1.078c0.663-0.662,1.076-1.49,1.076-2.486
	C1336.674,644.769,1336.259,643.773,1335.596,643.276z"/>
<path opacity="0.07" fill="#24616D" enable-background="new    " d="M1368.421,643.276c-0.661-0.663-1.491-1.077-2.485-1.077
	c-1.079,0-1.825,0.414-2.487,1.077c-0.663,0.663-1.078,1.492-1.077,2.487c0,1.077,0.414,1.823,1.077,2.486
	c0.662,0.662,1.491,1.078,2.487,1.078c0.994,0,1.823-0.415,2.486-1.078c0.663-0.662,1.077-1.491,1.078-2.486
	C1369.582,644.769,1369.168,643.773,1368.421,643.276z"/>
<path opacity="0.07" fill="#24616D" enable-background="new    " d="M1355.076,642.116c-1.077,0-1.824,0.414-2.487,1.077
	c-0.662,0.664-1.077,1.492-1.077,2.486c0,1.08,0.415,1.825,1.077,2.488c0.663,0.664,1.41,1.077,2.487,1.077
	c0.995,0,1.824-0.414,2.486-1.077c0.663-0.664,1.077-1.493,1.078-2.488c-0.001-0.828-0.415-1.822-1.077-2.486
	C1356.817,642.53,1355.987,642.116,1355.076,642.116z"/>
<path opacity="0.07" fill="#24616D" enable-background="new    " d="M1357.396,698.069c-0.663-0.663-1.491-1.077-2.487-1.077
	c-1.077,0-1.822,0.414-2.485,1.077s-1.077,1.492-1.077,2.487c0,0.994,0.414,1.823,1.077,2.486s1.492,1.078,2.485,1.077
	c0.996,0,1.825-0.413,2.488-1.076s1.076-1.493,1.076-2.487C1358.475,699.645,1358.226,698.816,1357.396,698.069z"/>
<path opacity="0.07" fill="#24616D" enable-background="new    " d="M1357.397,709.013c-0.664-0.664-1.492-1.078-2.488-1.078
	c-1.077,0-1.822,0.414-2.485,1.077c-0.664,0.664-1.077,1.493-1.077,2.487s0.414,1.823,1.077,2.487
	c0.663,0.662,1.492,1.076,2.486,1.077c0.994-0.001,1.824-0.415,2.487-1.078c0.663-0.662,1.076-1.492,1.076-2.486
	C1358.474,710.67,1358.227,709.676,1357.397,709.013z"/>
<path opacity="0.07" fill="#24616D" enable-background="new    " d="M1368.421,687.211c-0.661-0.663-1.49-1.078-2.485-1.077
	c-1.078-0.001-1.825,0.414-2.487,1.077c-0.663,0.663-1.077,1.491-1.078,2.487c0,0.994,0.415,1.823,1.078,2.486
	s1.492,1.077,2.487,1.077s1.823-0.414,2.486-1.077c0.663-0.662,1.078-1.492,1.077-2.487
	C1369.583,688.537,1369.168,687.708,1368.421,687.211z"/>
<path opacity="0.07" fill="#24616D" enable-background="new    " d="M1368.422,698.069c-0.663-0.663-1.491-1.077-2.486-1.076
	c-1.078-0.001-1.824,0.413-2.487,1.077c-0.663,0.663-1.077,1.491-1.077,2.486c0,0.994,0.414,1.824,1.077,2.487
	c0.662,0.662,1.492,1.076,2.487,1.077c0.995-0.001,1.824-0.414,2.485-1.077c0.664-0.664,1.079-1.493,1.078-2.487
	C1369.583,699.645,1369.168,698.816,1368.422,698.069z"/>
<path opacity="0.07" fill="#24616D" enable-background="new    " d="M1379.364,687.212c-0.664-0.664-1.493-1.079-2.486-1.079
	c-1.078,0-1.825,0.415-2.488,1.078c-0.662,0.663-1.077,1.492-1.076,2.486c-0.001,0.995,0.414,1.824,1.077,2.487
	s1.492,1.077,2.487,1.077c0.994,0,1.823-0.414,2.486-1.077c0.662-0.663,1.076-1.492,1.077-2.487
	C1380.441,688.536,1380.193,687.708,1379.364,687.212z"/>
<path opacity="0.07" fill="#24616D" enable-background="new    " d="M1379.364,698.069c-0.663-0.663-1.492-1.076-2.486-1.077
	c-1.078,0-1.824,0.415-2.487,1.077c-0.663,0.664-1.078,1.493-1.077,2.487c0,0.994,0.414,1.824,1.076,2.487
	c0.663,0.662,1.492,1.076,2.488,1.077c0.994,0,1.822-0.415,2.486-1.078c0.663-0.663,1.077-1.492,1.077-2.486
	C1380.44,699.645,1380.192,698.815,1379.364,698.069z"/>
<path opacity="0.07" fill="#24616D" enable-background="new    " d="M1379.364,709.012c-0.663-0.663-1.492-1.076-2.486-1.076
	c-1.078-0.001-1.824,0.413-2.488,1.077c-0.662,0.663-1.077,1.491-1.076,2.486c0,0.994,0.414,1.824,1.076,2.486
	c0.663,0.663,1.493,1.078,2.488,1.078c0.994,0,1.822-0.415,2.485-1.077c0.664-0.664,1.078-1.492,1.078-2.487
	C1380.441,710.671,1380.193,709.676,1379.364,709.012z"/>
<path opacity="0.07" fill="#24616D" enable-background="new    " d="M1401.331,698.07c-0.664-0.663-1.491-1.078-2.487-1.078
	c-1.076,0.001-1.823,0.414-2.487,1.077c-0.661,0.663-1.076,1.493-1.077,2.487c0,0.995,0.416,1.823,1.078,2.487
	c0.663,0.663,1.491,1.077,2.486,1.076c0.996,0,1.824-0.413,2.487-1.076c0.663-0.664,1.077-1.493,1.077-2.487
	C1402.409,699.645,1402.16,698.815,1401.331,698.07z"/>
<path opacity="0.07" fill="#24616D" enable-background="new    " d="M1401.331,709.013c-0.664-0.664-1.491-1.078-2.487-1.078
	c-1.076,0.001-1.823,0.415-2.486,1.078c-0.662,0.662-1.077,1.491-1.077,2.487c-0.001,0.993,0.415,1.822,1.077,2.486
	c0.663,0.662,1.491,1.076,2.487,1.077c0.994,0,1.823-0.415,2.486-1.077c0.662-0.663,1.077-1.492,1.077-2.487
	C1402.409,710.67,1402.16,709.675,1401.331,709.013z"/>
<path opacity="0.07" fill="#24616D" enable-background="new    " d="M1401.331,720.036c-0.663-0.663-1.491-1.076-2.487-1.076
	c-1.076-0.001-1.823,0.413-2.486,1.076c-0.662,0.664-1.077,1.493-1.077,2.487c0,0.996,0.415,1.824,1.076,2.486
	c0.664,0.664,1.492,1.078,2.488,1.078c0.995,0.001,1.823-0.414,2.486-1.078c0.663-0.662,1.078-1.49,1.078-2.486
	C1402.408,721.613,1402.16,720.784,1401.331,720.036z"/>
<path opacity="0.07" fill="#24616D" enable-background="new    " d="M1412.356,709.012c-0.663-0.663-1.492-1.076-2.487-1.077
	c-1.077,0-1.823,0.414-2.486,1.078c-0.663,0.663-1.079,1.491-1.078,2.486c0,0.995,0.415,1.824,1.078,2.487
	c0.663,0.662,1.492,1.076,2.485,1.077c0.996-0.001,1.824-0.415,2.487-1.077c0.664-0.664,1.078-1.493,1.078-2.487
	C1413.352,710.67,1413.103,709.675,1412.356,709.012z"/>
<path opacity="0.07" fill="#24616D" enable-background="new    " d="M1412.355,687.211c-0.663-0.663-1.492-1.078-2.486-1.078
	c-1.077,0-1.823,0.415-2.486,1.078s-1.079,1.492-1.078,2.486c-0.001,0.995,0.415,1.824,1.078,2.487s1.492,1.077,2.486,1.077
	s1.823-0.413,2.487-1.076c0.663-0.663,1.076-1.493,1.077-2.488C1413.352,688.537,1413.103,687.709,1412.355,687.211z"/>
<path opacity="0.07" fill="#24616D" enable-background="new    " d="M1352.424,687.212c-0.663,0.663-1.077,1.49-1.077,2.485
	s0.414,1.824,1.077,2.487s1.492,1.077,2.485,1.077c0.996,0,1.824-0.414,2.487-1.077s1.078-1.492,1.077-2.487
	c0.001-0.829-0.413-1.823-1.076-2.486s-1.492-1.078-2.488-1.078C1353.915,686.133,1353.253,686.383,1352.424,687.212z"/>
<path opacity="0.07" fill="#24616D" enable-background="new    " d="M1346.454,709.012c-0.662-0.663-1.492-1.076-2.485-1.077
	c-1.079,0-1.824,0.414-2.487,1.077c-0.664,0.664-1.077,1.493-1.077,2.487s0.413,1.823,1.076,2.487
	c0.663,0.662,1.493,1.076,2.487,1.076s1.824-0.414,2.487-1.076c0.663-0.663,1.078-1.493,1.078-2.487
	C1347.616,710.671,1347.284,709.676,1346.454,709.012z"/>
<path opacity="0.07" fill="#24616D" enable-background="new    " d="M1368.422,709.012c-0.663-0.663-1.491-1.077-2.486-1.076
	c-1.078-0.001-1.824,0.413-2.487,1.077c-0.663,0.663-1.077,1.491-1.077,2.487c-0.001,0.994,0.414,1.823,1.077,2.486
	c0.662,0.662,1.491,1.076,2.487,1.076c0.995,0,1.824-0.414,2.485-1.077c0.664-0.663,1.078-1.492,1.079-2.485
	C1369.583,710.67,1369.169,709.675,1368.422,709.012z"/>
<path opacity="0.07" fill="#24616D" enable-background="new    " d="M1412.355,720.036c-0.663-0.663-1.491-1.077-2.486-1.076
	c-1.077,0-1.823,0.413-2.486,1.076s-1.078,1.492-1.078,2.488c0,0.994,0.415,1.822,1.078,2.485s1.492,1.079,2.486,1.079
	c0.995-0.001,1.824-0.416,2.487-1.079c0.663-0.662,1.077-1.491,1.077-2.485C1413.352,721.612,1413.103,720.784,1412.355,720.036z"/>
<path opacity="0.07" fill="#24616D" enable-background="new    " d="M1401.331,730.979c-0.663-0.663-1.491-1.076-2.487-1.076
	c-1.076-0.001-1.823,0.413-2.487,1.077c-0.661,0.663-1.076,1.492-1.076,2.486s0.415,1.823,1.076,2.486
	c0.664,0.664,1.493,1.079,2.488,1.078c0.994,0,1.823-0.414,2.486-1.077c0.663-0.664,1.078-1.493,1.078-2.487
	C1402.409,732.637,1402.16,731.643,1401.331,730.979z"/>
<path opacity="0.07" fill="#24616D" enable-background="new    " d="M1423.299,709.012c-0.663-0.663-1.492-1.076-2.487-1.077
	c-1.077,0-1.823,0.414-2.487,1.078c-0.662,0.663-1.077,1.492-1.077,2.486c0,0.995,0.415,1.824,1.077,2.487
	c0.663,0.662,1.492,1.076,2.487,1.077c0.995,0,1.823-0.415,2.486-1.077c0.663-0.663,1.078-1.492,1.078-2.487
	C1424.376,710.671,1423.961,709.676,1423.299,709.012z"/>
<path opacity="0.07" fill="#24616D" enable-background="new    " d="M1346.454,698.069c-0.662-0.663-1.491-1.077-2.485-1.077
	c-1.079,0-1.824,0.414-2.487,1.077c-0.664,0.664-1.078,1.492-1.077,2.487c0,0.994,0.414,1.823,1.077,2.486s1.492,1.078,2.486,1.078
	s1.824-0.415,2.486-1.078c0.663-0.663,1.079-1.492,1.079-2.486C1347.615,699.645,1347.284,698.816,1346.454,698.069z"/>
<path opacity="0.07" fill="#24616D" enable-background="new    " d="M1390.39,698.069c-0.663-0.663-1.492-1.077-2.488-1.077
	c-1.077,0-1.824,0.415-2.485,1.077c-0.663,0.663-1.078,1.492-1.079,2.487c0,0.994,0.416,1.823,1.079,2.486
	c0.662,0.664,1.491,1.078,2.485,1.077c0.995,0.001,1.825-0.414,2.487-1.077c0.663-0.663,1.077-1.491,1.077-2.486
	C1391.55,699.645,1391.136,698.816,1390.39,698.069z"/>
<path opacity="0.07" fill="#24616D" enable-background="new    " d="M1390.389,709.012c-0.662-0.663-1.492-1.076-2.487-1.077
	c-1.076,0.001-1.824,0.414-2.485,1.077c-0.663,0.663-1.079,1.493-1.078,2.488c-0.001,0.994,0.414,1.823,1.077,2.486
	c0.663,0.662,1.492,1.077,2.487,1.076c0.994,0,1.824-0.414,2.487-1.076c0.663-0.663,1.076-1.493,1.077-2.487
	C1391.549,710.671,1391.136,709.676,1390.389,709.012z"/>
<path opacity="0.07" fill="#24616D" enable-background="new    " d="M1412.356,698.069c-0.664-0.663-1.493-1.077-2.487-1.077
	c-1.077,0-1.823,0.414-2.486,1.078c-0.663,0.663-1.079,1.492-1.078,2.486c0,0.994,0.415,1.824,1.078,2.487
	c0.662,0.663,1.492,1.076,2.486,1.076c0.995,0.001,1.823-0.413,2.486-1.076c0.664-0.664,1.078-1.492,1.078-2.487
	C1413.352,699.645,1413.103,698.815,1412.356,698.069z"/>
<path opacity="0.07" fill="#24616D" enable-background="new    " d="M1423.299,698.069c-0.663-0.663-1.492-1.076-2.487-1.077
	c-1.077,0-1.823,0.415-2.486,1.077c-0.663,0.664-1.079,1.492-1.078,2.487c0,0.995,0.415,1.824,1.077,2.487
	c0.663,0.663,1.492,1.077,2.487,1.076c0.995,0.001,1.823-0.413,2.487-1.077c0.662-0.662,1.077-1.491,1.077-2.486
	C1424.375,699.645,1423.961,698.816,1423.299,698.069z"/>
<path opacity="0.07" fill="#24616D" enable-background="new    " d="M1357.397,720.036c-0.663-0.663-1.492-1.076-2.488-1.076
	c-1.077,0-1.822,0.414-2.485,1.077s-1.077,1.491-1.077,2.487c0,0.994,0.414,1.823,1.077,2.485c0.663,0.663,1.492,1.078,2.486,1.078
	c0.995,0.001,1.823-0.415,2.486-1.078c0.664-0.663,1.078-1.49,1.077-2.485C1358.474,721.613,1358.227,720.783,1357.397,720.036z"/>
<path opacity="0.07" fill="#24616D" enable-background="new    " d="M1346.454,720.037c-0.662-0.663-1.492-1.078-2.485-1.077
	c-1.079,0-1.824,0.414-2.487,1.077s-1.077,1.491-1.077,2.487c0,0.994,0.414,1.823,1.077,2.485c0.663,0.663,1.492,1.078,2.486,1.078
	s1.824-0.415,2.486-1.078c0.663-0.662,1.079-1.491,1.078-2.486C1347.616,721.612,1347.284,720.783,1346.454,720.037z"/>
<path opacity="0.07" fill="#24616D" enable-background="new    " d="M1390.39,720.037c-0.663-0.663-1.493-1.078-2.488-1.077
	c-1.077,0-1.823,0.413-2.485,1.077c-0.663,0.663-1.078,1.492-1.078,2.486c0,0.996,0.415,1.824,1.078,2.486
	c0.661,0.663,1.491,1.078,2.486,1.078c0.994,0,1.824-0.415,2.486-1.078c0.663-0.662,1.077-1.491,1.078-2.486
	C1391.549,721.613,1391.136,720.783,1390.39,720.037z"/>
<path opacity="0.07" fill="#24616D" enable-background="new    " d="M1390.389,730.979c-0.662-0.663-1.491-1.077-2.487-1.077
	c-1.077,0-1.823,0.413-2.485,1.077c-0.663,0.663-1.078,1.492-1.079,2.487c0,0.994,0.416,1.822,1.079,2.485
	c0.662,0.664,1.491,1.078,2.485,1.079c0.996,0,1.825-0.416,2.487-1.079c0.663-0.663,1.077-1.491,1.077-2.485
	C1391.55,732.637,1391.136,731.642,1390.389,730.979z"/>
<path opacity="0.07" fill="#24616D" enable-background="new    " d="M1379.363,676.104c-0.663-0.663-1.491-1.078-2.485-1.078
	c-1.078,0-1.824,0.414-2.488,1.078c-0.662,0.662-1.077,1.491-1.077,2.485c0.001,0.996,0.415,1.824,1.077,2.487
	c0.663,0.663,1.492,1.077,2.488,1.077c0.994,0,1.823-0.413,2.486-1.076c0.663-0.664,1.077-1.493,1.076-2.488
	C1380.441,677.678,1380.193,676.849,1379.363,676.104z"/>
<path opacity="0.07" fill="#24616D" enable-background="new    " d="M1390.389,676.103c-0.662-0.663-1.492-1.077-2.487-1.077
	c-1.076,0-1.824,0.414-2.486,1.078c-0.663,0.662-1.078,1.492-1.077,2.485c-0.001,0.995,0.414,1.824,1.078,2.488
	c0.661,0.663,1.491,1.076,2.486,1.076c0.994,0,1.824-0.413,2.486-1.076c0.664-0.664,1.077-1.493,1.078-2.488
	C1391.549,677.678,1391.136,676.849,1390.389,676.103z"/>
<path opacity="0.07" fill="#24616D" enable-background="new    " d="M1390.39,687.212c-0.664-0.664-1.492-1.079-2.488-1.079
	c-1.077,0-1.823,0.415-2.485,1.079c-0.663,0.663-1.078,1.49-1.079,2.485c0.001,0.995,0.416,1.825,1.079,2.487
	c0.661,0.663,1.491,1.077,2.485,1.077c0.996,0,1.825-0.414,2.487-1.077c0.663-0.662,1.078-1.492,1.077-2.487
	C1391.549,688.536,1391.136,687.708,1390.39,687.212z"/>
<path opacity="0.07" fill="#24616D" enable-background="new    " d="M1412.355,676.104c-0.663-0.663-1.491-1.078-2.487-1.078
	c-1.077,0-1.822,0.415-2.485,1.078c-0.663,0.662-1.078,1.492-1.078,2.486s0.415,1.823,1.078,2.486
	c0.662,0.663,1.492,1.078,2.485,1.077c0.996,0,1.824-0.414,2.487-1.077s1.078-1.492,1.077-2.487
	C1413.352,677.678,1413.103,676.85,1412.355,676.104z"/>
<path opacity="0.07" fill="#24616D" enable-background="new    " d="M1423.299,687.212c-0.664-0.664-1.492-1.079-2.487-1.079
	c-1.077,0-1.824,0.415-2.486,1.078c-0.663,0.663-1.078,1.491-1.078,2.486c-0.001,0.995,0.415,1.824,1.078,2.488
	c0.663,0.662,1.49,1.076,2.486,1.076c0.995,0,1.824-0.414,2.487-1.077c0.662-0.663,1.076-1.492,1.077-2.487
	C1424.376,688.536,1423.961,687.708,1423.299,687.212z"/>
<path opacity="0.07" fill="#24616D" enable-background="new    " d="M1412.355,654.136c-0.663-0.663-1.492-1.078-2.486-1.078
	c-1.077,0-1.823,0.415-2.486,1.078s-1.079,1.491-1.078,2.486c-0.001,0.995,0.414,1.825,1.077,2.487
	c0.663,0.664,1.493,1.078,2.487,1.078s1.824-0.415,2.487-1.078c0.663-0.662,1.076-1.492,1.077-2.487
	C1413.351,655.711,1413.103,654.883,1412.355,654.136z"/>
<path opacity="0.07" fill="#24616D" enable-background="new    " d="M1401.331,643.276c-0.663-0.663-1.492-1.077-2.487-1.076
	c-1.076-0.001-1.823,0.413-2.486,1.076s-1.078,1.492-1.077,2.487c0,1.077,0.415,1.824,1.076,2.486
	c0.663,0.663,1.492,1.078,2.488,1.078c0.994,0,1.822-0.415,2.486-1.078c0.662-0.663,1.077-1.491,1.078-2.486
	C1402.408,644.769,1402.159,643.773,1401.331,643.276z"/>
<path opacity="0.07" fill="#24616D" enable-background="new    " d="M1401.331,687.211c-0.663-0.663-1.491-1.078-2.487-1.078
	c-1.077,0-1.823,0.415-2.486,1.078c-0.662,0.664-1.077,1.492-1.078,2.486c0.001,0.995,0.416,1.824,1.077,2.487
	c0.664,0.664,1.493,1.077,2.487,1.077c0.996,0,1.823-0.414,2.487-1.077c0.662-0.663,1.078-1.492,1.077-2.487
	C1402.409,688.537,1402.16,687.709,1401.331,687.211z"/>
<path opacity="0.07" fill="#24616D" enable-background="new    " d="M1412.355,665.078c-0.663-0.663-1.492-1.078-2.486-1.078
	c-1.077,0-1.823,0.415-2.486,1.078c-0.664,0.662-1.079,1.491-1.078,2.486c-0.001,0.995,0.414,1.824,1.077,2.487
	c0.664,0.662,1.493,1.077,2.487,1.077s1.823-0.415,2.487-1.077c0.663-0.663,1.076-1.492,1.077-2.487
	C1413.352,666.735,1413.103,665.74,1412.355,665.078z"/>
<path opacity="0.07" fill="#24616D" enable-background="new    " d="M1423.298,654.136c-0.663-0.663-1.492-1.078-2.486-1.078
	c-1.077,0-1.824,0.415-2.486,1.078c-0.663,0.663-1.079,1.491-1.078,2.487c0,0.994,0.415,1.823,1.077,2.486
	c0.664,0.663,1.491,1.078,2.487,1.078c0.995-0.001,1.824-0.415,2.487-1.078c0.661-0.662,1.076-1.492,1.077-2.487
	C1424.376,655.711,1423.96,654.883,1423.298,654.136z"/>
</svg>
