<?xml version="1.0" encoding="utf-8"?>
<!-- Generator: Adobe Illustrator 16.0.4, SVG Export Plug-In . SVG Version: 6.00 Build 0)  -->
<!DOCTYPE svg PUBLIC "-//W3C//DTD SVG 1.1//EN" "http://www.w3.org/Graphics/SVG/1.1/DTD/svg11.dtd">
<svg version="1.1" id="_x30_02" xmlns="http://www.w3.org/2000/svg" xmlns:xlink="http://www.w3.org/1999/xlink" x="0px" y="0px"
	 width="128px" height="128px" viewBox="0 0 128 128" style="enable-background:new 0 0 128 128;" xml:space="preserve">
<style type="text/css">
<![CDATA[
	.st0{fill:#FFFFFF;stroke:#6D6DAA;stroke-width:2;stroke-linecap:round;stroke-linejoin:round;stroke-miterlimit:10;}
	.st1{opacity:0.3;fill:#C1A29F;}
	.st2{opacity:0.3;fill:#93765F;}
	.st3{fill:#48BC33;}
	.st4{fill:#8593BA;stroke:#6D6DAA;stroke-width:2;stroke-linecap:round;stroke-linejoin:round;stroke-miterlimit:10;}
	.st5{fill:#E0F3FF;}
	.st6{fill:#FF99B1;stroke:#6D6DAA;stroke-width:2;stroke-linecap:round;stroke-linejoin:round;stroke-miterlimit:10;}
	
		.st7{fill-rule:evenodd;clip-rule:evenodd;fill:#939FC6;stroke:#6D6DAA;stroke-width:2;stroke-linecap:round;stroke-linejoin:round;stroke-miterlimit:10;}
	.st8{fill:none;stroke:#6D6DAA;stroke-width:2;stroke-linecap:round;stroke-linejoin:round;stroke-dasharray:0,4;}
	.st9{fill:none;stroke:#6D6DAA;stroke-width:2;stroke-linecap:round;stroke-linejoin:round;stroke-dasharray:0.1849,2.7739;}
	.st10{opacity:0.3;fill:#FF9797;}
	.st11{opacity:0.3;fill:#FFF9E0;}
	.st12{opacity:0.3;fill:#FFFFFF;}
	.st13{opacity:0.3;fill-rule:evenodd;clip-rule:evenodd;fill:#FFF9E0;}
	.st14{fill:#4C5A7F;}
	.st15{fill:#D4EDFF;stroke:#6D6DAA;stroke-width:2;stroke-linecap:round;stroke-linejoin:round;stroke-miterlimit:10;}
	.st16{fill:#FF9797;stroke:#6D6DAA;stroke-width:2;stroke-linecap:round;stroke-linejoin:round;stroke-miterlimit:10;}
	.st17{fill-rule:evenodd;clip-rule:evenodd;fill:#DDD9FF;}
	.st18{fill:#4FBDFF;}
	.st19{fill:#80D880;}
	.st20{fill:#B1F1A8;}
	.st21{opacity:0.3;fill:#CC7E54;}
	.st22{opacity:0.5;fill:#FFFFFF;stroke:#6D6DAA;stroke-width:2;stroke-linecap:round;stroke-linejoin:round;stroke-miterlimit:10;}
	.st23{opacity:0.3;fill:#9EB2CC;}
	.st24{fill:none;stroke:#6D6DAA;stroke-width:2;stroke-linecap:round;stroke-linejoin:round;stroke-dasharray:0,11.9632;}
	.st25{fill:#EAE2B0;}
	.st26{fill:none;stroke:#FFFFFF;stroke-width:2;stroke-linecap:round;stroke-linejoin:round;stroke-miterlimit:10;}
	
		.st27{fill-rule:evenodd;clip-rule:evenodd;fill:#CED8EE;stroke:#6D6DAA;stroke-width:2;stroke-linecap:round;stroke-linejoin:round;stroke-miterlimit:10;}
	.st28{fill:#FFD599;stroke:#6D6DAA;stroke-width:2;stroke-linecap:round;stroke-linejoin:round;stroke-miterlimit:10;}
	.st29{fill:#89DBBA;}
	.st30{opacity:0.5;fill:#F7A706;}
	.st31{fill:#EEF6FF;}
	.st32{fill:#EFDCD2;}
	.st33{opacity:0.3;fill:#6E7EB0;}
	.st34{opacity:0.3;fill:#0070B8;}
	.st35{opacity:0.8;fill:#FFFFFF;}
	.st36{fill:#B1F1A8;stroke:#6D6DAA;stroke-width:2;stroke-linecap:round;stroke-linejoin:round;stroke-miterlimit:10;}
	.st37{fill:none;stroke:#FF9797;stroke-width:2;stroke-linecap:round;stroke-linejoin:round;stroke-miterlimit:10;}
	.st38{opacity:0.25;fill:#FFFFFF;}
	.st39{fill:#59D19A;}
	.st40{fill:#97C1FF;stroke:#6D6DAA;stroke-width:2;stroke-linecap:round;stroke-linejoin:round;stroke-miterlimit:10;}
	.st41{fill:none;stroke:#6D6DAA;stroke-width:2;stroke-linecap:round;stroke-linejoin:round;}
	.st42{fill:#EEF6FF;stroke:#6D6DAA;stroke-width:2;stroke-linecap:round;stroke-linejoin:round;stroke-miterlimit:10;}
	.st43{opacity:0.3;fill:#D63C74;}
	.st44{fill:#231F20;}
	.st45{fill:#FFF27D;stroke:#6D6DAA;stroke-width:2;stroke-linecap:round;stroke-linejoin:round;stroke-miterlimit:10;}
	.st46{opacity:0.5;fill:#FFF9E0;}
	.st47{opacity:0.5;fill:#FFFFFF;}
	.st48{fill:none;stroke:#505070;stroke-width:2;stroke-linecap:round;stroke-linejoin:round;stroke-miterlimit:10;}
	.st49{fill:none;stroke:#5CBEFF;stroke-width:2;stroke-linecap:round;stroke-linejoin:round;stroke-miterlimit:10;}
	.st50{opacity:0.3;fill:#7369D6;}
	.st51{fill:#5CBEFF;}
	.st52{fill:none;stroke:#B6B6D4;stroke-width:2;stroke-linecap:round;stroke-linejoin:round;stroke-miterlimit:10;}
	.st53{opacity:0.3;fill:#7595B5;}
	.st54{fill:#F9E2DC;}
	.st55{clip-path:url(#SVGID_2_);}
	.st56{clip-path:url(#SVGID_4_);}
	.st57{clip-path:url(#SVGID_6_);}
	.st58{clip-path:url(#SVGID_8_);}
	.st59{opacity:0.3;fill:#7690A8;}
	.st60{opacity:0.3;fill:#DB4962;}
	.st61{fill:#C1A29F;}
	.st62{fill:#939FC6;}
	.st63{fill:none;stroke:#6D6DAA;stroke-width:2;stroke-linecap:round;stroke-linejoin:round;stroke-dasharray:0,12.6778;}
	.st64{fill:none;stroke:#6D6DAA;stroke-width:2;stroke-linecap:round;stroke-linejoin:round;stroke-dasharray:0,12.6781;}
	.st65{opacity:0.5;fill-rule:evenodd;clip-rule:evenodd;fill:#FFFFFF;}
	.st66{fill:none;stroke:#FFF27D;stroke-width:2;stroke-linecap:round;stroke-linejoin:round;stroke-miterlimit:10;}
	.st67{fill:none;stroke:#B1F1A8;stroke-width:2;stroke-linecap:round;stroke-linejoin:round;stroke-miterlimit:10;}
	.st68{fill:none;stroke:#5B6875;stroke-width:2;stroke-linecap:round;stroke-linejoin:round;stroke-miterlimit:10;}
	.st69{fill:#96D7FF;}
	.st70{fill:#97C1FF;}
	.st71{opacity:0.3;fill:none;stroke:#6D6DAA;stroke-width:2;stroke-linecap:round;stroke-linejoin:round;stroke-miterlimit:10;}
	.st72{fill:#C7E9FF;}
	.st73{fill:#C9C1F5;}
	.st74{opacity:0.3;}
	.st75{opacity:0.5;}
	.st76{opacity:0.7;}
	.st77{opacity:0.75;fill:#FFFFFF;}
	.st78{fill:#FFFAD1;stroke:#6D6DAA;stroke-width:2;stroke-linecap:round;stroke-linejoin:round;stroke-miterlimit:10;}
	.st79{fill:#FEDBC1;}
	.st80{fill:#FF91A9;}
	.st81{fill:#FF968C;}
	.st82{fill:#FF9797;}
	.st83{fill:#FF99B1;}
	.st84{fill:#6D6DAA;stroke:#6D6DAA;stroke-width:2;stroke-linecap:round;stroke-linejoin:round;stroke-miterlimit:10;}
	.st85{fill:#FFC661;}
	.st86{fill:#FFD288;}
	.st87{fill:#FFD599;}
	.st88{fill:#FFF27D;}
	.st89{fill:#FFF2CC;}
	.st90{fill:#FFF9E0;}
	.st91{fill:#FFFAD1;}
	.st92{fill:#FFFFFF;}
	.st93{opacity:0.3;fill:#48BC33;}
	.st94{opacity:0.5;fill:none;stroke:#6D6DAA;stroke-width:2;stroke-linecap:round;stroke-linejoin:round;stroke-miterlimit:10;}
	.st95{opacity:0.2;fill:#FFFFFF;stroke:#6D6DAA;stroke-width:2;stroke-linecap:round;stroke-linejoin:round;stroke-miterlimit:10;}
	.st96{opacity:0.4;fill:#F7A706;}
	.st97{fill:#CC7E54;}
	.st98{fill:none;stroke:#6D6DAA;stroke-width:2;stroke-linecap:round;stroke-linejoin:round;stroke-dasharray:0.1789,2.6841;}
	.st99{fill:#9EB2CC;}
	.st100{fill:#CED8EE;}
	.st101{fill:#9FADD3;}
	.st102{fill:#D6B5B0;stroke:#6D6DAA;stroke-width:2;stroke-linecap:round;stroke-linejoin:round;stroke-miterlimit:10;}
	.st103{fill:#939FC6;stroke:#6D6DAA;stroke-width:2;stroke-linecap:round;stroke-linejoin:round;stroke-miterlimit:10;}
	.st104{opacity:0.3;fill:#4C5A7F;}
	.st105{fill:#F2EED5;stroke:#6D6DAA;stroke-width:2;stroke-linecap:round;stroke-linejoin:round;stroke-miterlimit:10;}
	.st106{opacity:0.3;fill:#4F649E;}
	.st107{fill:none;stroke:#6D6DAA;stroke-width:2;stroke-linecap:round;stroke-linejoin:round;stroke-dasharray:0.1905,2.8574;}
	.st108{fill:#6D6DAA;}
	.st109{opacity:0.3;fill:#8484CF;}
	.st110{fill:#C9C1F5;stroke:#6D6DAA;stroke-width:2;stroke-linecap:round;stroke-linejoin:round;stroke-miterlimit:10;}
	.st111{fill:none;stroke:#6D6DAA;stroke-width:2;stroke-linecap:round;stroke-linejoin:round;stroke-dasharray:0.1967,2.9499;}
	.st112{fill-rule:evenodd;clip-rule:evenodd;fill:#C9C1F5;}
	.st113{fill-rule:evenodd;clip-rule:evenodd;fill:#FF99B1;}
	.st114{opacity:0.3;fill:#1C64BA;}
	.st115{fill-rule:evenodd;clip-rule:evenodd;fill:#FFFFFF;}
	.st116{fill:#89DBBA;stroke:#6D6DAA;stroke-width:2;stroke-linecap:round;stroke-linejoin:round;stroke-miterlimit:10;}
	.st117{fill:#FF9797;stroke:#6D6DAA;stroke-width:2;stroke-miterlimit:10;}
	.st118{fill:#FFC661;stroke:#6D6DAA;stroke-width:2;stroke-linecap:round;stroke-linejoin:round;stroke-miterlimit:10;}
	.st119{fill:#D4EDFF;}
	.st120{fill:none;stroke:#FF99B1;stroke-width:2;stroke-linecap:round;stroke-linejoin:round;stroke-miterlimit:10;}
	.st121{fill:#E0F3FF;stroke:#6D6DAA;stroke-width:2;stroke-linecap:round;stroke-linejoin:round;stroke-miterlimit:10;}
	.st122{fill:#FF968C;stroke:#6D6DAA;stroke-width:2;stroke-linecap:round;stroke-linejoin:round;stroke-miterlimit:10;}
	.st123{fill:#CED8EE;stroke:#6D6DAA;stroke-width:2;stroke-linecap:round;stroke-linejoin:round;stroke-miterlimit:10;}
	.st124{fill:#96D7FF;stroke:#6D6DAA;stroke-width:2;stroke-linecap:round;stroke-linejoin:round;stroke-miterlimit:10;}
	.st125{fill:#D6B5B0;}
	.st126{opacity:0.3;fill:#554DAD;}
	.st127{opacity:0.3;fill-rule:evenodd;clip-rule:evenodd;fill:#554DAD;}
	.st128{opacity:0.5;fill:#939FC6;stroke:#6D6DAA;stroke-width:2;stroke-linecap:round;stroke-linejoin:round;stroke-miterlimit:10;}
	.st129{fill:none;stroke:#6D6DAA;stroke-width:2;stroke-linecap:round;stroke-linejoin:round;stroke-dasharray:0.1923,2.8843;}
	.st130{clip-path:url(#SVGID_10_);}
	.st131{clip-path:url(#SVGID_12_);}
	.st132{clip-path:url(#SVGID_14_);}
	.st133{clip-path:url(#SVGID_16_);}
	.st134{fill:none;stroke:#5ECCA0;stroke-width:2;stroke-linecap:round;stroke-linejoin:round;stroke-miterlimit:10;}
	.st135{opacity:0.3;fill:#BF914C;}
	.st136{fill:#7690A8;}
	.st137{fill:#DB4962;}
	.st138{opacity:0.7;fill:#FFFFFF;stroke:#6D6DAA;stroke-width:2;stroke-linecap:round;stroke-linejoin:round;stroke-miterlimit:10;}
	
		.st139{fill-rule:evenodd;clip-rule:evenodd;fill:none;stroke:#6D6DAA;stroke-width:2;stroke-linecap:round;stroke-linejoin:round;stroke-miterlimit:10;}
	.st140{fill:#A8D5FF;}
	.st141{fill:#FFF2CC;stroke:#6D6DAA;stroke-width:2;stroke-linecap:round;stroke-linejoin:round;stroke-miterlimit:10;}
	.st142{opacity:0.3;fill:#5B58BC;}
	.st143{opacity:0.3;fill:#289963;}
	.st144{opacity:0.3;fill:#5CBEFF;}
	.st145{fill:none;stroke:#939FC6;stroke-width:2;stroke-linecap:round;stroke-linejoin:round;stroke-miterlimit:10;}
	.st146{fill:none;stroke:#6D6DAA;stroke-width:2;stroke-linecap:round;stroke-linejoin:round;stroke-miterlimit:10;}
]]>
</style>
<g class="st74">
	<path class="st125" d="M126.7,49.7c-1.9-12.8-11.5-22.5-23.5-25c-4.3-0.9-8.1-3.2-10.9-6.5c-2.5-3-5.5-5.6-9.1-7.7
		c-15.5-9.4-35.9-6.1-47.5,7.8c-3.9,4.6-6.4,9.8-7.7,15.3c-1.4,5.9-5.5,10.9-10.9,13.7C3,54.5-4.1,73.6,8.8,91.5
		c1.5,2.1,3.9,3.7,6.4,4.9c4.6,2.2,8.1,6.1,10,10.9c3.2,7.7,9.7,14,18.3,16.6c8.6,2.5,17.4,0.8,24.3-3.9c4.8-3.4,10.9-4.5,16.6-2.9
		c8.3,2.2,17.4,0.8,24.9-4.7c9.4-6.9,13.4-18.4,11.2-29.1c-1-4.9,0-9.8,2.5-14.1C126.2,63.4,127.7,56.6,126.7,49.7z"/>
	<g>
		<polygon class="st92" points="115,62 115,54 123,54 		"/>
		<polygon class="st89" points="115,62 89,62 89,28 123,28 123,54 115,54 		"/>
		<rect x="89" y="28" class="st1" width="34" height="5"/>
		<polygon class="st146" points="115,62 115,54 123,54 		"/>
		<polygon class="st146" points="115,62 89,62 89,28 123,28 123,54 115,54 		"/>
	</g>
	<g>
		<rect x="11" y="64" class="st0" width="40" height="46"/>
		<rect x="15" y="68" class="st103" width="32" height="30"/>
	</g>
	<g>
		<rect x="69" y="1" class="st92" width="34" height="22"/>
		<rect x="69" y="1" class="st146" width="34" height="22"/>
		<line class="st94" x1="74" y1="6" x2="86" y2="6"/>
		<line class="st94" x1="74" y1="10" x2="81" y2="10"/>
	</g>
	<g>
		<rect x="3" y="21" class="st0" width="40" height="46"/>
		<rect x="7" y="25" class="st124" width="32" height="30"/>
		<polygon class="st36" points="39,55 7,55 15.6,45.8 21.3,50.6 29,40 		"/>
		<circle class="st45" cx="15" cy="33" r="4"/>
	</g>
	<g>
		<path class="st92" d="M125,127H53c-1.1,0-2-0.9-2-2V79c0-1.1,0.9-2,2-2h72c1.1,0,2,0.9,2,2v46C127,126.1,126.1,127,125,127z"/>
		<g>
			<polygon class="st69" points="58.8,127 108.8,77 103.2,77 53.2,127 			"/>
			<polygon class="st82" points="66.8,127 116.8,77 111.2,77 61.2,127 			"/>
			<polygon class="st69" points="74.8,127 124.8,77 119.2,77 69.2,127 			"/>
			<path class="st82" d="M82.8,127L127,82.8V79c0-0.5-0.2-1-0.5-1.3L77.2,127H82.8z"/>
			<polygon class="st69" points="90.8,127 127,90.8 127,85.2 85.2,127 			"/>
			<polygon class="st82" points="51,94.8 68.8,77 63.2,77 51,89.2 			"/>
			<polygon class="st69" points="51,102.8 76.8,77 71.2,77 51,97.2 			"/>
			<polygon class="st82" points="51,110.8 84.8,77 79.2,77 51,105.2 			"/>
			<polygon class="st69" points="51,118.8 92.8,77 87.2,77 51,113.2 			"/>
			<path class="st82" d="M95.2,77L51,121.2v3.8c0,0.5,0.2,1,0.5,1.3L100.8,77H95.2z"/>
			<polygon class="st82" points="98.8,127 127,98.8 127,93.2 93.2,127 			"/>
			<polygon class="st69" points="106.8,127 127,106.8 127,101.2 101.2,127 			"/>
			<polygon class="st82" points="114.8,127 127,114.8 127,109.2 109.2,127 			"/>
			<polygon class="st69" points="122.8,127 127,122.8 127,117.2 117.2,127 			"/>
			<polygon class="st69" points="51,86.8 60.8,77 55.2,77 51,81.2 			"/>
		</g>
		<rect x="54" y="80" class="st31" width="70" height="44"/>
		<rect x="106" y="85" class="st124" width="13" height="12"/>
		<path class="st146" d="M125,127H53c-1.1,0-2-0.9-2-2V79c0-1.1,0.9-2,2-2h72c1.1,0,2,0.9,2,2v46C127,126.1,126.1,127,125,127z"/>
		<g class="st75">
			<line class="st146" x1="61" y1="109" x2="70" y2="109"/>
			<line class="st146" x1="61" y1="113" x2="88" y2="113"/>
			<line class="st146" x1="61" y1="117" x2="88" y2="117"/>
		</g>
		<g>
			<line class="st146" x1="109" y1="92" x2="109" y2="90"/>
			<line class="st146" x1="109" y1="91" x2="116" y2="91"/>
			<line class="st146" x1="111" y1="88" x2="114" y2="91"/>
			<line class="st146" x1="111" y1="94" x2="114" y2="91"/>
		</g>
	</g>
	<g>
		<polygon class="st31" points="48,28 46,28 44,27 42,28 40,27 38,28 36,27 34,28 32,27 30,28 28,28 28,26 29,24 28,22 29,20 28,18 
			29,16 28,14 29,12 28,10 28,8 30,8 32,9 34,8 36,9 38,8 40,9 42,8 44,9 46,8 48,8 48,10 47,12 48,14 47,16 48,18 47,20 48,22 
			47,24 48,26 		"/>
		<polygon class="st146" points="48,28 46,28 44,27 42,28 40,27 38,28 36,27 34,28 32,27 30,28 28,28 28,26 29,24 28,22 29,20 
			28,18 29,16 28,14 29,12 28,10 28,8 30,8 32,9 34,8 36,9 38,8 40,9 42,8 44,9 46,8 48,8 48,10 47,12 48,14 47,16 48,18 47,20 
			48,22 47,24 48,26 		"/>
		<rect x="33" y="13" class="st19" width="10" height="10"/>
		<rect x="33" y="13" class="st146" width="10" height="10"/>
	</g>
</g>
<g>
	<path class="st92" d="M92,41v70c0,2.2-1.8,4-4,4H44c-2.2,0-4-1.8-4-4V41c0-2.2,1.8-4,4-4h44C90.2,37,92,38.8,92,41z"/>
	<path class="st31" d="M92,93v18c0,2.2-1.8,4-4,4H44c-2.2,0-4-1.8-4-4V93H92z"/>
	<g class="st75">
		<line class="st146" x1="40" y1="93" x2="92" y2="93"/>
	</g>
	<path class="st146" d="M92,41v70c0,2.2-1.8,4-4,4H44c-2.2,0-4-1.8-4-4V41c0-2.2,1.8-4,4-4h44C90.2,37,92,38.8,92,41z"/>
	<g class="st75">
		<g>
			<line class="st146" x1="61" y1="99" x2="71" y2="99"/>
		</g>
		<g>
			<line class="st146" x1="49" y1="103" x2="83" y2="103"/>
		</g>
		<g>
			<line class="st146" x1="51" y1="107" x2="51" y2="109"/>
		</g>
		<g>
			<line class="st146" x1="54" y1="107" x2="54" y2="109"/>
		</g>
		<g>
			<line class="st146" x1="57" y1="107" x2="57" y2="109"/>
		</g>
		<g>
			<line class="st146" x1="60" y1="107" x2="60" y2="109"/>
		</g>
		<g>
			<line class="st146" x1="67" y1="107" x2="67" y2="109"/>
		</g>
		<g>
			<line class="st146" x1="70" y1="107" x2="70" y2="109"/>
		</g>
		<g>
			<line class="st146" x1="73" y1="107" x2="73" y2="109"/>
		</g>
		<g>
			<line class="st146" x1="76" y1="107" x2="76" y2="109"/>
		</g>
		<g>
			<line class="st146" x1="79" y1="107" x2="79" y2="109"/>
		</g>
		<g>
			<line class="st146" x1="82" y1="107" x2="82" y2="109"/>
		</g>
	</g>
	<g>
		<path class="st103" d="M54,43L54,43c0-1.1,0.9-2,2-2h20c1.1,0,2,0.9,2,2l0,0c0,1.1-0.9,2-2,2H56C54.9,45,54,44.1,54,43z"/>
		<path class="st31" d="M71,11H61c-1.1,0-2,0.9-2,2v32h14V13C73,11.9,72.1,11,71,11z M66,21c-1.7,0-3-1.3-3-3c0-1.7,1.3-3,3-3
			c1.7,0,3,1.3,3,3C69,19.7,67.7,21,66,21z"/>
		<path class="st92" d="M71,11H61c-1.1,0-2,0.9-2,2v3c0-1.1,0.9-2,2-2h10c1.1,0,2,0.9,2,2v-3C73,11.9,72.1,11,71,11z"/>
		<rect x="59" y="42" class="st59" width="14" height="3"/>
		<rect x="59" y="26" class="st92" width="14" height="2"/>
		<g class="st75">
			<line class="st146" x1="59" y1="25" x2="73" y2="25"/>
		</g>
		<path class="st146" d="M71,11H61c-1.1,0-2,0.9-2,2v32h14V13C73,11.9,72.1,11,71,11z M66,21c-1.7,0-3-1.3-3-3c0-1.7,1.3-3,3-3
			c1.7,0,3,1.3,3,3C69,19.7,67.7,21,66,21z"/>
		<circle class="st15" cx="66" cy="32" r="3"/>
		<g>
			<line class="st146" x1="66" y1="32" x2="66" y2="32"/>
		</g>
	</g>
	<g>
		<circle class="st69" cx="66" cy="69" r="14"/>
		<g>
			<defs>
				<path id="SVGID_7_" d="M80.8,68.7c0,8.2-6.6,14.8-14.8,14.8s-14.8-6.6-14.8-14.8S57.8,51.5,66,51.5S80.8,60.5,80.8,68.7z"/>
			</defs>
			<clipPath id="SVGID_2_">
				<use xlink:href="#SVGID_7_"  style="overflow:visible;"/>
			</clipPath>
			<g class="st55">
				<path class="st32" d="M71.4,72.8L71.4,72.8c-0.5,1.5-2.6,2.5-5.2,2.5c-2.6,0-4.8-1.1-5.2-2.5l0,0c0.4-0.2,0.8-0.4,1.2-0.6
					c0.4-0.2,0.8-0.7,0.8-1.3c0-0.2,0-0.4-0.1-0.6c1,0.6,2.1,0.9,3.3,0.9c1.2,0,2.4-0.3,3.3-0.9c-0.4,1,0.1,1.7,0.7,2
					C70.6,72.4,71,72.6,71.4,72.8z"/>
				<path class="st20" d="M72.2,84.6H60.1h-3.5v-4.1c0-3.2,1.7-6.1,4.3-7.7l0,0c0.5,1.4,2.6,2.5,5.2,2.5c2.6,0,4.8-1.1,5.2-2.5l0,0
					c1.1,0.7,2.1,1.6,2.8,2.7c1,1.4,1.5,3.2,1.5,5v4.1H72.2z"/>
				<path class="st146" d="M56.6,84.6v-4.1c0-3.2,1.7-6.1,4.3-7.7c0.4-0.2,0.8-0.4,1.2-0.6c0.4-0.2,0.8-0.7,0.8-1.3
					c0-0.2,0-0.4-0.1-0.6"/>
				<path class="st146" d="M69.5,70.3c-0.4,1,0.1,1.7,0.7,1.9c0.4,0.2,0.8,0.4,1.2,0.6c1.1,0.7,2.1,1.6,2.8,2.7c1,1.4,1.5,3.2,1.5,5
					v4.1"/>
				<path class="st146" d="M60.6,78c-0.4,0.6-0.6,1.4-0.6,2.6v4"/>
				<path class="st146" d="M71.6,78c0.4,0.6,0.6,1.4,0.6,2.6v4"/>
				<polyline class="st146" points="60.9,72.9 66.2,75.4 71.4,72.9 				"/>
				<path class="st20" d="M62.8,76.1l-3-2.2c-0.4-0.3-0.4-0.8,0-1l1.9-1.4l4.5,3.2l-1.8,1.4C63.9,76.5,63.2,76.5,62.8,76.1z"/>
				<path class="st20" d="M69.5,76.1l3-2.2c0.4-0.3,0.4-0.8,0-1l-1.9-1.4l-4.5,3.2l1.8,1.4C68.4,76.5,69.1,76.5,69.5,76.1z"/>
				<path class="st146" d="M62.8,76.1l-3-2.2c-0.4-0.3-0.4-0.8,0-1l1.9-1.4l4.5,3.2l-1.8,1.4C63.9,76.5,63.2,76.5,62.8,76.1z"/>
				<path class="st146" d="M69.5,76.1l3-2.2c0.4-0.3,0.4-0.8,0-1l-1.9-1.4l-4.5,3.2l1.8,1.4C68.4,76.5,69.1,76.5,69.5,76.1z"/>
			</g>
		</g>
		<circle class="st146" cx="66" cy="69" r="14"/>
		<g>
			<g>
				<path class="st125" d="M70,71.3c1.1,0,2.3-0.2,3.4-0.5c1.9-0.5,3-2.5,2.4-4.4c-0.9-2.8-0.2-5.1-0.8-7.9
					c-0.9-3.7-4.2-6.5-8.7-6.5c-4.5,0-8.1,2.7-8.8,6.5c-0.5,2.8,0.2,5-0.7,7.8c-0.6,1.9,0.4,3.8,2.3,4.4c1.1,0.3,2.1,0.6,3.2,0.6
					L70,71.3z"/>
			</g>
		</g>
		<g>
			<g>
				<path class="st146" d="M69.6,71.3c1.1,0,2.7-0.2,3.9-0.5c1.9-0.5,3-2.5,2.4-4.4c-0.9-2.8-0.2-5.1-0.8-7.9
					c-0.9-3.7-4.2-6.5-8.7-6.5c-4.5,0-8.1,2.7-8.8,6.5c-0.5,2.8,0.2,5-0.7,7.8c-0.6,1.9,0.4,3.8,2.3,4.4c1.1,0.3,2.6,0.6,3.7,0.6"/>
			</g>
		</g>
		<path class="st54" d="M59.7,58.9c0,0,5.6,2.5,10.6-2c0,2.6,2.4,2.3,2.4,2.3l0,5.3c0,2.3-1.2,4.5-3.2,5.7l-1.5,0.9
			c-1.1,0.6-2.4,0.6-3.5,0l-1.5-0.9c-2-1.2-3.2-3.4-3.2-5.7L59.7,58.9z"/>
		<path class="st146" d="M69.9,70"/>
		<circle class="st10" cx="62.4" cy="66.4" r="1.1"/>
		<circle class="st10" cx="69.9" cy="66.4" r="1.1"/>
		<path class="st146" d="M59.7,58.9c0,0,5.6,2.5,10.6-2c0,2.6,2.4,2.3,2.4,2.3l0,5.3c0,2.3-1.2,4.5-3.2,5.7l-1.5,0.9
			c-1.1,0.6-2.4,0.6-3.5,0l-1.5-0.9c-2-1.2-3.2-3.4-3.2-5.7L59.7,58.9z"/>
		<path class="st146" d="M65.2,67.4c0.2,0.3,0.5,0.4,1,0.4s0.8-0.2,1-0.4"/>
		<circle class="st108" cx="69" cy="63" r="1"/>
		<circle class="st108" cx="63" cy="63" r="1"/>
	</g>
</g>
</svg>
