<?xml version="1.0" encoding="utf-8"?>
<!-- Generator: Adobe Illustrator 16.0.4, SVG Export Plug-In . SVG Version: 6.00 Build 0)  -->
<!DOCTYPE svg PUBLIC "-//W3C//DTD SVG 1.1//EN" "http://www.w3.org/Graphics/SVG/1.1/DTD/svg11.dtd">
<svg version="1.1" id="Calque_1" xmlns="http://www.w3.org/2000/svg" xmlns:xlink="http://www.w3.org/1999/xlink" x="0px" y="0px"
	 width="6009.377px" height="3380.274px" viewBox="0 0 6009.377 3380.274" enable-background="new 0 0 6009.377 3380.274"
	 xml:space="preserve">
<g>
	<g>
		<path fill="#0066CC" d="M1159.542,605.862c-598.975,0-1084.277,485.511-1084.277,1084.278
			c0,598.756,485.511,1084.271,1084.277,1084.271c598.753,0,1084.267-485.516,1084.267-1084.271
			C2243.809,1091.367,1758.503,605.862,1159.542,605.862z"/>
		<path fill="#002352" d="M1159.542,692.604c550.912,0,997.522,446.61,997.522,997.53c0,550.917-446.61,997.521-997.522,997.521
			c-550.92,0-997.528-446.604-997.528-997.521C162.014,1139.214,608.622,692.604,1159.542,692.604z"/>
		<g>
			<g opacity="0.3">
				<g>
					<path fill="#FFFFFF" d="M1336.855,2328.917c-2.761,0-5.506-0.31-7.938-1.315c-97.392-28.613-160.885-67.455-226.829-138.173
						c-85.168-91.474-132.182-213.55-132.182-343.521c0-106.936,84.261-193.807,188.048-193.807
						c103.803,0,188.057,86.871,188.057,193.807c0,70.416,57.09,127.982,126.995,127.982s127.001-57.234,127.001-127.982
						c0-248.084-198.432-449.785-442.346-449.785c-173.705,0-332.137,103.977-403.573,265.208
						c-23.812,53.306-35.724,115.496-35.724,184.577c0,51.335,4.28,132.277,40.607,237.235c5.807,17.1-2.127,35.866-18.007,42.445
						c-15.878,6.254-33.277-2.303-39.382-19.409c-29.926-86.539-44.566-171.426-44.566-260.271
						c0-78.95,14.043-150.692,41.821-212.884c81.508-183.588,261.619-302.364,458.53-302.364
						c277.49,0,503.393,231.31,503.393,515.581c0,106.942-84.562,193.803-188.05,193.803c-103.487,0-188.054-86.86-188.054-193.803
						c0-70.408-57.083-127.997-126.982-127.997c-69.912,0-127.001,57.252-127.001,127.997c0,112.198,40.607,217.811,114.179,296.787
						c57.695,61.843,113.872,96.061,199.944,121.398c16.189,4.946,25.958,23.032,21.381,40.479
						C1362.494,2319.377,1350.284,2328.917,1336.855,2328.917L1336.855,2328.917L1336.855,2328.917z M1459.87,2193.036
						c-72.652,0-136.452-19.754-189.27-58.239c-90.664-66.461-145.002-174.383-145.002-288.896
						c0-18.097,13.737-32.904,30.532-32.904s30.523,14.808,30.523,32.904c0,92.469,44.26,179.982,118.449,234.271
						c43.041,31.589,93.72,47.055,154.772,47.055c14.656,0,39.375-1.646,63.802-6.262c16.492-3.275,32.376,8.9,35.422,26.665
						c3.051,17.769-8.245,34.864-24.739,38.173C1498.644,2192.695,1468.42,2193.036,1459.87,2193.036L1459.87,2193.036
						L1459.87,2193.036z M1022.418,2314.771c-7.937,0-15.575-3.294-21.672-9.873c-52.817-57.574-81.516-94.09-122.725-173.388
						c-42.133-80.943-64.411-179.983-64.411-285.936c0-195.431,155.072-354.683,345.873-354.683
						c190.795,0,345.864,158.913,345.864,354.683c0,18.094-13.728,32.905-30.515,32.905c-16.802,0-30.53-14.812-30.53-32.905
						c0-159.253-127.595-288.894-284.819-288.894c-156.919,0-284.825,129.641-284.825,288.894
						c0,94.764,19.534,182.271,56.476,253.677c39.375,75.68,65.64,108.255,112.646,159.258
						c11.909,12.826,11.909,33.884-0.301,46.389C1037.98,2311.822,1030.044,2314.771,1022.418,2314.771L1022.418,2314.771
						L1022.418,2314.771z M640.521,1520.829c-6.104,0-12.214-1.97-17.714-5.923c-13.735-10.539-17.088-30.928-7.322-45.733
						c60.446-92.134,137.67-164.504,229.263-215.512c192.013-106.954,437.456-107.267,629.784-0.666
						c91.271,50.683,168.208,122.401,228.956,213.863c9.771,14.812,6.718,35.206-7.025,45.741
						c-13.733,10.532-32.969,7.237-42.734-7.568c-54.954-82.917-124.555-148.064-206.976-193.467
						c-175.231-97.07-398.996-96.725-573.908,0.657c-82.74,46.055-152.646,111.543-207.289,195.112
						C659.438,1516.224,649.973,1520.829,640.521,1520.829L640.521,1520.829L640.521,1520.829z M1514.213,1175.359
						c-4.885,0-9.462-1.317-14.036-3.619c-116.921-65.149-218.591-93.118-340.081-93.118c-121.194,0-235.367,31.261-340.076,92.792
						c-14.953,8.551-33.27,2.953-41.519-13.169c-7.931-16.121-2.747-35.865,12.21-44.74
						c113.871-66.803,238.119-100.685,369.391-100.685c130.049,0,243.618,30.929,368.159,100.35
						c14.963,8.225,20.762,28.294,13.137,44.41C1535.888,1168.78,1525.204,1175.359,1514.213,1175.359L1514.213,1175.359
						L1514.213,1175.359z"/>
				</g>
			</g>
			<g>
				<path fill="#FFFFFF" d="M790.711,1113.34c-14.951,8.885-20.141,28.627-12.21,44.75c8.243,16.122,26.565,21.719,41.519,13.161
					c104.539-61.425,218.522-92.674,339.515-92.772v-65.815C1028.478,1012.768,904.419,1046.657,790.711,1113.34z"/>
				<path fill="#FFFFFF" d="M844.748,1253.51c-91.587,51.004-168.822,123.394-229.263,215.52
					c-9.776,14.806-6.413,35.207,7.316,45.72c5.498,3.961,11.604,5.948,17.708,5.948c9.463,0,18.928-4.609,25.032-13.5
					c54.649-83.576,124.549-149.046,207.284-195.119c87.416-48.681,187.037-73.102,286.708-73.251v-65.724
					C1050.132,1173.227,940.754,1200.04,844.748,1253.51z"/>
				<path fill="#FFFFFF" d="M1159.483,1490.749c-190.794,0-345.867,159.253-345.867,354.683
					c0,105.948,22.287,204.988,64.415,285.928c41.199,79.302,69.905,115.81,122.721,173.388c6.104,6.579,13.741,9.881,21.674,9.881
					c7.623,0,15.568-2.949,21.059-9.881c12.217-12.501,12.217-33.559,0.301-46.378c-47.012-51.006-73.266-83.589-112.646-159.269
					c-36.934-71.398-56.476-158.925-56.476-253.669c0-159.254,127.914-288.888,284.825-288.888c0.019,0,0.039,0.007,0.053,0.007
					v-65.81C1159.523,1490.749,1159.502,1490.749,1159.483,1490.749z"/>
				<path fill="#FFFFFF" d="M1157.349,1330.505c-196.911,0-377.016,118.782-458.529,302.376
					c-27.787,62.184-41.821,133.915-41.821,212.884c0,88.838,14.642,173.729,44.564,260.264
					c6.107,17.106,23.507,25.667,39.375,19.405c15.89-6.575,23.82-25.338,18.017-42.441
					c-36.323-104.961-40.607-185.915-40.607-237.235c0-69.1,11.909-131.283,35.722-184.59
					c71.437-161.222,229.869-265.186,403.575-265.186c0.632,0,1.254,0.012,1.885,0.024v-65.482
					C1158.799,1330.537,1158.074,1330.505,1157.349,1330.505z"/>
				<path fill="#FFFFFF" d="M1125.599,1845.765c0,53.649,11.931,105.85,33.943,153.033v-185.719c-1.121-0.137-2.258-0.22-3.426-0.22
					C1139.336,1812.859,1125.599,1827.66,1125.599,1845.765z"/>
				<path fill="#FFFFFF" d="M1144.834,2142.865c-73.576-78.957-114.178-184.584-114.178-296.791
					c0-70.729,57.082-127.981,127.001-127.981c0.633,0,1.251,0.037,1.885,0.037v-66.139c-0.535,0-1.052-0.047-1.587-0.047
					c-103.793,0-188.054,86.87-188.054,193.802c0,129.975,47.014,252.047,132.188,343.52c19.063,20.446,37.919,38.135,57.445,53.786
					v-85.054C1154.63,2153.124,1149.731,2148.137,1144.834,2142.865z"/>
			</g>
			<line fill="none" stroke="#FFFFFF" stroke-miterlimit="10" x1="1159.542" y1="888.375" x2="1159.542" y2="2454.525"/>
		</g>
	</g>
	<g>
		<path fill="#002352" d="M2755.507,2110.444v-781.108h253.216c99.07,0,179.627,30.942,241.686,92.812
			c62.044,61.881,93.081,141.453,93.081,238.732v118.56c0,97.634-31.037,177.215-93.081,238.722
			c-62.051,61.529-142.615,92.275-241.686,92.275h-253.216V2110.444z M2885.867,1433.953v571.882h119.097
			c64.735,0,115.613-21.089,152.636-63.246c37.02-42.169,55.518-96.654,55.518-163.481V1659.59
			c0-66.104-18.506-120.238-55.518-162.397c-37.022-42.16-87.896-63.246-152.636-63.246h-119.097V1433.953z"/>
		<path fill="#002352" d="M3599.914,1387.814h-130.363v-114.264h130.363V1387.814z M3599.914,2110.444h-130.363v-580.466h130.363
			V2110.444z"/>
		<path fill="#002352" d="M3722.232,1828.257c0-92.275,20.188-166.837,60.618-223.71c40.411-56.866,96.567-85.291,168.453-85.291
			c34.69,0,65.179,7.423,91.47,22.267c26.284,14.846,48.553,36.212,66.789,64.108l12.872-75.646h108.364v580.467
			c0,74.741-23.065,132.513-69.205,173.278c-46.124,40.767-111.575,61.159-196.337,61.159c-28.246,0-58.746-4.027-91.47-12.077
			c-32.72-8.051-62.323-18.691-88.785-31.915l27.898-102.47c21.463,11.08,45.148,19.758,71.081,26.023
			c25.933,6.258,52.662,9.385,80.213,9.385c47.206,0,81.714-10.114,103.532-30.307c21.814-20.211,32.728-51.233,32.728-93.085
			v-59.548c-18.241,23.252-39.791,40.861-64.646,52.84c-24.869,11.979-53.381,17.973-85.574,17.973
			c-71.176,0-126.965-25.936-167.384-77.785c-40.426-51.86-60.614-119.988-60.614-204.395v-11.272H3722.232z M3852.593,1839.529
			c0,53.29,10.637,95.943,31.918,127.948c21.267,32.009,54.27,48.011,98.976,48.011c27.902,0,51.403-5.804,70.541-17.436
			c19.133-11.616,34.603-28.337,46.408-50.162v-254.29c-12.165-21.096-27.809-37.631-46.945-49.618
			c-19.138-11.982-42.109-17.977-68.934-17.977c-44.702,0-77.876,18.784-99.509,56.338c-21.647,37.557-32.455,86.191-32.455,145.921
			V1839.529z"/>
		<path fill="#002352" d="M4507.092,1387.814h-130.368v-114.264h130.368V1387.814z M4507.092,2110.444h-130.368v-580.466h130.368
			V2110.444z"/>
		<path fill="#002352" d="M4904.08,1830.405h-281.65v-104.614h281.65V1830.405z"/>
		<path fill="#002352" d="M5168.02,2110.444h-130.361v-781.108h130.361V2110.444z"/>
		<path fill="#002352" d="M5346.127,2110.444v-781.108h253.223c99.055,0,179.627,30.942,241.678,92.812
			c62.052,61.881,93.085,141.453,93.085,238.732v118.56c0,97.634-31.033,177.215-93.085,238.722
			c-62.051,61.529-142.615,92.275-241.678,92.275h-253.223V2110.444z M5476.494,1433.953v571.882h119.096
			c64.722,0,115.61-21.089,152.625-63.246c37.016-42.169,55.525-96.654,55.525-163.481V1659.59
			c0-66.104-18.51-120.238-55.525-162.397c-37.015-42.16-87.899-63.246-152.625-63.246h-119.096V1433.953z"/>
	</g>
</g>
</svg>
