<?xml version="1.0" encoding="utf-8"?>
<!-- Generator: Adobe Illustrator 19.2.1, SVG Export Plug-In . SVG Version: 6.00 Build 0)  -->
<svg version="1.1" id="Layer_1" xmlns="http://www.w3.org/2000/svg" xmlns:xlink="http://www.w3.org/1999/xlink" x="0px" y="0px"
	 viewBox="0 0 500 500" style="enable-background:new 0 0 500 500;" xml:space="preserve">
<style type="text/css">
	.st0{fill:#2692D8;}
</style>
<path class="st0" d="M199.9,298.8v-48.5c0-23.5-12.6-36.2-33.9-36.2c-7.9,0-14.9,6.2-18,11.1c0-7.4,0-23.7,0-23.7
	c0-7.7-4.8-13.2-14.6-13.2h-6.5v96.8c0,8.4,4.4,13.8,14.1,13.8h6.7v-47c0-14.6,8.4-19.5,14.9-19.5c9,0,16.4,5.4,16.4,18.9v33.8
	c0,8.9,5.4,13.8,14,13.7H199.9z"/>
<path class="st0" d="M172.9,317.4c-5.5,0-8,3.8-8,7.6v7.8c0,1.6,1.2,2.9,3.1,2.9h1.3v-10.3c0-2.5,1.3-4,3.2-4c2.3,0,3.6,1.3,3.6,4.3
	v7.1c0,1.6,1.2,2.9,3.2,2.9h1.2h0.1v-10.4C180.6,320.2,177.1,317.4,172.9,317.4z"/>
<path class="st0" d="M253.5,214.2c-29.2,0-41.5,19-41.5,46.5v50.1c0,8.9,7,14.3,14.4,14.3h6.5c0,0,0-25.1,0-36.6
	c4.2,7.1,11.7,12.3,20.9,12.3c24.2,0,37.4-19.2,37.3-45.7C291.1,234.2,275.5,214.2,253.5,214.2z M253,282.5
	c-12.3,0-20.4-9.4-20.4-26c0-14.3,6.3-24.1,17.7-24.1c13.2,0,19.7,8.5,19.6,28C269.9,273.6,263,282.5,253,282.5z"/>
<path class="st0" d="M253.4,317.6c-6.1,0-9.6,4.4-9.6,9.5c0,5.1,4.2,8.9,9.1,8.9c3.2,0,5.3-1.5,5.3-3.7v-2.1H258
	c-0.6,0.9-2.2,1.7-4.7,1.7c-3,0-4.9-2.3-4.9-5.5c0-2.6,2.3-4.7,4.9-4.7c2.5,0,4.2,0.9,4.8,1.9h0.2v-2.2
	C258.3,319.3,256.2,317.6,253.4,317.6z"/>
<path class="st0" d="M156.6,316.5c1.4,0,2.6-1.2,2.6-2.6c0-1.4-1.2-2.6-2.6-2.6c-1.4,0-2.6,1.2-2.6,2.6
	C154,315.3,155.1,316.5,156.6,316.5z"/>
<path class="st0" d="M98.2,317.7c-4.7,0-6.6,3.4-6.6,7v8.2c0,1.8,1.2,2.8,3.2,2.8H96v-10.3c0-2.7,1.1-3.8,3.1-3.8
	c1.2,0,1.9,0.2,2.6,0.5h0.2v-1.5C101.9,319.3,100.9,317.7,98.2,317.7z"/>
<path class="st0" d="M158.9,329.8v-8.3c0-2.2-1.2-3.3-3.2-3.3h-1.3c0,0,0,11.1,0,12.1c0,3.6,1.9,5.6,5.3,5.6c1.8,0,2.6-0.8,2.6-2.7
	h0.1v-1.1h-0.8C159.7,332.1,158.9,331.6,158.9,329.8z"/>
<path class="st0" d="M83.5,317.6c-6.1,0-9.6,4.4-9.6,9.5c0,5.1,4.2,8.9,9.1,8.9c3.2,0,5.3-1.5,5.3-3.7v-2.1h-0.2
	c-0.6,0.9-2.2,1.7-4.7,1.7c-3,0-4.9-2.3-4.9-5.5c0-2.6,2.3-4.7,4.9-4.7c2.5,0,4.2,0.9,4.8,1.9h0.2v-2.2
	C88.4,319.3,86.3,317.6,83.5,317.6z"/>
<path class="st0" d="M117.7,255.1c0-20.9-15.6-40.9-37.6-40.9c-29.2,0-41.5,19-41.5,46.5v50.1c0,8.9,7,14.3,14.4,14.3h6.4
	c0,0,0-25.1,0-36.6c4.1,7,11.7,12.3,21,12.4C104.5,300.9,117.7,281.7,117.7,255.1z M59,256.5c0-14.3,6.3-24.1,17.7-24.1
	c13.2,0,19.7,8.5,19.7,28c0,13.2-6.9,22.1-17,22.1C67.1,282.5,59,273.1,59,256.5z"/>
<path class="st0" d="M299.9,317.5c-2.1,0-4.1,1.1-5.1,2.8c-1.3-1.7-3.1-2.8-5.4-2.8c-5.4,0-7.9,3.2-7.9,8.1v6.9c0,2,1.4,3.2,3.2,3.2
	h1.2v-10.5c0-2.4,1.3-3.8,3-3.8c1.9,0,3.3,1.3,3.3,4.2v6.9c0,2.1,1.2,3.2,3.2,3.2h1.2v-10.6c0-2.4,1.2-3.7,3-3.7
	c2,0,3.3,1.3,3.3,4.2v6.9c0,2.1,1,3.2,3.4,3.2h1V325C307.3,320,304,317.5,299.9,317.5z"/>
<path class="st0" d="M145,313.9h-1c-0.7,0-1.5,0.5-2.1,1.2c-1,1.1-1.3,1.7-1.3,3.5v10.7c0,4.2,2.2,6.6,6.7,6.6c2.6,0,3.9-1.2,3.9-3
	v-1.6H151c-0.7,0.4-1.8,0.6-3.2,0.6c-1.8,0-2.8-0.9-2.8-3.2v-7h3.6c1.8,0,2.6-1.2,2.6-2.1v-1.7H145V313.9z"/>
<path class="st0" d="M442.9,243.3c10.4-3.1,16.7-10.6,16.7-22.3c0-17.2-14.3-27.8-34.4-27.8h-12.7c-8.8,0-22.7,3-27.8,4.8v76.4
	c0,16.4,9.6,25,29.3,25h11.4c19.2,0,36.1-11.8,36.1-33.1C461.5,257.1,453.5,246.2,442.9,243.3z M405.4,211.9c3-0.5,6.5-1.1,9.1-1.1
	h7.8c7.9,0,16.3,2.9,16.3,12.1c0,9.1-7.7,12.7-17.1,12.8h-16.1V211.9z M423.4,280.2h-8.6c-5.2,0-9.2-2.9-9.2-6.6v-21.7h16.7
	c12.3,0,18,3.7,18,15.1C440.3,275,434.8,280.2,423.4,280.2z"/>
<path class="st0" d="M397.6,313.9h-1c-0.7,0-1.5,0.5-2.1,1.2c-1,1.1-1.3,1.7-1.3,3.5v10.7c0,4.2,2.2,6.6,6.7,6.6
	c2.6,0,3.9-1.2,3.9-3v-1.6h-0.2c-0.7,0.4-1.8,0.6-3.2,0.6c-1.8,0-2.8-0.9-2.8-3.2v-7h3.5c1.8,0,2.6-1.2,2.6-2.1h0.1v-1.7h-6.2V313.9
	z"/>
<path class="st0" d="M387.1,329.8v-8.3c0-2.2-1.2-3.3-3.2-3.3h-1.3c0,0,0,11.1,0,12.1c0,3.6,1.9,5.6,5.3,5.6c1.8,0,2.6-0.8,2.6-2.7
	h0.1v-1.1h-0.8C387.9,332.1,387.1,331.6,387.1,329.8z"/>
<path class="st0" d="M411.5,329.8v-8.3c0-2.2-1.2-3.3-3.2-3.3H407c0,0,0,11.1,0,12.1c0,3.6,1.9,5.6,5.3,5.6c1.8,0,2.6-0.8,2.6-2.7
	h0.1v-1.1h-0.8C412.3,332.1,411.5,331.6,411.5,329.8z"/>
<path class="st0" d="M409.1,316.5c1.4,0,2.6-1.2,2.6-2.6c0-1.4-1.2-2.6-2.6-2.6c-1.4,0-2.6,1.2-2.6,2.6
	C406.5,315.3,407.7,316.5,409.1,316.5z"/>
<path class="st0" d="M330.1,317.5c-2.1,0-4.1,1.1-5.1,2.8c-1.3-1.7-3.1-2.8-5.4-2.8c-5.4,0-7.9,3.2-7.9,8.1v6.9c0,2,1.4,3.2,3.2,3.2
	h1.2v-10.5c0-2.4,1.3-3.8,3-3.8c1.9,0,3.3,1.3,3.3,4.2v6.9c0,2.1,1.2,3.2,3.2,3.2h1.2v-10.6c0-2.4,1.2-3.7,3-3.7
	c2,0,3.3,1.3,3.3,4.2v6.9c0,2.1,1,3.2,3.4,3.2h1V325C337.5,320,334.2,317.5,330.1,317.5z"/>
<path class="st0" d="M384.7,316.5c1.4,0,2.6-1.2,2.6-2.6c0-1.4-1.2-2.6-2.6-2.6s-2.6,1.2-2.6,2.6
	C382.1,315.3,383.3,316.5,384.7,316.5z"/>
<path class="st0" d="M443,325c-3.1-0.5-3.6-0.9-3.6-1.8c0-1.2,0.9-2,3.6-2c2.1,0,4.2,0.8,5.1,1.7h0.2v-1.7c0-1.7-1.7-3.8-5.7-3.8
	c-4.6,0-7.6,2.9-7.6,6.2c0,2.7,1.8,4.2,5.6,4.7c3.1,0.5,3.7,1,3.7,2c0,1.4-1,2-3.2,2s-4.4-0.8-5.4-1.7h-0.2v2c0,1.8,2.4,3.5,5.7,3.5
	c4.8,0,7.5-2.3,7.5-6C448.7,327.2,446.7,325.6,443,325z"/>
<path class="st0" d="M376.3,266.3c0-9.2-8-20.1-18.6-23c10.4-3.1,16.7-10.6,16.7-22.3c0-17.2-14.3-27.8-34.4-27.8h-12.7
	c-8.8,0-22.7,3-27.8,4.8v76.4c0,16.4,9.6,25,29.3,25v-0.1h11.4C359.4,299.3,376.3,287.5,376.3,266.3z M320.2,211.9
	c3-0.5,6.5-1.1,9.1-1.1h7.8c7.9,0,16.3,2.9,16.3,12.1c0,9.1-7.7,12.7-17.1,12.8h-16.1V211.9z M338.2,280.2h-8.6
	c-5.2,0-9.2-2.9-9.2-6.6v-21.7h16.7c12.3,0,18,3.7,18,15.1C355.1,275,349.6,280.2,338.2,280.2z"/>
<path class="st0" d="M353.9,317.9h-0.8v10c0,3-1.3,4.3-3.1,4.3c-2,0-3.6-1.3-3.6-4.6V321c0-2.1-1.2-3.2-3.7-3.2h-0.8V328
	c0,5.2,3.5,8.1,7.9,8.1c5.2,0,7.8-2.8,7.8-8.4v-6.6C357.6,319,356.5,317.9,353.9,317.9z"/>
<path class="st0" d="M369.9,317.4c-5.5,0-8,3.8-8,7.6v7.8c0,1.6,1.2,2.9,3.1,2.9h1.4v-10.3c0-2.5,1.3-4,3.2-4c2.3,0,3.6,1.3,3.6,4.3
	v7.1c0,1.6,1.2,2.9,3.2,2.9h1.2v-10.4C377.6,320.2,374.1,317.4,369.9,317.4z"/>
<path class="st0" d="M426.2,332.3c-2.7,0-4.7-1.4-5.1-3.8h2.9c5.9,0,8.4-1,8.4-4.3c0-4.3-3.4-6.9-7.1-6.9c-5.1,0-8.7,3.7-8.7,9.7
	c0,5.5,4.4,9,8.8,9c4.9,0,6.5-1.7,6.5-4v-1.4h-0.2C430.2,331.9,428.1,332.3,426.2,332.3z M421.2,324.9c0.1-2,1.5-3.8,3.7-3.8
	c2.1,0,3.4,0.9,3.4,2.7c0,1.2-1,1.7-5.1,1.7h-2V324.9z"/>
<path class="st0" d="M269.5,317.4c-5.7,0-8.8,4.3-8.8,9.7c0,4.7,3,9,8.4,9c5.8,0,8.9-4.3,8.8-9.7
	C277.9,321.7,274.9,317.4,269.5,317.4z M269.5,332.2c-2.9,0-4.2-2.2-4.2-5.7c0-3,1.3-5.1,3.8-5.1c2.9,0,4.3,2.1,4.2,5.8
	C273.3,330.1,272.1,332.2,269.5,332.2z"/>
<path class="st0" d="M200.7,328.2v-3c0-4.6-2.9-7.8-7.3-7.8c-5.8,0-9.1,4.1-9.1,9.1c0,4.2,3.1,7.2,7.4,7.2c2.5,0,4.2-1.3,4.6-2.6
	v0.4c0,0.2,0,0.6,0,0.9s0,0.6,0,0.9c0,2.6-1.5,4.1-4.7,4.1c-2.6,0-4.6-0.8-5.7-1.9h-0.2v2c0,2.1,2.5,3.9,6.2,3.9c5.7,0,8.7-4,9-8.5
	c0-0.6-0.1-1.6-0.1-2.3C200.7,329.8,200.7,328.8,200.7,328.2z M192.2,329.9c-2.1,0-3.5-1.7-3.5-4c0-2.7,1.7-4.6,4-4.6
	c1.9,0,3.3,1.4,3.3,4.1C196,328.2,194.4,329.9,192.2,329.9z"/>
<path class="st0" d="M129.4,317.5c-4.7,0-6.5,2.4-6.5,4.4v1.4h0.2c0.7-0.9,2.5-2.1,5.7-2.1c2.6,0,3.8,0.8,3.8,3.3v0.2H131
	c-6.6,0-8.9,2.4-8.9,5.6c0,3.3,2.9,5.7,7.1,5.7h0.9c4,0,6.8-2.6,6.8-6.4v-4.1C136.9,319.4,133.4,317.5,129.4,317.5z M132.5,329.6
	c0,1.8-0.9,2.7-2.8,2.7c-2,0-3.1-0.8-3.1-2.2c0-1.4,1-2.2,4.4-2.2h1.5V329.6z"/>
<path class="st0" d="M119.4,324.2c0-4.3-3.4-6.9-7.1-6.9c-5.1,0-8.7,3.7-8.7,9.7c0,5.5,4.4,9,8.8,9c4.9,0,6.5-1.7,6.5-4v-1.4h-0.2
	c-1.5,1.3-3.6,1.7-5.5,1.7c-2.6,0-4.7-1.4-5.1-3.8h2.9C116.9,328.5,119.4,327.5,119.4,324.2z M108.2,325.5v-0.6
	c0.1-2,1.5-3.8,3.7-3.8c2.1,0,3.4,0.9,3.4,2.7c0,1.2-0.9,1.7-5.1,1.7H108.2z"/>
</svg>
