<?xml version="1.0" encoding="utf-8"?>
<!-- Generator: Adobe Illustrator 16.0.4, SVG Export Plug-In . SVG Version: 6.00 Build 0)  -->
<!DOCTYPE svg PUBLIC "-//W3C//DTD SVG 1.1//EN" "http://www.w3.org/Graphics/SVG/1.1/DTD/svg11.dtd">
<svg version="1.1" id="_x30_02" xmlns="http://www.w3.org/2000/svg" xmlns:xlink="http://www.w3.org/1999/xlink" x="0px" y="0px"
	 width="128px" height="128px" viewBox="0 0 128 128" style="enable-background:new 0 0 128 128;" xml:space="preserve">
<style type="text/css">
<![CDATA[
	.st0{fill:#FFFFFF;stroke:#6D6DAA;stroke-width:2;stroke-linecap:round;stroke-linejoin:round;stroke-miterlimit:10;}
	.st1{opacity:0.3;fill:#C1A29F;}
	.st2{opacity:0.3;fill:#93765F;}
	.st3{fill:#48BC33;}
	.st4{fill:#8593BA;stroke:#6D6DAA;stroke-width:2;stroke-linecap:round;stroke-linejoin:round;stroke-miterlimit:10;}
	.st5{fill:#E0F3FF;}
	.st6{fill:#FF99B1;stroke:#6D6DAA;stroke-width:2;stroke-linecap:round;stroke-linejoin:round;stroke-miterlimit:10;}
	
		.st7{fill-rule:evenodd;clip-rule:evenodd;fill:#939FC6;stroke:#6D6DAA;stroke-width:2;stroke-linecap:round;stroke-linejoin:round;stroke-miterlimit:10;}
	.st8{fill:none;stroke:#6D6DAA;stroke-width:2;stroke-linecap:round;stroke-linejoin:round;stroke-dasharray:0,4;}
	.st9{fill:none;stroke:#6D6DAA;stroke-width:2;stroke-linecap:round;stroke-linejoin:round;stroke-dasharray:0.1849,2.7739;}
	.st10{opacity:0.3;fill:#FF9797;}
	.st11{opacity:0.3;fill:#FFF9E0;}
	.st12{opacity:0.3;fill:#FFFFFF;}
	.st13{opacity:0.3;fill-rule:evenodd;clip-rule:evenodd;fill:#FFF9E0;}
	.st14{fill:#4C5A7F;}
	.st15{fill:#D4EDFF;stroke:#6D6DAA;stroke-width:2;stroke-linecap:round;stroke-linejoin:round;stroke-miterlimit:10;}
	.st16{fill:#FF9797;stroke:#6D6DAA;stroke-width:2;stroke-linecap:round;stroke-linejoin:round;stroke-miterlimit:10;}
	.st17{fill-rule:evenodd;clip-rule:evenodd;fill:#DDD9FF;}
	.st18{fill:#4FBDFF;}
	.st19{fill:#80D880;}
	.st20{fill:#B1F1A8;}
	.st21{opacity:0.3;fill:#CC7E54;}
	.st22{opacity:0.5;fill:#FFFFFF;stroke:#6D6DAA;stroke-width:2;stroke-linecap:round;stroke-linejoin:round;stroke-miterlimit:10;}
	.st23{opacity:0.3;fill:#9EB2CC;}
	.st24{fill:none;stroke:#6D6DAA;stroke-width:2;stroke-linecap:round;stroke-linejoin:round;stroke-dasharray:0,11.9632;}
	.st25{fill:#EAE2B0;}
	.st26{fill:none;stroke:#FFFFFF;stroke-width:2;stroke-linecap:round;stroke-linejoin:round;stroke-miterlimit:10;}
	
		.st27{fill-rule:evenodd;clip-rule:evenodd;fill:#CED8EE;stroke:#6D6DAA;stroke-width:2;stroke-linecap:round;stroke-linejoin:round;stroke-miterlimit:10;}
	.st28{fill:#FFD599;stroke:#6D6DAA;stroke-width:2;stroke-linecap:round;stroke-linejoin:round;stroke-miterlimit:10;}
	.st29{fill:#89DBBA;}
	.st30{opacity:0.5;fill:#F7A706;}
	.st31{fill:#EEF6FF;}
	.st32{fill:#EFDCD2;}
	.st33{opacity:0.3;fill:#6E7EB0;}
	.st34{opacity:0.3;fill:#0070B8;}
	.st35{opacity:0.8;fill:#FFFFFF;}
	.st36{fill:#B1F1A8;stroke:#6D6DAA;stroke-width:2;stroke-linecap:round;stroke-linejoin:round;stroke-miterlimit:10;}
	.st37{fill:none;stroke:#FF9797;stroke-width:2;stroke-linecap:round;stroke-linejoin:round;stroke-miterlimit:10;}
	.st38{opacity:0.25;fill:#FFFFFF;}
	.st39{fill:#59D19A;}
	.st40{fill:#97C1FF;stroke:#6D6DAA;stroke-width:2;stroke-linecap:round;stroke-linejoin:round;stroke-miterlimit:10;}
	.st41{fill:none;stroke:#6D6DAA;stroke-width:2;stroke-linecap:round;stroke-linejoin:round;}
	.st42{fill:#EEF6FF;stroke:#6D6DAA;stroke-width:2;stroke-linecap:round;stroke-linejoin:round;stroke-miterlimit:10;}
	.st43{opacity:0.3;fill:#D63C74;}
	.st44{fill:#231F20;}
	.st45{fill:#FFF27D;stroke:#6D6DAA;stroke-width:2;stroke-linecap:round;stroke-linejoin:round;stroke-miterlimit:10;}
	.st46{opacity:0.5;fill:#FFF9E0;}
	.st47{opacity:0.5;fill:#FFFFFF;}
	.st48{fill:none;stroke:#505070;stroke-width:2;stroke-linecap:round;stroke-linejoin:round;stroke-miterlimit:10;}
	.st49{fill:none;stroke:#5CBEFF;stroke-width:2;stroke-linecap:round;stroke-linejoin:round;stroke-miterlimit:10;}
	.st50{opacity:0.3;fill:#7369D6;}
	.st51{fill:#5CBEFF;}
	.st52{fill:none;stroke:#B6B6D4;stroke-width:2;stroke-linecap:round;stroke-linejoin:round;stroke-miterlimit:10;}
	.st53{opacity:0.3;fill:#7595B5;}
	.st54{fill:#F9E2DC;}
	.st55{clip-path:url(#SVGID_2_);}
	.st56{clip-path:url(#SVGID_4_);}
	.st57{clip-path:url(#SVGID_6_);}
	.st58{clip-path:url(#SVGID_8_);}
	.st59{opacity:0.3;fill:#7690A8;}
	.st60{opacity:0.3;fill:#DB4962;}
	.st61{fill:#C1A29F;}
	.st62{fill:#939FC6;}
	.st63{fill:none;stroke:#6D6DAA;stroke-width:2;stroke-linecap:round;stroke-linejoin:round;stroke-dasharray:0,12.6778;}
	.st64{fill:none;stroke:#6D6DAA;stroke-width:2;stroke-linecap:round;stroke-linejoin:round;stroke-dasharray:0,12.6781;}
	.st65{opacity:0.5;fill-rule:evenodd;clip-rule:evenodd;fill:#FFFFFF;}
	.st66{fill:none;stroke:#FFF27D;stroke-width:2;stroke-linecap:round;stroke-linejoin:round;stroke-miterlimit:10;}
	.st67{fill:none;stroke:#B1F1A8;stroke-width:2;stroke-linecap:round;stroke-linejoin:round;stroke-miterlimit:10;}
	.st68{fill:none;stroke:#5B6875;stroke-width:2;stroke-linecap:round;stroke-linejoin:round;stroke-miterlimit:10;}
	.st69{fill:#96D7FF;}
	.st70{fill:#97C1FF;}
	.st71{opacity:0.3;fill:none;stroke:#6D6DAA;stroke-width:2;stroke-linecap:round;stroke-linejoin:round;stroke-miterlimit:10;}
	.st72{fill:#C7E9FF;}
	.st73{fill:#C9C1F5;}
	.st74{opacity:0.3;}
	.st75{opacity:0.5;}
	.st76{opacity:0.7;}
	.st77{opacity:0.75;fill:#FFFFFF;}
	.st78{fill:#FFFAD1;stroke:#6D6DAA;stroke-width:2;stroke-linecap:round;stroke-linejoin:round;stroke-miterlimit:10;}
	.st79{fill:#FEDBC1;}
	.st80{fill:#FF91A9;}
	.st81{fill:#FF968C;}
	.st82{fill:#FF9797;}
	.st83{fill:#FF99B1;}
	.st84{fill:#6D6DAA;stroke:#6D6DAA;stroke-width:2;stroke-linecap:round;stroke-linejoin:round;stroke-miterlimit:10;}
	.st85{fill:#FFC661;}
	.st86{fill:#FFD288;}
	.st87{fill:#FFD599;}
	.st88{fill:#FFF27D;}
	.st89{fill:#FFF2CC;}
	.st90{fill:#FFF9E0;}
	.st91{fill:#FFFAD1;}
	.st92{fill:#FFFFFF;}
	.st93{opacity:0.3;fill:#48BC33;}
	.st94{opacity:0.5;fill:none;stroke:#6D6DAA;stroke-width:2;stroke-linecap:round;stroke-linejoin:round;stroke-miterlimit:10;}
	.st95{opacity:0.2;fill:#FFFFFF;stroke:#6D6DAA;stroke-width:2;stroke-linecap:round;stroke-linejoin:round;stroke-miterlimit:10;}
	.st96{opacity:0.4;fill:#F7A706;}
	.st97{fill:#CC7E54;}
	.st98{fill:none;stroke:#6D6DAA;stroke-width:2;stroke-linecap:round;stroke-linejoin:round;stroke-dasharray:0.1789,2.6841;}
	.st99{fill:#9EB2CC;}
	.st100{fill:#CED8EE;}
	.st101{fill:#9FADD3;}
	.st102{fill:#D6B5B0;stroke:#6D6DAA;stroke-width:2;stroke-linecap:round;stroke-linejoin:round;stroke-miterlimit:10;}
	.st103{fill:#939FC6;stroke:#6D6DAA;stroke-width:2;stroke-linecap:round;stroke-linejoin:round;stroke-miterlimit:10;}
	.st104{opacity:0.3;fill:#4C5A7F;}
	.st105{fill:#F2EED5;stroke:#6D6DAA;stroke-width:2;stroke-linecap:round;stroke-linejoin:round;stroke-miterlimit:10;}
	.st106{opacity:0.3;fill:#4F649E;}
	.st107{fill:none;stroke:#6D6DAA;stroke-width:2;stroke-linecap:round;stroke-linejoin:round;stroke-dasharray:0.1905,2.8574;}
	.st108{fill:#6D6DAA;}
	.st109{opacity:0.3;fill:#8484CF;}
	.st110{fill:#C9C1F5;stroke:#6D6DAA;stroke-width:2;stroke-linecap:round;stroke-linejoin:round;stroke-miterlimit:10;}
	.st111{fill:none;stroke:#6D6DAA;stroke-width:2;stroke-linecap:round;stroke-linejoin:round;stroke-dasharray:0.1967,2.9499;}
	.st112{fill-rule:evenodd;clip-rule:evenodd;fill:#C9C1F5;}
	.st113{fill-rule:evenodd;clip-rule:evenodd;fill:#FF99B1;}
	.st114{opacity:0.3;fill:#1C64BA;}
	.st115{fill-rule:evenodd;clip-rule:evenodd;fill:#FFFFFF;}
	.st116{fill:#89DBBA;stroke:#6D6DAA;stroke-width:2;stroke-linecap:round;stroke-linejoin:round;stroke-miterlimit:10;}
	.st117{fill:#FF9797;stroke:#6D6DAA;stroke-width:2;stroke-miterlimit:10;}
	.st118{fill:#FFC661;stroke:#6D6DAA;stroke-width:2;stroke-linecap:round;stroke-linejoin:round;stroke-miterlimit:10;}
	.st119{fill:#D4EDFF;}
	.st120{fill:none;stroke:#FF99B1;stroke-width:2;stroke-linecap:round;stroke-linejoin:round;stroke-miterlimit:10;}
	.st121{fill:#E0F3FF;stroke:#6D6DAA;stroke-width:2;stroke-linecap:round;stroke-linejoin:round;stroke-miterlimit:10;}
	.st122{fill:#FF968C;stroke:#6D6DAA;stroke-width:2;stroke-linecap:round;stroke-linejoin:round;stroke-miterlimit:10;}
	.st123{fill:#CED8EE;stroke:#6D6DAA;stroke-width:2;stroke-linecap:round;stroke-linejoin:round;stroke-miterlimit:10;}
	.st124{fill:#96D7FF;stroke:#6D6DAA;stroke-width:2;stroke-linecap:round;stroke-linejoin:round;stroke-miterlimit:10;}
	.st125{fill:#D6B5B0;}
	.st126{opacity:0.3;fill:#554DAD;}
	.st127{opacity:0.3;fill-rule:evenodd;clip-rule:evenodd;fill:#554DAD;}
	.st128{opacity:0.5;fill:#939FC6;stroke:#6D6DAA;stroke-width:2;stroke-linecap:round;stroke-linejoin:round;stroke-miterlimit:10;}
	.st129{fill:none;stroke:#6D6DAA;stroke-width:2;stroke-linecap:round;stroke-linejoin:round;stroke-dasharray:0.1923,2.8843;}
	.st130{clip-path:url(#SVGID_10_);}
	.st131{clip-path:url(#SVGID_12_);}
	.st132{clip-path:url(#SVGID_14_);}
	.st133{clip-path:url(#SVGID_16_);}
	.st134{fill:none;stroke:#5ECCA0;stroke-width:2;stroke-linecap:round;stroke-linejoin:round;stroke-miterlimit:10;}
	.st135{opacity:0.3;fill:#BF914C;}
	.st136{fill:#7690A8;}
	.st137{fill:#DB4962;}
	.st138{opacity:0.7;fill:#FFFFFF;stroke:#6D6DAA;stroke-width:2;stroke-linecap:round;stroke-linejoin:round;stroke-miterlimit:10;}
	
		.st139{fill-rule:evenodd;clip-rule:evenodd;fill:none;stroke:#6D6DAA;stroke-width:2;stroke-linecap:round;stroke-linejoin:round;stroke-miterlimit:10;}
	.st140{fill:#A8D5FF;}
	.st141{fill:#FFF2CC;stroke:#6D6DAA;stroke-width:2;stroke-linecap:round;stroke-linejoin:round;stroke-miterlimit:10;}
	.st142{opacity:0.3;fill:#5B58BC;}
	.st143{opacity:0.3;fill:#289963;}
	.st144{opacity:0.3;fill:#5CBEFF;}
	.st145{fill:none;stroke:#939FC6;stroke-width:2;stroke-linecap:round;stroke-linejoin:round;stroke-miterlimit:10;}
	.st146{fill:none;stroke:#6D6DAA;stroke-width:2;stroke-linecap:round;stroke-linejoin:round;stroke-miterlimit:10;}
]]>
</style>
<g class="st74">
	<path class="st70" d="M126.7,49.7c-1.9-12.8-11.5-22.5-23.5-25c-4.3-0.9-8.1-3.2-10.9-6.5c-2.5-3-5.5-5.6-9.1-7.7
		c-15.5-9.4-35.9-6.1-47.5,7.8c-3.9,4.6-6.4,9.8-7.7,15.3c-1.4,5.9-5.5,10.9-10.9,13.7C3,54.5-4.1,73.6,8.8,91.5
		c1.5,2.1,3.9,3.7,6.4,4.9c4.6,2.2,8.1,6.1,10,10.9c3.2,7.7,9.7,14,18.3,16.6c8.6,2.5,17.4,0.8,24.3-3.9c4.8-3.4,10.9-4.5,16.6-2.9
		c8.3,2.2,17.4,0.8,24.9-4.7c9.4-6.9,13.4-18.4,11.2-29.1c-1-4.9,0-9.8,2.5-14.1C126.2,63.4,127.7,56.6,126.7,49.7z"/>
	<g>
		<rect x="51" y="37" class="st92" width="34" height="22"/>
		<rect x="51" y="37" class="st146" width="34" height="22"/>
		<line class="st94" x1="56" y1="42" x2="68" y2="42"/>
		<line class="st94" x1="56" y1="46" x2="63" y2="46"/>
	</g>
	<g>
		<rect x="17" y="12" class="st0" width="40" height="46"/>
		<rect x="21" y="16" class="st103" width="32" height="30"/>
	</g>
	<g>
		<rect x="5" y="31" class="st0" width="40" height="46"/>
		<rect x="9" y="35" class="st124" width="32" height="30"/>
		<polygon class="st36" points="41,65 9,65 17.6,55.8 23.3,60.6 31,50 		"/>
		<circle class="st45" cx="17" cy="43" r="4"/>
	</g>
	<g>
		<path class="st92" d="M125,127H53c-1.1,0-2-0.9-2-2V79c0-1.1,0.9-2,2-2h72c1.1,0,2,0.9,2,2v46C127,126.1,126.1,127,125,127z"/>
		<g>
			<polygon class="st69" points="58.8,127 108.8,77 103.2,77 53.2,127 			"/>
			<polygon class="st82" points="66.8,127 116.8,77 111.2,77 61.2,127 			"/>
			<polygon class="st69" points="74.8,127 124.8,77 119.2,77 69.2,127 			"/>
			<path class="st82" d="M82.8,127L127,82.8V79c0-0.5-0.2-1-0.5-1.3L77.2,127H82.8z"/>
			<polygon class="st69" points="90.8,127 127,90.8 127,85.2 85.2,127 			"/>
			<polygon class="st82" points="51,94.8 68.8,77 63.2,77 51,89.2 			"/>
			<polygon class="st69" points="51,102.8 76.8,77 71.2,77 51,97.2 			"/>
			<polygon class="st82" points="51,110.8 84.8,77 79.2,77 51,105.2 			"/>
			<polygon class="st69" points="51,118.8 92.8,77 87.2,77 51,113.2 			"/>
			<path class="st82" d="M95.2,77L51,121.2v3.8c0,0.5,0.2,1,0.5,1.3L100.8,77H95.2z"/>
			<polygon class="st82" points="98.8,127 127,98.8 127,93.2 93.2,127 			"/>
			<polygon class="st69" points="106.8,127 127,106.8 127,101.2 101.2,127 			"/>
			<polygon class="st82" points="114.8,127 127,114.8 127,109.2 109.2,127 			"/>
			<polygon class="st69" points="122.8,127 127,122.8 127,117.2 117.2,127 			"/>
			<polygon class="st69" points="51,86.8 60.8,77 55.2,77 51,81.2 			"/>
		</g>
		<rect x="54" y="80" class="st31" width="70" height="44"/>
		<rect x="106" y="85" class="st124" width="13" height="12"/>
		<path class="st146" d="M125,127H53c-1.1,0-2-0.9-2-2V79c0-1.1,0.9-2,2-2h72c1.1,0,2,0.9,2,2v46C127,126.1,126.1,127,125,127z"/>
		<g class="st75">
			<line class="st146" x1="61" y1="109" x2="70" y2="109"/>
			<line class="st146" x1="61" y1="113" x2="88" y2="113"/>
			<line class="st146" x1="61" y1="117" x2="88" y2="117"/>
		</g>
		<g>
			<line class="st146" x1="109" y1="92" x2="109" y2="90"/>
			<line class="st146" x1="109" y1="91" x2="116" y2="91"/>
			<line class="st146" x1="111" y1="88" x2="114" y2="91"/>
			<line class="st146" x1="111" y1="94" x2="114" y2="91"/>
		</g>
	</g>
	<g>
		<polygon class="st92" points="29,122 29,114 37,114 		"/>
		<polygon class="st89" points="29,122 3,122 3,88 37,88 37,114 29,114 		"/>
		<rect x="3" y="88" class="st1" width="34" height="5"/>
		<polygon class="st146" points="29,122 29,114 37,114 		"/>
		<polygon class="st146" points="29,122 3,122 3,88 37,88 37,114 29,114 		"/>
	</g>
	<g>
		<polygon class="st31" points="30,24 28,24 26,23 24,24 22,23 20,24 18,23 16,24 14,23 12,24 10,24 10,22 11,20 10,18 11,16 10,14 
			11,12 10,10 11,8 10,6 10,4 12,4 14,5 16,4 18,5 20,4 22,5 24,4 26,5 28,4 30,4 30,6 29,8 30,10 29,12 30,14 29,16 30,18 29,20 
			30,22 		"/>
		<polygon class="st146" points="30,24 28,24 26,23 24,24 22,23 20,24 18,23 16,24 14,23 12,24 10,24 10,22 11,20 10,18 11,16 
			10,14 11,12 10,10 11,8 10,6 10,4 12,4 14,5 16,4 18,5 20,4 22,5 24,4 26,5 28,4 30,4 30,6 29,8 30,10 29,12 30,14 29,16 30,18 
			29,20 30,22 		"/>
		<rect x="15" y="9" class="st19" width="10" height="10"/>
		<rect x="15" y="9" class="st146" width="10" height="10"/>
	</g>
	<g>
		<path class="st31" d="M121,34H80c-1.1,0-2-0.9-2-2V3c0-1.1,0.9-2,2-2h41c1.1,0,2,0.9,2,2v29C123,33.1,122.1,34,121,34z"/>
		<path class="st92" d="M78,3v1h45V3c0-1.1-0.9-2-2-2H80C78.9,1,78,1.9,78,3z"/>
		<path class="st146" d="M121,34H80c-1.1,0-2-0.9-2-2V3c0-1.1,0.9-2,2-2h41c1.1,0,2,0.9,2,2v29C123,33.1,122.1,34,121,34z"/>
		<g>
			<rect x="82" y="5" class="st69" width="18" height="21"/>
			<g>
				<path class="st54" d="M91.5,22.8h-1.1c-0.6,0-1.2-0.2-1.6-0.7l-1.4-1.4c-0.4-0.4-0.7-1-0.7-1.6v-4.2c0-1.4,1.1-2.5,2.5-2.5h3.4
					c1.4,0,2.5,1.1,2.5,2.5v4.2c0,0.6-0.2,1.2-0.7,1.6l-1.4,1.4C92.7,22.5,92.1,22.8,91.5,22.8z"/>
				<path class="st21" d="M93.2,21.3c-0.4,0.4-1,0.7-1.6,0.7h-1.1c-0.6,0-1.2-0.2-1.6-0.7l-1.4-1.4c-0.4-0.4-0.7-1-0.7-1.6v0.8
					c0,0.6,0.2,1.2,0.7,1.6l1.4,1.4c0.4,0.4,1,0.7,1.6,0.7h1.1c0.6,0,1.2-0.2,1.6-0.7l1.4-1.4c0.4-0.4,0.7-1,0.7-1.6v-0.8
					c0,0.6-0.2,1.2-0.7,1.6L93.2,21.3z"/>
				<path class="st21" d="M92.7,12.4h-3.4c-1.4,0-2.5,1.1-2.5,2.5v0.7c0-1.3,2.1-2.3,3.8-2.3c-0.7,0.6-0.9,1.7-0.6,2.1
					c2.1-1.5,2.9-0.1,4.6-0.5c0.7-0.2,0.7,1.3,0.7,1.3v-1.3C95.2,13.5,94.1,12.4,92.7,12.4z"/>
				<path class="st87" d="M93.2,10.4c1.5,0.7,3.3,2.4,2.5,5c-0.1,0.4-0.4,0-0.5,0.2c0,0,0-1.5-0.7-1.3c-1.7,0.4-2.5-1-4.6,0.5
					c-0.3-0.5-0.1-1.6,0.6-2.1c-1.7,0-3.8,1.1-3.8,2.3c0,0-0.6-0.4-0.6-0.8c-0.2-1.9,0.8-2.8,2.5-3.6c0.3-0.1,0.1-2,0.4-1.7
					C90,9.7,92.5,10,93.2,10.4z"/>
				<g class="st74">
					<path class="st97" d="M90.6,12c-1.7,0-3.8,1.1-3.8,2.3c0,0-0.6-0.4-0.6-0.8c0-0.1,0-0.1,0-0.2c0,0.2,0,0.5,0,0.8
						c0,0.4,0.6,0.8,0.6,0.8c0-1.1,1.7-2.1,3.3-2.3C90.2,12.4,90.3,12.1,90.6,12z"/>
					<path class="st97" d="M95.7,14.7c-0.1,0.4-0.4,0-0.5,0.2c0,0,0-1.5-0.7-1.3c-1.7,0.4-2.5-1-4.6,0.5c0-0.1-0.1-0.2-0.1-0.2
						c-0.1,0.3,0,0.7,0.1,0.9c2.1-1.5,2.9-0.1,4.6-0.5c0.7-0.2,0.7,1.3,0.7,1.3c0.1-0.2,0.4,0.2,0.5-0.2c0.2-0.5,0.2-1.1,0.2-1.5
						C95.9,14.1,95.8,14.4,95.7,14.7z"/>
				</g>
				<path class="st54" d="M95.2,17.7L95.2,17.7v-2.1l0,0c0.5,0,0.8,0.4,0.8,0.8v0.4C96.1,17.3,95.7,17.7,95.2,17.7z"/>
				<path class="st54" d="M86.8,17.7L86.8,17.7v-2.1l0,0c-0.5,0-0.8,0.4-0.8,0.8v0.4C85.9,17.3,86.3,17.7,86.8,17.7z"/>
				<path class="st146" d="M93.2,10.4c1.5,0.7,3.3,2.4,2.5,5c-0.1,0.4-0.4,0-0.5,0.2c0,0,0-1.5-0.7-1.3c-1.7,0.4-2.5-1-4.6,0.5
					c-0.3-0.5-0.1-1.6,0.6-2.1c-1.7,0-3.8,1.1-3.8,2.3c0,0-0.6-0.4-0.6-0.8c-0.2-1.9,0.8-2.8,2.5-3.6c0.3-0.1,0.1-2,0.4-1.7
					C90,9.7,92.5,10,93.2,10.4z"/>
				<path class="st146" d="M95.2,17.7L95.2,17.7v-2.1l0,0c0.5,0,0.8,0.4,0.8,0.8v0.4C96.1,17.3,95.7,17.7,95.2,17.7z"/>
				<path class="st146" d="M86.8,17.7L86.8,17.7v-2.1l0,0c-0.5,0-0.8,0.4-0.8,0.8v0.4C85.9,17.3,86.3,17.7,86.8,17.7z"/>
				<path class="st0" d="M88.7,10.5c0,0.4-0.2,0.8-0.4,1.3"/>
				<path class="st146" d="M95.2,15.6v3.5c0,0.6-0.2,1.2-0.7,1.6l-1.4,1.4c-0.4,0.4-1,0.7-1.6,0.7h-1.1c-0.6,0-1.2-0.2-1.6-0.7
					l-1.4-1.4c-0.4-0.4-0.7-1-0.7-1.6v-4.2"/>
				<line class="st146" x1="89.5" y1="17" x2="89.5" y2="17"/>
				<line class="st146" x1="92.5" y1="17" x2="92.5" y2="17"/>
			</g>
			<rect x="82" y="5" class="st114" width="18" height="3"/>
			<polygon class="st12" points="100,10.5 82,19 82,22 100,13.5 			"/>
			<polygon class="st12" points="100,5 82,5 82,16.5 100,8.2 			"/>
			<rect x="82" y="5" class="st146" width="18" height="21"/>
		</g>
		<g class="st75">
			<g>
				<line class="st146" x1="104" y1="7" x2="111" y2="7"/>
			</g>
			<g>
				<line class="st146" x1="104" y1="11" x2="119" y2="11"/>
			</g>
			<g>
				<line class="st146" x1="104" y1="18" x2="119" y2="18"/>
			</g>
			<g>
				<line class="st146" x1="82" y1="30" x2="84" y2="30"/>
			</g>
			<g>
				<line class="st146" x1="87" y1="30" x2="89" y2="30"/>
			</g>
			<g>
				<line class="st146" x1="92" y1="30" x2="94" y2="30"/>
			</g>
			<g>
				<line class="st146" x1="97" y1="30" x2="99" y2="30"/>
			</g>
			<g>
				<line class="st146" x1="102" y1="30" x2="104" y2="30"/>
			</g>
			<g>
				<line class="st146" x1="107" y1="30" x2="109" y2="30"/>
			</g>
			<g>
				<line class="st146" x1="112" y1="30" x2="114" y2="30"/>
			</g>
			<g>
				<line class="st146" x1="117" y1="30" x2="119" y2="30"/>
			</g>
			<g>
				<line class="st146" x1="104" y1="22" x2="107" y2="22"/>
			</g>
			<g>
				<line class="st146" x1="110" y1="22" x2="119" y2="22"/>
			</g>
		</g>
	</g>
</g>
<path class="st42" d="M79,115H37c-2.2,0-4-1.8-4-4V27c0-2.2,1.8-4,4-4h42c2.2,0,4,1.8,4,4v84C83,113.2,81.2,115,79,115z"/>
<g>
	<g>
		<rect x="33" y="31" class="st73" width="50" height="72"/>
		<polygon class="st142" points="33,31 39,37 77,37 83,31 		"/>
		<rect x="39" y="37" class="st146" width="38" height="60"/>
		<line class="st146" x1="33" y1="31" x2="39" y2="37"/>
		<line class="st146" x1="33" y1="103" x2="39" y2="97"/>
		<line class="st146" x1="83" y1="31" x2="77" y2="37"/>
		<line class="st146" x1="83" y1="103" x2="77" y2="97"/>
		<g>
			<polygon class="st0" points="49,55 38,55 38,41 46,41 49,44 			"/>
			<g class="st75">
				<line class="st146" x1="42" y1="48" x2="45" y2="48"/>
				<line class="st146" x1="42" y1="51" x2="45" y2="51"/>
			</g>
			<polygon class="st146" points="46,41 46,44 49,44 			"/>
		</g>
		<g>
			<polygon class="st0" points="64,55 53,55 53,41 61,41 64,44 			"/>
			<g class="st75">
				<line class="st146" x1="57" y1="48" x2="60" y2="48"/>
				<line class="st146" x1="57" y1="51" x2="60" y2="51"/>
			</g>
			<polygon class="st146" points="61,41 61,44 64,44 			"/>
		</g>
		<g>
			<polygon class="st0" points="68,55 57,55 57,41 65,41 68,44 			"/>
			<g class="st75">
				<line class="st146" x1="61" y1="48" x2="64" y2="48"/>
				<line class="st146" x1="61" y1="51" x2="64" y2="51"/>
			</g>
			<polygon class="st146" points="65,41 65,44 68,44 			"/>
		</g>
		<g>
			<polygon class="st0" points="74,55 63,55 63,41 71,41 74,44 			"/>
			<g class="st75">
				<line class="st146" x1="67" y1="48" x2="70" y2="48"/>
				<line class="st146" x1="67" y1="51" x2="70" y2="51"/>
			</g>
			<polygon class="st146" points="71,41 71,44 74,44 			"/>
		</g>
		<g>
			
				<ellipse transform="matrix(0.9647 -0.2632 0.2632 0.9647 -18.2788 14.3012)" class="st124" cx="44.2" cy="75.4" rx="1.9" ry="1.6"/>
			
				<ellipse transform="matrix(0.9411 -0.3381 0.3381 0.9411 -21.8261 22.1881)" class="st124" cx="52.8" cy="73.7" rx="1.9" ry="1.6"/>
			<line class="st146" x1="46.1" y1="75.1" x2="46.1" y2="68.7"/>
			<line class="st146" x1="54.6" y1="73.5" x2="54.6" y2="66.6"/>
			<polygon class="st124" points="54.6,66.6 46.1,68.7 46.1,65.2 54.6,63 			"/>
		</g>
		<g>
			<circle class="st6" cx="66" cy="70" r="7"/>
			<polygon class="st0" points="64.1,73.2 64.1,66.8 69.2,70 			"/>
		</g>
		<rect x="38" y="55" class="st123" width="40" height="4"/>
		<rect x="38" y="77" class="st123" width="40" height="4"/>
		<g>
			<rect x="43" y="85" class="st0" width="14" height="14"/>
			<rect x="46" y="88" class="st36" width="8" height="7"/>
		</g>
		<g>
			<path class="st42" d="M74,93V91l-1.7-0.6c-0.1-0.4-0.3-0.8-0.5-1.2l0.8-1.6l-1.4-1.4l-1.6,0.8c-0.4-0.2-0.8-0.4-1.2-0.5L68,85H66
				l-0.6,1.7c-0.4,0.1-0.8,0.3-1.2,0.5l-1.6-0.8l-1.4,1.4l0.8,1.6c-0.2,0.4-0.4,0.8-0.5,1.2L60,91V93l1.7,0.6
				c0.1,0.4,0.3,0.8,0.5,1.2l-0.8,1.6l1.4,1.4l1.6-0.8c0.4,0.2,0.8,0.4,1.2,0.5L66,99H68l0.6-1.7c0.4-0.1,0.8-0.3,1.2-0.5l1.6,0.8
				l1.4-1.4l-0.8-1.6c0.2-0.4,0.4-0.8,0.5-1.2L74,93z M67,93.2c-0.6,0-1.2-0.5-1.2-1.2s0.5-1.2,1.2-1.2c0.6,0,1.2,0.5,1.2,1.2
				S67.6,93.2,67,93.2z"/>
		</g>
		<rect x="33" y="31" class="st146" width="50" height="72"/>
	</g>
</g>
<line class="st146" x1="55" y1="27" x2="61" y2="27"/>
<line class="st146" x1="51" y1="27" x2="51" y2="27"/>
<circle class="st123" cx="58" cy="109" r="3"/>
<g>
	<path class="st73" d="M100,111h6c1.1,0,2-0.9,2-2V25c0-1.1-0.9-2-2-2h-6c-0.6,0-1,0.4-1,1v86C99,110.6,99.4,111,100,111z"/>
	<path class="st126" d="M108,40L108,40h-3c-2.2,0-4,1.8-4,4s1.8,4,4,4h3l0,0V40z"/>
	<path class="st126" d="M108,90L108,90h-3c-2.2,0-4,1.8-4,4c0,2.2,1.8,4,4,4h3l0,0V90z"/>
	<path class="st126" d="M108,105v4c0,1.1-0.9,2-2,2h-6c-0.6,0-1-0.4-1-1v-3h7C107.1,107,108,106.1,108,105z"/>
	<path class="st12" d="M100,23h6c1.1,0,2,0.9,2,2v4c0-1.1-0.9-2-2-2h-7v-3C99,23.5,99.4,23,100,23z"/>
	<path class="st31" d="M82.7,102.2l14.7,7.7c0.7,0.5,1.6,0,1.6-0.8V25c0-0.8-0.9-1.3-1.6-0.8l-14.7,7.7c-1.1,0.8-1.7,2-1.7,3.3V99
		C81,100.3,81.6,101.5,82.7,102.2z"/>
	<path class="st59" d="M82.7,98.2l14.7,7.7c0.7,0.5,1.6,0,1.6-0.8v4c0,0.8-0.9,1.3-1.6,0.8l-14.7-7.7c-1.1-0.8-1.7-2-1.7-3.3v-4
		C81,96.3,81.6,97.5,82.7,98.2z"/>
	<path class="st92" d="M82.7,31.8l14.7-7.7c0.7-0.5,1.6,0,1.6,0.8v4c0-0.8-0.9-1.3-1.6-0.8l-14.7,7.7c-1.1,0.8-1.7,2-1.7,3.3v-4
		C81,33.8,81.6,32.6,82.7,31.8z"/>
	<path class="st146" d="M100.3,23h5.7c1.1,0,2,0.9,2,2v84c0,1.1-0.9,2-2,2h-5.7c-0.8,0-1.6-0.3-2.3-0.7l-15.3-8.1
		c-1.1-0.8-1.7-2-1.7-3.3V35.1c0-1.3,0.6-2.5,1.7-3.3L98,23.8C98.6,23.3,99.4,23,100.3,23z"/>
	<g>
		<path class="st123" d="M105,95h3v-6h-3c-1.7,0-3,1.3-3,3l0,0C102,93.7,103.3,95,105,95z"/>
		<circle class="st0" cx="108" cy="92" r="3"/>
		<path class="st123" d="M105,45h3v-6h-3c-1.7,0-3,1.3-3,3l0,0C102,43.7,103.3,45,105,45z"/>
		<circle class="st0" cx="108" cy="42" r="3"/>
	</g>
	<line class="st42" x1="84" y1="35" x2="84" y2="35"/>
	<line class="st146" x1="84" y1="99" x2="84" y2="99"/>
	<line class="st42" x1="96" y1="29" x2="96" y2="29"/>
	<line class="st146" x1="96" y1="105" x2="96" y2="105"/>
	<path class="st123" d="M108,55v4h3v16h-3v4h3c2.2,0,4-1.8,4-4V59c0-2.2-1.8-4-4-4H108z"/>
	<line class="st123" x1="99" y1="23.2" x2="99" y2="110.8"/>
	<path class="st0" d="M79,44v-1c0-1.1,0.9-2,2-2l0,0c1.1,0,2,0.9,2,2v1c0,1.1-0.9,2-2,2l0,0C79.9,46,79,45.1,79,44z"/>
	<path class="st0" d="M79,91v-1c0-1.1,0.9-2,2-2l0,0c1.1,0,2,0.9,2,2v1c0,1.1-0.9,2-2,2l0,0C79.9,93,79,92.1,79,91z"/>
</g>
</svg>
