<?xml version="1.0" encoding="utf-8"?>
<!-- Generator: Adobe Illustrator 16.0.4, SVG Export Plug-In . SVG Version: 6.00 Build 0)  -->
<!DOCTYPE svg PUBLIC "-//W3C//DTD SVG 1.1//EN" "http://www.w3.org/Graphics/SVG/1.1/DTD/svg11.dtd">
<svg version="1.1" id="_x30_02" xmlns="http://www.w3.org/2000/svg" xmlns:xlink="http://www.w3.org/1999/xlink" x="0px" y="0px"
	 width="128px" height="128px" viewBox="0 0 128 128" style="enable-background:new 0 0 128 128;" xml:space="preserve">
<style type="text/css">
<![CDATA[
	.st0{fill:#FFFFFF;stroke:#6D6DAA;stroke-width:2;stroke-linecap:round;stroke-linejoin:round;stroke-miterlimit:10;}
	.st1{opacity:0.3;fill:#C1A29F;}
	.st2{opacity:0.3;fill:#93765F;}
	.st3{fill:#48BC33;}
	.st4{fill:#8593BA;stroke:#6D6DAA;stroke-width:2;stroke-linecap:round;stroke-linejoin:round;stroke-miterlimit:10;}
	.st5{fill:#E0F3FF;}
	.st6{fill:#FF99B1;stroke:#6D6DAA;stroke-width:2;stroke-linecap:round;stroke-linejoin:round;stroke-miterlimit:10;}
	
		.st7{fill-rule:evenodd;clip-rule:evenodd;fill:#939FC6;stroke:#6D6DAA;stroke-width:2;stroke-linecap:round;stroke-linejoin:round;stroke-miterlimit:10;}
	.st8{fill:none;stroke:#6D6DAA;stroke-width:2;stroke-linecap:round;stroke-linejoin:round;stroke-dasharray:0,4;}
	.st9{fill:none;stroke:#6D6DAA;stroke-width:2;stroke-linecap:round;stroke-linejoin:round;stroke-dasharray:0.1849,2.7739;}
	.st10{opacity:0.3;fill:#FF9797;}
	.st11{opacity:0.3;fill:#FFF9E0;}
	.st12{opacity:0.3;fill:#FFFFFF;}
	.st13{opacity:0.3;fill-rule:evenodd;clip-rule:evenodd;fill:#FFF9E0;}
	.st14{fill:#4C5A7F;}
	.st15{fill:#D4EDFF;stroke:#6D6DAA;stroke-width:2;stroke-linecap:round;stroke-linejoin:round;stroke-miterlimit:10;}
	.st16{fill:#FF9797;stroke:#6D6DAA;stroke-width:2;stroke-linecap:round;stroke-linejoin:round;stroke-miterlimit:10;}
	.st17{fill-rule:evenodd;clip-rule:evenodd;fill:#DDD9FF;}
	.st18{fill:#4FBDFF;}
	.st19{fill:#80D880;}
	.st20{fill:#B1F1A8;}
	.st21{opacity:0.3;fill:#CC7E54;}
	.st22{opacity:0.5;fill:#FFFFFF;stroke:#6D6DAA;stroke-width:2;stroke-linecap:round;stroke-linejoin:round;stroke-miterlimit:10;}
	.st23{opacity:0.3;fill:#9EB2CC;}
	.st24{fill:none;stroke:#6D6DAA;stroke-width:2;stroke-linecap:round;stroke-linejoin:round;stroke-dasharray:0,11.9632;}
	.st25{fill:#EAE2B0;}
	.st26{fill:none;stroke:#FFFFFF;stroke-width:2;stroke-linecap:round;stroke-linejoin:round;stroke-miterlimit:10;}
	
		.st27{fill-rule:evenodd;clip-rule:evenodd;fill:#CED8EE;stroke:#6D6DAA;stroke-width:2;stroke-linecap:round;stroke-linejoin:round;stroke-miterlimit:10;}
	.st28{fill:#FFD599;stroke:#6D6DAA;stroke-width:2;stroke-linecap:round;stroke-linejoin:round;stroke-miterlimit:10;}
	.st29{fill:#89DBBA;}
	.st30{opacity:0.5;fill:#F7A706;}
	.st31{fill:#EEF6FF;}
	.st32{fill:#EFDCD2;}
	.st33{opacity:0.3;fill:#6E7EB0;}
	.st34{opacity:0.3;fill:#0070B8;}
	.st35{opacity:0.8;fill:#FFFFFF;}
	.st36{fill:#B1F1A8;stroke:#6D6DAA;stroke-width:2;stroke-linecap:round;stroke-linejoin:round;stroke-miterlimit:10;}
	.st37{fill:none;stroke:#FF9797;stroke-width:2;stroke-linecap:round;stroke-linejoin:round;stroke-miterlimit:10;}
	.st38{opacity:0.25;fill:#FFFFFF;}
	.st39{fill:#59D19A;}
	.st40{fill:#97C1FF;stroke:#6D6DAA;stroke-width:2;stroke-linecap:round;stroke-linejoin:round;stroke-miterlimit:10;}
	.st41{fill:none;stroke:#6D6DAA;stroke-width:2;stroke-linecap:round;stroke-linejoin:round;}
	.st42{fill:#EEF6FF;stroke:#6D6DAA;stroke-width:2;stroke-linecap:round;stroke-linejoin:round;stroke-miterlimit:10;}
	.st43{opacity:0.3;fill:#D63C74;}
	.st44{fill:#231F20;}
	.st45{fill:#FFF27D;stroke:#6D6DAA;stroke-width:2;stroke-linecap:round;stroke-linejoin:round;stroke-miterlimit:10;}
	.st46{opacity:0.5;fill:#FFF9E0;}
	.st47{opacity:0.5;fill:#FFFFFF;}
	.st48{fill:none;stroke:#505070;stroke-width:2;stroke-linecap:round;stroke-linejoin:round;stroke-miterlimit:10;}
	.st49{fill:none;stroke:#5CBEFF;stroke-width:2;stroke-linecap:round;stroke-linejoin:round;stroke-miterlimit:10;}
	.st50{opacity:0.3;fill:#7369D6;}
	.st51{fill:#5CBEFF;}
	.st52{fill:none;stroke:#B6B6D4;stroke-width:2;stroke-linecap:round;stroke-linejoin:round;stroke-miterlimit:10;}
	.st53{opacity:0.3;fill:#7595B5;}
	.st54{fill:#F9E2DC;}
	.st55{clip-path:url(#SVGID_2_);}
	.st56{clip-path:url(#SVGID_4_);}
	.st57{clip-path:url(#SVGID_6_);}
	.st58{clip-path:url(#SVGID_8_);}
	.st59{opacity:0.3;fill:#7690A8;}
	.st60{opacity:0.3;fill:#DB4962;}
	.st61{fill:#C1A29F;}
	.st62{fill:#939FC6;}
	.st63{fill:none;stroke:#6D6DAA;stroke-width:2;stroke-linecap:round;stroke-linejoin:round;stroke-dasharray:0,12.6778;}
	.st64{fill:none;stroke:#6D6DAA;stroke-width:2;stroke-linecap:round;stroke-linejoin:round;stroke-dasharray:0,12.6781;}
	.st65{opacity:0.5;fill-rule:evenodd;clip-rule:evenodd;fill:#FFFFFF;}
	.st66{fill:none;stroke:#FFF27D;stroke-width:2;stroke-linecap:round;stroke-linejoin:round;stroke-miterlimit:10;}
	.st67{fill:none;stroke:#B1F1A8;stroke-width:2;stroke-linecap:round;stroke-linejoin:round;stroke-miterlimit:10;}
	.st68{fill:none;stroke:#5B6875;stroke-width:2;stroke-linecap:round;stroke-linejoin:round;stroke-miterlimit:10;}
	.st69{fill:#96D7FF;}
	.st70{fill:#97C1FF;}
	.st71{opacity:0.3;fill:none;stroke:#6D6DAA;stroke-width:2;stroke-linecap:round;stroke-linejoin:round;stroke-miterlimit:10;}
	.st72{fill:#C7E9FF;}
	.st73{fill:#C9C1F5;}
	.st74{opacity:0.3;}
	.st75{opacity:0.5;}
	.st76{opacity:0.7;}
	.st77{opacity:0.75;fill:#FFFFFF;}
	.st78{fill:#FFFAD1;stroke:#6D6DAA;stroke-width:2;stroke-linecap:round;stroke-linejoin:round;stroke-miterlimit:10;}
	.st79{fill:#FEDBC1;}
	.st80{fill:#FF91A9;}
	.st81{fill:#FF968C;}
	.st82{fill:#FF9797;}
	.st83{fill:#FF99B1;}
	.st84{fill:#6D6DAA;stroke:#6D6DAA;stroke-width:2;stroke-linecap:round;stroke-linejoin:round;stroke-miterlimit:10;}
	.st85{fill:#FFC661;}
	.st86{fill:#FFD288;}
	.st87{fill:#FFD599;}
	.st88{fill:#FFF27D;}
	.st89{fill:#FFF2CC;}
	.st90{fill:#FFF9E0;}
	.st91{fill:#FFFAD1;}
	.st92{fill:#FFFFFF;}
	.st93{opacity:0.3;fill:#48BC33;}
	.st94{opacity:0.5;fill:none;stroke:#6D6DAA;stroke-width:2;stroke-linecap:round;stroke-linejoin:round;stroke-miterlimit:10;}
	.st95{opacity:0.2;fill:#FFFFFF;stroke:#6D6DAA;stroke-width:2;stroke-linecap:round;stroke-linejoin:round;stroke-miterlimit:10;}
	.st96{opacity:0.4;fill:#F7A706;}
	.st97{fill:#CC7E54;}
	.st98{fill:none;stroke:#6D6DAA;stroke-width:2;stroke-linecap:round;stroke-linejoin:round;stroke-dasharray:0.1789,2.6841;}
	.st99{fill:#9EB2CC;}
	.st100{fill:#CED8EE;}
	.st101{fill:#9FADD3;}
	.st102{fill:#D6B5B0;stroke:#6D6DAA;stroke-width:2;stroke-linecap:round;stroke-linejoin:round;stroke-miterlimit:10;}
	.st103{fill:#939FC6;stroke:#6D6DAA;stroke-width:2;stroke-linecap:round;stroke-linejoin:round;stroke-miterlimit:10;}
	.st104{opacity:0.3;fill:#4C5A7F;}
	.st105{fill:#F2EED5;stroke:#6D6DAA;stroke-width:2;stroke-linecap:round;stroke-linejoin:round;stroke-miterlimit:10;}
	.st106{opacity:0.3;fill:#4F649E;}
	.st107{fill:none;stroke:#6D6DAA;stroke-width:2;stroke-linecap:round;stroke-linejoin:round;stroke-dasharray:0.1905,2.8574;}
	.st108{fill:#6D6DAA;}
	.st109{opacity:0.3;fill:#8484CF;}
	.st110{fill:#C9C1F5;stroke:#6D6DAA;stroke-width:2;stroke-linecap:round;stroke-linejoin:round;stroke-miterlimit:10;}
	.st111{fill:none;stroke:#6D6DAA;stroke-width:2;stroke-linecap:round;stroke-linejoin:round;stroke-dasharray:0.1967,2.9499;}
	.st112{fill-rule:evenodd;clip-rule:evenodd;fill:#C9C1F5;}
	.st113{fill-rule:evenodd;clip-rule:evenodd;fill:#FF99B1;}
	.st114{opacity:0.3;fill:#1C64BA;}
	.st115{fill-rule:evenodd;clip-rule:evenodd;fill:#FFFFFF;}
	.st116{fill:#89DBBA;stroke:#6D6DAA;stroke-width:2;stroke-linecap:round;stroke-linejoin:round;stroke-miterlimit:10;}
	.st117{fill:#FF9797;stroke:#6D6DAA;stroke-width:2;stroke-miterlimit:10;}
	.st118{fill:#FFC661;stroke:#6D6DAA;stroke-width:2;stroke-linecap:round;stroke-linejoin:round;stroke-miterlimit:10;}
	.st119{fill:#D4EDFF;}
	.st120{fill:none;stroke:#FF99B1;stroke-width:2;stroke-linecap:round;stroke-linejoin:round;stroke-miterlimit:10;}
	.st121{fill:#E0F3FF;stroke:#6D6DAA;stroke-width:2;stroke-linecap:round;stroke-linejoin:round;stroke-miterlimit:10;}
	.st122{fill:#FF968C;stroke:#6D6DAA;stroke-width:2;stroke-linecap:round;stroke-linejoin:round;stroke-miterlimit:10;}
	.st123{fill:#CED8EE;stroke:#6D6DAA;stroke-width:2;stroke-linecap:round;stroke-linejoin:round;stroke-miterlimit:10;}
	.st124{fill:#96D7FF;stroke:#6D6DAA;stroke-width:2;stroke-linecap:round;stroke-linejoin:round;stroke-miterlimit:10;}
	.st125{fill:#D6B5B0;}
	.st126{opacity:0.3;fill:#554DAD;}
	.st127{opacity:0.3;fill-rule:evenodd;clip-rule:evenodd;fill:#554DAD;}
	.st128{opacity:0.5;fill:#939FC6;stroke:#6D6DAA;stroke-width:2;stroke-linecap:round;stroke-linejoin:round;stroke-miterlimit:10;}
	.st129{fill:none;stroke:#6D6DAA;stroke-width:2;stroke-linecap:round;stroke-linejoin:round;stroke-dasharray:0.1923,2.8843;}
	.st130{clip-path:url(#SVGID_10_);}
	.st131{clip-path:url(#SVGID_12_);}
	.st132{clip-path:url(#SVGID_14_);}
	.st133{clip-path:url(#SVGID_16_);}
	.st134{fill:none;stroke:#5ECCA0;stroke-width:2;stroke-linecap:round;stroke-linejoin:round;stroke-miterlimit:10;}
	.st135{opacity:0.3;fill:#BF914C;}
	.st136{fill:#7690A8;}
	.st137{fill:#DB4962;}
	.st138{opacity:0.7;fill:#FFFFFF;stroke:#6D6DAA;stroke-width:2;stroke-linecap:round;stroke-linejoin:round;stroke-miterlimit:10;}
	
		.st139{fill-rule:evenodd;clip-rule:evenodd;fill:none;stroke:#6D6DAA;stroke-width:2;stroke-linecap:round;stroke-linejoin:round;stroke-miterlimit:10;}
	.st140{fill:#A8D5FF;}
	.st141{fill:#FFF2CC;stroke:#6D6DAA;stroke-width:2;stroke-linecap:round;stroke-linejoin:round;stroke-miterlimit:10;}
	.st142{opacity:0.3;fill:#5B58BC;}
	.st143{opacity:0.3;fill:#289963;}
	.st144{opacity:0.3;fill:#5CBEFF;}
	.st145{fill:none;stroke:#939FC6;stroke-width:2;stroke-linecap:round;stroke-linejoin:round;stroke-miterlimit:10;}
	.st146{fill:none;stroke:#6D6DAA;stroke-width:2;stroke-linecap:round;stroke-linejoin:round;stroke-miterlimit:10;}
]]>
</style>
<g class="st74">
	<path class="st70" d="M126.2,49.7c-1.9-12.8-11.5-22.5-23.5-25c-4.3-0.9-8.1-3.2-10.9-6.5c-2.5-3-5.5-5.6-9.1-7.7
		c-15.5-9.4-35.9-6.1-47.5,7.8c-3.9,4.7-6.5,10-7.8,15.6c-1.3,5.8-5.1,10.5-10.4,13.2c-9.9,5-16.5,15.6-15.4,27.7
		C2.8,88,13.7,98.8,27.2,99.9c12,1,22.6-5.7,27.5-15.6c1.6-3.3,4.9-5.3,8.5-5.3c0.3,0,0.6,0,0.9,0c5.8-0.1,10.7,4.1,12,9.7
		c0.4,1.7,1.1,3.5,2,5.1c4.7,8.4,15,12.2,24,9c8-2.8,13-10.1,13.3-17.9c0.2-4.5,1.7-8.8,4.5-12.3C125,66.4,127.4,58.2,126.2,49.7z"
		/>
	<g>
		<path class="st31" d="M44.7,25.5c0-0.4,0.1-0.8,0.1-1.2C44.8,18,39.8,13,33.5,13c-4.8,0-9,3-10.6,7.3c-1-0.8-2.3-1.3-3.7-1.3
			c-3.3,0-6,2.7-6,6c0,0.2,0,0.3,0,0.5c-3.5,1.2-6.1,4.6-6.1,8.5c0,5,4,9,9,9h25.6c5,0,9-4,9-9C50.8,30.1,48.3,26.7,44.7,25.5z"/>
		<path class="st144" d="M41.8,40H16.2c-4.5,0-8.2-3.3-8.9-7.5c-0.1,0.5-0.1,1-0.1,1.5c0,5,4,9,9,9h25.6c5,0,9-4,9-9
			c0-0.5,0-1-0.1-1.5C50,36.7,46.3,40,41.8,40z"/>
		<path class="st92" d="M13.2,28.5c0-0.2,0-0.3,0-0.5c0-3.3,2.7-6,6-6c1.4,0,2.7,0.5,3.7,1.3C24.6,19,28.7,16,33.5,16
			c6.2,0,11.3,5,11.3,11.2c0,0.4,0,0.8-0.1,1.2c3.1,1.1,5.4,3.7,6,7c0.1-0.5,0.1-1,0.1-1.5c0-3.9-2.6-7.3-6.1-8.5
			c0-0.4,0.1-0.8,0.1-1.2C44.8,18,39.8,13,33.5,13c-4.8,0-9,3-10.6,7.3c-1-0.8-2.3-1.3-3.7-1.3c-3.3,0-6,2.7-6,6c0,0.2,0,0.3,0,0.5
			c-3.5,1.2-6.1,4.6-6.1,8.5c0,0.5,0.1,1,0.1,1.5C7.8,32.2,10.2,29.6,13.2,28.5z"/>
		<path class="st146" d="M44.7,25.5c0-0.4,0.1-0.8,0.1-1.2C44.8,18,39.8,13,33.5,13c-4.8,0-9,3-10.6,7.3c-1-0.8-2.3-1.3-3.7-1.3
			c-3.3,0-6,2.7-6,6c0,0.2,0,0.3,0,0.5c-3.5,1.2-6.1,4.6-6.1,8.5c0,5,4,9,9,9h25.6c5,0,9-4,9-9C50.8,30.1,48.3,26.7,44.7,25.5z"/>
		<path class="st42" d="M41.8,25c1,0,2,0.2,3,0.5"/>
		<path class="st42" d="M13.2,25.5c0.9-0.3,1.9-0.5,3-0.5"/>
		<path class="st42" d="M22.9,20.3c0.7,0.5,1.2,1.2,1.6,2"/>
	</g>
	<g>
		<path class="st31" d="M94.6,21.7c0-0.2,0-0.4,0-0.7c0-3.3,2.7-6,6-6c2.6,0,4.8,1.6,5.6,3.9c0.5-0.4,1.2-0.7,2-0.7
			c1.8,0,3.2,1.4,3.2,3.2c0,0.1,0,0.2,0,0.3c1.9,0.7,3.2,2.4,3.2,4.5c0,2.7-2.2,4.8-4.8,4.8H96.2c-2.7,0-4.8-2.1-4.8-4.8
			C91.4,24.1,92.7,22.3,94.6,21.7z"/>
		<path class="st92" d="M94.6,23.7c0-0.2,0-0.4,0-0.7c0-3.3,2.7-6,6-6c2.6,0,4.8,1.6,5.6,3.9c0.5-0.4,1.2-0.7,2-0.7
			c1.8,0,3.2,1.4,3.2,3.2c0,0.1,0,0.2,0,0.3c1.6,0.5,2.8,1.9,3.1,3.5c0.1-0.3,0.1-0.7,0.1-1c0-2.1-1.3-3.9-3.2-4.5
			c0-0.1,0-0.2,0-0.3c0-1.8-1.4-3.2-3.2-3.2c-0.8,0-1.4,0.3-2,0.7c-0.9-2.3-3.1-3.9-5.6-3.9c-3.3,0-6,2.7-6,6c0,0.2,0,0.4,0,0.7
			c-1.9,0.6-3.3,2.4-3.3,4.5c0,0.4,0,0.7,0.1,1C91.8,25.6,93,24.2,94.6,23.7z"/>
		<path class="st144" d="M109.8,29H96.2c-2.3,0-4.2-1.6-4.7-3.8c-0.1,0.3-0.1,0.6-0.1,1c0,2.7,2.2,4.8,4.8,4.8h13.7
			c2.7,0,4.8-2.1,4.8-4.8c0-0.3,0-0.7-0.1-1C114.1,27.4,112.1,29,109.8,29z"/>
		<path class="st146" d="M94.6,21.7c0-0.2,0-0.4,0-0.7c0-3.3,2.7-6,6-6c2.6,0,4.8,1.6,5.6,3.9c0.5-0.4,1.2-0.7,2-0.7
			c1.8,0,3.2,1.4,3.2,3.2c0,0.1,0,0.2,0,0.3c1.9,0.7,3.2,2.4,3.2,4.5c0,2.7-2.2,4.8-4.8,4.8H96.2c-2.7,0-4.8-2.1-4.8-4.8
			C91.4,24.1,92.7,22.3,94.6,21.7z"/>
		<path class="st42" d="M96.2,21.4c-0.6,0-1.1,0.1-1.6,0.3"/>
		<path class="st42" d="M111.4,21.7c-0.5-0.2-1-0.3-1.6-0.3"/>
		<path class="st42" d="M106.3,18.9c-0.4,0.3-0.7,0.6-0.9,1"/>
	</g>
	<g>
		<path class="st31" d="M90.8,58c-0.2-0.6-0.3-1.3-0.3-2c0-4.4,3.6-8,8-8c1.5,0,2.9,0.4,4.1,1.2c1.9-2.5,4.9-4.2,8.4-4.2
			c5.4,0,9.9,4.1,10.4,9.4c2.9,1,5.1,3.8,5.1,7.1c0,4.1-3.4,7.5-7.5,7.5l-28,0c-3,0-5.5-2.5-5.5-5.5C85.5,60.5,87.8,58.1,90.8,58z"
			/>
		<path class="st92" d="M90.8,61c-0.2-0.6-0.3-1.3-0.3-2c0-0.3,0-0.6,0.1-1c-2.8,0.2-5.1,2.6-5.1,5.5c0,0.5,0.1,1,0.2,1.5
			C86.4,62.8,88.3,61.1,90.8,61z"/>
		<path class="st92" d="M98.5,51c1.5,0,2.9,0.4,4.1,1.2c1.9-2.5,4.9-4.2,8.4-4.2c5.4,0,9.9,4.1,10.4,9.4c2.5,0.9,4.4,3,4.9,5.6
			c0.1-0.5,0.2-1,0.2-1.5c0-3.3-2.1-6.1-5.1-7.1c-0.5-5.3-5-9.4-10.4-9.4c-3.4,0-6.4,1.6-8.4,4.2c-1.2-0.7-2.6-1.2-4.1-1.2
			c-4.4,0-8,3.6-8,8c0,0.5,0.1,1,0.2,1.4C91.4,53.8,94.6,51,98.5,51z"/>
		<path class="st51" d="M90.8,55c0-0.2-0.1-0.4-0.1-0.6c0,0.2-0.1,0.4-0.1,0.6C90.6,55,90.7,55,90.8,55z"/>
		<path class="st144" d="M119,66l-28,0c-2.5,0-4.6-1.7-5.3-4c-0.1,0.5-0.2,1-0.2,1.5c0,3,2.5,5.5,5.5,5.5l28,0
			c4.1,0,7.5-3.4,7.5-7.5c0-0.5-0.1-1-0.2-1.5C125.6,63.4,122.6,66,119,66z"/>
		<path class="st146" d="M90.8,58c-0.2-0.6-0.3-1.3-0.3-2c0-4.4,3.6-8,8-8c1.5,0,2.9,0.4,4.1,1.2c1.9-2.5,4.9-4.2,8.4-4.2
			c5.4,0,9.9,4.1,10.4,9.4c2.9,1,5.1,3.8,5.1,7.1c0,4.1-3.4,7.5-7.5,7.5l-28,0c-3,0-5.5-2.5-5.5-5.5C85.5,60.5,87.8,58.1,90.8,58z"
			/>
		<path class="st146" d="M111,45c5.8,0,10.5,4.7,10.5,10.5c0,1.1-0.2,2.2-0.5,3.2"/>
		<path class="st146" d="M91,58c1.4,0,2.7,0.5,3.6,1.4"/>
		<path class="st146" d="M98.5,48c2.7,0,5.1,1.3,6.5,3.3"/>
	</g>
	<g>
		<line class="st26" x1="122" y1="85" x2="122" y2="85"/>
		<line class="st26" x1="114" y1="89" x2="120" y2="89"/>
		<line class="st26" x1="111" y1="85" x2="118" y2="85"/>
		<line class="st26" x1="108" y1="89" x2="110" y2="89"/>
		<line class="st26" x1="110" y1="93" x2="118" y2="93"/>
	</g>
	<g>
		<line class="st26" x1="16" y1="77" x2="16" y2="77"/>
		<line class="st26" x1="15" y1="73" x2="17" y2="73"/>
		<line class="st26" x1="10" y1="69" x2="20" y2="69"/>
		<line class="st26" x1="7" y1="73" x2="11" y2="73"/>
		<line class="st26" x1="4" y1="77" x2="12" y2="77"/>
	</g>
	<g>
		<line class="st146" x1="54" y1="125" x2="80" y2="125"/>
		<line class="st146" x1="83" y1="125" x2="85" y2="125"/>
		<line class="st146" x1="43" y1="125" x2="47" y2="125"/>
		<line class="st146" x1="50" y1="125" x2="51" y2="125"/>
	</g>
</g>
<g>
	<path class="st31" d="M101,43.2L64,29L27,43.2v32.6c0,13,6.1,25.3,16.4,33.3L64,125l20.6-15.8c10.3-8,16.4-20.3,16.4-33.3V43.2z"/>
	<polygon class="st92" points="64,29 27,43.2 27,47.2 64,33 101,47.2 101,43.2 	"/>
	<path class="st144" d="M64,29v96l20.8-15.8c10.4-7.9,16.5-20.3,16.5-33.4V43.2L64,29z"/>
	<path class="st144" d="M84.6,105.2L64,121l-20.6-15.8C33.1,97.2,27,84.9,27,71.9v4c0,13,6.1,25.3,16.4,33.3L64,125l20.6-15.8
		c10.3-8,16.4-20.3,16.4-33.3v-4C101,84.9,94.9,97.2,84.6,105.2z"/>
	<path class="st146" d="M101,43.2L64,29L27,43.2v32.6c0,13,6.1,25.3,16.4,33.3L64,125l20.6-15.8c10.3-8,16.4-20.3,16.4-33.3V43.2z"
		/>
	<path class="st20" d="M34,48v27.8c0,10.8,5.1,21.2,13.7,27.7L64,116.2l16.3-12.6C88.9,97,94,86.7,94,75.9V48L64,36.5L34,48z"/>
	<path class="st93" d="M64,116.2l16.3-12.5C88.9,97,94,86.7,94,75.9V48L64,36.5V116.2z"/>
	<path class="st47" d="M80.3,99.6L64,112.2L47.7,99.6C39.1,93,34,82.7,34,71.9v4c0,10.8,5.1,21.2,13.7,27.7L64,116.2l16.3-12.6
		C88.9,97,94,86.7,94,75.9v-4C94,82.7,88.9,93,80.3,99.6z"/>
	<polygon class="st93" points="64,36.5 34,48 34,52 64,40.5 94,52 94,48 	"/>
	<path class="st146" d="M34,48v27.8c0,10.8,5.1,21.2,13.7,27.7L64,116.2l16.3-12.6C88.9,97,94,86.7,94,75.9V48L64,36.5L34,48z"/>
	<g>
		<path class="st93" d="M85,62c-0.1-1-0.6-1.8-1.4-2.4c-1.6-1.2-3.8-0.9-4.9,0.6L60.9,78.8l-8.2-4.3c-1.8-0.8-3.3-1.1-4.7,0.3
			c-0.7,0.7-1.1,1.6-1.1,2.6c0,1,0.4,1.9,1,2.4l10.6,11.9c0.8,0.8,1.8,1.2,3,1.2c0,0,0,0,0,0l0.3,0c1.2-0.1,2.3-0.7,3.1-1.7
			l19.3-26.5C84.9,63.9,85.1,63,85,62z"/>
		<path class="st31" d="M84,59.2c-0.1-0.7-0.5-1.3-1-1.7l0,0c-1.1-0.8-2.7-0.6-3.6,0.5L61.1,77l-8.8-4.6c-1.7-0.8-2.6-0.8-3.6,0.1
			C48.3,73,48,73.7,48,74.4c0,0.7,0.3,1.4,0.7,1.8L59.3,88c0.6,0.6,1.4,0.9,2.3,0.9l0.2,0c0.9-0.1,1.8-0.5,2.4-1.3l19.3-26.6
			C83.9,60.5,84.1,59.9,84,59.2z"/>
		<path class="st92" d="M48.8,75.5c1-1,1.9-1,3.6-0.1l8.8,4.6l18.2-19.1c0.9-1.1,2.5-1.3,3.6-0.5l0,0c0.2,0.2,0.4,0.4,0.6,0.6
			c0.4-0.5,0.6-1.2,0.5-1.9c-0.1-0.7-0.5-1.3-1-1.7l0,0c-1.1-0.8-2.7-0.6-3.6,0.5L61.1,77l-8.8-4.6c-1.7-0.8-2.6-0.8-3.6,0.1
			C48.3,73,48,73.7,48,74.4c0,0.6,0.2,1.1,0.5,1.5C48.6,75.7,48.7,75.6,48.8,75.5z"/>
		<path class="st146" d="M84,59.2c-0.1-0.7-0.5-1.3-1-1.7l0,0c-1.1-0.8-2.7-0.6-3.6,0.5L61.1,77l-8.8-4.6c-1.7-0.8-2.6-0.8-3.6,0.1
			C48.3,73,48,73.7,48,74.4c0,0.7,0.3,1.4,0.7,1.8L59.3,88c0.6,0.6,1.4,0.9,2.3,0.9l0.2,0c0.9-0.1,1.8-0.5,2.4-1.3l19.3-26.6
			C83.9,60.5,84.1,59.9,84,59.2z"/>
	</g>
</g>
<g>
	<path class="st69" d="M113.3,55c0.6,1.8,1.8,3.1,3.7,3.7c1.8,0.6,1.8,1.2,0,1.8c-1.8,0.6-3.1,1.8-3.7,3.7c-0.6,1.8-1.2,1.8-1.8,0
		s-1.8-3.1-3.7-3.7c-1.8-0.6-1.8-1.2,0-1.8c1.8-0.6,3.1-1.8,3.7-3.7C112.1,53.2,112.7,53.2,113.3,55z"/>
	<path class="st73" d="M80,16.6c0.4,1.2,1.2,2.1,2.5,2.5s1.2,0.8,0,1.2c-1.2,0.4-2.1,1.2-2.5,2.5c-0.4,1.2-0.8,1.2-1.2,0
		s-1.2-2.1-2.5-2.5c-1.2-0.4-1.2-0.8,0-1.2c1.2-0.4,2.1-1.2,2.5-2.5C79.2,15.3,79.6,15.3,80,16.6z"/>
	<path class="st73" d="M19.2,51.8c0.5,1.5,1.5,2.6,3.1,3.1c1.5,0.5,1.5,1,0,1.5c-1.5,0.5-2.6,1.5-3.1,3.1s-1,1.5-1.5,0
		s-1.5-2.6-3.1-3.1c-1.5-0.5-1.5-1,0-1.5c1.5-0.5,2.6-1.5,3.1-3.1S18.7,50.3,19.2,51.8z"/>
	<path class="st73" d="M9,99.6c0.4,1.2,1.2,2.1,2.5,2.5s1.2,0.8,0,1.2s-2.1,1.2-2.5,2.5s-0.8,1.2-1.2,0s-1.2-2.1-2.5-2.5
		c-1.2-0.4-1.2-0.8,0-1.2c1.2-0.4,2.1-1.2,2.5-2.5C8.2,98.3,8.6,98.3,9,99.6z"/>
	<path class="st69" d="M24,106.6c0.4,1.2,1.2,2.1,2.5,2.5c1.2,0.4,1.2,0.8,0,1.2c-1.2,0.4-2.1,1.2-2.5,2.5c-0.4,1.2-0.8,1.2-1.2,0
		c-0.4-1.2-1.2-2.1-2.5-2.5s-1.2-0.8,0-1.2c1.2-0.4,2.1-1.2,2.5-2.5C23.2,105.3,23.6,105.3,24,106.6z"/>
	<path class="st73" d="M112,105.6c0.4,1.2,1.2,2.1,2.5,2.5c1.2,0.4,1.2,0.8,0,1.2s-2.1,1.2-2.5,2.5c-0.4,1.2-0.8,1.2-1.2,0
		c-0.4-1.2-1.2-2.1-2.5-2.5c-1.2-0.4-1.2-0.8,0-1.2c1.2-0.4,2.1-1.2,2.5-2.5C111.2,104.3,111.6,104.3,112,105.6z"/>
</g>
</svg>
