<?xml version="1.0" encoding="utf-8"?>
<!-- Generator: Adobe Illustrator 16.0.4, SVG Export Plug-In . SVG Version: 6.00 Build 0)  -->
<!DOCTYPE svg PUBLIC "-//W3C//DTD SVG 1.1//EN" "http://www.w3.org/Graphics/SVG/1.1/DTD/svg11.dtd">
<svg version="1.1" id="_x30_02" xmlns="http://www.w3.org/2000/svg" xmlns:xlink="http://www.w3.org/1999/xlink" x="0px" y="0px"
	 width="128px" height="128px" viewBox="0 0 128 128" style="enable-background:new 0 0 128 128;" xml:space="preserve">
<style type="text/css">
<![CDATA[
	.st0{fill:#FFFFFF;stroke:#6D6DAA;stroke-width:2;stroke-linecap:round;stroke-linejoin:round;stroke-miterlimit:10;}
	.st1{opacity:0.3;fill:#C1A29F;}
	.st2{opacity:0.3;fill:#93765F;}
	.st3{fill:#48BC33;}
	.st4{fill:#8593BA;stroke:#6D6DAA;stroke-width:2;stroke-linecap:round;stroke-linejoin:round;stroke-miterlimit:10;}
	.st5{fill:#E0F3FF;}
	.st6{fill:#FF99B1;stroke:#6D6DAA;stroke-width:2;stroke-linecap:round;stroke-linejoin:round;stroke-miterlimit:10;}
	
		.st7{fill-rule:evenodd;clip-rule:evenodd;fill:#939FC6;stroke:#6D6DAA;stroke-width:2;stroke-linecap:round;stroke-linejoin:round;stroke-miterlimit:10;}
	.st8{fill:none;stroke:#6D6DAA;stroke-width:2;stroke-linecap:round;stroke-linejoin:round;stroke-dasharray:0,4;}
	.st9{fill:none;stroke:#6D6DAA;stroke-width:2;stroke-linecap:round;stroke-linejoin:round;stroke-dasharray:0.1849,2.7739;}
	.st10{opacity:0.3;fill:#FF9797;}
	.st11{opacity:0.3;fill:#FFF9E0;}
	.st12{opacity:0.3;fill:#FFFFFF;}
	.st13{opacity:0.3;fill-rule:evenodd;clip-rule:evenodd;fill:#FFF9E0;}
	.st14{fill:#4C5A7F;}
	.st15{fill:#D4EDFF;stroke:#6D6DAA;stroke-width:2;stroke-linecap:round;stroke-linejoin:round;stroke-miterlimit:10;}
	.st16{fill:#FF9797;stroke:#6D6DAA;stroke-width:2;stroke-linecap:round;stroke-linejoin:round;stroke-miterlimit:10;}
	.st17{fill-rule:evenodd;clip-rule:evenodd;fill:#DDD9FF;}
	.st18{fill:#4FBDFF;}
	.st19{fill:#80D880;}
	.st20{fill:#B1F1A8;}
	.st21{opacity:0.3;fill:#CC7E54;}
	.st22{opacity:0.5;fill:#FFFFFF;stroke:#6D6DAA;stroke-width:2;stroke-linecap:round;stroke-linejoin:round;stroke-miterlimit:10;}
	.st23{opacity:0.3;fill:#9EB2CC;}
	.st24{fill:none;stroke:#6D6DAA;stroke-width:2;stroke-linecap:round;stroke-linejoin:round;stroke-dasharray:0,11.9632;}
	.st25{fill:#EAE2B0;}
	.st26{fill:none;stroke:#FFFFFF;stroke-width:2;stroke-linecap:round;stroke-linejoin:round;stroke-miterlimit:10;}
	
		.st27{fill-rule:evenodd;clip-rule:evenodd;fill:#CED8EE;stroke:#6D6DAA;stroke-width:2;stroke-linecap:round;stroke-linejoin:round;stroke-miterlimit:10;}
	.st28{fill:#FFD599;stroke:#6D6DAA;stroke-width:2;stroke-linecap:round;stroke-linejoin:round;stroke-miterlimit:10;}
	.st29{fill:#89DBBA;}
	.st30{opacity:0.5;fill:#F7A706;}
	.st31{fill:#EEF6FF;}
	.st32{fill:#EFDCD2;}
	.st33{opacity:0.3;fill:#6E7EB0;}
	.st34{opacity:0.3;fill:#0070B8;}
	.st35{opacity:0.8;fill:#FFFFFF;}
	.st36{fill:#B1F1A8;stroke:#6D6DAA;stroke-width:2;stroke-linecap:round;stroke-linejoin:round;stroke-miterlimit:10;}
	.st37{fill:none;stroke:#FF9797;stroke-width:2;stroke-linecap:round;stroke-linejoin:round;stroke-miterlimit:10;}
	.st38{opacity:0.25;fill:#FFFFFF;}
	.st39{fill:#59D19A;}
	.st40{fill:#97C1FF;stroke:#6D6DAA;stroke-width:2;stroke-linecap:round;stroke-linejoin:round;stroke-miterlimit:10;}
	.st41{fill:none;stroke:#6D6DAA;stroke-width:2;stroke-linecap:round;stroke-linejoin:round;}
	.st42{fill:#EEF6FF;stroke:#6D6DAA;stroke-width:2;stroke-linecap:round;stroke-linejoin:round;stroke-miterlimit:10;}
	.st43{opacity:0.3;fill:#D63C74;}
	.st44{fill:#231F20;}
	.st45{fill:#FFF27D;stroke:#6D6DAA;stroke-width:2;stroke-linecap:round;stroke-linejoin:round;stroke-miterlimit:10;}
	.st46{opacity:0.5;fill:#FFF9E0;}
	.st47{opacity:0.5;fill:#FFFFFF;}
	.st48{fill:none;stroke:#505070;stroke-width:2;stroke-linecap:round;stroke-linejoin:round;stroke-miterlimit:10;}
	.st49{fill:none;stroke:#5CBEFF;stroke-width:2;stroke-linecap:round;stroke-linejoin:round;stroke-miterlimit:10;}
	.st50{opacity:0.3;fill:#7369D6;}
	.st51{fill:#5CBEFF;}
	.st52{fill:none;stroke:#B6B6D4;stroke-width:2;stroke-linecap:round;stroke-linejoin:round;stroke-miterlimit:10;}
	.st53{opacity:0.3;fill:#7595B5;}
	.st54{fill:#F9E2DC;}
	.st55{clip-path:url(#SVGID_2_);}
	.st56{clip-path:url(#SVGID_4_);}
	.st57{clip-path:url(#SVGID_6_);}
	.st58{clip-path:url(#SVGID_8_);}
	.st59{opacity:0.3;fill:#7690A8;}
	.st60{opacity:0.3;fill:#DB4962;}
	.st61{fill:#C1A29F;}
	.st62{fill:#939FC6;}
	.st63{fill:none;stroke:#6D6DAA;stroke-width:2;stroke-linecap:round;stroke-linejoin:round;stroke-dasharray:0,12.6778;}
	.st64{fill:none;stroke:#6D6DAA;stroke-width:2;stroke-linecap:round;stroke-linejoin:round;stroke-dasharray:0,12.6781;}
	.st65{opacity:0.5;fill-rule:evenodd;clip-rule:evenodd;fill:#FFFFFF;}
	.st66{fill:none;stroke:#FFF27D;stroke-width:2;stroke-linecap:round;stroke-linejoin:round;stroke-miterlimit:10;}
	.st67{fill:none;stroke:#B1F1A8;stroke-width:2;stroke-linecap:round;stroke-linejoin:round;stroke-miterlimit:10;}
	.st68{fill:none;stroke:#5B6875;stroke-width:2;stroke-linecap:round;stroke-linejoin:round;stroke-miterlimit:10;}
	.st69{fill:#96D7FF;}
	.st70{fill:#97C1FF;}
	.st71{opacity:0.3;fill:none;stroke:#6D6DAA;stroke-width:2;stroke-linecap:round;stroke-linejoin:round;stroke-miterlimit:10;}
	.st72{fill:#C7E9FF;}
	.st73{fill:#C9C1F5;}
	.st74{opacity:0.3;}
	.st75{opacity:0.5;}
	.st76{opacity:0.7;}
	.st77{opacity:0.75;fill:#FFFFFF;}
	.st78{fill:#FFFAD1;stroke:#6D6DAA;stroke-width:2;stroke-linecap:round;stroke-linejoin:round;stroke-miterlimit:10;}
	.st79{fill:#FEDBC1;}
	.st80{fill:#FF91A9;}
	.st81{fill:#FF968C;}
	.st82{fill:#FF9797;}
	.st83{fill:#FF99B1;}
	.st84{fill:#6D6DAA;stroke:#6D6DAA;stroke-width:2;stroke-linecap:round;stroke-linejoin:round;stroke-miterlimit:10;}
	.st85{fill:#FFC661;}
	.st86{fill:#FFD288;}
	.st87{fill:#FFD599;}
	.st88{fill:#FFF27D;}
	.st89{fill:#FFF2CC;}
	.st90{fill:#FFF9E0;}
	.st91{fill:#FFFAD1;}
	.st92{fill:#FFFFFF;}
	.st93{opacity:0.3;fill:#48BC33;}
	.st94{opacity:0.5;fill:none;stroke:#6D6DAA;stroke-width:2;stroke-linecap:round;stroke-linejoin:round;stroke-miterlimit:10;}
	.st95{opacity:0.2;fill:#FFFFFF;stroke:#6D6DAA;stroke-width:2;stroke-linecap:round;stroke-linejoin:round;stroke-miterlimit:10;}
	.st96{opacity:0.4;fill:#F7A706;}
	.st97{fill:#CC7E54;}
	.st98{fill:none;stroke:#6D6DAA;stroke-width:2;stroke-linecap:round;stroke-linejoin:round;stroke-dasharray:0.1789,2.6841;}
	.st99{fill:#9EB2CC;}
	.st100{fill:#CED8EE;}
	.st101{fill:#9FADD3;}
	.st102{fill:#D6B5B0;stroke:#6D6DAA;stroke-width:2;stroke-linecap:round;stroke-linejoin:round;stroke-miterlimit:10;}
	.st103{fill:#939FC6;stroke:#6D6DAA;stroke-width:2;stroke-linecap:round;stroke-linejoin:round;stroke-miterlimit:10;}
	.st104{opacity:0.3;fill:#4C5A7F;}
	.st105{fill:#F2EED5;stroke:#6D6DAA;stroke-width:2;stroke-linecap:round;stroke-linejoin:round;stroke-miterlimit:10;}
	.st106{opacity:0.3;fill:#4F649E;}
	.st107{fill:none;stroke:#6D6DAA;stroke-width:2;stroke-linecap:round;stroke-linejoin:round;stroke-dasharray:0.1905,2.8574;}
	.st108{fill:#6D6DAA;}
	.st109{opacity:0.3;fill:#8484CF;}
	.st110{fill:#C9C1F5;stroke:#6D6DAA;stroke-width:2;stroke-linecap:round;stroke-linejoin:round;stroke-miterlimit:10;}
	.st111{fill:none;stroke:#6D6DAA;stroke-width:2;stroke-linecap:round;stroke-linejoin:round;stroke-dasharray:0.1967,2.9499;}
	.st112{fill-rule:evenodd;clip-rule:evenodd;fill:#C9C1F5;}
	.st113{fill-rule:evenodd;clip-rule:evenodd;fill:#FF99B1;}
	.st114{opacity:0.3;fill:#1C64BA;}
	.st115{fill-rule:evenodd;clip-rule:evenodd;fill:#FFFFFF;}
	.st116{fill:#89DBBA;stroke:#6D6DAA;stroke-width:2;stroke-linecap:round;stroke-linejoin:round;stroke-miterlimit:10;}
	.st117{fill:#FF9797;stroke:#6D6DAA;stroke-width:2;stroke-miterlimit:10;}
	.st118{fill:#FFC661;stroke:#6D6DAA;stroke-width:2;stroke-linecap:round;stroke-linejoin:round;stroke-miterlimit:10;}
	.st119{fill:#D4EDFF;}
	.st120{fill:none;stroke:#FF99B1;stroke-width:2;stroke-linecap:round;stroke-linejoin:round;stroke-miterlimit:10;}
	.st121{fill:#E0F3FF;stroke:#6D6DAA;stroke-width:2;stroke-linecap:round;stroke-linejoin:round;stroke-miterlimit:10;}
	.st122{fill:#FF968C;stroke:#6D6DAA;stroke-width:2;stroke-linecap:round;stroke-linejoin:round;stroke-miterlimit:10;}
	.st123{fill:#CED8EE;stroke:#6D6DAA;stroke-width:2;stroke-linecap:round;stroke-linejoin:round;stroke-miterlimit:10;}
	.st124{fill:#96D7FF;stroke:#6D6DAA;stroke-width:2;stroke-linecap:round;stroke-linejoin:round;stroke-miterlimit:10;}
	.st125{fill:#D6B5B0;}
	.st126{opacity:0.3;fill:#554DAD;}
	.st127{opacity:0.3;fill-rule:evenodd;clip-rule:evenodd;fill:#554DAD;}
	.st128{opacity:0.5;fill:#939FC6;stroke:#6D6DAA;stroke-width:2;stroke-linecap:round;stroke-linejoin:round;stroke-miterlimit:10;}
	.st129{fill:none;stroke:#6D6DAA;stroke-width:2;stroke-linecap:round;stroke-linejoin:round;stroke-dasharray:0.1923,2.8843;}
	.st130{clip-path:url(#SVGID_10_);}
	.st131{clip-path:url(#SVGID_12_);}
	.st132{clip-path:url(#SVGID_14_);}
	.st133{clip-path:url(#SVGID_16_);}
	.st134{fill:none;stroke:#5ECCA0;stroke-width:2;stroke-linecap:round;stroke-linejoin:round;stroke-miterlimit:10;}
	.st135{opacity:0.3;fill:#BF914C;}
	.st136{fill:#7690A8;}
	.st137{fill:#DB4962;}
	.st138{opacity:0.7;fill:#FFFFFF;stroke:#6D6DAA;stroke-width:2;stroke-linecap:round;stroke-linejoin:round;stroke-miterlimit:10;}
	
		.st139{fill-rule:evenodd;clip-rule:evenodd;fill:none;stroke:#6D6DAA;stroke-width:2;stroke-linecap:round;stroke-linejoin:round;stroke-miterlimit:10;}
	.st140{fill:#A8D5FF;}
	.st141{fill:#FFF2CC;stroke:#6D6DAA;stroke-width:2;stroke-linecap:round;stroke-linejoin:round;stroke-miterlimit:10;}
	.st142{opacity:0.3;fill:#5B58BC;}
	.st143{opacity:0.3;fill:#289963;}
	.st144{opacity:0.3;fill:#5CBEFF;}
	.st145{fill:none;stroke:#939FC6;stroke-width:2;stroke-linecap:round;stroke-linejoin:round;stroke-miterlimit:10;}
	.st146{fill:none;stroke:#6D6DAA;stroke-width:2;stroke-linecap:round;stroke-linejoin:round;stroke-miterlimit:10;}
]]>
</style>
<g class="st74">
	<path class="st20" d="M64.2,8.6c-8.2-6.2-19-9-30-6.9C15.5,5.3,2.3,22.6,3.6,41.6c0.8,11.7,6.8,21.7,15.5,28
		c6.5,4.7,9.3,13,7.5,20.8c-2.4,10.3,0.7,21.5,9.3,29.2c11,9.8,27.9,9.9,39.1,0.4c7.1-6,10.6-14.5,10.6-22.9
		c0-8.4,5.4-15.9,13.5-17.8c6.7-1.6,12.9-5.2,17.7-11c10.2-12.3,10.1-30.5-0.4-42.5c-7.5-8.6-18.3-12.3-28.7-11.1
		C79.4,15.7,71,13.7,64.2,8.6z"/>
	<rect x="85" y="42" class="st105" width="6" height="21"/>
	<rect x="79" y="63" class="st78" width="44" height="6"/>
	<rect x="102" y="3" class="st121" width="6" height="21"/>
	<rect x="82" y="12" class="st110" width="15" height="12"/>
	<rect x="81" y="7" class="st110" width="17" height="5"/>
	<rect x="108" y="3" class="st122" width="6" height="21"/>
	<rect x="97" y="42" class="st121" width="6" height="21"/>
	<rect x="91" y="42" class="st122" width="6" height="21"/>
	<rect x="114" y="3" class="st141" width="6" height="21"/>
	<rect x="79" y="24" class="st78" width="44" height="6"/>
	<line class="st146" x1="87" y1="16" x2="92" y2="16"/>
	<circle class="st78" cx="54" cy="31.3" r="7"/>
	<path class="st82" d="M60.2,16h-8.5l-7.1-7.1c-3.4-3.4-8.9-3.8-12.5-0.6c-3.9,3.5-4.1,9.5-0.4,13.1l7.4,7.4v8.5
		c0,1.8,0.7,3.5,2,4.8l1.5,1.5l24-24L65,18C63.8,16.7,62,16,60.2,16z"/>
	<path class="st11" d="M43,24.7l-7.4-7.4c-2.6-2.6-3.3-6.5-2-9.7c-0.5,0.2-0.9,0.4-1.3,0.7c-2.1,3.5-1.7,8,1.3,11l7.4,7.4L43,24.7
		L43,24.7z"/>
	<g>
		<path class="st11" d="M43,24.7l-2,2l1,7.5c0,1.8,0.7,3.5,2,4.8l1.5,1.5l3-3C45,36.4,43.4,31.7,43,24.7z"/>
	</g>
	<path class="st146" d="M60.2,16h-8.5l-7.1-7.1c-3.4-3.4-8.9-3.8-12.5-0.6c-3.9,3.5-4.1,9.5-0.4,13.1l7.4,7.4v8.5
		c0,1.8,0.7,3.5,2,4.8l1.5,1.5l24-24L65,18C63.8,16.7,62,16,60.2,16z"/>
	<line class="st146" x1="52" y1="16" x2="49.5" y2="18.5"/>
	<line class="st146" x1="45.5" y1="22.5" x2="39" y2="29"/>
	<line class="st146" x1="33" y1="23" x2="29" y2="27"/>
	<polygon class="st123" points="8.7,55.5 21,83 17,85 4.4,57.1 	"/>
	<path class="st123" d="M35,94H3v-2c0-1.1,0.9-2,2-2h28c1.1,0,2,0.9,2,2V94z"/>
	<path class="st31" d="M28,90H10l-2,0c0-4.4,3.6-8,8-8h6c4.4,0,8,3.6,8,8L28,90z"/>
	<path class="st92" d="M16,85h6c3.4,0,6.2,2.1,7.4,5H30c0-4.4-3.6-8-8-8h-6c-4.4,0-8,3.6-8,8h0.6C9.8,87.1,12.6,85,16,85z"/>
	<path class="st146" d="M28,90H10l-2,0c0-4.4,3.6-8,8-8h6c4.4,0,8,3.6,8,8L28,90z"/>
	<polygon class="st123" points="26,32.2 9,55.5 5.3,54.8 24.4,31 	"/>
	<circle class="st31" cx="7" cy="57" r="4"/>
	<circle class="st146" cx="7" cy="57" r="4"/>
	<line class="st146" x1="22.9" y1="27.2" x2="19.2" y2="23.9"/>
	<line class="st146" x1="19" y1="86" x2="19" y2="87"/>
	<circle class="st31" cx="26" cy="30" r="4"/>
	<circle class="st146" cx="26" cy="30" r="4"/>
	<g class="st75">
		<line class="st122" x1="108" y1="7" x2="114" y2="7"/>
		<line class="st122" x1="108" y1="20" x2="114" y2="20"/>
	</g>
	<g class="st75">
		<g>
			<g>
				<line class="st81" x1="114" y1="7" x2="120" y2="7"/>
				<line class="st146" x1="114" y1="7" x2="120" y2="7"/>
			</g>
			<g>
				<line class="st81" x1="114" y1="20" x2="120" y2="20"/>
				<line class="st146" x1="114" y1="20" x2="120" y2="20"/>
			</g>
		</g>
		<g>
			<g>
				<line class="st44" x1="114" y1="7" x2="120" y2="7"/>
				<line class="st44" x1="114" y1="7" x2="120" y2="7"/>
			</g>
			<g>
				<line class="st44" x1="114" y1="20" x2="120" y2="20"/>
				<line class="st44" x1="114" y1="20" x2="120" y2="20"/>
			</g>
		</g>
	</g>
	<g class="st75">
		<g>
			<g>
				<line class="st81" x1="102" y1="7" x2="108" y2="7"/>
				<line class="st146" x1="102" y1="7" x2="108" y2="7"/>
			</g>
			<g>
				<line class="st81" x1="102" y1="20" x2="108" y2="20"/>
				<line class="st146" x1="102" y1="20" x2="108" y2="20"/>
			</g>
		</g>
		<g>
			<g>
				<line class="st44" x1="102" y1="7" x2="108" y2="7"/>
				<line class="st44" x1="102" y1="7" x2="108" y2="7"/>
			</g>
			<g>
				<line class="st44" x1="102" y1="20" x2="108" y2="20"/>
				<line class="st44" x1="102" y1="20" x2="108" y2="20"/>
			</g>
		</g>
	</g>
	<g class="st75">
		<line class="st122" x1="91" y1="46" x2="97" y2="46"/>
		<line class="st122" x1="91" y1="59" x2="97" y2="59"/>
	</g>
	<g class="st75">
		<g>
			<g>
				<line class="st81" x1="97" y1="46" x2="103" y2="46"/>
				<line class="st146" x1="97" y1="46" x2="103" y2="46"/>
			</g>
			<g>
				<line class="st81" x1="97" y1="59" x2="103" y2="59"/>
				<line class="st146" x1="97" y1="59" x2="103" y2="59"/>
			</g>
		</g>
		<g>
			<g>
				<line class="st44" x1="97" y1="46" x2="103" y2="46"/>
				<line class="st44" x1="97" y1="46" x2="103" y2="46"/>
			</g>
			<g>
				<line class="st44" x1="97" y1="59" x2="103" y2="59"/>
				<line class="st44" x1="97" y1="59" x2="103" y2="59"/>
			</g>
		</g>
	</g>
	<g class="st75">
		<g>
			<g>
				<line class="st81" x1="85" y1="46" x2="91" y2="46"/>
				<line class="st146" x1="85" y1="46" x2="91" y2="46"/>
			</g>
			<g>
				<line class="st81" x1="85" y1="59" x2="91" y2="59"/>
				<line class="st146" x1="85" y1="59" x2="91" y2="59"/>
			</g>
		</g>
		<g>
			<g>
				<line class="st44" x1="85" y1="46" x2="91" y2="46"/>
				<line class="st44" x1="85" y1="46" x2="91" y2="46"/>
			</g>
			<g>
				<line class="st44" x1="85" y1="59" x2="91" y2="59"/>
				<line class="st44" x1="85" y1="59" x2="91" y2="59"/>
			</g>
		</g>
	</g>
	<g>
		<line class="st146" x1="4" y1="125" x2="123" y2="125"/>
		<line class="st146" x1="126" y1="125" x2="127" y2="125"/>
		<line class="st146" x1="1" y1="125" x2="1" y2="125"/>
	</g>
	<g>
		<path class="st20" d="M121.7,51c0.8-2.5,1.3-5.4,1.3-8.3c0-5.3-2.9-8.7-6.5-8.7s-6.5,3.5-6.5,8.7c0,2.8,0.4,5.8,1.3,8.3H121.7z"/>
		<path class="st47" d="M118.5,34.4c-0.6-0.2-1.3-0.4-2-0.4c-3.6,0-6.5,3.5-6.5,8.7c0,2.8,0.4,5.8,1.3,8.3h4
			c-0.8-2.5-1.3-5.4-1.3-8.3C114,38.5,115.9,35.4,118.5,34.4z"/>
		<path class="st146" d="M121.7,51c0.8-2.5,1.3-5.4,1.3-8.3c0-5.3-2.9-8.7-6.5-8.7s-6.5,3.5-6.5,8.7c0,2.8,0.4,5.8,1.3,8.3H121.7z"
			/>
		<line class="st146" x1="111.5" y1="38.5" x2="110" y2="37.5"/>
		<line class="st146" x1="114.2" y1="35.3" x2="113" y2="34"/>
		<line class="st146" x1="118.7" y1="35.3" x2="120.1" y2="34.1"/>
		<line class="st146" x1="110.5" y1="44" x2="109" y2="43.5"/>
		<line class="st146" x1="111.5" y1="48.5" x2="110" y2="49"/>
		<line class="st146" x1="122" y1="40" x2="123.5" y2="39"/>
		<line class="st146" x1="122.5" y1="43" x2="123.5" y2="43"/>
		<line class="st146" x1="114" y1="46" x2="114.5" y2="46.5"/>
		<line class="st146" x1="114" y1="40" x2="114.5" y2="40.5"/>
		<line class="st146" x1="119" y1="43" x2="118.5" y2="43.5"/>
		<line class="st146" x1="119" y1="38" x2="118.5" y2="38.5"/>
		<line class="st146" x1="119" y1="48" x2="118.5" y2="48.5"/>
		<line class="st146" x1="122" y1="47" x2="123.5" y2="47.5"/>
		<polygon class="st112" points="122.5,63 110.5,63 109,54 124,54 		"/>
		<polygon class="st65" points="115,63 113,63 112,54 114,54 		"/>
		<polygon class="st127" points="123.5,57 124,54 109,54 109.5,57 		"/>
		<polygon class="st139" points="122.5,63 110.5,63 109,54 124,54 		"/>
		<rect x="108" y="51" class="st112" width="17" height="3"/>
		<rect x="111" y="51" class="st65" width="2" height="3"/>
		<rect x="108" y="51" class="st139" width="17" height="3"/>
	</g>
</g>
<g>
	<path class="st62" d="M112,121H16V59c0-1.7,1.3-3,3-3h90c1.7,0,3,1.3,3,3V121z"/>
	<path class="st146" d="M112,121H16V59c0-1.7,1.3-3,3-3h90c1.7,0,3,1.3,3,3V121z"/>
	<path class="st123" d="M76,121H52c-1.1,0-2-0.9-2-2v-1h28v1C78,120.1,77.1,121,76,121z"/>
	<rect x="20" y="60" class="st5" width="88" height="54"/>
	<polygon class="st72" points="108,62.4 108,60 20,60 20,104.2 	"/>
	<polygon class="st72" points="107.7,68 20,109.7 20,106.7 107.7,65 	"/>
	<rect x="19.9" y="60" class="st34" width="88.1" height="4"/>
	<rect x="20" y="60" class="st146" width="88" height="54"/>
	<path class="st31" d="M120,118H78v1c0,1.1-0.9,2-2,2H52c-1.1,0-2-0.9-2-2v-1H8v3c0,2.2,1.8,4,4,4h104c2.2,0,4-1.8,4-4V118z"/>
	<path class="st59" d="M116,122H12c-2.2,0-4-1.8-4-4l0,0v3c0,2.2,1.8,4,4,4h104c2.2,0,4-1.8,4-4v-3C120,120.2,118.2,122,116,122z"/>
	<path class="st146" d="M120,118H78v1c0,1.1-0.9,2-2,2H52c-1.1,0-2-0.9-2-2v-1H8v3c0,2.2,1.8,4,4,4h104c2.2,0,4-1.8,4-4V118z"/>
	<path class="st48" d="M37,60"/>
	<path class="st48" d="M83,60"/>
</g>
<g>
	<g>
		<path class="st92" d="M28,98V78c0-1.1,0.9-2,2-2h68c1.1,0,2,0.9,2,2v20c0,1.1-0.9,2-2,2H30C28.9,100,28,99.1,28,98z"/>
		<path class="st59" d="M98,76H30c-1.1,0-2,0.9-2,2v3c0-1.1,0.9-2,2-2h68c1.1,0,2,0.9,2,2v-3C100,76.9,99.1,76,98,76z"/>
		<path class="st146" d="M28,98V78c0-1.1,0.9-2,2-2h68c1.1,0,2,0.9,2,2v20c0,1.1-0.9,2-2,2H30C28.9,100,28,99.1,28,98z"/>
		<g class="st75">
			<line class="st146" x1="40" y1="84" x2="40" y2="92"/>
			<line class="st146" x1="36.5" y1="85.5" x2="43.5" y2="90.5"/>
			<line class="st146" x1="43.5" y1="85.5" x2="36.5" y2="90.5"/>
		</g>
		<g class="st75">
			<line class="st146" x1="52" y1="84" x2="52" y2="92"/>
			<line class="st146" x1="48.5" y1="85.5" x2="55.5" y2="90.5"/>
			<line class="st146" x1="55.5" y1="85.5" x2="48.5" y2="90.5"/>
		</g>
		<g class="st75">
			<line class="st146" x1="64" y1="84" x2="64" y2="92"/>
			<line class="st146" x1="60.5" y1="85.5" x2="67.5" y2="90.5"/>
			<line class="st146" x1="67.5" y1="85.5" x2="60.5" y2="90.5"/>
		</g>
		<g class="st75">
			<line class="st146" x1="76" y1="84" x2="76" y2="92"/>
			<line class="st146" x1="72.5" y1="85.5" x2="79.5" y2="90.5"/>
			<line class="st146" x1="79.5" y1="85.5" x2="72.5" y2="90.5"/>
		</g>
		<g class="st75">
			<line class="st146" x1="88" y1="84" x2="88" y2="92"/>
			<line class="st146" x1="84.5" y1="85.5" x2="91.5" y2="90.5"/>
			<line class="st146" x1="91.5" y1="85.5" x2="84.5" y2="90.5"/>
		</g>
	</g>
	<g>
		<path class="st31" d="M50,27v13h6V27h16v13h6V27c0-3.3-2.7-6-6-6H56C52.7,21,50,23.7,50,27z"/>
		<path class="st59" d="M53,27v13h3V27h16v13h3V27c0-1.7-1.3-3-3-3H56C54.3,24,53,25.3,53,27z"/>
		<rect x="50" y="37" class="st59" width="6" height="3"/>
		<rect x="72" y="37" class="st59" width="6" height="3"/>
		<path class="st92" d="M72,21H56c-3.3,0-6,2.7-6,6v3c0-3.3,2.7-6,6-6h16c3.3,0,6,2.7,6,6v-3C78,23.7,75.3,21,72,21z"/>
		<path class="st146" d="M50,27v13h6V27h16v13h6V27c0-3.3-2.7-6-6-6H56C52.7,21,50,23.7,50,27z"/>
		<path class="st31" d="M85,42v26c0,1.1-0.9,2-2,2H45c-1.1,0-2-0.9-2-2V42c0-1.1,0.9-2,2-2h38C84.1,40,85,40.9,85,42z"/>
		<path class="st73" d="M45,70h38c1.1,0,2-0.9,2-2v-6H43v6C43,69.1,43.9,70,45,70z"/>
		<path class="st142" d="M64,62v8h19c1.1,0,2-0.9,2-2v-6H64z"/>
		<path class="st92" d="M43,42v2h42v-2c0-1.1-0.9-2-2-2H45C43.9,40,43,40.9,43,42z"/>
		<g>
			<path class="st144" d="M85,62V42c0-1.1-0.9-2-2-2H64v22H85z"/>
		</g>
		<path class="st146" d="M85,42v26c0,1.1-0.9,2-2,2H45c-1.1,0-2-0.9-2-2V42c0-1.1,0.9-2,2-2h38C84.1,40,85,40.9,85,42z"/>
		<line class="st146" x1="43" y1="62" x2="85" y2="62"/>
		<g class="st74">
			<line class="st103" x1="45" y1="66" x2="45" y2="66"/>
			<line class="st103" x1="47" y1="64" x2="47" y2="64"/>
			<line class="st103" x1="49" y1="66" x2="49" y2="66"/>
			<line class="st103" x1="51" y1="64" x2="51" y2="64"/>
			<line class="st103" x1="53" y1="66" x2="53" y2="66"/>
			<line class="st103" x1="55" y1="64" x2="55" y2="64"/>
			<line class="st103" x1="57" y1="66" x2="57" y2="66"/>
			<line class="st103" x1="59" y1="64" x2="59" y2="64"/>
			<line class="st103" x1="61" y1="66" x2="61" y2="66"/>
			<line class="st103" x1="63" y1="64" x2="63" y2="64"/>
			<line class="st103" x1="65" y1="66" x2="65" y2="66"/>
			<line class="st103" x1="67" y1="64" x2="67" y2="64"/>
			<line class="st103" x1="69" y1="66" x2="69" y2="66"/>
			<line class="st103" x1="71" y1="64" x2="71" y2="64"/>
			<line class="st103" x1="73" y1="66" x2="73" y2="66"/>
			<line class="st103" x1="75" y1="64" x2="75" y2="64"/>
			<line class="st103" x1="77" y1="66" x2="77" y2="66"/>
			<line class="st103" x1="79" y1="64" x2="79" y2="64"/>
			<line class="st103" x1="81" y1="66" x2="81" y2="66"/>
			<line class="st103" x1="47" y1="68" x2="47" y2="68"/>
			<line class="st103" x1="51" y1="68" x2="51" y2="68"/>
			<line class="st103" x1="55" y1="68" x2="55" y2="68"/>
			<line class="st103" x1="59" y1="68" x2="59" y2="68"/>
			<line class="st103" x1="63" y1="68" x2="63" y2="68"/>
			<line class="st103" x1="67" y1="68" x2="67" y2="68"/>
			<line class="st103" x1="71" y1="68" x2="71" y2="68"/>
			<line class="st103" x1="75" y1="68" x2="75" y2="68"/>
			<line class="st103" x1="79" y1="68" x2="79" y2="68"/>
			<line class="st103" x1="83" y1="64" x2="83" y2="64"/>
			<line class="st103" x1="83" y1="68" x2="83" y2="68"/>
		</g>
	</g>
</g>
</svg>
