<?xml version="1.0" encoding="utf-8"?>
<!-- Generator: Adobe Illustrator 19.0.0, SVG Export Plug-In . SVG Version: 6.00 Build 0)  -->
<svg version="1.1" id="livetype" xmlns="http://www.w3.org/2000/svg" xmlns:xlink="http://www.w3.org/1999/xlink" x="0px" y="0px"
	 viewBox="-521.2 196.6 135 45.1" style="enable-background:new -521.2 196.6 135 45.1;" xml:space="preserve">
<style type="text/css">
	.st0{fill:#A6A6A6;}
	.st1{fill:#FFFFFF;stroke:#FFFFFF;stroke-width:0.2;stroke-miterlimit:10;}
	.st2{fill:#FFFFFF;}
	.st3{fill:url(#SVGID_1_);}
	.st4{fill:url(#SVGID_2_);}
	.st5{fill:url(#SVGID_3_);}
	.st6{fill:url(#SVGID_4_);}
	.st7{opacity:0.2;enable-background:new    ;}
	.st8{opacity:0.12;enable-background:new    ;}
	.st9{opacity:0.25;fill:#FFFFFF;enable-background:new    ;}
</style>
<title>Download_on_the_App_Store_Badge_US-UK_RGB_blk_4SVG_092917</title>
<g>
	<path d="M-391.2,239.2h-125c-2.8,0-5-2.3-5-5v-30c0-2.8,2.3-5,5-5h125c2.8,0,5,2.3,5,5v30C-386.2,236.9-388.5,239.2-391.2,239.2z"
		/>
</g>
<g>
	<g>
		<path class="st0" d="M-391.2,200c2.3,0,4.2,1.9,4.2,4.2v30c0,2.3-1.9,4.2-4.2,4.2h-125c-2.3,0-4.2-1.9-4.2-4.2v-30
			c0-2.3,1.9-4.2,4.2-4.2H-391.2 M-391.2,199.2h-125c-2.8,0-5,2.3-5,5v30c0,2.8,2.3,5,5,5h125c2.8,0,5-2.3,5-5v-30
			C-386.2,201.4-388.5,199.2-391.2,199.2L-391.2,199.2z"/>
	</g>
</g>
<g>
	<path class="st1" d="M-473.8,209.4c0,0.8-0.2,1.5-0.7,2c-0.6,0.6-1.3,0.9-2.2,0.9c-0.9,0-1.6-0.3-2.2-0.9c-0.6-0.6-0.9-1.3-0.9-2.2
		c0-0.9,0.3-1.6,0.9-2.2c0.6-0.6,1.3-0.9,2.2-0.9c0.4,0,0.8,0.1,1.2,0.3c0.4,0.2,0.7,0.4,0.9,0.7l-0.5,0.5c-0.4-0.5-0.9-0.7-1.6-0.7
		c-0.6,0-1.2,0.2-1.6,0.7c-0.5,0.4-0.7,1-0.7,1.7s0.2,1.3,0.7,1.7c0.5,0.4,1,0.7,1.6,0.7c0.7,0,1.2-0.2,1.7-0.7
		c0.3-0.3,0.5-0.7,0.5-1.2h-2.2V209h2.9C-473.8,209.1-473.8,209.3-473.8,209.4z"/>
	<path class="st1" d="M-469.2,206.9h-2.7v1.9h2.5v0.7h-2.5v1.9h2.7v0.7h-3.5v-6h3.5V206.9z"/>
	<path class="st1" d="M-466,212.2h-0.8v-5.3h-1.7v-0.7h4.1v0.7h-1.7V212.2z"/>
	<path class="st1" d="M-461.3,212.2v-6h0.8v6H-461.3z"/>
	<path class="st1" d="M-457.1,212.2h-0.8v-5.3h-1.7v-0.7h4.1v0.7h-1.7V212.2z"/>
	<path class="st1" d="M-447.6,211.4c-0.6,0.6-1.3,0.9-2.2,0.9c-0.9,0-1.6-0.3-2.2-0.9c-0.6-0.6-0.9-1.3-0.9-2.2s0.3-1.6,0.9-2.2
		c0.6-0.6,1.3-0.9,2.2-0.9c0.9,0,1.6,0.3,2.2,0.9c0.6,0.6,0.9,1.3,0.9,2.2C-446.8,210.1-447.1,210.8-447.6,211.4z M-451.5,210.9
		c0.4,0.4,1,0.7,1.6,0.7c0.6,0,1.2-0.2,1.6-0.7c0.4-0.4,0.7-1,0.7-1.7s-0.2-1.3-0.7-1.7c-0.4-0.4-1-0.7-1.6-0.7
		c-0.6,0-1.2,0.2-1.6,0.7c-0.4,0.4-0.7,1-0.7,1.7S-451.9,210.5-451.5,210.9z"/>
	<path class="st1" d="M-445.7,212.2v-6h0.9l2.9,4.7h0l0-1.2v-3.5h0.8v6h-0.8l-3.1-4.9h0l0,1.2v3.7H-445.7z"/>
</g>
<path class="st2" d="M-453.1,220.9c-2.4,0-4.3,1.8-4.3,4.3c0,2.4,1.9,4.3,4.3,4.3c2.4,0,4.3-1.8,4.3-4.3
	C-448.8,222.7-450.8,220.9-453.1,220.9z M-453.1,227.8c-1.3,0-2.4-1.1-2.4-2.6c0-1.5,1.1-2.6,2.4-2.6s2.4,1,2.4,2.6
	C-450.7,226.7-451.8,227.8-453.1,227.8z M-462.4,220.9c-2.4,0-4.3,1.8-4.3,4.3c0,2.4,1.9,4.3,4.3,4.3c2.4,0,4.3-1.8,4.3-4.3
	C-458.2,222.7-460.1,220.9-462.4,220.9z M-462.4,227.8c-1.3,0-2.4-1.1-2.4-2.6c0-1.5,1.1-2.6,2.4-2.6c1.3,0,2.4,1,2.4,2.6
	C-460,226.7-461.1,227.8-462.4,227.8z M-473.5,222.3v1.8h4.3c-0.1,1-0.5,1.8-1,2.3c-0.6,0.6-1.6,1.3-3.3,1.3c-2.7,0-4.7-2.1-4.7-4.8
	s2.1-4.8,4.7-4.8c1.4,0,2.5,0.6,3.3,1.3l1.3-1.3c-1.1-1-2.5-1.8-4.5-1.8c-3.6,0-6.7,3-6.7,6.6c0,3.6,3.1,6.6,6.7,6.6
	c2,0,3.4-0.6,4.6-1.9c1.2-1.2,1.6-2.9,1.6-4.2c0-0.4,0-0.8-0.1-1.1H-473.5z M-428.2,223.7c-0.4-1-1.4-2.7-3.6-2.7
	c-2.2,0-4,1.7-4,4.3c0,2.4,1.8,4.3,4.2,4.3c1.9,0,3.1-1.2,3.5-1.9l-1.4-1c-0.5,0.7-1.1,1.2-2.1,1.2c-1,0-1.6-0.4-2.1-1.3l5.7-2.4
	L-428.2,223.7z M-434,225.1c0-1.6,1.3-2.5,2.2-2.5c0.7,0,1.4,0.4,1.6,0.9L-434,225.1z M-438.6,229.2h1.9v-12.5h-1.9V229.2z
	 M-441.7,221.9L-441.7,221.9c-0.5-0.5-1.3-1-2.3-1c-2.1,0-4.1,1.9-4.1,4.3c0,2.4,1.9,4.2,4.1,4.2c1,0,1.8-0.5,2.2-1h0.1v0.6
	c0,1.6-0.9,2.5-2.3,2.5c-1.1,0-1.9-0.8-2.1-1.5l-1.6,0.7c0.5,1.1,1.7,2.5,3.8,2.5c2.2,0,4-1.3,4-4.4v-7.6h-1.8V221.9z M-443.8,227.8
	c-1.3,0-2.4-1.1-2.4-2.6c0-1.5,1.1-2.6,2.4-2.6c1.3,0,2.3,1.1,2.3,2.6C-441.6,226.7-442.6,227.8-443.8,227.8z M-419.4,216.7h-4.5
	v12.5h1.9v-4.7h2.6c2.1,0,4.1-1.5,4.1-3.9C-415.3,218.2-417.4,216.7-419.4,216.7z M-419.4,222.7h-2.7v-4.3h2.7
	c1.4,0,2.2,1.2,2.2,2.1C-417.2,221.5-418,222.7-419.4,222.7z M-407.9,220.9c-1.4,0-2.8,0.6-3.3,1.9l1.7,0.7c0.4-0.7,1-0.9,1.7-0.9
	c1,0,1.9,0.6,2,1.6v0.1c-0.3-0.2-1.1-0.5-1.9-0.5c-1.8,0-3.6,1-3.6,2.8c0,1.7,1.5,2.8,3.1,2.8c1.3,0,1.9-0.6,2.4-1.2h0.1v1h1.8v-4.8
	C-404.1,222.2-405.7,220.9-407.9,220.9z M-408.1,227.8c-0.6,0-1.5-0.3-1.5-1.1c0-1,1.1-1.3,2-1.3c0.8,0,1.2,0.2,1.7,0.4
	C-406,227-407,227.8-408.1,227.8z M-397.5,221.2l-2.1,5.4h-0.1l-2.2-5.4h-2l3.3,7.6l-1.9,4.2h1.9l5.1-11.8H-397.5z M-414.3,229.2
	h1.9v-12.5h-1.9V229.2z"/>
<g>
	
		<linearGradient id="SVGID_1_" gradientUnits="userSpaceOnUse" x1="-499.4487" y1="356.0942" x2="-516.2311" y2="339.3118" gradientTransform="matrix(1 0 0 -1 0 564)">
		<stop  offset="0" style="stop-color:#00A0FF"/>
		<stop  offset="6.574450e-003" style="stop-color:#00A1FF"/>
		<stop  offset="0.2601" style="stop-color:#00BEFF"/>
		<stop  offset="0.5122" style="stop-color:#00D2FF"/>
		<stop  offset="0.7604" style="stop-color:#00DFFF"/>
		<stop  offset="1" style="stop-color:#00E3FF"/>
	</linearGradient>
	<path class="st3" d="M-510.8,206.7c-0.3,0.3-0.5,0.8-0.5,1.4v22.1c0,0.6,0.2,1.1,0.5,1.4l0.1,0.1l12.4-12.4v-0.1v-0.1L-510.8,206.7
		L-510.8,206.7z"/>
	
		<linearGradient id="SVGID_2_" gradientUnits="userSpaceOnUse" x1="-487.4141" y1="344.8025" x2="-511.611" y2="344.8025" gradientTransform="matrix(1 0 0 -1 0 564)">
		<stop  offset="0" style="stop-color:#FFE000"/>
		<stop  offset="0.4087" style="stop-color:#FFBD00"/>
		<stop  offset="0.7754" style="stop-color:#FFA500"/>
		<stop  offset="1" style="stop-color:#FF9C00"/>
	</linearGradient>
	<path class="st4" d="M-494.2,223.5l-4.1-4.1v-0.1v-0.1l4.1-4.1l0.1,0.1l4.9,2.8c1.4,0.8,1.4,2.1,0,2.9L-494.2,223.5L-494.2,223.5z"
		/>
	
		<linearGradient id="SVGID_3_" gradientUnits="userSpaceOnUse" x1="-496.4215" y1="342.5079" x2="-519.1797" y2="319.7496" gradientTransform="matrix(1 0 0 -1 0 564)">
		<stop  offset="0" style="stop-color:#FF3A44"/>
		<stop  offset="1" style="stop-color:#C31162"/>
	</linearGradient>
	<path class="st5" d="M-494.1,223.4l-4.2-4.2l-12.5,12.5c0.5,0.5,1.2,0.5,2.1,0.1L-494.1,223.4"/>
	
		<linearGradient id="SVGID_4_" gradientUnits="userSpaceOnUse" x1="-513.9511" y1="364.6278" x2="-503.7886" y2="354.4653" gradientTransform="matrix(1 0 0 -1 0 564)">
		<stop  offset="0" style="stop-color:#32A071"/>
		<stop  offset="6.850000e-002" style="stop-color:#2DA771"/>
		<stop  offset="0.4762" style="stop-color:#15CF74"/>
		<stop  offset="0.8009" style="stop-color:#06E775"/>
		<stop  offset="1" style="stop-color:#00F076"/>
	</linearGradient>
	<path class="st6" d="M-494.1,215l-14.6-8.3c-0.9-0.5-1.6-0.4-2.1,0.1l12.5,12.5L-494.1,215z"/>
	<g>
		<path class="st7" d="M-494.2,223.3l-14.5,8.2c-0.8,0.5-1.5,0.4-2,0l0,0l-0.1,0.1l0,0l0.1,0.1l0,0c0.5,0.4,1.2,0.5,2,0
			L-494.2,223.3L-494.2,223.3z"/>
		<path class="st8" d="M-510.8,231.5c-0.3-0.3-0.5-0.8-0.5-1.4v0.1c0,0.6,0.2,1.1,0.5,1.4V231.5L-510.8,231.5z"/>
	</g>
	<path class="st8" d="M-489.2,220.5l-5,2.8l0.1,0.1l4.9-2.8c0.7-0.4,1-0.9,1-1.4l0,0C-488.2,219.7-488.6,220.1-489.2,220.5z"/>
	<path class="st9" d="M-508.7,206.8l19.5,11.1c0.6,0.4,1,0.8,1,1.3l0,0c0-0.5-0.3-1-1-1.4l-19.5-11.1c-1.4-0.8-2.5-0.1-2.5,1.5v0.1
		C-511.3,206.7-510.1,206-508.7,206.8z"/>
</g>
</svg>
