<?xml version="1.0" encoding="utf-8"?>
<!-- Generator: Adobe Illustrator 19.0.0, SVG Export Plug-In . SVG Version: 6.00 Build 0)  -->
<svg version="1.1" id="livetype" xmlns="http://www.w3.org/2000/svg" xmlns:xlink="http://www.w3.org/1999/xlink" x="0px" y="0px"
	 viewBox="-521.2 196.6 135 45.1" style="enable-background:new -521.2 196.6 135 45.1;" xml:space="preserve">
<style type="text/css">
	.st0{fill:#A6A6A6;}
	.st1{fill:#FFFFFF;}
</style>
<title>Download_on_the_App_Store_Badge_US-UK_RGB_blk_4SVG_092917</title>
<g>
	<g>
		<g>
			<path class="st0" d="M-400.2,198.1h-106.1c-0.4,0-0.8,0-1.2,0c-0.3,0-0.6,0-1,0c-0.7,0-1.4,0.1-2.1,0.2c-0.7,0.1-1.4,0.3-2,0.7
				c-0.6,0.3-1.2,0.7-1.7,1.2c-0.5,0.5-0.9,1.1-1.2,1.7c-0.3,0.6-0.5,1.3-0.7,2c-0.1,0.7-0.2,1.4-0.2,2.1c0,0.3,0,0.6,0,1v24.4
				c0,0.3,0,0.6,0,1c0,0.7,0.1,1.4,0.2,2.1c0.1,0.7,0.3,1.4,0.7,2c0.3,0.6,0.7,1.2,1.2,1.7c0.5,0.5,1.1,0.9,1.7,1.2
				c0.6,0.3,1.3,0.5,2,0.7c0.7,0.1,1.4,0.2,2.1,0.2c0.3,0,0.6,0,1,0c0.4,0,0.8,0,1.2,0h106.1c0.4,0,0.8,0,1.1,0c0.3,0,0.7,0,1,0
				c0.7,0,1.4-0.1,2.1-0.2c0.7-0.1,1.4-0.3,2-0.7c0.6-0.3,1.2-0.7,1.7-1.2c0.5-0.5,0.9-1.1,1.2-1.7c0.3-0.6,0.5-1.3,0.7-2
				c0.1-0.7,0.2-1.4,0.2-2.1c0-0.3,0-0.6,0-1c0-0.4,0-0.8,0-1.2v-22.1c0-0.4,0-0.8,0-1.2c0-0.3,0-0.6,0-1c0-0.7-0.1-1.4-0.2-2.1
				c-0.1-0.7-0.3-1.4-0.7-2c-0.7-1.3-1.7-2.3-3-3c-0.6-0.3-1.3-0.5-2-0.7c-0.7-0.1-1.4-0.2-2.1-0.2c-0.3,0-0.7,0-1,0
				C-399.4,198.1-399.8,198.1-400.2,198.1L-400.2,198.1z"/>
			<path d="M-507.4,239.4c-0.3,0-0.6,0-1,0c-0.7,0-1.3-0.1-2-0.2c-0.6-0.1-1.2-0.3-1.7-0.6c-0.5-0.3-1-0.6-1.5-1.1
				c-0.4-0.4-0.8-0.9-1.1-1.5c-0.3-0.5-0.5-1.1-0.6-1.7c-0.1-0.7-0.2-1.3-0.2-2c0-0.2,0-1,0-1V207c0,0,0-0.7,0-0.9
				c0-0.7,0.1-1.3,0.2-2c0.1-0.6,0.3-1.2,0.6-1.8c0.3-0.5,0.6-1,1.1-1.5c0.4-0.4,0.9-0.8,1.5-1.1c0.5-0.3,1.1-0.5,1.7-0.6
				c0.7-0.1,1.3-0.2,2-0.2l1,0H-399l1,0c0.7,0,1.3,0.1,2,0.2c0.6,0.1,1.2,0.3,1.8,0.6c1.1,0.6,2,1.5,2.5,2.6
				c0.3,0.5,0.5,1.1,0.6,1.7c0.1,0.7,0.2,1.3,0.2,2c0,0.3,0,0.6,0,0.9c0,0.4,0,0.8,0,1.2v22.1c0,0.4,0,0.8,0,1.1c0,0.3,0,0.7,0,1
				c0,0.7-0.1,1.3-0.2,2c-0.1,0.6-0.3,1.2-0.6,1.8c-0.3,0.5-0.6,1-1.1,1.5c-0.4,0.4-0.9,0.8-1.5,1.1c-0.6,0.3-1.1,0.5-1.8,0.6
				c-0.7,0.1-1.3,0.2-2,0.2c-0.3,0-0.6,0-0.9,0l-1.1,0L-507.4,239.4z"/>
		</g>
		<g id="_Group_">
			<g id="_Group_2">
				<g id="_Group_3">
					<path id="_Path_" class="st1" d="M-490.2,219.5c0-1.8,1-3.4,2.5-4.4c-1-1.4-2.5-2.2-4.2-2.3c-1.8-0.2-3.5,1.1-4.4,1.1
						c-0.9,0-2.3-1-3.8-1c-2,0.1-3.8,1.2-4.7,2.9c-2,3.5-0.5,8.7,1.4,11.6c1,1.4,2.1,3,3.6,2.9c1.5-0.1,2-0.9,3.8-0.9
						c1.7,0,2.3,0.9,3.8,0.9c1.6,0,2.6-1.4,3.5-2.8c0.7-1,1.2-2.1,1.6-3.3C-489,223.4-490.2,221.5-490.2,219.5z"/>
					<path id="_Path_2" class="st1" d="M-493.1,211c0.9-1,1.3-2.3,1.2-3.7c-1.3,0.1-2.5,0.8-3.4,1.7c-0.9,1-1.3,2.2-1.2,3.5
						C-495.1,212.6-493.9,212-493.1,211z"/>
				</g>
			</g>
			<g>
				<path class="st1" d="M-471.7,226.7h-5l-1.2,3.5h-2.1l4.7-13.1h2.2l4.7,13.1h-2.1L-471.7,226.7z M-476.2,225.1h4l-2-5.7h-0.1
					L-476.2,225.1z"/>
				<path class="st1" d="M-458.1,225.5c0,3-1.6,4.9-4,4.9c-1.2,0.1-2.4-0.6-3-1.7h0v4.7h-2v-12.7h1.9v1.6h0c0.6-1.1,1.8-1.7,3-1.7
					C-459.7,220.6-458.1,222.5-458.1,225.5z M-460.1,225.5c0-1.9-1-3.2-2.5-3.2c-1.5,0-2.5,1.3-2.5,3.2c0,1.9,1,3.2,2.5,3.2
					C-461.1,228.7-460.1,227.4-460.1,225.5z"/>
				<path class="st1" d="M-447.6,225.5c0,3-1.6,4.9-4,4.9c-1.2,0.1-2.4-0.6-3-1.7h0v4.7h-2v-12.7h1.9v1.6h0c0.6-1.1,1.8-1.7,3-1.7
					C-449.2,220.6-447.6,222.5-447.6,225.5z M-449.6,225.5c0-1.9-1-3.2-2.5-3.2c-1.5,0-2.5,1.3-2.5,3.2c0,1.9,1,3.2,2.5,3.2
					C-450.6,228.7-449.6,227.4-449.6,225.5L-449.6,225.5z"/>
				<path class="st1" d="M-440.7,226.6c0.1,1.3,1.4,2.2,3.1,2.2c1.7,0,2.8-0.9,2.8-2c0-1-0.7-1.6-2.4-2l-1.7-0.4
					c-2.4-0.6-3.5-1.7-3.5-3.5c0-2.3,2-3.8,4.8-3.8c2.8,0,4.7,1.6,4.7,3.8h-2c-0.1-1.3-1.2-2.1-2.8-2.1s-2.7,0.8-2.7,2
					c0,0.9,0.7,1.5,2.4,1.9l1.4,0.4c2.7,0.6,3.8,1.7,3.8,3.6c0,2.4-2,4-5.1,4c-2.9,0-4.9-1.5-5-3.9L-440.7,226.6z"/>
				<path class="st1" d="M-428.4,218.5v2.3h1.8v1.6h-1.8v5.3c0,0.8,0.4,1.2,1.2,1.2c0.2,0,0.4,0,0.6,0v1.5c-0.4,0.1-0.7,0.1-1.1,0.1
					c-1.9,0-2.7-0.7-2.7-2.6v-5.5h-1.4v-1.6h1.4v-2.3H-428.4z"/>
				<path class="st1" d="M-425.5,225.5c0-3,1.8-4.9,4.5-4.9c2.8,0,4.5,1.9,4.5,4.9c0,3-1.8,4.9-4.5,4.9
					C-423.8,230.4-425.5,228.5-425.5,225.5z M-418.5,225.5c0-2.1-0.9-3.3-2.5-3.3s-2.5,1.2-2.5,3.3c0,2.1,0.9,3.3,2.5,3.3
					S-418.5,227.6-418.5,225.5L-418.5,225.5z"/>
				<path class="st1" d="M-414.9,220.7h1.9v1.6h0c0.3-1,1.2-1.8,2.3-1.7c0.2,0,0.5,0,0.7,0.1v1.8c-0.3-0.1-0.6-0.1-0.9-0.1
					c-1.1,0-2,0.8-2.1,1.9c0,0.1,0,0.2,0,0.3v5.7h-2L-414.9,220.7z"/>
				<path class="st1" d="M-401,227.5c-0.3,1.7-2,2.9-4.1,2.9c-2.8,0-4.5-1.9-4.5-4.8c0-3,1.7-4.9,4.4-4.9c2.6,0,4.3,1.8,4.3,4.7v0.7
					h-6.7v0.1c-0.1,1.4,0.9,2.6,2.3,2.7c0.1,0,0.2,0,0.3,0c1,0.1,1.8-0.5,2.2-1.3H-401z M-407.6,224.6h4.8c0.1-1.3-0.9-2.3-2.2-2.4
					c-0.1,0-0.1,0-0.2,0C-406.5,222.2-407.6,223.3-407.6,224.6C-407.6,224.6-407.6,224.6-407.6,224.6z"/>
			</g>
		</g>
	</g>
	<g id="_Group_4">
		<g>
			<path class="st1" d="M-476.4,207.3c1.5-0.1,2.9,1,3,2.6c0,0.2,0,0.4,0,0.5c0,2-1.1,3.2-3,3.2h-2.3v-6.3H-476.4z M-477.7,212.7
				h1.2c1.1,0.1,2-0.8,2.1-1.9c0-0.1,0-0.3,0-0.4c0.1-1.1-0.6-2.1-1.7-2.2c-0.1,0-0.3,0-0.4,0h-1.2V212.7z"/>
			<path class="st1" d="M-472.3,211.2c-0.1-1.2,0.8-2.3,2-2.5c1.2-0.1,2.3,0.8,2.5,2c0,0.1,0,0.3,0,0.4c0.1,1.2-0.8,2.3-2,2.5
				c-1.2,0.1-2.3-0.8-2.5-2C-472.4,211.5-472.4,211.4-472.3,211.2z M-468.8,211.2c0-1-0.5-1.6-1.3-1.6c-0.8,0-1.3,0.6-1.3,1.6
				c0,1,0.5,1.6,1.3,1.6C-469.3,212.9-468.8,212.3-468.8,211.2L-468.8,211.2z"/>
			<path class="st1" d="M-461.9,213.6h-1l-1-3.5h-0.1l-1,3.5h-1l-1.3-4.7h1l0.9,3.6h0.1l1-3.6h0.9l1,3.6h0.1l0.8-3.6h0.9
				L-461.9,213.6z"/>
			<path class="st1" d="M-459.5,208.9h0.9v0.8h0.1c0.2-0.6,0.8-0.9,1.4-0.8c0.9-0.1,1.6,0.6,1.7,1.4c0,0.1,0,0.2,0,0.3v3.1h-0.9
				v-2.8c0-0.8-0.3-1.1-1-1.1c-0.6,0-1.1,0.4-1.1,1c0,0.1,0,0.1,0,0.2v2.8h-0.9L-459.5,208.9z"/>
			<path class="st1" d="M-454,207h0.9v6.6h-0.9V207z"/>
			<path class="st1" d="M-451.7,211.2c-0.1-1.2,0.8-2.3,2-2.5c1.2-0.1,2.3,0.8,2.5,2c0,0.1,0,0.3,0,0.4c0.1,1.2-0.8,2.3-2,2.5
				c-1.2,0.1-2.3-0.8-2.5-2C-451.8,211.5-451.8,211.4-451.7,211.2z M-448.2,211.2c0-1-0.5-1.6-1.3-1.6c-0.8,0-1.3,0.6-1.3,1.6
				c0,1,0.5,1.6,1.3,1.6C-448.7,212.9-448.2,212.3-448.2,211.2z"/>
			<path class="st1" d="M-446.3,212.3c0-0.9,0.6-1.3,1.8-1.4l1.3-0.1v-0.4c0-0.5-0.3-0.8-1-0.8c-0.5,0-0.9,0.2-1,0.5h-0.9
				c0.1-0.8,0.9-1.3,1.9-1.3c1.2,0,1.9,0.6,1.9,1.6v3.2h-0.9v-0.7h-0.1c-0.3,0.5-0.9,0.8-1.4,0.7c-0.8,0.1-1.5-0.5-1.6-1.3
				C-446.3,212.4-446.3,212.3-446.3,212.3z M-443.2,211.9v-0.4l-1.2,0.1c-0.7,0-1,0.3-1,0.7c0,0.4,0.4,0.7,0.9,0.7
				C-443.8,213-443.3,212.5-443.2,211.9C-443.2,211.9-443.2,211.9-443.2,211.9z"/>
			<path class="st1" d="M-441.1,211.2c0-1.5,0.8-2.5,2-2.5c0.6,0,1.2,0.3,1.5,0.8h0.1V207h0.9v6.6h-0.9v-0.8h-0.1
				c-0.3,0.5-0.9,0.9-1.5,0.8C-440.3,213.7-441.1,212.7-441.1,211.2z M-440.1,211.2c0,1,0.5,1.6,1.3,1.6c0.8,0,1.3-0.6,1.3-1.6
				c0-1-0.5-1.6-1.3-1.6C-439.6,209.6-440.1,210.2-440.1,211.2L-440.1,211.2z"/>
			<path class="st1" d="M-432.8,211.2c-0.1-1.2,0.8-2.3,2-2.5c1.2-0.1,2.3,0.8,2.5,2c0,0.1,0,0.3,0,0.4c0.1,1.2-0.8,2.3-2,2.5
				c-1.2,0.1-2.3-0.8-2.5-2C-432.8,211.5-432.8,211.4-432.8,211.2z M-429.2,211.2c0-1-0.5-1.6-1.3-1.6c-0.8,0-1.3,0.6-1.3,1.6
				c0,1,0.5,1.6,1.3,1.6C-429.7,212.9-429.2,212.3-429.2,211.2z"/>
			<path class="st1" d="M-427,208.9h0.9v0.8h0.1c0.2-0.6,0.8-0.9,1.4-0.8c0.9-0.1,1.6,0.6,1.7,1.4c0,0.1,0,0.2,0,0.3v3.1h-0.9v-2.8
				c0-0.8-0.3-1.1-1-1.1c-0.6,0-1.1,0.4-1.1,1c0,0.1,0,0.1,0,0.2v2.8h-0.9V208.9z"/>
			<path class="st1" d="M-417.7,207.7v1.2h1v0.8h-1v2.4c0,0.5,0.2,0.7,0.7,0.7c0.1,0,0.2,0,0.4,0v0.8c-0.2,0-0.3,0-0.5,0
				c-1,0-1.5-0.4-1.5-1.3v-2.7h-0.8v-0.8h0.8v-1.2H-417.7z"/>
			<path class="st1" d="M-415.4,207h0.9v2.6h0.1c0.3-0.6,0.8-0.9,1.4-0.9c0.9,0,1.6,0.6,1.6,1.5c0,0.1,0,0.2,0,0.3v3.1h-0.9v-2.8
				c0-0.8-0.4-1.1-1-1.1c-0.6-0.1-1.1,0.4-1.2,1c0,0.1,0,0.1,0,0.2v2.8h-0.9L-415.4,207z"/>
			<path class="st1" d="M-405.8,212.3c-0.3,0.9-1.1,1.5-2.1,1.4c-1.2,0-2.2-0.9-2.2-2.1c0-0.1,0-0.2,0-0.4c-0.2-1.2,0.7-2.3,1.9-2.5
				c0.1,0,0.2,0,0.3,0c1.3,0,2.1,0.9,2.1,2.4v0.3h-3.4v0.1c-0.1,0.7,0.5,1.3,1.1,1.4c0,0,0.1,0,0.1,0c0.5,0.1,0.9-0.2,1.1-0.6
				L-405.8,212.3z M-409.1,210.8h2.4c0-0.6-0.4-1.2-1.1-1.2c0,0-0.1,0-0.1,0C-408.6,209.6-409.1,210.1-409.1,210.8
				C-409.1,210.8-409.1,210.8-409.1,210.8L-409.1,210.8z"/>
		</g>
	</g>
</g>
</svg>
