<?xml version="1.0" encoding="UTF-8"?>
<svg width="321px" height="68px" viewBox="0 0 321 68" version="1.1" xmlns="http://www.w3.org/2000/svg" xmlns:xlink="http://www.w3.org/1999/xlink">
    <!-- Generator: Sketch 51.2 (57519) - http://www.bohemiancoding.com/sketch -->
    <title>资源 21</title>
    <desc>Created with Sketch.</desc>
    <defs></defs>
    <g id="Page-2" stroke="none" stroke-width="1" fill="none" fill-rule="evenodd">
        <g id="资源-21" fill-rule="nonzero">
            <path d="M277.202406,2.54843776 C276.446674,1.79665953 275.557144,1.19300886 274.579699,0.768621554 C272.536899,-0.0904660595 270.23468,-0.0904660595 268.19188,0.768621554 C266.208715,1.61548812 264.629146,3.19669764 263.783158,5.18192147 C262.924961,7.22684264 262.924961,9.5314531 263.783158,11.5763743 C264.207105,12.5548343 264.810129,13.4452874 265.561128,14.2018045 C266.315496,14.9589728 267.208746,15.5632943 268.19188,15.9816207 C270.23244,16.8517638 272.539139,16.8517638 274.579699,15.9816207 C276.559958,15.1250177 278.135505,13.5391844 278.980376,11.5522139 C279.849616,9.50953498 279.849616,7.20043996 278.980376,5.15776107 C278.559786,4.18221461 277.956232,3.29644789 277.202406,2.54843776 Z" id="Shape" fill="#21252A"></path>
            <path d="M150.934361,24.3169591 L138.37594,24.3169591 C137.749359,24.3139475 137.178022,24.6753323 136.911729,25.2431078 L127.651805,45.2318129 C127.521109,45.5189665 127.234925,45.7032562 126.919699,45.7032562 C126.604473,45.7032562 126.318289,45.5189665 126.187594,45.2318129 L117.00812,25.2431078 C116.744178,24.6721907 116.172347,24.3073489 115.54391,24.3089056 L108.375714,24.3089056 C107.750188,24.3104871 107.182269,24.6748349 106.919549,25.2431078 L97.7561654,44.5714286 C97.6254701,44.8585822 97.3392862,45.0428719 97.0240602,45.0428719 C96.7088341,45.0428719 96.4226502,44.8585822 96.2919549,44.5714286 L87.4986466,25.2431078 C87.2370699,24.6690469 86.6647415,24.3007395 86.0344361,24.3008521 L73.3714286,24.3008521 C72.8114197,24.3011276 72.2918353,24.5928566 71.9996194,25.0710763 C71.7074035,25.5492961 71.6845944,26.14521 71.9393985,26.644411 L91.5533835,64.9467001 C91.8282555,65.4852175 92.3812991,65.8242308 92.9854135,65.824528 L100.885714,65.824528 C101.527532,65.8267653 102.10929,65.4469633 102.366015,64.8581119 L111.086917,44.7244444 C111.217613,44.4372908 111.503796,44.2530011 111.819023,44.2530011 C112.134249,44.2530011 112.420432,44.4372908 112.551128,44.7244444 L121.722556,64.8581119 C121.984133,65.4321728 122.556462,65.8004803 123.186767,65.8003676 L130.958346,65.8003676 C131.55605,65.8001817 132.104398,65.4683504 132.382331,64.9386466 L152.366391,26.6524645 C152.617349,26.1539255 152.592531,25.5608527 152.300802,25.08507 C152.009073,24.6092873 151.492037,24.3186485 150.934361,24.3169591 Z" id="Shape" fill="#21252A"></path>
            <path d="M199.261353,28.851061 C197.821338,27.1278189 196.011976,25.7514965 193.967669,24.8243275 C191.605637,23.8244198 189.057472,23.341166 186.493759,23.4069173 C184.034972,23.3545208 181.589466,23.7812192 179.293383,24.6632581 C176.904062,25.7743462 174.823834,27.4557426 173.235414,29.5597661 L173.235414,25.9276525 C173.235414,25.0380911 172.51503,24.3169591 171.626391,24.3169591 L160.210376,24.3169591 C159.321737,24.3169591 158.601353,25.0380911 158.601353,25.9276525 L158.601353,64.2138346 C158.601353,65.103396 159.321737,65.824528 160.210376,65.824528 L171.626391,65.824528 C172.51503,65.824528 173.235414,65.103396 173.235414,64.2138346 L173.235414,43.6533333 C173.235414,40.9097856 173.895113,38.7944082 175.214511,37.3072013 C176.53391,35.8199944 178.432556,35.076391 180.910451,35.076391 C181.79059,35.0705255 182.665726,35.2092779 183.500977,35.4871178 C184.325348,35.7651034 185.072402,36.2342214 185.681203,36.8562072 C186.492955,37.6960279 187.050779,38.7486183 187.290226,39.8923642 C187.621448,41.529847 187.769852,43.1991065 187.732707,44.8694069 L187.732707,64.1977277 C187.732707,65.0872891 188.453091,65.8084211 189.341729,65.8084211 L200.725564,65.8084211 C201.614203,65.8084211 202.334586,65.0872891 202.334586,64.1977277 L202.334586,39.4494236 C202.358237,37.4602723 202.14214,35.4755256 201.690977,33.5381788 C201.252488,31.8093553 200.421,30.2052875 199.261353,28.851061 Z" id="Shape" fill="#21252A"></path>
            <rect id="Rectangle-path" fill="#21252A" x="264.113008" y="24.3169591" width="14.6340602" height="41.5075689" rx="2"></rect>
            <path d="M33.7170677,1.66255639 C32.5500938,1.67718081 31.3846654,1.75244782 30.2254887,1.88805347 C29.1302642,2.01476968 28.3035826,2.94272258 28.3027068,4.04638262 L28.3027068,18.2768588 C28.3035035,18.9284083 28.5993733,19.5444567 29.107218,19.9519799 C29.6049174,20.3629058 30.259336,20.5311067 30.8932331,20.4110276 C32.1313811,20.1589667 33.3978031,20.0749927 34.6583459,20.1613701 C41.7219549,20.5962573 47.9166917,26.9504428 48.222406,34.0374937 C48.3423722,42.0435463 41.9561686,48.6310872 33.9584211,48.7511779 C25.9606735,48.8712687 19.3799662,42.4784336 19.26,34.472381 L19.26,11.278396 C19.2735549,9.93832207 18.5134983,8.71071587 17.3086039,8.1265968 C16.1037095,7.54247773 14.6703012,7.70671709 13.6284211,8.54827068 C0.855608874,18.4224975 -2.90455931,36.0982784 4.7412213,50.3251774 C12.3870019,64.5520764 29.1933891,71.1520693 44.4633062,65.9243346 C59.7332233,60.6966 68.9823422,45.1763708 66.3237025,29.2420984 C63.6650628,13.307826 49.8794294,1.63894053 33.741203,1.66255639 L33.7170677,1.66255639 Z" id="Shape" fill="#0D80FE"></path>
            <path d="M318.280752,52.9389808 C316.182987,53.9760577 313.898686,54.581273 311.563083,54.718797 C310.194985,54.815233 308.830268,54.48916 307.653158,53.7845948 C306.833307,53.249363 306.255661,52.4137977 306.044135,51.4571429 C305.834848,50.2473475 305.740567,49.0204197 305.762556,47.7928154 L305.762556,36.4535338 L317.830226,36.4535338 C318.718864,36.4535338 319.439248,35.7324018 319.439248,34.8428404 L319.439248,25.6860485 C319.439248,24.7964871 318.718864,24.0753551 317.830226,24.0753551 L305.762556,24.0753551 L305.762556,13.5575272 C305.762556,12.6679657 305.042172,11.9468338 304.153534,11.9468338 L285.448647,31.041604 C285.151389,31.3416128 284.983807,31.7465403 284.98203,32.1690894 L284.98203,34.8428404 C284.98203,35.7324018 285.702414,36.4535338 286.591053,36.4535338 L291.41812,36.4535338 L291.41812,51.0142022 C291.41812,61.0971429 296.569674,66.1359287 306.872782,66.1305597 C309.400806,66.1123097 311.916761,65.7795666 314.362782,65.1399833 C316.116699,64.7223967 317.83976,64.1842221 319.519699,63.5292899 C320.11694,63.2760796 320.503915,62.6886644 320.501203,62.0393985 L320.501203,54.4691395 C320.514877,53.9249201 320.253008,53.4106127 319.805062,53.1019235 C319.357115,52.7932343 318.783714,52.7319399 318.280752,52.9389808 Z" id="Shape" fill="#21252A"></path>
            <path d="M226.87218,24.5988304 L226.87218,4.27736007 C226.87218,3.38779867 226.151797,2.66666667 225.263158,2.66666667 L213.887368,2.66666667 C212.99873,2.66666667 212.278346,3.38779867 212.278346,4.27736007 L212.278346,45.1512782 C212.273518,54.3703523 218.076737,62.5904348 226.759549,65.6634586 C235.026516,68.4834763 244.075101,66.2054805 249.926657,59.8594578 C255.778212,53.5134352 257.323475,44.3023819 253.863761,36.391038 C250.404048,28.4796941 242.595205,23.3677891 233.96797,23.36665 C231.574106,23.4001045 229.164299,23.8030637 226.87218,24.5988304 Z M242.849774,48.9203008 C242.346569,50.0590078 241.643577,51.0982247 240.774135,51.9886717 C239.917967,52.8769082 238.891951,53.5835403 237.757218,54.0664662 C236.575999,54.5652538 235.306288,54.8200075 234.024286,54.8154386 C232.724159,54.8139517 231.438787,54.5396007 230.251128,54.0100919 C229.100539,53.512727 228.050743,52.8084971 227.153759,51.9322974 C226.262152,51.0740563 225.553352,50.0439973 225.070075,48.9041938 C224.072698,46.4990153 224.087202,43.7926903 225.110301,41.3983626 C225.612651,40.2452497 226.318494,39.192206 227.193985,38.2897243 C228.048713,37.3997876 229.075098,36.6929012 230.210902,36.2119298 C231.39007,35.7165418 232.657003,35.4645356 233.935789,35.4710109 C235.252508,35.4624774 236.555701,35.7371187 237.757218,36.2763576 C238.896288,36.7906973 239.932243,37.5084318 240.814361,38.3944194 C242.632495,40.2226996 243.648605,42.7004088 243.638195,45.2801337 C243.643841,46.5348576 243.380469,47.7761872 242.865865,48.9203008 L242.849774,48.9203008 Z" id="Shape" fill="#21252A"></path>
        </g>
    </g>
</svg>