<?xml version="1.0" encoding="utf-8"?>
<!-- Generator: Adobe Illustrator 16.0.4, SVG Export Plug-In . SVG Version: 6.00 Build 0)  -->
<!DOCTYPE svg PUBLIC "-//W3C//DTD SVG 1.1//EN" "http://www.w3.org/Graphics/SVG/1.1/DTD/svg11.dtd">
<svg version="1.1" id="Layer_1" xmlns="http://www.w3.org/2000/svg" xmlns:xlink="http://www.w3.org/1999/xlink" x="0px" y="0px"
	 width="400px" height="400px" viewBox="0 0 400 400" enable-background="new 0 0 400 400" xml:space="preserve">
<g>
	<path fill="#FFFFFF" d="M354.896,384.861l-17.687-17.688V138.49l-3.247-3.247l-29.422-29.422V3.985H43.187v339.759h32.669v32.67
		h252.115l17.688,17.686c1.274,1.275,2.946,1.916,4.619,1.916s3.346-0.641,4.619-1.916
		C357.452,391.545,357.452,387.416,354.896,384.861z M314.904,134.661h-75.702V58.96l65.339,65.338L314.904,134.661z
		 M56.254,330.678V17.053h235.219v75.701L238.62,39.901l-3.247-3.248H75.856v294.024H56.254z M88.924,363.346v-19.602V49.722
		h137.211v98.007h98.008v206.378l-49.096-49.096c11.369-13.461,18.262-30.82,18.262-49.781c0-42.613-34.668-77.282-77.283-77.282
		c-42.613,0-77.281,34.669-77.281,77.282s34.668,77.281,77.281,77.281c18.962,0,36.323-6.893,49.782-18.262l49.097,49.096H88.924z
		 M216.025,319.445c-35.406,0-64.213-28.809-64.213-64.215s28.807-64.214,64.213-64.214c35.408,0,64.217,28.808,64.217,64.214
		S251.434,319.445,216.025,319.445z"/>
	<path fill="#FFFFFF" d="M177.947,239.203h39.203c3.613,0,6.534-2.92,6.534-6.535c0-3.612-2.921-6.533-6.534-6.533h-39.203
		c-3.614,0-6.534,2.921-6.534,6.533C171.414,236.283,174.333,239.203,177.947,239.203z"/>
	<path fill="#FFFFFF" d="M256.354,265.338h-78.406c-3.614,0-6.534,2.922-6.534,6.535s2.92,6.533,6.534,6.533h78.406
		c3.613,0,6.534-2.92,6.534-6.533S259.967,265.338,256.354,265.338z"/>
</g>
</svg>
